<!-- Generated by IcoMoon.io -->
<svg version="1.1" xmlns="http://www.w3.org/2000/svg" width="32" height="32" viewBox="0 0 32 32">
<title>arrow-ctrl-down</title>
<path d="M26.433 11.043c0.127-0.12 0.277-0.214 0.441-0.277s0.338-0.092 0.513-0.087c0.175 0.005 0.347 0.044 0.507 0.116s0.304 0.174 0.424 0.301 0.214 0.277 0.277 0.441c0.062 0.164 0.092 0.338 0.087 0.513s-0.045 0.347-0.116 0.507-0.174 0.304-0.301 0.424l-12 11.333c-0.248 0.234-0.575 0.364-0.916 0.364s-0.668-0.13-0.916-0.364l-12.001-11.333c-0.13-0.12-0.235-0.264-0.309-0.424s-0.115-0.334-0.121-0.51c-0.006-0.177 0.023-0.353 0.085-0.518s0.157-0.316 0.278-0.445c0.121-0.128 0.267-0.232 0.428-0.303s0.336-0.111 0.512-0.114c0.177-0.004 0.352 0.027 0.517 0.092s0.314 0.161 0.441 0.284l11.087 10.469 11.084-10.469z"></path>
</svg>
