<!-- Generated by IcoMoon.io -->
<svg version="1.1" xmlns="http://www.w3.org/2000/svg" width="32" height="32" viewBox="0 0 32 32">
<title>facebook</title>
<path fill="none" stroke-linejoin="round" stroke-linecap="round" stroke-miterlimit="4" stroke-width="1.1636" stroke="#000" d="M4.364 25.79v-20.308c0-0.49 0.194-0.959 0.541-1.305s0.816-0.541 1.305-0.541h20.308c0.49 0 0.959 0.195 1.305 0.541s0.541 0.816 0.541 1.305v20.308c0 0.49-0.194 0.959-0.541 1.305s-0.816 0.541-1.305 0.541h-5.538v-8.751h1.311c0.299 0 0.585-0.119 0.796-0.33s0.33-0.498 0.33-0.796v-1.422c0-0.299-0.119-0.585-0.33-0.796s-0.498-0.33-0.796-0.33h-1.237v-1.735c0-1.551 0.702-1.551 1.403-1.551h0.905c0.149 0.006 0.297-0.021 0.434-0.078s0.26-0.144 0.36-0.254c0.107-0.102 0.192-0.225 0.249-0.362s0.085-0.284 0.083-0.432v-1.366c0.005-0.15-0.020-0.3-0.073-0.441s-0.133-0.27-0.236-0.379c-0.103-0.11-0.226-0.198-0.363-0.26s-0.285-0.096-0.435-0.101h-2.123c-0.619-0.023-1.237 0.088-1.809 0.327s-1.086 0.598-1.505 1.055c-0.419 0.456-0.735 0.998-0.925 1.589s-0.249 1.215-0.174 1.83v2.16h-1.182c-0.149-0.002-0.298 0.025-0.437 0.080s-0.265 0.138-0.372 0.243-0.191 0.23-0.249 0.368c-0.058 0.138-0.088 0.286-0.088 0.435v1.422c0 0.149 0.030 0.297 0.088 0.435s0.142 0.263 0.249 0.368c0.107 0.105 0.233 0.187 0.372 0.243s0.287 0.083 0.437 0.080h1.182v8.751h-10.634c-0.49 0-0.959-0.194-1.305-0.541s-0.541-0.816-0.541-1.305z"></path>
</svg>
