<!-- Generated by IcoMoon.io -->
<svg version="1.1" xmlns="http://www.w3.org/2000/svg" width="32" height="32" viewBox="0 0 32 32">
<title>instagram</title>
<path d="M24.583 27.916h-17.165c-0.884 0-1.732-0.351-2.357-0.976s-0.976-1.473-0.976-2.357v-17.165c0-0.884 0.351-1.732 0.976-2.357s1.473-0.976 2.357-0.976h17.165c0.884 0 1.732 0.351 2.357 0.976s0.976 1.473 0.976 2.357v17.165c0 0.884-0.351 1.732-0.976 2.357s-1.473 0.976-2.357 0.976zM7.417 5.417c-0.53 0-1.039 0.211-1.414 0.586s-0.586 0.884-0.586 1.414v17.165c0 0.53 0.211 1.039 0.586 1.414s0.884 0.586 1.414 0.586h17.165c0.53 0 1.039-0.211 1.414-0.586s0.586-0.884 0.586-1.414v-17.165c0-0.53-0.211-1.039-0.586-1.414s-0.884-0.586-1.414-0.586h-17.165z"></path>
<path d="M16 22.125c-1.212-0.001-2.395-0.362-3.402-1.036s-1.791-1.631-2.254-2.751c-0.463-1.12-0.583-2.351-0.346-3.54s0.821-2.279 1.679-3.135c0.857-0.856 1.949-1.439 3.137-1.675s2.42-0.114 3.539 0.35c1.119 0.464 2.075 1.25 2.748 2.257s1.032 2.192 1.031 3.403c-0.002 1.625-0.649 3.183-1.799 4.332s-2.709 1.794-4.334 1.794zM16 11.2c-0.947 0.001-1.873 0.283-2.66 0.811s-1.401 1.276-1.763 2.152c-0.362 0.876-0.456 1.839-0.271 2.768s0.642 1.783 1.312 2.453c0.67 0.67 1.524 1.126 2.453 1.311s1.892 0.091 2.768-0.271c0.876-0.362 1.624-0.975 2.151-1.763s0.809-1.713 0.811-2.66c0-1.273-0.506-2.494-1.406-3.394s-2.121-1.406-3.394-1.406z"></path>
<path d="M22.933 10.54c0.792 0 1.433-0.642 1.433-1.433s-0.642-1.433-1.433-1.433c-0.792 0-1.433 0.642-1.433 1.433s0.642 1.433 1.433 1.433z"></path>
</svg>
