<!-- Generated by IcoMoon.io -->
<svg version="1.1" xmlns="http://www.w3.org/2000/svg" width="32" height="32" viewBox="0 0 32 32">
<title>jorney</title>
<path d="M9.012 0.125c-0.619 0.162-1.087 0.438-1.581 0.931-0.594 0.6-0.869 1.188-1.025 2.206-0.031 0.206-0.056 0.237-0.206 0.237-0.094 0-0.319 0.044-0.494 0.087-1.287 0.344-2.275 1.394-2.55 2.706-0.138 0.638-0.138 22.275 0 22.912 0.144 0.675 0.438 1.2 0.969 1.731 0.537 0.544 0.919 0.762 1.6 0.938 0.469 0.119 0.719 0.125 8.619 0.125 7.913 0 8.15-0.006 8.619-0.125 0.637-0.163 1.1-0.431 1.606-0.931 0.594-0.6 0.869-1.188 1.025-2.212 0.031-0.2 0.056-0.231 0.206-0.231 0.094 0 0.319-0.044 0.494-0.088 0.994-0.263 1.881-1.012 2.306-1.944 0.356-0.769 0.344-0.256 0.325-12.425l-0.019-11.2-0.137-0.413c-0.363-1.050-1.212-1.9-2.263-2.263l-0.412-0.138-8.313-0.013c-8.037-0.013-8.325-0.006-8.769 0.106zM26.069 1.288c0.413 0.125 0.925 0.456 1.15 0.75 0.088 0.119 0.238 0.375 0.331 0.575l0.169 0.356v22.688l-0.163 0.344c-0.325 0.681-1 1.219-1.694 1.337l-0.238 0.044v-17.569l-1.794-2.019c-0.994-1.106-2.225-2.494-2.75-3.081s-1.025-1.1-1.113-1.138c-0.119-0.056-1.731-0.075-6.287-0.075h-6.119l0.037-0.269c0.144-0.938 0.775-1.669 1.681-1.956 0.194-0.063 1.988-0.081 8.35-0.081 7.275-0.006 8.131 0.006 8.438 0.094zM19.125 7.475v2.788l0.363 0.363h4.95l-0.012 9.238-0.019 9.231-0.2 0.406c-0.356 0.719-0.981 1.181-1.769 1.306-0.512 0.088-15.613 0.094-16.175 0.012-0.8-0.119-1.537-0.694-1.838-1.431l-0.144-0.356-0.019-11.119c-0.019-12.375-0.044-11.563 0.412-12.219 0.287-0.425 0.575-0.656 1.050-0.85l0.369-0.156h13.031v2.788zM22 7.5c0.837 0.944 1.563 1.769 1.612 1.825 0.088 0.106 0.006 0.113-1.6 0.113h-1.7v-1.919c0-1.619 0.012-1.906 0.088-1.831 0.044 0.050 0.762 0.869 1.6 1.812z"></path>
<path d="M7.15 9.506c-0.362 0.106-0.519 0.431-0.369 0.781 0.044 0.112 0.137 0.231 0.206 0.269 0.088 0.044 1.038 0.069 2.919 0.069h2.794l0.181-0.181c0.244-0.244 0.244-0.5 0-0.769l-0.181-0.206-2.681-0.012c-1.475-0.006-2.763 0.019-2.869 0.050z"></path>
<path d="M7.019 13.45c-0.181 0.087-0.344 0.444-0.294 0.637 0.019 0.081 0.106 0.219 0.194 0.3l0.156 0.144h14.3l0.163-0.162c0.225-0.225 0.225-0.575 0-0.8l-0.163-0.163-7.112-0.012c-4.937-0.006-7.15 0.006-7.244 0.056z"></path>
<path d="M7.125 16.294c-0.312 0.119-0.475 0.438-0.369 0.75 0.138 0.419-0.312 0.394 7.456 0.394 5.019 0 7.075-0.019 7.181-0.069 0.144-0.063 0.238-0.2 0.313-0.438 0.019-0.050-0.006-0.188-0.056-0.294-0.169-0.406 0.2-0.387-7.475-0.381-3.825 0-7 0.019-7.050 0.038z"></path>
<path d="M6.987 19.281c-0.2 0.113-0.325 0.45-0.244 0.663 0.031 0.081 0.119 0.206 0.194 0.275 0.137 0.125 0.225 0.125 7.287 0.125h7.15l0.156-0.163c0.275-0.269 0.2-0.769-0.137-0.925-0.106-0.050-2.156-0.069-7.194-0.069-6.031 0.006-7.069 0.019-7.213 0.094z"></path>
<path d="M7.094 22.119c-0.412 0.169-0.494 0.656-0.169 0.95l0.2 0.181h14.188l0.194-0.175c0.256-0.231 0.269-0.575 0.031-0.819l-0.163-0.163-7.081-0.012c-3.888-0.006-7.131 0.012-7.2 0.038z"></path>
<path d="M7.156 24.919c-0.325 0.081-0.513 0.444-0.394 0.781 0.125 0.356 0.156 0.363 3.169 0.363h2.75l0.175-0.15c0.244-0.212 0.244-0.594 0-0.837l-0.169-0.169-2.706-0.012c-1.481 0-2.756 0.006-2.825 0.025z"></path>
</svg>
