<!-- Generated by IcoMoon.io -->
<svg version="1.1" xmlns="http://www.w3.org/2000/svg" width="32" height="32" viewBox="0 0 32 32">
<title>arrow-left</title>
<path d="M16.006 26.759c0.519-0.518 0.519-1.367 0-1.886l-7.156-7.156h16.744c0.175 0 0.347-0.034 0.509-0.101s0.308-0.165 0.431-0.288c0.123-0.123 0.221-0.27 0.288-0.431s0.101-0.334 0.101-0.509c0-0.174-0.034-0.347-0.101-0.509s-0.165-0.308-0.288-0.431c-0.123-0.123-0.27-0.221-0.431-0.288s-0.334-0.101-0.509-0.101h-16.744l7.156-7.156c0.519-0.519 0.519-1.367 0-1.886s-1.367-0.519-1.886 0l-9.428 9.428c-0.519 0.519-0.519 1.367 0 1.886l9.428 9.428c0.518 0.519 1.367 0.519 1.886 0z"></path>
</svg>
