<!-- Generated by IcoMoon.io -->
<svg version="1.1" xmlns="http://www.w3.org/2000/svg" width="32" height="32" viewBox="0 0 32 32">
<title>arrow-up-right</title>
<path d="M8 9.333c0 0.733 0.6 1.333 1.333 1.333h10.12l-11.84 11.84c-0.123 0.123-0.221 0.27-0.288 0.431s-0.101 0.334-0.101 0.509 0.034 0.347 0.101 0.509c0.067 0.161 0.165 0.308 0.288 0.431s0.27 0.221 0.431 0.288c0.161 0.067 0.334 0.101 0.509 0.101s0.347-0.034 0.509-0.101c0.161-0.067 0.308-0.165 0.431-0.288l11.84-11.84v10.12c0 0.733 0.6 1.333 1.333 1.333s1.333-0.6 1.333-1.333v-13.333c0-0.733-0.6-1.333-1.333-1.333h-13.333c-0.733 0-1.333 0.6-1.333 1.333z"></path>
</svg>
