<svg width="21" height="16" viewBox="0 0 21 16" fill="none" xmlns="http://www.w3.org/2000/svg">
<path d="M12.2055 2.795C12.095 2.69201 12.0063 2.56781 11.9448 2.42981C11.8833 2.29181 11.8503 2.14284 11.8476 1.99179C11.8449 1.84073 11.8727 1.69069 11.9293 1.5506C11.9859 1.41052 12.0701 1.28327 12.1769 1.17644C12.2838 1.06962 12.411 0.985399 12.5511 0.928817C12.6912 0.872236 12.8412 0.844449 12.9923 0.847114C13.1433 0.849779 13.2923 0.882842 13.4303 0.94433C13.5683 1.00582 13.6925 1.09447 13.7955 1.205L19.7955 7.205C20.0062 7.41594 20.1245 7.70188 20.1245 8C20.1245 8.29813 20.0062 8.58406 19.7955 8.795L13.7955 14.795C13.6925 14.9055 13.5683 14.9942 13.4303 15.0557C13.2923 15.1172 13.1433 15.1502 12.9923 15.1529C12.8412 15.1556 12.6912 15.1278 12.5511 15.0712C12.411 15.0146 12.2838 14.9304 12.1769 14.8236C12.0701 14.7167 11.9859 14.5895 11.9293 14.4494C11.8727 14.3093 11.8449 14.1593 11.8476 14.0082C11.8503 13.8572 11.8833 13.7082 11.9448 13.5702C12.0063 13.4322 12.095 13.308 12.2055 13.205L16.2855 9.125L1.7505 9.125C1.45214 9.125 1.16599 9.00647 0.955008 8.7955C0.744028 8.58452 0.625504 8.29837 0.625504 8C0.625504 7.70163 0.744028 7.41549 0.955008 7.20451C1.16599 6.99353 1.45214 6.875 1.7505 6.875L16.2855 6.875L12.2055 2.795Z" fill="#0E0E0E"/>
</svg>
