<!-- Generated by IcoMoon.io -->
<svg version="1.1" xmlns="http://www.w3.org/2000/svg" width="32" height="32" viewBox="0 0 32 32">
<title>burger-menu</title>
<path d="M5.333 7.111c-0.491 0-0.889 0.398-0.889 0.889v0c0 0.491 0.398 0.889 0.889 0.889v0h21.333c0.491 0 0.889-0.398 0.889-0.889v0c0-0.491-0.398-0.889-0.889-0.889v0zM5.333 15.111c-0.491 0-0.889 0.398-0.889 0.889v0c0 0.491 0.398 0.889 0.889 0.889v0h21.333c0.491 0 0.889-0.398 0.889-0.889v0c0-0.491-0.398-0.889-0.889-0.889v0zM5.333 23.111c-0.491 0-0.889 0.398-0.889 0.889v0c0 0.491 0.398 0.889 0.889 0.889v0h21.333c0.491 0 0.889-0.398 0.889-0.889v0c0-0.491-0.398-0.889-0.889-0.889v0z"></path>
</svg>
