<svg width="18" height="18" viewBox="0 0 18 18" fill="none" xmlns="http://www.w3.org/2000/svg">
<path d="M17 9C17 11.1217 16.1571 13.1566 14.6569 14.6569C13.1566 16.1571 11.1217 17 9 17M17 9C17 6.87827 16.1571 4.84344 14.6569 3.34315C13.1566 1.84285 11.1217 1 9 1M17 9H1M9 17C6.87827 17 4.84344 16.1571 3.34315 14.6569C1.84285 13.1566 1 11.1217 1 9M9 17C10.7182 17 12.1111 13.4178 12.1111 9C12.1111 4.58222 10.7182 1 9 1M9 17C7.28178 17 5.88889 13.4178 5.88889 9C5.88889 4.58222 7.28178 1 9 1M9 1C6.87827 1 4.84344 1.84285 3.34315 3.34315C1.84285 4.84344 1 6.87827 1 9" stroke="#0E0E0E" stroke-width="1.5" stroke-linejoin="round"/>
</svg>
