<!-- Generated by IcoMoon.io -->
<svg version="1.1" xmlns="http://www.w3.org/2000/svg" width="32" height="32" viewBox="0 0 32 32">
<title>facebook</title>
<path d="M4.719 2c-0.721 0-1.412 0.287-1.922 0.797s-0.797 1.201-0.797 1.922v22.563c0 0.721 0.287 1.412 0.797 1.922s1.201 0.797 1.922 0.797h11.814c0.368 0 0.667-0.299 0.667-0.667v0-9.724c0-0.368-0.299-0.667-0.667-0.667h-1.313c-0.007 0.001-0.011 0.002-0.014 0.002l0.004-0.001c-0.078 0.001-0.156-0.013-0.227-0.042s-0.137-0.072-0.193-0.127c-0.055-0.054-0.098-0.119-0.128-0.191s-0.047-0.148-0.047-0.226v-1.58c0-0.078 0.017-0.154 0.047-0.226s0.073-0.136 0.128-0.191c0.055-0.055 0.121-0.098 0.193-0.127s0.15-0.043 0.227-0.042c0.002 0 0.003 0 0.005 0s0.004 0 0.005 0h1.312c0.368 0 0.667-0.299 0.667-0.667v0-2.399c0-0.029-0.002-0.057-0.006-0.085v0.003c-0.072-0.588-0.014-1.184 0.167-1.748s0.483-1.081 0.884-1.517c0.401-0.436 0.891-0.781 1.438-1.009s1.137-0.333 1.729-0.311c0.004 0 0.008 0 0.012 0s0.009 0 0.013 0h2.338c0.080 0.003 0.157 0.019 0.229 0.052s0.139 0.081 0.193 0.139c0.054 0.058 0.097 0.125 0.125 0.2s0.041 0.153 0.038 0.233c0 0.003 0 0.007 0 0.011s0 0.008 0 0.012v-0.001 1.517c0 0.002 0 0.004 0 0.006s0 0.004 0 0.006v0c0.001 0.072-0.014 0.143-0.042 0.21s-0.069 0.127-0.122 0.177c-0.011 0.011-0.022 0.022-0.032 0.034l-0.001 0.001c-0.046 0.050-0.103 0.090-0.165 0.116s-0.129 0.038-0.196 0.035c-0.004 0-0.009 0-0.014 0s-0.010 0-0.015 0h-1.005c-0.39 0-0.947-0.038-1.467 0.345s-0.759 1.083-0.759 2.045v1.927c0 0.368 0.299 0.667 0.667 0.667h1.375c0.155 0 0.303 0.062 0.413 0.172s0.17 0.258 0.17 0.413v1.58c0 0.155-0.060 0.303-0.17 0.413s-0.258 0.17-0.413 0.17h-1.457c-0.368 0-0.667 0.299-0.667 0.667v0 9.724c0 0.368 0.299 0.667 0.667 0.667h6.153c0.721 0 1.412-0.287 1.922-0.797s0.797-1.201 0.797-1.922v-22.563c0-0.721-0.287-1.412-0.797-1.922s-1.201-0.797-1.922-0.797zM4.719 3.333h22.563c0.367 0 0.719 0.146 0.979 0.406s0.406 0.612 0.406 0.979v22.563c0 0.367-0.146 0.719-0.406 0.979s-0.612 0.406-0.979 0.406h-5.486v-8.391h0.79c0.508 0 0.996-0.201 1.356-0.561s0.561-0.847 0.561-1.356v-1.58c0-0.508-0.201-0.996-0.561-1.356s-0.848-0.563-1.356-0.563h-0.708v-1.26c0-0.761 0.153-0.925 0.217-0.972s0.286-0.085 0.675-0.085h0.977c0.263 0.011 0.525-0.037 0.767-0.139 0.236-0.099 0.444-0.249 0.618-0.436 0.177-0.173 0.321-0.378 0.417-0.606 0.099-0.237 0.149-0.491 0.144-0.748v-1.484c0.008-0.255-0.035-0.51-0.125-0.748s-0.225-0.457-0.399-0.642c-0.174-0.186-0.383-0.334-0.615-0.439s-0.483-0.164-0.738-0.172c-0.003 0-0.007 0-0.010 0s-0.007 0-0.011 0h-2.333c-0.785-0.029-1.567 0.111-2.292 0.413s-1.377 0.759-1.908 1.337c-0.531 0.578-0.93 1.264-1.17 2.012s-0.316 1.538-0.22 2.318l-0.005-0.080v1.733h-0.635c-0.254-0.004-0.506 0.042-0.743 0.137s-0.452 0.235-0.634 0.413c-0.181 0.178-0.325 0.392-0.424 0.627s-0.149 0.487-0.149 0.741v1.58c0 0.254 0.051 0.506 0.149 0.741s0.242 0.447 0.424 0.625c0.181 0.178 0.397 0.32 0.634 0.415s0.489 0.14 0.743 0.135h0.635v8.391h-11.148c-0.367 0-0.719-0.146-0.979-0.406s-0.406-0.612-0.406-0.979v-22.563c0-0.367 0.146-0.719 0.406-0.979s0.612-0.406 0.979-0.406z"></path>
</svg>
