<svg width="32" height="32" viewBox="0 0 32 32" fill="none" xmlns="http://www.w3.org/2000/svg">
<path d="M1 28.6923V3.30769C1 2.69565 1.24313 2.10868 1.67591 1.67591C2.10868 1.24313 2.69565 1 3.30769 1H28.6923C29.3043 1 29.8913 1.24313 30.3241 1.67591C30.7569 2.10868 31 2.69565 31 3.30769V28.6923C31 29.3043 30.7569 29.8913 30.3241 30.3241C29.8913 30.7569 29.3043 31 28.6923 31H21.7692V20.0615H23.4077C23.781 20.0615 24.1391 19.9132 24.4031 19.6492C24.6671 19.3852 24.8154 19.0272 24.8154 18.6538V16.8769C24.8154 16.5036 24.6671 16.1455 24.4031 15.8815C24.1391 15.6175 23.781 15.4692 23.4077 15.4692H21.8615V13.3C21.8615 11.3615 22.7385 11.3615 23.6154 11.3615H24.7462C24.9319 11.3692 25.117 11.336 25.2885 11.2642C25.46 11.1924 25.6136 11.0838 25.7385 10.9462C25.8726 10.8185 25.9787 10.6644 26.0502 10.4936C26.1217 10.3228 26.157 10.139 26.1538 9.95385V8.24615C26.16 8.05824 26.1291 7.87095 26.0628 7.695C25.9965 7.51905 25.8962 7.35788 25.7676 7.22072C25.6391 7.08355 25.4847 6.97308 25.3134 6.89561C25.1421 6.81814 24.9572 6.77519 24.7692 6.76923H22.1154C21.341 6.74012 20.5696 6.87945 19.8543 7.17759C19.1391 7.47574 18.4971 7.92559 17.9727 8.49608C17.4483 9.06657 17.0539 9.7441 16.8169 10.4819C16.58 11.2196 16.5059 12.0001 16.6 12.7692V15.4692H15.1231C14.9363 15.4662 14.7507 15.5003 14.5773 15.5697C14.4038 15.6391 14.2459 15.7423 14.1127 15.8733C13.9796 16.0043 13.8738 16.1605 13.8016 16.3328C13.7294 16.5051 13.6923 16.6901 13.6923 16.8769V18.6538C13.6923 18.8407 13.7294 19.0256 13.8016 19.1979C13.8738 19.3702 13.9796 19.5265 14.1127 19.6575C14.2459 19.7885 14.4038 19.8917 14.5773 19.9611C14.7507 20.0305 14.9363 20.0646 15.1231 20.0615H16.6V31H3.30769C2.69565 31 2.10868 30.7569 1.67591 30.3241C1.24313 29.8913 1 29.3043 1 28.6923Z" stroke="#0E0E0E" stroke-width="1.5" stroke-linecap="round" stroke-linejoin="round"/>
</svg>
