<!-- Generated by IcoMoon.io -->
<svg version="1.1" xmlns="http://www.w3.org/2000/svg" width="32" height="32" viewBox="0 0 32 32">
<title>globe</title>
<path d="M16 7.25c-2.32 0-4.547 0.922-6.188 2.563s-2.563 3.867-2.563 6.188 0.922 4.547 2.563 6.188c1.641 1.641 3.867 2.563 6.188 2.563s4.547-0.922 6.188-2.563c1.641-1.641 2.563-3.867 2.563-6.188s-0.922-4.547-2.563-6.188c-1.641-1.641-3.867-2.563-6.188-2.563zM16 8.75c0.169 0 0.378 0.082 0.658 0.387s0.584 0.815 0.842 1.479c0.452 1.161 0.73 2.821 0.803 4.635h-4.605c0.073-1.813 0.351-3.473 0.803-4.635 0.258-0.664 0.562-1.174 0.842-1.479s0.489-0.387 0.658-0.387zM13.592 9.23c-0.157 0.29-0.359 0.503-0.49 0.842-0.539 1.386-0.833 3.203-0.904 5.178h-3.299c0.176-1.638 0.799-3.201 1.975-4.377 0.77-0.77 1.712-1.285 2.719-1.643zM18.408 9.23c1.007 0.357 1.949 0.873 2.719 1.643 1.176 1.176 1.799 2.739 1.975 4.377h-3.299c-0.071-1.975-0.365-3.792-0.904-5.178-0.132-0.338-0.333-0.552-0.49-0.842zM8.898 16.75h3.299c0.071 1.975 0.365 3.792 0.904 5.178 0.132 0.338 0.333 0.552 0.49 0.842-1.007-0.357-1.949-0.873-2.719-1.643-1.176-1.176-1.799-2.739-1.975-4.377zM13.697 16.75h4.605c-0.073 1.813-0.351 3.473-0.803 4.635-0.258 0.664-0.562 1.174-0.842 1.479s-0.489 0.387-0.658 0.387c-0.169 0-0.378-0.082-0.658-0.387s-0.584-0.815-0.842-1.479c-0.452-1.161-0.73-2.821-0.803-4.635zM19.803 16.75h3.299c-0.176 1.638-0.799 3.201-1.975 4.377-0.77 0.77-1.712 1.285-2.719 1.643 0.157-0.29 0.359-0.503 0.49-0.842 0.539-1.386 0.833-3.203 0.904-5.178z"></path>
</svg>
