<svg width="836" height="64" viewBox="0 0 836 64" fill="none" xmlns="http://www.w3.org/2000/svg">
<path d="M774 46C774 46.55 774.45 47 775 47H782.59L773.71 55.88C773.617 55.9726 773.544 56.0825 773.494 56.2035C773.444 56.3244 773.418 56.4541 773.418 56.585C773.418 56.7159 773.444 56.8456 773.494 56.9665C773.544 57.0875 773.617 57.1974 773.71 57.29C773.803 57.3826 773.912 57.456 774.033 57.5061C774.154 57.5562 774.284 57.582 774.415 57.582C774.546 57.582 774.676 57.5562 774.797 57.5061C774.917 57.456 775.027 57.3826 775.12 57.29L784 48.41V56C784 56.55 784.45 57 785 57C785.55 57 786 56.55 786 56V46C786 45.45 785.55 45 785 45H775C774.45 45 774 45.45 774 46Z" fill="#333333"/>
<path d="M580 57.6923V43.3077C580 42.9609 580.138 42.6283 580.383 42.383C580.628 42.1378 580.961 42 581.308 42H595.692C596.039 42 596.372 42.1378 596.617 42.383C596.862 42.6283 597 42.9609 597 43.3077V57.6923C597 58.0391 596.862 58.3717 596.617 58.617C596.372 58.8622 596.039 59 595.692 59H591.769V52.8015H592.698C592.909 52.8015 593.112 52.7175 593.262 52.5679C593.411 52.4183 593.495 52.2154 593.495 52.0038V50.9969C593.495 50.7854 593.411 50.5825 593.262 50.4329C593.112 50.2833 592.909 50.1992 592.698 50.1992H591.822V48.97C591.822 47.8715 592.318 47.8715 592.815 47.8715H593.456C593.561 47.8759 593.666 47.857 593.763 47.8164C593.861 47.7757 593.948 47.7142 594.018 47.6362C594.094 47.5638 594.155 47.4765 594.195 47.3797C594.236 47.2829 594.256 47.1788 594.254 47.0738V46.1062C594.257 45.9997 594.24 45.8935 594.202 45.7938C594.165 45.6941 594.108 45.6028 594.035 45.5251C593.962 45.4473 593.875 45.3847 593.778 45.3408C593.68 45.2969 593.576 45.2726 593.469 45.2692H591.965C591.527 45.2527 591.089 45.3317 590.684 45.5006C590.279 45.6696 589.915 45.9245 589.618 46.2478C589.321 46.5711 589.097 46.955 588.963 47.3731C588.829 47.7911 588.787 48.2334 588.84 48.6692V50.1992H588.003C587.897 50.1975 587.792 50.2168 587.694 50.2562C587.596 50.2955 587.506 50.3539 587.431 50.4282C587.355 50.5024 587.295 50.591 587.254 50.6886C587.213 50.7863 587.192 50.8911 587.192 50.9969V52.0038C587.192 52.1097 587.213 52.2145 587.254 52.3122C587.295 52.4098 587.355 52.4983 587.431 52.5726C587.506 52.6468 587.596 52.7053 587.694 52.7446C587.792 52.7839 587.897 52.8033 588.003 52.8015H588.84V59H581.308C580.961 59 580.628 58.8622 580.383 58.617C580.138 58.3717 580 58.0391 580 57.6923Z" stroke="black" stroke-linecap="round" stroke-linejoin="round"/>
<path d="M650.437 59.937H637.563C636.9 59.937 636.264 59.6736 635.795 59.2048C635.326 58.7359 635.063 58.1 635.063 57.437V44.563C635.063 43.9 635.326 43.2641 635.795 42.7952C636.264 42.3264 636.9 42.063 637.563 42.063H650.437C651.1 42.063 651.736 42.3264 652.205 42.7952C652.674 43.2641 652.937 43.9 652.937 44.563V57.437C652.937 58.1 652.674 58.7359 652.205 59.2048C651.736 59.6736 651.1 59.937 650.437 59.937ZM637.563 43.063C637.165 43.063 636.784 43.221 636.502 43.5023C636.221 43.7836 636.063 44.1652 636.063 44.563V57.437C636.063 57.8348 636.221 58.2164 636.502 58.4977C636.784 58.779 637.165 58.937 637.563 58.937H650.437C650.835 58.937 651.216 58.779 651.498 58.4977C651.779 58.2164 651.937 57.8348 651.937 57.437V44.563C651.937 44.1652 651.779 43.7836 651.498 43.5023C651.216 43.221 650.835 43.063 650.437 43.063H637.563Z" fill="black"/>
<path d="M644 55.594C643.091 55.593 642.203 55.3227 641.448 54.8171C640.693 54.3116 640.105 53.5935 639.758 52.7537C639.411 51.914 639.321 50.9902 639.499 50.0991C639.677 49.2081 640.115 48.3898 640.758 47.7477C641.401 47.1056 642.22 46.6686 643.111 46.4918C644.002 46.315 644.926 46.4065 645.765 46.7545C646.605 47.1026 647.322 47.6917 647.826 48.4474C648.331 49.2031 648.6 50.0914 648.6 51C648.598 52.219 648.113 53.3874 647.25 54.2488C646.388 55.1102 645.219 55.594 644 55.594ZM644 47.4C643.289 47.401 642.595 47.6125 642.005 48.0079C641.414 48.4034 640.954 48.9649 640.683 49.6216C640.411 50.2783 640.34 51.0007 640.479 51.6976C640.618 52.3945 640.96 53.0346 641.463 53.537C641.965 54.0395 642.605 54.3818 643.302 54.5207C643.999 54.6595 644.722 54.5888 645.378 54.3173C646.035 54.0458 646.597 53.5858 646.992 52.9954C647.387 52.405 647.599 51.7106 647.6 51C647.6 50.0452 647.221 49.1295 646.545 48.4544C645.87 47.7793 644.955 47.4 644 47.4Z" fill="black"/>
<path d="M649.2 46.905C649.794 46.905 650.275 46.4237 650.275 45.83C650.275 45.2363 649.794 44.755 649.2 44.755C648.606 44.755 648.125 45.2363 648.125 45.83C648.125 46.4237 648.606 46.905 649.2 46.905Z" fill="black"/>
<g clip-path="url(#clip0_406_487)">
<path d="M41.375 -9.53674e-05C40.3375 0.262405 39.4 1.0374 38.9125 2.07491L38.5625 2.82491V10.6499C38.5625 19.0124 38.5625 19.0124 39.1875 19.8874C39.4125 20.2124 39.4375 20.4249 39.4375 22.5499V24.8624L36.4125 24.9124C33.0625 24.9749 32.5875 25.0624 30.975 25.8249C29.8125 26.3749 29.0875 26.8749 28.25 27.6999C27.35 28.5999 26.925 29.2499 25.975 31.1624C25.2875 32.5249 25.0125 32.9499 24.325 33.6374C23.375 34.5749 22.275 35.2374 21.0125 35.6249C19.975 35.9499 19.7 35.9499 19.6125 35.6624C19.3875 34.9374 18.95 34.1874 18.55 33.8249C17.6375 32.9999 17.4625 32.9499 15.15 32.9124C13.0875 32.8624 13.0375 32.8749 12.375 33.1999C11.5125 33.6124 10.75 34.4749 10.475 35.3374L10.275 35.9999L6.825 36.0374L3.375 36.0749L2.6625 36.4374C1.7 36.9249 0.862499 37.7874 0.3875 38.7624L0 39.5749V48.1374V56.6999L0.3375 57.4249C0.812499 58.4249 1.775 59.3999 2.725 59.8374L3.5 60.1999L6.9625 60.2374L10.425 60.2749L10.5625 60.6999C10.7625 61.3249 11.6 62.1999 12.3375 62.5624C12.95 62.8749 13.0875 62.8874 14.9875 62.8874C16.6875 62.8874 17.075 62.8499 17.5125 62.6499C18.275 62.2999 18.975 61.6249 19.3125 60.8874L19.6125 60.2499L25 60.2999C29.625 60.3374 30.475 60.3749 31.1125 60.5624C32.1625 60.8749 33.0625 61.2999 33.9375 61.8874C34.975 62.5874 36.3 63.1999 37.5 63.5374C38.4125 63.7874 38.8625 63.8124 42.5375 63.8624C46.35 63.8999 46.6125 63.8999 47.4125 63.6499C50.375 62.7249 51.6 59.3499 49.9375 56.7124C49.725 56.3874 49.5625 56.0999 49.5875 56.0874C49.6125 56.0624 49.825 55.9374 50.0625 55.7874C52.2625 54.4624 52.9625 51.5624 51.625 49.3374L51.2125 48.6499L51.75 48.3374C52.5125 47.8874 53.3875 46.8624 53.675 46.0624C54.2625 44.5124 54.1 43.0499 53.175 41.7124L52.675 40.9749L52.9625 40.7874C53.575 40.3749 54.2375 39.5624 54.6 38.7749C55.1 37.7124 55.1375 36.3499 54.7 35.2249C54.3 34.2124 53.2875 33.1499 52.2875 32.6874L51.5 32.3249L48.2875 32.2874L45.0625 32.2499V26.2999C45.0625 20.5374 45.075 20.3499 45.3125 20.0124C45.45 19.8124 45.65 19.4499 45.75 19.2124L45.9375 18.7749L49.2 18.7374L52.4625 18.6999L52.7625 18.3499C53.125 17.9249 53.1375 17.6499 52.8 17.2124L52.55 16.8874H49.3H46.0625V10.2624V3.63741H53.7H61.3375L61.7 3.9999C62.1125 4.4249 62.175 4.9249 61.85 5.38741C61.7375 5.5624 60.8375 6.61241 59.8625 7.72491C58.8875 8.83741 58.05 9.84991 58.0125 9.98741C57.9625 10.1124 57.975 10.3499 58.0375 10.4999C58.0875 10.6374 58.9875 11.7499 60.0375 12.9499C62.05 15.2499 62.2375 15.5749 61.8875 16.2374C61.6 16.7999 61.175 16.8874 58.4875 16.8874C56.225 16.8874 47.6574 16.8703 47.4199 17.1078C47.1074 17.4203 47.0949 17.9953 47.4074 18.3703C47.6449 18.6703 56.05 18.6999 58.775 18.6999C61.8875 18.6999 62.1875 18.6374 63 17.8249C63.9625 16.8624 64.1875 15.3499 63.5375 14.2624C63.375 13.9999 62.55 12.9874 61.7125 12.0124C60.3125 10.4124 60.1875 10.2249 60.35 10.0374C62.8125 7.24991 63.575 6.28741 63.7625 5.72491C64.225 4.32491 63.6 2.82491 62.25 2.09991C61.75 1.82491 61.675 1.82491 53.6125 1.78741L45.475 1.7499L45.3 1.42491C44.725 0.362408 42.8 -0.337593 41.375 -9.53674e-05ZM43.1875 2.03741C43.4125 2.19991 43.725 2.48741 43.8625 2.67491C44.125 3.02491 44.125 3.13741 44.1625 10.5624L44.1875 18.0874L43.9 18.6249C43.2375 19.8999 41.525 19.9749 40.725 18.7749L40.4375 18.3499V10.6999V3.04991L40.725 2.63741C41.3 1.7874 42.425 1.52491 43.1875 2.03741ZM43.1875 26.8499V32.2624H42.25H41.3125V26.8499V21.4499H42.25H43.1875V26.8499ZM39.4375 29.5124V32.2624H37.4C35.525 32.2624 35.3375 32.2874 35.0875 32.5124C34.6875 32.8874 34.7125 33.5374 35.1375 33.8749C35.4625 34.1374 35.575 34.1374 43.2375 34.1374C52.0125 34.1374 51.575 34.0999 52.4625 35.1374C53.5875 36.4374 53.25 38.4249 51.775 39.2749C51.275 39.5624 51.125 39.5749 48.475 39.6374C45.825 39.6999 45.6875 39.7124 45.425 39.9749C45.0875 40.3124 45.0625 40.9124 45.375 41.2624C45.5875 41.4874 45.7625 41.5124 47.4875 41.5124C48.525 41.5124 49.625 41.5749 49.9375 41.6499C52.2125 42.1624 52.9125 44.9999 51.125 46.4874C50.4125 47.0624 49.9625 47.1374 47.0125 47.1374C45.5125 47.1374 44.2 47.1874 44.075 47.2624C43.7125 47.4499 43.5125 48.0624 43.7 48.4124C44 48.9749 44.15 48.9999 46.2625 49.0124C48.225 49.0124 48.3 49.0249 48.95 49.3624C49.875 49.8374 50.3375 50.5249 50.4125 51.4999C50.475 52.3874 50.2875 53.0124 49.775 53.5874C49.05 54.4249 48.95 54.4374 45.5875 54.5124L42.5375 54.5749L42.2375 54.9249C41.875 55.3499 41.8625 55.6249 42.1875 56.0499C42.425 56.3499 42.4625 56.3624 44.5875 56.4124C47.0125 56.4749 47.4125 56.5874 48.15 57.4374C49.3 58.7374 48.8875 60.8499 47.325 61.6624L46.6625 62.0124H43.0375C38.25 62.0124 37.3125 61.8249 35.1125 60.4124C33.825 59.5874 32.7375 59.0874 31.5 58.7374C30.55 58.4749 30.2 58.4624 25.1 58.4124L19.6875 58.3749V54.0124C19.6875 49.9499 19.7 39.5852 19.475 39.3102C19.15 38.9102 18.4 38.9102 18.075 39.3102C17.85 39.5852 17.8125 49.9624 17.8125 54.6499C17.8125 60.1749 17.8 60.2999 17.0375 60.7624C16.675 60.9749 16.4125 61.0124 15 61.0124C13.6125 61.0124 13.3125 60.9749 12.975 60.7624C12.1375 60.2624 12.1875 61.0124 12.1875 47.8874C12.1875 34.7624 12.1375 35.5124 12.975 35.0124C13.3125 34.7999 13.6125 34.7624 15 34.7624C16.4125 34.7624 16.675 34.7999 17.0375 35.0124C17.8 35.4749 17.8125 35.6124 17.8125 40.9874C17.8125 45.7249 17.825 45.8624 18.075 46.1874C18.4 46.5999 18.9875 46.6249 19.4 46.2374L19.6875 45.9749V41.8999V37.8249L20.725 37.6249C22.45 37.2874 24 36.4999 25.35 35.2624C26.3375 34.3624 27.025 33.3499 27.875 31.5749C28.525 30.2249 28.7 29.9749 29.625 29.0624C30.4 28.2874 30.8875 27.9249 31.6 27.5874C33.025 26.8999 33.75 26.7874 36.7875 26.7749L39.4375 26.7624V29.5124ZM10.3125 48.1374V58.3874H7.1625C4.36251 58.3874 3.9375 58.3499 3.4875 58.1499C2.875 57.8624 2.15 57.0499 1.9625 56.3999C1.75 55.7249 1.75 40.5499 1.9625 39.8749C2.15 39.2249 2.875 38.4124 3.4875 38.1249C3.9375 37.9249 4.36251 37.8874 7.1625 37.8874H10.3125V48.1374Z" fill="#0E0E0E"/>
</g>
<path d="M127.375 1.5C127.138 1.7375 127.125 1.9125 127.125 5.0375C127.125 8.7375 127.125 8.75 128.025 8.75C128.863 8.75 128.875 8.6875 128.875 5.025C128.875 1.9125 128.863 1.7375 128.625 1.5C128.488 1.3625 128.212 1.25 128 1.25C127.788 1.25 127.513 1.3625 127.375 1.5Z" fill="black"/>
<path d="M113.75 5.21251C113.575 5.43751 113.5 5.66251 113.538 5.87501C113.613 6.25001 116.288 10.9375 116.663 11.3375C117.025 11.75 117.65 11.725 117.988 11.3C118.138 11.1125 118.25 10.875 118.25 10.75C118.25 10.525 115.688 5.97501 115.163 5.27501C114.763 4.73751 114.15 4.71251 113.75 5.21251Z" fill="black"/>
<path d="M140.913 5.15001C140.513 5.61251 137.75 10.4625 137.75 10.725C137.75 10.8625 137.863 11.1125 138.013 11.3C138.35 11.725 138.975 11.75 139.337 11.3375C139.738 10.8875 142.5 6.03751 142.5 5.77501C142.5 5.63751 142.388 5.38751 142.238 5.20001C141.9 4.77501 141.275 4.75001 140.913 5.15001Z" fill="black"/>
<path d="M126.875 10.4625C121.1 10.875 115.975 14.075 113.012 19.075C110.587 23.1875 110.037 28.6 111.562 33.225C111.987 34.5125 112.987 36.4875 113.75 37.5625C116.512 41.45 117.587 43.7125 118.45 47.3625C118.762 48.7 118.812 48.825 119.325 49.3375L119.875 49.8875V51.3625V52.85L119.1 52.9C118.462 52.95 118.287 53.0125 118.037 53.3C117.687 53.7125 117.675 54 118.012 54.425C118.237 54.7125 118.35 54.75 119.075 54.75H119.875V55.5375C119.875 56.825 120.162 57.5625 120.975 58.375C121.737 59.1375 122.525 59.5 123.387 59.5C123.85 59.5 123.875 59.525 124.2 60.25C125.412 62.95 128.95 63.6 130.987 61.5C131.45 61.025 131.7 60.6125 131.987 59.8375C132.1 59.55 132.187 59.5 132.612 59.5C133.362 59.5 134.412 59.05 134.987 58.5C135.775 57.7375 136.037 57.1125 136.1 55.8375L136.15 54.75H136.937C137.65 54.75 137.762 54.7125 137.987 54.425C138.625 53.6125 138.012 52.875 136.675 52.875H136.125V51.3375V49.8125L136.562 49.4625C137.137 49 137.287 48.6875 137.675 47.1C138.375 44.1625 139.587 41.5375 141.687 38.3875C142.487 37.1875 143.35 35.7625 143.612 35.2C144.912 32.4625 145.475 29.375 145.237 26.35C144.912 22.3125 143.275 18.7 140.462 15.7875C137.4 12.625 133.762 10.8875 129.375 10.5C128.587 10.4375 127.825 10.3875 127.687 10.4C127.55 10.4125 127.187 10.4375 126.875 10.4625ZM130.75 12.575C133.837 13.125 136.587 14.575 138.887 16.8625C143.125 21.1 144.525 27.1375 142.587 32.8125C142.112 34.1875 141.362 35.575 139.95 37.6625C137.925 40.6875 136.6 43.5875 135.875 46.625C135.5 48.225 135.462 48.25 133.675 48.25H132.25L132.275 40.875L132.312 33.4875L133.35 33.0625C135.387 32.2375 137.45 30.9125 139.362 29.225C141.5 27.35 141.5 27.275 139.787 25.625C137.037 22.975 133.762 21.175 130.475 20.4875C128.762 20.1375 126.5 20.2 124.75 20.6625C121.837 21.425 118.775 23.2125 116.175 25.6625C115.112 26.675 115 26.8125 115 27.225C115 27.6375 115.1 27.7875 115.962 28.6C118.012 30.5375 120.687 32.3 122.825 33.1375L123.875 33.55L123.85 40.8625L123.812 48.1875L122.375 48.225C121.35 48.25 120.875 48.2125 120.725 48.1C120.587 48 120.337 47.2875 120.075 46.25C119.325 43.3125 118.05 40.475 116.5 38.25C114.95 36.0375 114.612 35.5 114.137 34.55C113.062 32.375 112.6 30.35 112.6 27.75C112.6 23.675 114.062 20.0125 116.85 17.1C120.462 13.3125 125.537 11.6625 130.75 12.575ZM130.037 22.5375C131.05 23 131.712 23.55 132.25 24.4C134.287 27.5375 132.487 31.6125 128.787 32.2625C125.95 32.7625 123.162 30.55 122.912 27.6375C122.737 25.6 123.837 23.6 125.625 22.6875C126.487 22.2375 127.05 22.125 128.187 22.1625C129.1 22.1875 129.45 22.2625 130.037 22.5375ZM121.55 24.6125C121.187 25.5125 121 26.425 121 27.3125C121 28.0375 121.375 29.65 121.687 30.25L121.9 30.65L121.25 30.3C120.512 29.8875 118.525 28.4125 117.737 27.7L117.2 27.2125L117.812 26.65C118.95 25.625 121.437 23.875 121.762 23.875C121.812 23.875 121.712 24.2125 121.55 24.6125ZM135.062 24.3375C136 24.9125 137.45 25.9875 138.225 26.6875L138.812 27.225L138.2 27.7625C136.987 28.8375 135.962 29.5875 134.7 30.3125L134.1 30.6625L134.3 30.2625C134.637 29.625 135 28.025 135 27.2375C135 26.325 134.8 25.375 134.425 24.525C134.275 24.175 134.175 23.875 134.225 23.875C134.275 23.875 134.65 24.0875 135.062 24.3375ZM127.937 34.1875C128.35 34.1875 129.062 34.15 129.537 34.1L130.375 34.0125L130.35 41.1L130.312 48.1875H128H125.687L125.65 41.1L125.625 34L126.4 34.1C126.837 34.15 127.525 34.1875 127.937 34.1875ZM134.25 51.5V52.875H128H121.75V51.5V50.125H128H134.25V51.5ZM134.225 55.6875C134.187 56.575 134.162 56.65 133.712 57.1L133.25 57.5625H128H122.75L122.287 57.1C121.837 56.65 121.812 56.575 121.775 55.6875L121.725 54.75H128H134.275L134.225 55.6875ZM130.012 59.7125C129.862 60 129.262 60.5625 128.912 60.7375C128.087 61.1625 126.562 60.7 126.087 59.8875L125.862 59.5H128C130 59.5 130.125 59.5125 130.012 59.7125Z" fill="black"/>
<path d="M127.125 24.1125C126.212 24.4125 125.387 25.1375 125.062 25.925C124.525 27.225 124.787 28.4625 125.812 29.4625C126.712 30.3375 127.762 30.5875 129.062 30.2375C129.837 30.025 130.8 28.9875 131.062 28.0875C131.487 26.6125 130.812 25.05 129.45 24.35C128.9 24.075 127.637 23.9375 127.125 24.1125ZM128.7 26.1125C129.812 26.7875 129.312 28.5 127.987 28.5C127.437 28.5 126.825 28.05 126.7 27.55C126.5 26.7875 127.212 25.875 128 25.875C128.175 25.875 128.487 25.9875 128.7 26.1125Z" fill="black"/>
<path d="M103.95 15.0125C103.55 15.325 103.5 15.975 103.862 16.3C104.25 16.65 109.025 19.3875 109.375 19.45C110.187 19.625 110.712 18.475 110.1 17.9125C109.65 17.5125 104.787 14.75 104.525 14.75C104.387 14.75 104.137 14.8625 103.95 15.0125Z" fill="black"/>
<path d="M148.862 16.1375C145.775 17.9125 145.625 18.025 145.625 18.5625C145.625 19.025 146.087 19.5 146.525 19.5C146.8 19.5 151.662 16.7375 152.1 16.3375C152.5 15.975 152.475 15.35 152.05 15.0125C151.862 14.8625 151.625 14.75 151.5 14.75C151.387 14.75 150.2 15.375 148.862 16.1375Z" fill="black"/>
<path d="M100.25 28.625C99.95 28.925 99.925 29.4625 100.2 29.85C100.387 30.125 100.412 30.125 103.75 30.125C107.087 30.125 107.112 30.125 107.3 29.85C107.575 29.4625 107.55 28.925 107.25 28.625C107.012 28.3875 106.837 28.375 103.75 28.375C100.662 28.375 100.487 28.3875 100.25 28.625Z" fill="black"/>
<path d="M148.375 28.625C148.05 28.95 148.05 29.6375 148.35 29.9125C148.55 30.1 149 30.125 152.1 30.125C155.587 30.125 155.612 30.125 155.8 29.85C156.075 29.4625 156.05 28.925 155.75 28.625C155.512 28.3875 155.337 28.375 152.062 28.375C148.787 28.375 148.612 28.3875 148.375 28.625Z" fill="black"/>
<path d="M106.65 40.4875C105.263 41.3 104 42.075 103.875 42.1875C103.725 42.325 103.625 42.575 103.625 42.825C103.625 43.3375 104.15 43.8 104.625 43.7125C105 43.6375 109.688 40.9625 110.1 40.5875C110.675 40.0625 110.238 38.9875 109.45 39.0125C109.312 39.0125 108.05 39.675 106.65 40.4875Z" fill="black"/>
<path d="M145.95 39.2625C145.525 39.6 145.5 40.225 145.912 40.5875C146.325 40.9625 151 43.6375 151.375 43.7C152.187 43.8625 152.712 42.725 152.1 42.1625C151.65 41.7625 146.787 39 146.525 39C146.387 39 146.137 39.1125 145.95 39.2625Z" fill="black"/>
<g clip-path="url(#clip1_406_487)">
<path d="M244.25 0.199993C243.737 0.424992 233.012 11.05 232.175 12.175C231.187 13.4875 231.112 13.9625 231.15 18.45C231.175 20.575 231.225 22.4 231.275 22.5C231.337 22.6375 230.687 23.3875 229.012 25.1125L226.662 27.55L226.05 27.15C224.525 26.1875 223.012 25.75 221.1 25.75C219.487 25.75 218.25 26.0375 216.887 26.75C214.162 28.1625 212.375 30.775 212 33.8625C211.487 38.075 214.075 42.1875 218.125 43.5625C221.575 44.7375 225.225 43.825 227.762 41.1625C229.437 39.4 230.25 37.3625 230.25 34.9C230.25 32.9625 229.762 31.2875 228.75 29.7875C228.537 29.475 228.375 29.175 228.4 29.1125C228.425 29.0625 229.5 27.9125 230.787 26.575L233.137 24.1375L237.162 24.1L241.187 24.0625L242.075 23.65C242.912 23.25 243.312 22.875 249.037 17.15C254.325 11.85 255.112 11 255.187 10.6C255.312 9.96249 255.062 9.31249 254.55 8.91249C254.162 8.62499 253.887 8.56249 252.15 8.36249C251.075 8.23749 249.65 8.09999 249.012 8.04999C247.275 7.92499 247.362 8.07499 247.012 4.49999C246.7 1.23749 246.537 0.674992 245.85 0.249992C245.362 -0.0500069 244.85 -0.0625076 244.25 0.199993ZM244.837 5.52499C244.987 6.92499 245.125 8.14999 245.15 8.26249C245.175 8.37499 242.887 10.8125 239.312 14.5L233.437 20.5375L233.4 17.75C233.375 15.425 233.4 14.85 233.575 14.325C233.762 13.75 234.262 13.2125 239.1 8.33749C242.037 5.39999 244.462 2.99999 244.5 2.99999C244.537 2.99999 244.687 4.13749 244.837 5.52499ZM249.925 10.45L252.262 10.675L246.975 15.9625C244.062 18.8875 241.462 21.3875 241.187 21.5375C240.725 21.7875 240.475 21.8125 238.075 21.85C236.412 21.875 235.487 21.85 235.512 21.775C235.537 21.7 238.112 19.0375 241.225 15.8375C246.637 10.275 246.887 10.025 247.225 10.1125C247.412 10.175 248.625 10.325 249.925 10.45ZM222.525 28.1375C223.212 28.2875 224.312 28.7375 224.762 29.05C225.012 29.225 224.937 29.325 222.512 31.8C220.112 34.25 220 34.3875 220 34.85C220 35.5125 220.475 36 221.125 36C221.55 36 221.725 35.85 224.125 33.425C226.975 30.5375 226.725 30.6625 227.325 31.9375C228.587 34.6375 228.062 37.5875 225.95 39.7C224.562 41.0875 223.012 41.75 221.15 41.75C217.487 41.75 214.475 38.925 214.275 35.3125C214.2 33.8875 214.387 33.0125 215.012 31.7625C216.362 29.05 219.562 27.5125 222.525 28.1375Z" fill="black"/>
<path d="M219.25 7.3875C207.162 8.125 196.712 16.7625 193.687 28.5375C193.012 31.2 192.825 32.7125 192.825 35.625C192.825 39.025 193.162 41.3 194.137 44.325C197.25 54.0375 205.55 61.45 215.525 63.425C227.95 65.8875 240.362 59.95 246.237 48.75C250.15 41.2875 250.5 32.425 247.212 24.6L246.7 23.375L245.825 24.225L244.937 25.0625L245.412 26.3125C247.587 31.975 247.7 38.35 245.725 44.125C241.937 55.1875 231.075 62.4125 219.4 61.625C210.225 61 202.062 55.6 197.9 47.4C195.987 43.6375 195.112 39.9875 195.112 35.7C195.112 32.1875 195.7 29.075 196.937 26C200.012 18.3375 206.7 12.45 214.562 10.45C217.087 9.8125 218.112 9.7 221.187 9.7C224.375 9.7125 225.687 9.875 228.3 10.625L229.65 11.025L229.85 10.725C229.962 10.5625 230.325 10.15 230.65 9.8L231.25 9.1625L230.062 8.7625C226.65 7.625 222.987 7.1625 219.25 7.3875Z" fill="black"/>
<path d="M218.312 15.95C211.038 17.075 205.1 22.1125 202.9 29C202.175 31.3 202.062 32.0625 202.062 34.9375C202.075 37.35 202.1 37.675 202.412 39.0125C203.325 42.9 205.075 45.975 207.9 48.7C210.55 51.25 213.663 52.875 217.5 53.7C219.025 54.0375 223.225 54.0375 224.75 53.7C228.75 52.8375 231.875 51.15 234.625 48.3875C238.138 44.85 240.013 40.5875 240.213 35.675C240.325 32.9625 239.85 30.1 238.9 27.8125L238.538 26.9375L237.275 26.9C236.575 26.8875 236 26.9 236 26.9375C236 26.975 236.138 27.275 236.3 27.6C236.788 28.5625 237.45 30.5875 237.688 31.875C238 33.4625 238 36.275 237.7 37.8125C237.013 41.3875 235.513 44.25 233 46.75C230.538 49.2125 227.863 50.6625 224.462 51.4C222.525 51.8125 219.462 51.7875 217.55 51.35C214.088 50.5375 211.325 48.975 208.9 46.45C207.188 44.6625 205.812 42.3625 205.075 40.0375C204.463 38.0625 204.312 37.0875 204.325 34.8125C204.325 32.975 204.375 32.5 204.663 31.2875C205.45 27.925 206.888 25.325 209.3 22.9375C212.15 20.1125 215.5 18.55 219.562 18.1125C222.25 17.8375 225.188 18.325 228.163 19.5625C228.35 19.65 228.375 19.5375 228.375 18.4V17.15L227.475 16.825C224.675 15.8375 221.2 15.5 218.312 15.95Z" fill="black"/>
</g>
<path d="M318 5.4125C317.837 5.5 317.625 5.7125 317.537 5.875C317.35 6.2375 317.325 7.6 317.487 8.025L317.6 8.3125L316.362 8.275C315.187 8.225 315.125 8.2375 314.812 8.55C314.312 9.05 314.4 9.75 315.012 10.0625C315.425 10.275 317.012 10.3125 317.387 10.125C317.6 10 317.612 10.025 317.5 10.3125C317.337 10.75 317.337 11.9875 317.512 12.4875C317.762 13.1875 318.612 13.3625 319.112 12.825C319.375 12.5375 319.4 12.425 319.35 11.275C319.312 10.1375 319.325 10.0375 319.525 10.1375C319.637 10.2 320.162 10.25 320.687 10.25C321.587 10.25 321.662 10.225 322.025 9.875C322.337 9.55 322.387 9.425 322.325 9.0875C322.187 8.375 321.862 8.225 320.5 8.275L319.312 8.3125L319.35 7.1125C319.387 6.1125 319.35 5.875 319.162 5.65C318.875 5.3125 318.387 5.2 318 5.4125ZM318.987 8.7625C318.912 8.9125 318.875 9.2 318.9 9.4C318.95 9.725 318.925 9.7625 318.675 9.7C318.525 9.6625 318.25 9.675 318.062 9.75C317.762 9.8625 317.75 9.85 317.887 9.6125C317.962 9.4625 318 9.2 317.962 9.0125C317.9 8.7 317.912 8.6875 318.375 8.725C318.637 8.75 318.887 8.7125 318.925 8.6375C319.087 8.3875 319.137 8.5 318.987 8.7625Z" fill="black"/>
<path d="M305.537 7.53751C305.387 7.62501 304.987 8.11251 304.65 8.62501C303.95 9.71251 302.612 11.0125 301.525 11.675C300.675 12.2125 300.375 12.6875 300.6 13.1875C300.675 13.35 301.175 13.775 301.712 14.1375C302.95 14.975 303.912 15.9375 304.7 17.125C305.737 18.6875 306.237 18.7 307.262 17.1875C308.05 16.0375 309.237 14.85 310.312 14.1375C311.887 13.0875 311.9 12.6 310.337 11.575C309.137 10.7875 307.875 9.51251 307.212 8.41251C306.637 7.46251 306.137 7.20001 305.537 7.53751ZM308.025 12.3625L308.575 12.8L307.287 14.0625L306 15.3375L304.762 14.1L303.525 12.8625L304.8 11.5875L306.062 10.3125L306.762 11.125C307.162 11.575 307.725 12.125 308.025 12.3625Z" fill="black"/>
<path d="M331.925 7.81251C331.625 8.11251 331.612 8.18751 331.65 9.28751L331.687 10.4375H330.487C329.475 10.4375 329.237 10.475 329.012 10.675C328.662 11 328.65 11.775 329.012 12.1375C329.237 12.3625 329.387 12.3875 330.475 12.35L331.687 12.3125L331.637 13.425C331.587 14.675 331.712 15.025 332.262 15.2625C332.55 15.375 332.712 15.375 332.987 15.25C333.5 15.0375 333.662 14.5625 333.612 13.35L333.562 12.3125L334.75 12.35C335.812 12.3875 335.962 12.3625 336.225 12.125C336.575 11.8 336.587 11.1375 336.262 10.7375C336.062 10.4875 335.887 10.4375 335.075 10.4C334.562 10.375 333.962 10.4125 333.75 10.475C333.4 10.6 333.387 10.6 333.5 10.375C333.562 10.25 333.625 9.68751 333.625 9.12501C333.625 8.21251 333.587 8.08751 333.312 7.81251C332.912 7.40001 332.337 7.40001 331.925 7.81251ZM332.925 10.9C333.212 10.775 333.225 10.7875 333.137 11.1C333.075 11.2875 333.075 11.55 333.125 11.6875C333.212 11.9125 333.162 11.9375 332.637 11.9375H332.062V11.3625C332.062 10.8125 332.075 10.7875 332.337 10.9125C332.537 11 332.712 11 332.925 10.9Z" fill="black"/>
<path d="M315.162 14.8C312.812 15.3375 310.862 17.2 310.187 19.5375C309.912 20.4875 309.912 22.1375 310.187 23.0875C310.662 24.7375 310.912 25.0375 315.562 29.725C317.962 32.1625 320.087 34.225 320.275 34.325C320.462 34.425 320.75 34.475 320.912 34.4375C321.075 34.3875 323.275 32.275 325.837 29.7125C329.675 25.85 330.512 24.9375 330.787 24.35C331.737 22.35 331.737 20.2625 330.787 18.275C330.262 17.2 328.875 15.85 327.725 15.3125C326.612 14.8125 325.375 14.5625 324.425 14.6875C323.562 14.7875 322.262 15.45 321.412 16.1875L320.762 16.7625L319.975 16.125C318.337 14.8 316.9 14.4125 315.162 14.8ZM317.7 17C318.1 17.2 318.862 17.7625 319.4 18.25C320.662 19.4125 320.8 19.4125 322.087 18.25C322.612 17.7625 323.4 17.1875 323.837 16.975C324.537 16.625 324.7 16.6 325.35 16.675C326.912 16.8625 328.375 17.8875 329.075 19.325C329.4 19.9875 329.437 20.1875 329.437 21.3125C329.437 23.3375 329.437 23.325 324.737 28.0625L320.75 32.0625L316.812 28.125C312.575 23.8875 312.237 23.475 312.012 22.05C311.65 19.7 313.1 17.4375 315.375 16.825C316.412 16.55 316.875 16.5875 317.7 17Z" fill="black"/>
<path d="M315.25 17.8375C314.413 18.1375 313.325 19.275 313.075 20.125C312.675 21.475 312.963 22.25 313.875 22.25C314.425 22.25 314.875 21.8125 314.875 21.2875C314.875 20.8375 315.238 20.1375 315.588 19.9125C315.75 19.8 316.15 19.6625 316.475 19.6125C317.55 19.4125 317.963 18.45 317.238 17.8375C316.9 17.575 316.025 17.575 315.25 17.8375Z" fill="black"/>
<path d="M339.35 14.9C339.25 14.9875 338.938 15.4 338.675 15.8125C337.938 16.9375 336.825 18.0625 335.675 18.825C334.613 19.5375 334.5 19.6625 334.5 20.2375C334.5 20.625 334.75 20.875 335.788 21.5625C336.713 22.1625 337.875 23.325 338.525 24.3C339.238 25.3625 339.5 25.625 339.838 25.625C340.338 25.625 340.6 25.4125 341.213 24.4625C341.938 23.3625 343.062 22.225 344.062 21.575C345.163 20.8625 345.375 20.6375 345.375 20.1875C345.375 19.675 345.238 19.525 344.175 18.825C343.1 18.1125 341.838 16.8375 341.188 15.8125C340.613 14.9 340.438 14.75 339.938 14.75C339.725 14.75 339.463 14.825 339.35 14.9ZM341.188 21.4375L339.938 22.6875L338.688 21.4375L337.438 20.1875L338.688 18.9375L339.938 17.6875L341.188 18.9375L342.438 20.175L341.188 21.4375Z" fill="black"/>
<path d="M298.025 20.7125C297.7 20.8375 297.5 21.4875 297.5 22.375C297.5 22.8625 297.55 23.375 297.625 23.5C297.737 23.7125 297.712 23.725 297.35 23.6125C296.387 23.3375 294.987 23.55 294.75 24C294.525 24.4125 294.612 24.9375 294.925 25.2375C295.212 25.5 295.325 25.525 296.475 25.475C297.612 25.4375 297.712 25.45 297.612 25.65C297.55 25.7625 297.5 26.2875 297.5 26.8125C297.5 27.7 297.525 27.8 297.862 28.1375C298.325 28.5875 298.775 28.6125 299.2 28.1875C299.512 27.875 299.525 27.8125 299.475 26.65L299.437 25.4375L300.637 25.475C302.075 25.525 302.425 25.35 302.425 24.575C302.425 23.8625 302.075 23.6 301.025 23.525C300.537 23.5 299.987 23.525 299.787 23.5875L299.437 23.7125L299.475 22.4875C299.525 21.3125 299.512 21.25 299.2 20.9375C298.9 20.6375 298.425 20.55 298.025 20.7125ZM298.737 24.0875C299.05 24.025 299.062 24.0375 299.062 24.5375V25.0625H298.525C298.037 25.0625 298 25.0375 298.062 24.7875C298.1 24.6375 298.075 24.375 298 24.1875C297.887 23.8875 297.9 23.875 298.137 24.0125C298.287 24.0875 298.55 24.125 298.737 24.0875Z" fill="black"/>
<path d="M334.188 28.9125C333.9 29.15 333.838 29.325 333.788 30C333.75 30.45 333.775 31.0125 333.85 31.2625L333.975 31.725L333.513 31.6C333.263 31.525 332.7 31.5 332.25 31.5375C331.575 31.5875 331.4 31.65 331.163 31.9375C330.8 32.35 330.8 32.7375 331.138 33.175C331.4 33.5125 331.425 33.5125 332.688 33.475L333.963 33.4375L333.838 33.875C333.775 34.1125 333.75 34.675 333.788 35.125C333.838 35.8 333.9 35.975 334.188 36.2125C334.6 36.575 334.988 36.575 335.425 36.2375C335.738 35.9875 335.75 35.9375 335.75 34.75C335.75 33.5625 335.738 33.5125 335.425 33.2625C335.063 32.975 334.738 32.9375 334.363 33.125C334.15 33.25 334.138 33.2375 334.275 32.9375C334.388 32.7 334.388 32.5125 334.288 32.25C334.163 31.9 334.163 31.9 334.463 32.0375C334.688 32.1375 334.863 32.1375 335.138 32.0375C335.463 31.9125 335.488 31.9125 335.375 32.125C335.188 32.4875 335.225 32.8125 335.513 33.175C335.763 33.4875 335.813 33.5 337 33.5C338.188 33.5 338.238 33.4875 338.488 33.175C338.825 32.7375 338.825 32.35 338.463 31.9375C338.225 31.65 338.05 31.5875 337.375 31.5375C336.925 31.5 336.363 31.525 336.125 31.5875L335.688 31.7125L335.725 30.4375C335.763 29.175 335.763 29.15 335.425 28.8875C334.988 28.55 334.6 28.55 334.188 28.9125Z" fill="black"/>
<path d="M307.463 29.7625C307.35 29.8375 306.975 30.3 306.65 30.7875C305.913 31.9125 304.788 33.0625 303.812 33.6875C302.7 34.4125 302.5 34.6125 302.5 35.0625C302.5 35.5625 302.638 35.725 303.562 36.325C304.688 37.05 305.95 38.3125 306.65 39.4C307.638 40.9 308.225 40.9375 309.125 39.5375C309.9 38.35 311.025 37.2125 312.2 36.425C313.262 35.7125 313.375 35.5875 313.375 35.0125C313.375 34.625 313.125 34.375 312.088 33.6875C311.1 33.0375 310.025 31.9625 309.263 30.825C308.463 29.65 308.062 29.4125 307.463 29.7625ZM310.15 35.4125C309.713 35.75 308.625 36.8375 308.287 37.2875L308.013 37.6375L306.725 36.35L305.438 35.075L306.688 33.8125L307.938 32.5625L309.213 33.8625L310.5 35.15L310.15 35.4125Z" fill="black"/>
<path d="M320.5 37.6625C320.125 37.75 319.575 37.95 319.3 38.1C319.013 38.2375 316.638 40.05 314.013 42.125L309.25 45.875H308.137H307.025L306.975 45.1875C306.913 44.45 306.675 44.0125 306.075 43.575C305.75 43.325 305.538 43.3125 302.65 43.275C299.65 43.2375 299.55 43.25 299 43.525C298.587 43.7375 298.363 43.9625 298.162 44.375C297.875 44.925 297.875 44.95 297.875 50.875C297.875 54.5 297.925 56.9875 298 57.275C298.188 57.9125 298.962 58.5875 299.65 58.6875C299.95 58.7375 301.4 58.75 302.875 58.725C305.85 58.6875 306.088 58.625 306.65 57.85C306.875 57.5375 306.95 57.225 306.988 56.525C307.025 55.75 307.062 55.625 307.238 55.675C309.238 56.2625 308.9 56.25 318.613 56.25H327.738L329.462 55.9375C332.975 55.2875 335.638 54.55 337.125 53.8125C337.85 53.45 338.275 53.05 340.812 50.35C343.875 47.1 344.2 46.6125 344.338 45.325C344.475 43.9375 343.663 42.475 342.413 41.875C341.538 41.4625 340.25 41.475 339 41.925C338.487 42.1125 337.963 42.2875 337.85 42.325C337.713 42.375 337.588 42.2875 337.463 42.0375C337.363 41.85 337.063 41.475 336.788 41.2C335.425 39.8125 333.163 39.7125 331.538 40.95C331.3 41.125 330.438 42.2875 329.6 43.5375C328.775 44.7875 328.05 45.8625 328 45.925C327.9 46.025 325.2 45.625 324.225 45.3625L323.75 45.2375L324.425 44.575C326.225 42.7625 326.462 39.9375 324.913 38.475C324.05 37.65 322.087 37.2875 320.5 37.6625ZM323.062 39.675C323.663 39.925 323.925 40.4 323.925 41.175C323.913 42.05 323.65 42.5 322.375 43.8125C320.7 45.5375 320.075 46.9875 320.062 49.125C320.062 50.325 320.263 50.8125 320.812 50.95C321.638 51.15 322.2 50.5375 322.062 49.5875C321.975 49.05 322.175 47.625 322.375 47.2375C322.475 47.0625 322.688 47.0875 324.475 47.45C327.275 48.0125 329.9 48.2875 331.913 48.225C334.163 48.15 334.713 47.925 335.775 46.725C336.213 46.2375 336.837 45.5625 337.175 45.225C338.162 44.2375 340.175 43.425 341.213 43.5875C342.125 43.7375 342.65 44.975 342.163 45.8375C341.75 46.575 336.738 51.7875 336.163 52.1C335.438 52.475 333.125 53.1375 330.475 53.7125L328.312 54.175L319.062 54.225L309.812 54.2625L308.413 53.9125L307 53.575V50.725V47.875H308.387C309.2 47.875 309.875 47.8125 310.038 47.725C310.188 47.65 312.4 45.95 314.938 43.9375C317.487 41.9375 319.738 40.175 319.95 40.025C320.675 39.525 322.263 39.35 323.062 39.675ZM335.062 42.3625C335.263 42.475 335.562 42.8 335.713 43.0625L335.975 43.5375L335.275 44.35C333.613 46.2375 333.525 46.275 331.513 46.225L330.263 46.1875L331.325 44.5625C332.55 42.6875 332.788 42.425 333.45 42.1875C334 41.9875 334.5 42.05 335.062 42.3625ZM305 51V56.75L302.475 56.725L299.938 56.6875L299.9 50.9625L299.875 45.25H302.438H305V51Z" fill="black"/>
<g clip-path="url(#clip2_406_487)">
<path d="M414.062 0.0750008C412.4 0.3125 411.112 0.587502 409.937 0.962502C403.85 2.9 399.1 7.575 397.037 13.6875C396.287 15.9125 396.062 17.375 396.075 20C396.075 22.625 396.3 24.125 397.037 26.3125C399.712 34.2375 406.85 39.6125 415.187 39.95C424.637 40.35 433.05 34.05 435.375 24.85C438.162 13.75 431.1 2.6375 419.812 0.375C418.612 0.125 414.975 -0.0625 414.062 0.0750008ZM419.65 2.375C423.175 3.125 426.1 4.7125 428.7 7.3125C429.987 8.6 431.7 10.85 431.6 11.15C431.575 11.2125 431.1 11.4625 430.55 11.7L429.55 12.1375L427.2 11.2625C424.937 10.4125 424.825 10.3625 424.025 9.6125C422.95 8.6125 422.1 8.2125 421.012 8.2125C419.912 8.2125 419.287 8.5 417.75 9.7125C415.712 11.3375 415.625 11.5625 416.087 14.3625C416.262 15.4375 416.462 16.3875 416.537 16.4875C416.712 16.6875 420.125 18.9875 420.712 19.2875C421.2 19.5375 421.962 19.55 422.825 19.325C423.212 19.225 423.537 19.2 423.662 19.2625C423.762 19.325 424.437 20.2875 425.15 21.4125L426.437 23.4375L426.5 26.8125C426.575 30.6875 426.55 30.5625 427.75 32L428.525 32.9375L428.05 33.3625C424.587 36.3875 420.375 38 415.887 38C414.175 38 410.637 37.375 410.625 37.0625C410.612 36.9875 410.787 36.4875 410.987 35.9375L411.375 34.9375L412.975 33.975C413.862 33.4375 414.662 32.9125 414.762 32.8C414.875 32.6625 414.962 32.15 415 31.4L415.062 30.2125L415.737 29.975C416.112 29.85 416.512 29.6625 416.637 29.55C416.925 29.2875 418.7 26.3125 418.887 25.775C419.075 25.2125 418.975 24.15 418.675 23.5625C418.262 22.775 417.625 22.35 416.425 22.0625L415.35 21.8L414.875 20.6375C414.612 19.9875 414.237 19.3 414.037 19.0875C413.437 18.45 413.087 18.375 410.787 18.375H408.687L408.437 17.9125C408.062 17.2375 407.375 16.7375 406.687 16.65L406.112 16.5875L406.15 16.125C406.187 15.7 406.362 15.5125 408.687 13.475C410.062 12.275 411.262 11.2125 411.337 11.1C411.425 11 411.625 10.3 411.775 9.55C412.062 8.2 412.062 8.1875 412.437 8.15C413.325 8.075 413.65 7.9625 414.075 7.6C414.825 6.9375 415.112 6.1125 414.875 5.2625C414.675 4.5 414.225 4.075 412.837 3.2875L411.575 2.575L411.987 2.4625C414.012 1.95 417.45 1.9 419.65 2.375ZM410.95 4.5125C413.375 5.875 413.537 6.125 412 6.125C410.987 6.125 410.562 6.2875 410.387 6.7375C410.312 6.9125 410.125 7.7125 409.962 8.5L409.675 9.9375L407.062 12.2375C405.612 13.5 404.375 14.6625 404.287 14.8C404.2 14.95 404.137 15.4125 404.125 15.8375C404.125 16.675 404.062 16.7375 403.475 16.5125C403.25 16.425 403.112 16.1875 402.9 15.5125C402.712 14.95 402.512 14.5625 402.337 14.45C402.187 14.35 401.4 14.2125 400.6 14.125C399.787 14.0375 399.125 13.925 399.125 13.875C399.125 13.825 399.287 13.3875 399.487 12.9125C401.087 9.15 404.037 5.975 407.662 4.075C408.262 3.7625 408.85 3.5 408.962 3.5C409.075 3.5 409.975 3.95 410.95 4.5125ZM421.375 10.2C421.637 10.2625 422.112 10.6 422.737 11.175L423.687 12.075L426.637 13.175L429.587 14.275L431.075 13.65C432.15 13.2 432.587 13.0625 432.65 13.175C432.7 13.2625 432.887 13.7625 433.062 14.3C434.65 19.0375 434.175 24.275 431.737 28.6875C431.087 29.875 430.075 31.3125 429.887 31.3125C429.825 31.3125 429.5 30.975 429.175 30.575L428.562 29.8375L428.5 26.325L428.437 22.8125L426.887 20.4C426.037 19.075 425.162 17.85 424.95 17.6875C424.275 17.1875 423.7 17.1 422.562 17.3375L421.562 17.5375L419.9 16.4375C419 15.8375 418.25 15.3 418.25 15.2625C418.25 15.225 418.137 14.5625 418.012 13.8125C417.875 13.0375 417.825 12.35 417.875 12.25C418.025 11.975 420.187 10.325 420.525 10.225C420.925 10.1125 420.925 10.1125 421.375 10.2ZM401.2 16.8C401.562 17.9125 401.7 18.1 402.312 18.275L402.862 18.4375L402.187 18.9625C401.412 19.5625 401.312 19.85 401.4 21.225C401.437 21.925 401.612 22.475 402.487 24.625C403.475 27.025 403.862 27.75 404.175 27.75C404.237 27.75 404.737 27.875 405.275 28.0125C406.825 28.4375 406.987 28.95 405.937 30.125C405.05 31.125 404.95 31.3875 405.05 32.55C405.087 33.1125 405.162 33.75 405.2 33.9875L405.287 34.4125L404.862 34.125C403.95 33.4875 401.912 31.2875 401.087 30.05C399.137 27.125 398.187 24.2125 398.037 20.6875C397.975 19.225 398.2 16.7375 398.45 16.0875C398.487 15.975 398.787 15.9625 399.75 16.05L400.987 16.1625L401.2 16.8ZM406.775 19.1875C407.062 20.275 407.15 20.3 410.087 20.375L412.65 20.4375L413.2 21.8125C413.5 22.5625 413.862 23.2875 413.987 23.4125C414.125 23.5625 414.675 23.7375 415.387 23.8875C417.3 24.2875 417.387 24.55 416.175 26.5875C415.387 27.9375 415.337 27.9875 414.75 28.1875C414.012 28.4375 413.175 29.2875 413.075 29.9C413.037 30.125 412.987 30.6125 412.962 30.9875L412.937 31.675L411.475 32.55C410.662 33.0375 409.925 33.525 409.837 33.625C409.737 33.725 409.437 34.375 409.187 35.0625C408.925 35.75 408.687 36.3375 408.675 36.3625C408.65 36.3875 408.412 36.3125 408.137 36.1875L407.65 35.975L407.312 34.2C407.137 33.2375 406.962 32.375 406.937 32.2875C406.912 32.2 407.162 31.8125 407.487 31.4125C408.562 30.125 408.787 29.375 408.45 28.2125C408.162 27.2125 407.325 26.4875 406.1 26.1625L405.187 25.9125L404.287 23.7375C403.7 22.3 403.387 21.3875 403.387 21.05C403.375 20.55 403.387 20.5375 404.712 19.5875C405.462 19.0625 406.187 18.625 406.337 18.625C406.575 18.625 406.65 18.7375 406.775 19.1875Z" fill="black"/>
<path d="M386 24.15C385.312 24.3875 384.325 25.45 384.15 26.15C384.038 26.575 384 29.1 384 35.175C384 44.4125 384.013 44.65 384.738 46.4C385.25 47.6 385.625 48.0875 391.225 54.7125L396 60.375V61.9375C396 63.3375 396.025 63.525 396.25 63.75C396.488 63.9875 396.663 64 403 64C409.337 64 409.513 63.9875 409.75 63.75C409.988 63.5125 410 63.3375 410 58.125C410 52 409.95 51.525 409.1 49.75C408.688 48.8875 408.388 48.4875 407.513 47.6125C406.275 46.3875 405.3 45.825 403.575 45.375L402.488 45.0875L399.75 42.2875L397 39.4875V35.4625C397 31.1 396.95 30.6875 396.3 29.5125C395.575 28.1625 394.012 27.175 392.413 27.0375L391.55 26.9625L391.25 26.425C390.575 25.1375 388.925 24.1375 387.35 24.0625C386.85 24.025 386.237 24.075 386 24.15ZM388.338 26.3625C388.888 26.6375 389.375 27.1375 389.7 27.75C389.925 28.1625 389.938 28.675 390 35.5C390.075 43.4375 390.05 43.1875 390.8 44.325C390.963 44.6 392.725 46.4625 394.713 48.475C398 51.825 398.35 52.1375 398.725 52.125C399.275 52.125 399.75 51.65 399.75 51.1125C399.75 50.75 399.375 50.325 396.137 47.075C393.025 43.9375 392.5 43.3625 392.387 42.9C392 41.475 393.35 40.1375 394.812 40.5125C395.238 40.625 395.812 41.1375 398.387 43.7125C400.075 45.4 401.538 46.825 401.638 46.875C401.738 46.9375 402.3 47.1 402.875 47.25C404.25 47.6 405.263 48.1375 406.15 49.0125C406.962 49.8125 407.663 51.1125 407.875 52.2375C407.95 52.6125 408 54.9 408 57.45V62H403H398V60.8125V59.6375L392.85 53.5375C390.013 50.1875 387.463 47.0875 387.175 46.675C386.888 46.25 386.525 45.55 386.362 45.1125L386.062 44.3125L386.025 35.4625L385.988 26.625L386.312 26.3C386.612 26 386.713 25.975 387.25 26.0375C387.588 26.075 388.075 26.225 388.338 26.3625ZM393.312 29.3375C393.85 29.6125 394.363 30.1125 394.663 30.6875C394.925 31.1625 394.938 31.375 394.975 34.825L395.012 38.475H394.2C393.588 38.475 393.2 38.5625 392.688 38.8L392 39.1125V34.0375V28.975L392.463 29.0625C392.725 29.1125 393.1 29.2375 393.312 29.3375Z" fill="black"/>
<path d="M443.837 24.1375C442.638 24.425 441.275 25.425 440.75 26.425L440.45 26.9625L439.587 27.0375C437.988 27.175 436.425 28.1625 435.7 29.5125C435.05 30.6875 435 31.1 435 35.4625V39.4875L432.25 42.2875L429.513 45.0875L428.425 45.375C426.7 45.825 425.725 46.3875 424.487 47.6125C423.613 48.4875 423.312 48.8875 422.9 49.75C422.05 51.525 422 52 422 58.125C422 63.3375 422.013 63.5125 422.25 63.75C422.488 63.9875 422.663 64 429 64C435.338 64 435.512 63.9875 435.75 63.75C435.975 63.525 436 63.3375 436 61.9375V60.3625L440.775 54.7125C446.375 48.0875 446.75 47.6 447.263 46.4C447.988 44.65 448 44.4125 448 35.175C448 29.325 447.962 26.5625 447.863 26.175C447.663 25.4 446.8 24.4625 446.038 24.2C445.413 23.9875 444.587 23.9625 443.837 24.1375ZM445.7 26.3125L446.013 26.625L445.975 35.4C445.938 44.175 445.938 44.1875 445.65 45.025C445.5 45.4875 445.125 46.225 444.837 46.65C444.55 47.0875 441.988 50.1875 439.15 53.5375L434 59.6375V60.8125V62H429H424V57.45C424 54.9 424.05 52.6125 424.125 52.2375C424.338 51.1125 425.038 49.8125 425.85 49.0125C426.738 48.1375 427.75 47.6 429.125 47.25C429.7 47.1 430.262 46.9375 430.35 46.8875C430.45 46.825 431.913 45.4 433.613 43.7125C436.15 41.1875 436.775 40.625 437.188 40.5125C438.638 40.125 440 41.4625 439.613 42.9C439.5 43.3625 438.975 43.9375 435.863 47.075C432.625 50.325 432.25 50.75 432.25 51.1125C432.25 51.65 432.725 52.125 433.275 52.125C433.65 52.1375 433.988 51.825 437.225 48.5375C439.175 46.5625 440.938 44.7 441.138 44.4125C441.95 43.25 441.925 43.5375 442 35.5C442.075 27.45 442.025 27.85 442.863 26.9625C443.7 26.0625 445.113 25.7375 445.7 26.3125ZM440 34.05V39.1125L439.3 38.7875C438.788 38.55 438.375 38.4625 437.788 38.4625L436.988 38.45L437.025 34.825C437.062 31.5625 437.088 31.1375 437.3 30.75C437.738 29.925 438.388 29.375 439.25 29.1125C440.062 28.875 440 28.475 440 34.05Z" fill="black"/>
</g>
<path d="M498.025 0.25C496.787 0.575001 495.85 1.125 494.862 2.1125C493.675 3.3125 493.125 4.4875 492.812 6.525C492.75 6.9375 492.7 7 492.4 7C492.212 7 491.762 7.0875 491.412 7.175C488.837 7.8625 486.862 9.9625 486.312 12.5875C486.037 13.8625 486.037 57.1375 486.312 58.4125C486.6 59.7625 487.187 60.8125 488.25 61.875C489.325 62.9625 490.087 63.4 491.45 63.75C492.387 63.9875 492.887 64 508.687 64C524.512 64 524.987 63.9875 525.925 63.75C527.2 63.425 528.125 62.8875 529.137 61.8875C530.325 60.6875 530.875 59.5125 531.187 57.4625C531.25 57.0625 531.3 57 531.6 57C531.787 57 532.237 56.9125 532.587 56.825C534.575 56.3 536.35 54.8 537.2 52.9375C537.912 51.4 537.887 52.425 537.85 28.0875L537.812 5.6875L537.537 4.8625C536.812 2.7625 535.112 1.0625 533.012 0.337498L532.187 0.0625L515.562 0.0374985C499.487 0.0125008 498.912 0.0249977 498.025 0.25ZM532.137 2.575C532.962 2.825 533.987 3.4875 534.437 4.075C534.612 4.3125 534.912 4.825 535.1 5.225L535.437 5.9375V28.625V51.3125L535.112 52C534.462 53.3625 533.112 54.4375 531.725 54.675L531.25 54.7625V37.1875V19.625L527.662 15.5875C525.675 13.375 523.212 10.6 522.162 9.425C521.112 8.25 520.112 7.225 519.937 7.15C519.7 7.0375 516.475 7 507.362 7H495.125L495.2 6.4625C495.487 4.5875 496.75 3.125 498.562 2.55C498.95 2.425 502.537 2.3875 515.262 2.3875C529.812 2.375 531.525 2.4 532.137 2.575ZM518.25 14.95V20.525L518.612 20.8875L518.975 21.25H523.925H528.875L528.85 39.725L528.812 58.1875L528.412 59C527.7 60.4375 526.45 61.3625 524.875 61.6125C523.85 61.7875 493.65 61.8 492.525 61.6375C490.925 61.4 489.45 60.25 488.85 58.775L488.562 58.0625L488.525 35.825C488.487 11.075 488.437 12.7 489.35 11.3875C489.925 10.5375 490.5 10.075 491.45 9.6875L492.187 9.375H505.225H518.25V14.95ZM524 15C525.675 16.8875 527.125 18.5375 527.225 18.65C527.4 18.8625 527.237 18.875 524.025 18.875H520.625V15.0375C520.625 11.8 520.65 11.225 520.8 11.375C520.887 11.475 522.325 13.1125 524 15Z" fill="black"/>
<path d="M494.3 19.0125C493.575 19.225 493.263 19.875 493.563 20.575C493.65 20.8 493.838 21.0375 493.975 21.1125C494.15 21.2 496.05 21.25 499.813 21.25H505.4L505.763 20.8875C506.25 20.4 506.25 19.8875 505.763 19.35L505.4 18.9375L500.038 18.9125C497.088 18.9 494.513 18.95 494.3 19.0125Z" fill="black"/>
<path d="M494.037 26.9C493.675 27.075 493.35 27.7875 493.45 28.175C493.487 28.3375 493.662 28.6125 493.837 28.775L494.15 29.0625H508.45H522.75L523.075 28.7375C523.525 28.2875 523.525 27.5875 523.075 27.1375L522.75 26.8125L508.525 26.7875C498.65 26.775 494.225 26.8 494.037 26.9Z" fill="black"/>
<path d="M494.25 32.5875C493.625 32.825 493.3 33.4625 493.512 34.0875C493.787 34.925 492.887 34.875 508.425 34.875C518.462 34.875 522.575 34.8375 522.787 34.7375C523.075 34.6125 523.262 34.3375 523.412 33.8625C523.45 33.7625 523.4 33.4875 523.3 33.275C522.962 32.4625 523.7 32.5 508.35 32.5125C500.7 32.5125 494.35 32.55 494.25 32.5875Z" fill="black"/>
<path d="M493.975 38.5625C493.575 38.7875 493.325 39.4625 493.487 39.8875C493.55 40.05 493.725 40.3 493.875 40.4375C494.15 40.6875 494.325 40.6875 508.45 40.6875H522.75L523.062 40.3625C523.612 39.825 523.462 38.825 522.787 38.5125C522.575 38.4125 518.475 38.375 508.4 38.375C496.337 38.3875 494.262 38.4125 493.975 38.5625Z" fill="black"/>
<path d="M494.187 44.2375C493.362 44.575 493.2 45.55 493.85 46.1375L494.25 46.5H508.437H522.625L523.012 46.15C523.525 45.6875 523.55 45 523.075 44.5125L522.75 44.1875L508.587 44.1625C500.812 44.15 494.325 44.1875 494.187 44.2375Z" fill="black"/>
<path d="M494.312 49.8375C493.662 50 493.287 50.725 493.525 51.4C493.775 52.1125 493.837 52.125 499.862 52.125H505.362L505.712 51.825C506.2 51.4 506.2 50.6375 505.712 50.15L505.375 49.8125L499.962 49.7875C497 49.7875 494.45 49.8 494.312 49.8375Z" fill="black"/>
<path d="M833.912 56.1412C833.96 56.0961 834.016 56.0608 834.077 56.0374C834.139 56.014 834.204 56.0029 834.27 56.0048C834.336 56.0066 834.4 56.0214 834.46 56.0483C834.52 56.0751 834.574 56.1135 834.619 56.1612C834.664 56.209 834.7 56.2651 834.723 56.3265C834.746 56.3878 834.758 56.4532 834.756 56.5189C834.754 56.5845 834.739 56.6492 834.712 56.7091C834.685 56.769 834.647 56.8231 834.599 56.8682L830.099 61.1182C830.006 61.206 829.883 61.2549 829.756 61.2549C829.628 61.2549 829.505 61.206 829.412 61.1182L824.912 56.8682C824.863 56.8234 824.824 56.7693 824.796 56.7092C824.768 56.649 824.753 56.584 824.75 56.5178C824.748 56.4516 824.759 56.3856 824.782 56.3236C824.806 56.2616 824.841 56.2049 824.886 56.1567C824.932 56.1086 824.987 56.0699 825.047 56.043C825.108 56.0161 825.173 56.0016 825.239 56.0001C825.305 55.9987 825.371 56.0104 825.433 56.0346C825.494 56.0589 825.551 56.0951 825.598 56.1412L829.756 60.0672L833.912 56.1412Z" fill="#505050"/>
<path d="M700 30C700 31.1 700.9 32 702 32H717.18L699.42 49.76C699.235 49.9452 699.088 50.165 698.988 50.4069C698.888 50.6488 698.836 50.9081 698.836 51.17C698.836 51.4319 698.888 51.6912 698.988 51.9331C699.088 52.175 699.235 52.3948 699.42 52.58C699.605 52.7652 699.825 52.912 700.067 53.0123C700.309 53.1125 700.568 53.164 700.83 53.164C701.092 53.164 701.351 53.1125 701.593 53.0123C701.835 52.912 702.055 52.7652 702.24 52.58L720 34.82V50C720 51.1 720.9 52 722 52C723.1 52 724 51.1 724 50V30C724 28.9 723.1 28 722 28H702C700.9 28 700 28.9 700 30Z" fill="#F1F1F1"/>
<defs>
<clipPath id="clip0_406_487">
<rect width="64" height="64" fill="white"/>
</clipPath>
<clipPath id="clip1_406_487">
<rect width="64" height="64" fill="white" transform="translate(192)"/>
</clipPath>
<clipPath id="clip2_406_487">
<rect width="64" height="64" fill="white" transform="translate(384)"/>
</clipPath>
</defs>
</svg>
