<!-- Generated by IcoMoon.io -->
<svg version="1.1" xmlns="http://www.w3.org/2000/svg" width="32" height="32" viewBox="0 0 32 32">
<title>impact</title>
<path d="M15.031 0.037c-0.831 0.119-1.475 0.256-2.062 0.444-3.044 0.969-5.419 3.306-6.45 6.362-0.375 1.113-0.488 1.844-0.481 3.156 0 1.313 0.112 2.063 0.481 3.156 1.337 3.962 4.906 6.65 9.075 6.819 4.725 0.2 8.931-2.95 10.094-7.55 1.394-5.55-2.138-11.106-7.781-12.238-0.6-0.125-2.419-0.219-2.875-0.15zM17.825 1.188c1.762 0.375 3.225 1.169 4.525 2.469 0.644 0.644 1.5 1.769 1.45 1.919-0.012 0.031-0.25 0.156-0.525 0.275l-0.5 0.219-1.175-0.437c-1.131-0.425-1.188-0.45-1.587-0.825-0.537-0.5-0.962-0.7-1.506-0.7-0.55 0-0.863 0.144-1.631 0.75-1.019 0.813-1.063 0.925-0.831 2.325 0.088 0.537 0.188 1.012 0.225 1.062 0.088 0.1 1.794 1.25 2.088 1.4 0.244 0.125 0.625 0.131 1.056 0.019 0.194-0.050 0.356-0.063 0.419-0.031 0.050 0.031 0.387 0.513 0.744 1.075l0.644 1.012 0.031 1.688c0.038 1.937 0.025 1.875 0.625 2.594l0.387 0.469-0.238 0.212c-1.731 1.513-3.837 2.319-6.081 2.319-0.856 0-2.625-0.312-2.631-0.469-0.006-0.038 0.081-0.288 0.181-0.563l0.194-0.5 0.8-0.481c0.444-0.269 0.844-0.531 0.894-0.587 0.056-0.069 0.1-0.325 0.119-0.7l0.031-0.594 0.337-0.119c0.188-0.063 0.388-0.156 0.45-0.213 0.144-0.131 1.031-1.619 1.125-1.887 0.094-0.281 0.044-0.813-0.106-1.106-0.206-0.394-0.525-0.606-1.125-0.75l-0.537-0.131-0.238-0.581c-0.131-0.325-0.319-0.669-0.419-0.775-0.3-0.319-0.475-0.356-1.625-0.356h-1.050l-0.125-0.231c-0.188-0.337-0.531-0.588-0.875-0.631l-0.288-0.031 0.019-0.231c0.019-0.213 0.106-0.306 1.269-1.325 0.687-0.6 1.287-1.131 1.325-1.187 0.044-0.050 0.144-0.4 0.219-0.775 0.144-0.675 0.144-0.681 0.331-0.7 0.444-0.037 0.606-0.094 0.819-0.275 0.375-0.331 0.519-0.744 0.4-1.169-0.1-0.381-0.325-0.594-1.019-0.988l-0.631-0.356 0.206-0.056c1.012-0.256 2.731-0.281 3.831-0.044zM13.475 2.256c1.213 0.681 1.294 0.806 0.525 0.806-0.506 0-0.719 0.081-0.806 0.306-0.037 0.087-0.131 0.487-0.213 0.881l-0.144 0.719-1.306 1.15c-0.725 0.631-1.344 1.213-1.387 1.281-0.044 0.075-0.075 0.306-0.081 0.519 0 0.419-0.031 0.45-0.325 0.337-0.112-0.044-0.181-0.162-0.287-0.5-0.094-0.281-0.194-0.475-0.281-0.531-0.075-0.050-0.469-0.119-0.869-0.162-0.406-0.044-0.737-0.1-0.737-0.125s0.081-0.244 0.181-0.481c0.8-1.881 2.275-3.469 4.087-4.419 0.3-0.156 0.594-0.288 0.65-0.288s0.506 0.225 0.994 0.506zM18.688 5.1c0.131 0.031 0.369 0.2 0.681 0.487l0.475 0.45 2.95 1.1 0.744-0.312c0.538-0.225 0.756-0.294 0.788-0.237 0.025 0.044 0.119 0.294 0.206 0.563 0.794 2.369 0.556 4.987-0.663 7.194-0.325 0.594-0.831 1.312-0.925 1.312-0.031 0-0.194-0.169-0.356-0.369l-0.306-0.369-0.031-1.756-0.031-1.756-0.775-1.206c-0.425-0.663-0.862-1.275-0.969-1.356-0.338-0.25-0.625-0.294-1.194-0.175l-0.5 0.1-0.831-0.55c-0.45-0.3-0.825-0.569-0.825-0.588s-0.056-0.35-0.119-0.725c-0.069-0.388-0.094-0.731-0.069-0.781 0.075-0.138 1.156-0.963 1.325-1.013 0.2-0.056 0.2-0.056 0.425-0.013zM8.6 8.4c0.181 0.556 0.25 0.65 0.556 0.737l0.275 0.081-0.337 0.262c-0.387 0.3-0.438 0.444-0.394 1.131 0.019 0.35 0.106 0.625 0.544 1.7 0.494 1.2 0.688 1.563 0.844 1.563 0.031 0 0.281 0.062 0.55 0.131 0.775 0.213 0.856 0.469 0.331 1.056-0.444 0.5-0.494 0.631-0.444 1.212 0.019 0.281 0.056 0.6 0.075 0.719l0.044 0.212-0.213-0.144c-0.456-0.319-1.475-1.419-1.887-2.037-0.975-1.463-1.45-2.919-1.525-4.681-0.031-0.731 0.081-1.975 0.206-2.3 0.019-0.056 0.169-0.062 0.65-0.019l0.619 0.056 0.106 0.319zM11.387 9.594c0.144 0.544 0.188 0.556 1.656 0.594l1.281 0.031 0.275 0.687c0.15 0.375 0.331 0.737 0.394 0.8 0.069 0.075 0.344 0.162 0.7 0.238 0.956 0.2 1 0.331 0.394 1.35-0.394 0.675-0.419 0.7-0.713 0.8-0.369 0.125-0.787 0.55-0.838 0.856-0.019 0.113-0.044 0.356-0.056 0.544l-0.012 0.344-0.731 0.437c-0.406 0.244-0.775 0.487-0.819 0.537-0.050 0.050-0.2 0.375-0.325 0.719-0.131 0.344-0.25 0.637-0.256 0.65-0.012 0.012-0.131-0.025-0.269-0.088l-0.244-0.106-0.169-0.887c-0.087-0.481-0.175-0.913-0.188-0.956s0.113-0.238 0.275-0.438c0.537-0.644 0.65-1.019 0.481-1.6-0.144-0.5-0.563-0.863-1.175-1.025l-0.456-0.125-0.45-1.088c-0.294-0.719-0.45-1.175-0.45-1.344-0.006-0.25 0-0.256 0.663-0.731 0.375-0.263 0.737-0.481 0.813-0.481 0.119 0 0.156 0.056 0.219 0.281z"></path>
<path d="M1 12.075c-0.344 0.119-0.838 0.65-0.925 1-0.056 0.213-0.075 1.475-0.075 4.512 0 4.619 0.006 4.737 0.369 5.613 0.256 0.6 0.444 0.844 3.244 4.156l2.388 2.831v0.781c0 0.7 0.013 0.794 0.125 0.906 0.119 0.119 0.206 0.125 3.375 0.125s3.256-0.006 3.375-0.125 0.125-0.206 0.125-2.813c0-3.063-0.025-3.3-0.45-4.188-0.206-0.431-0.356-0.631-0.794-1.069-0.619-0.612-1.106-0.894-1.969-1.119l-0.544-0.144-1.369-1.4-1.375-1.4v-2.012c0-2.181-0.025-2.387-0.35-2.975-0.362-0.675-1.144-1.169-1.944-1.238l-0.431-0.037-0.15-0.269c-0.337-0.644-1.163-1.144-1.95-1.181-0.25-0.019-0.556 0.006-0.675 0.044zM2.169 13.181c0.275 0.137 0.519 0.387 0.681 0.694 0.112 0.206 0.119 0.462 0.15 3.875 0.038 3.969 0.025 3.844 0.4 4.413 0.081 0.138 0.962 1.069 1.956 2.075 1.644 1.675 1.819 1.831 2.006 1.825 0.275 0 0.513-0.238 0.513-0.506 0-0.181-0.188-0.394-1.806-2.019-1.556-1.569-1.819-1.856-1.875-2.087-0.194-0.713 0.481-1.381 1.213-1.194 0.213 0.056 0.5 0.313 1.788 1.6 0.844 0.844 1.575 1.556 1.625 1.581 0.050 0.031 0.331 0.112 0.619 0.188 0.687 0.175 1.194 0.444 1.637 0.881 0.406 0.4 0.756 1.050 0.862 1.613 0.037 0.188 0.063 1.331 0.063 2.606v2.275h-5v-1.181l-2.575-3.050c-1.419-1.675-2.694-3.225-2.837-3.431-0.144-0.212-0.325-0.563-0.406-0.781l-0.15-0.4-0.019-4.425-0.019-4.419 0.163-0.162c0.15-0.15 0.2-0.162 0.469-0.131 0.169 0.019 0.413 0.094 0.544 0.163zM4.656 14.669c0.269 0.137 0.525 0.387 0.675 0.675 0.131 0.238 0.138 0.344 0.156 2.069l0.019 1.825h-0.406c-0.306 0-0.5 0.044-0.756 0.163l-0.344 0.156v-5.069l0.231 0.044c0.131 0.025 0.319 0.087 0.425 0.137z"></path>
<path d="M29.919 12.069c-0.6 0.144-1.281 0.644-1.544 1.144l-0.15 0.269-0.431 0.037c-0.8 0.069-1.581 0.563-1.944 1.238-0.325 0.588-0.35 0.794-0.35 2.975v2.012l-1.375 1.4-1.369 1.4-0.544 0.144c-0.863 0.225-1.35 0.506-1.969 1.119-0.438 0.438-0.587 0.637-0.794 1.069-0.425 0.887-0.45 1.125-0.45 4.188 0 2.606 0.006 2.694 0.125 2.813s0.206 0.125 3.375 0.125c3.169 0 3.256-0.006 3.375-0.125 0.112-0.113 0.125-0.206 0.125-0.906v-0.788l2.387-2.825c2.8-3.313 2.988-3.556 3.244-4.156 0.363-0.875 0.369-0.994 0.369-5.613 0-2.925-0.019-4.306-0.069-4.5-0.1-0.388-0.531-0.856-0.913-0.988-0.312-0.106-0.725-0.119-1.1-0.031zM30.85 13.156l0.156 0.156-0.019 4.387c-0.019 4.388-0.019 4.394-0.163 4.813-0.075 0.231-0.263 0.6-0.406 0.813-0.144 0.219-1.425 1.769-2.844 3.444l-2.575 3.050v1.181h-5v-2.275c0-1.275 0.025-2.419 0.063-2.606 0.106-0.563 0.456-1.212 0.862-1.613 0.444-0.438 0.95-0.706 1.637-0.881 0.288-0.075 0.569-0.156 0.613-0.181 0.050-0.031 0.781-0.744 1.631-1.587 1.269-1.262 1.581-1.544 1.788-1.6 0.725-0.194 1.406 0.475 1.212 1.194-0.056 0.231-0.319 0.519-1.875 2.087-1.619 1.625-1.806 1.837-1.806 2.019 0 0.269 0.238 0.506 0.513 0.506 0.188 0.006 0.356-0.15 1.975-1.794 0.975-0.988 1.856-1.919 1.956-2.063 0.406-0.581 0.394-0.437 0.431-4.456 0.038-4.025 0.012-3.825 0.431-4.269 0.419-0.45 1.125-0.613 1.419-0.325zM28 17.025v2.531l-0.35-0.163c-0.256-0.119-0.463-0.163-0.756-0.163l-0.4-0.006 0.019-1.813c0.019-1.631 0.031-1.844 0.138-2.037 0.219-0.412 0.544-0.687 0.975-0.819 0.406-0.119 0.375-0.319 0.375 2.469z"></path>
</svg>
