<svg width="64" height="64" viewBox="0 0 64 64" fill="red" xmlns="http://www.w3.org/2000/svg">
<path d="M30.0625 0.0750008C28.4 0.3125 27.1125 0.587502 25.9375 0.962502C19.85 2.9 15.1 7.575 13.0375 13.6875C12.2875 15.9125 12.0625 17.375 12.075 20C12.075 22.625 12.3 24.125 13.0375 26.3125C15.7125 34.2375 22.85 39.6125 31.1875 39.95C40.6374 40.35 49.0499 34.05 51.375 24.85C54.1624 13.75 47.0999 2.6375 35.8125 0.375C34.6124 0.125 30.975 -0.0625 30.0625 0.0750008ZM35.65 2.375C39.1749 3.125 42.0999 4.7125 44.6999 7.3125C45.9874 8.6 47.6999 10.85 47.5999 11.15C47.5749 11.2125 47.0999 11.4625 46.5499 11.7L45.5499 12.1375L43.1999 11.2625C40.9374 10.4125 40.8249 10.3625 40.025 9.6125C38.9499 8.6125 38.0999 8.2125 37.0124 8.2125C35.9124 8.2125 35.2874 8.5 33.75 9.7125C31.7125 11.3375 31.625 11.5625 32.0875 14.3625C32.2624 15.4375 32.4625 16.3875 32.5375 16.4875C32.7125 16.6875 36.125 18.9875 36.7125 19.2875C37.1999 19.5375 37.9625 19.55 38.8249 19.325C39.2125 19.225 39.5374 19.2 39.6624 19.2625C39.7624 19.325 40.4375 20.2875 41.15 21.4125L42.4374 23.4375L42.4999 26.8125C42.5749 30.6875 42.5499 30.5625 43.7499 32L44.5249 32.9375L44.0499 33.3625C40.5875 36.3875 36.375 38 31.8874 38C30.1749 38 26.6375 37.375 26.625 37.0625C26.6125 36.9875 26.7874 36.4875 26.9875 35.9375L27.375 34.9375L28.975 33.975C29.8624 33.4375 30.6625 32.9125 30.7624 32.8C30.875 32.6625 30.9625 32.15 31 31.4L31.0625 30.2125L31.7374 29.975C32.1124 29.85 32.5124 29.6625 32.6374 29.55C32.9249 29.2875 34.6999 26.3125 34.8874 25.775C35.0749 25.2125 34.9749 24.15 34.6749 23.5625C34.2624 22.775 33.625 22.35 32.4249 22.0625L31.35 21.8L30.875 20.6375C30.6124 19.9875 30.2374 19.3 30.0375 19.0875C29.4375 18.45 29.0875 18.375 26.7874 18.375H24.6875L24.4375 17.9125C24.0625 17.2375 23.375 16.7375 22.6875 16.65L22.1125 16.5875L22.15 16.125C22.1875 15.7 22.3625 15.5125 24.6875 13.475C26.0625 12.275 27.2625 11.2125 27.3375 11.1C27.425 11 27.625 10.3 27.775 9.55C28.0625 8.2 28.0625 8.1875 28.4375 8.15C29.3249 8.075 29.65 7.9625 30.0749 7.6C30.8249 6.9375 31.1124 6.1125 30.875 5.2625C30.6749 4.5 30.225 4.075 28.8375 3.2875L27.575 2.575L27.9875 2.4625C30.0124 1.95 33.4499 1.9 35.65 2.375ZM26.95 4.5125C29.375 5.875 29.5375 6.125 28 6.125C26.9875 6.125 26.5625 6.2875 26.3875 6.7375C26.3125 6.9125 26.125 7.7125 25.9625 8.5L25.675 9.9375L23.0625 12.2375C21.6125 13.5 20.375 14.6625 20.2875 14.8C20.2 14.95 20.1375 15.4125 20.125 15.8375C20.125 16.675 20.0625 16.7375 19.475 16.5125C19.25 16.425 19.1125 16.1875 18.9 15.5125C18.7125 14.95 18.5125 14.5625 18.3375 14.45C18.1875 14.35 17.4 14.2125 16.6 14.125C15.7875 14.0375 15.125 13.925 15.125 13.875C15.125 13.825 15.2875 13.3875 15.4875 12.9125C17.0875 9.15 20.0375 5.975 23.6625 4.075C24.2625 3.7625 24.85 3.5 24.9625 3.5C25.075 3.5 25.975 3.95 26.95 4.5125ZM37.375 10.2C37.6374 10.2625 38.1124 10.6 38.7374 11.175L39.6875 12.075L42.6374 13.175L45.5874 14.275L47.0749 13.65C48.1499 13.2 48.5874 13.0625 48.6499 13.175C48.6999 13.2625 48.8874 13.7625 49.0625 14.3C50.6499 19.0375 50.1749 24.275 47.7374 28.6875C47.0874 29.875 46.0749 31.3125 45.8874 31.3125C45.8249 31.3125 45.5 30.975 45.1749 30.575L44.5625 29.8375L44.5 26.325L44.4375 22.8125L42.8874 20.4C42.0374 19.075 41.1624 17.85 40.9499 17.6875C40.275 17.1875 39.6999 17.1 38.5625 17.3375L37.5625 17.5375L35.9 16.4375C35 15.8375 34.25 15.3 34.25 15.2625C34.25 15.225 34.1374 14.5625 34.0124 13.8125C33.875 13.0375 33.8249 12.35 33.875 12.25C34.025 11.975 36.1875 10.325 36.525 10.225C36.9249 10.1125 36.9249 10.1125 37.375 10.2ZM17.2 16.8C17.5625 17.9125 17.7 18.1 18.3125 18.275L18.8625 18.4375L18.1875 18.9625C17.4125 19.5625 17.3125 19.85 17.4 21.225C17.4375 21.925 17.6125 22.475 18.4875 24.625C19.475 27.025 19.8625 27.75 20.175 27.75C20.2375 27.75 20.7375 27.875 21.275 28.0125C22.825 28.4375 22.9875 28.95 21.9375 30.125C21.05 31.125 20.95 31.3875 21.05 32.55C21.0875 33.1125 21.1625 33.75 21.2 33.9875L21.2875 34.4125L20.8625 34.125C19.95 33.4875 17.9125 31.2875 17.0875 30.05C15.1375 27.125 14.1875 24.2125 14.0375 20.6875C13.975 19.225 14.2 16.7375 14.45 16.0875C14.4875 15.975 14.7875 15.9625 15.75 16.05L16.9875 16.1625L17.2 16.8ZM22.775 19.1875C23.0625 20.275 23.15 20.3 26.0875 20.375L28.65 20.4375L29.1999 21.8125C29.5 22.5625 29.8624 23.2875 29.9874 23.4125C30.125 23.5625 30.6749 23.7375 31.3874 23.8875C33.2999 24.2875 33.3874 24.55 32.1749 26.5875C31.3874 27.9375 31.3375 27.9875 30.75 28.1875C30.0124 28.4375 29.1749 29.2875 29.0749 29.9C29.0375 30.125 28.9874 30.6125 28.9625 30.9875L28.9375 31.675L27.4749 32.55C26.6624 33.0375 25.925 33.525 25.8375 33.625C25.7375 33.725 25.4375 34.375 25.1875 35.0625C24.925 35.75 24.6875 36.3375 24.675 36.3625C24.65 36.3875 24.4125 36.3125 24.1375 36.1875L23.65 35.975L23.3125 34.2C23.1375 33.2375 22.9625 32.375 22.9375 32.2875C22.9125 32.2 23.1625 31.8125 23.4875 31.4125C24.5625 30.125 24.7875 29.375 24.45 28.2125C24.1625 27.2125 23.325 26.4875 22.1 26.1625L21.1875 25.9125L20.2875 23.7375C19.7 22.3 19.3875 21.3875 19.3875 21.05C19.375 20.55 19.3875 20.5375 20.7125 19.5875C21.4625 19.0625 22.1875 18.625 22.3375 18.625C22.575 18.625 22.65 18.7375 22.775 19.1875Z" fill="black"/>
<path d="M2 24.15C1.3125 24.3875 0.325 25.45 0.15 26.15C0.0375 26.575 0 29.1 0 35.175C0 44.4125 0.0125 44.65 0.7375 46.4C1.25 47.6 1.625 48.0875 7.225 54.7125L12 60.375V61.9375C12 63.3375 12.025 63.525 12.25 63.75C12.4875 63.9875 12.6625 64 19 64C25.3375 64 25.5125 63.9875 25.75 63.75C25.9875 63.5125 26 63.3375 26 58.125C26 52 25.95 51.525 25.1 49.75C24.6875 48.8875 24.3875 48.4875 23.5125 47.6125C22.275 46.3875 21.3 45.825 19.575 45.375L18.4875 45.0875L15.75 42.2875L13 39.4875V35.4625C13 31.1 12.95 30.6875 12.3 29.5125C11.575 28.1625 10.0125 27.175 8.4125 27.0375L7.55 26.9625L7.25 26.425C6.575 25.1375 4.925 24.1375 3.35 24.0625C2.85 24.025 2.2375 24.075 2 24.15ZM4.3375 26.3625C4.8875 26.6375 5.375 27.1375 5.7 27.75C5.925 28.1625 5.9375 28.675 6 35.5C6.075 43.4375 6.05 43.1875 6.8 44.325C6.9625 44.6 8.725 46.4625 10.7125 48.475C14 51.825 14.35 52.1375 14.725 52.125C15.275 52.125 15.75 51.65 15.75 51.1125C15.75 50.75 15.375 50.325 12.1375 47.075C9.025 43.9375 8.5 43.3625 8.3875 42.9C8 41.475 9.35 40.1375 10.8125 40.5125C11.2375 40.625 11.8125 41.1375 14.3875 43.7125C16.075 45.4 17.5375 46.825 17.6375 46.875C17.7375 46.9375 18.3 47.1 18.875 47.25C20.25 47.6 21.2625 48.1375 22.15 49.0125C22.9625 49.8125 23.6625 51.1125 23.875 52.2375C23.95 52.6125 24 54.9 24 57.45V62H19H14V60.8125V59.6375L8.85 53.5375C6.0125 50.1875 3.4625 47.0875 3.175 46.675C2.8875 46.25 2.525 45.55 2.3625 45.1125L2.0625 44.3125L2.025 35.4625L1.9875 26.625L2.3125 26.3C2.6125 26 2.7125 25.975 3.25 26.0375C3.5875 26.075 4.075 26.225 4.3375 26.3625ZM9.3125 29.3375C9.85 29.6125 10.3625 30.1125 10.6625 30.6875C10.925 31.1625 10.9375 31.375 10.975 34.825L11.0125 38.475H10.2C9.5875 38.475 9.2 38.5625 8.6875 38.8L8 39.1125V34.0375V28.975L8.4625 29.0625C8.725 29.1125 9.1 29.2375 9.3125 29.3375Z" fill="black"/>
<path d="M59.8375 24.1375C58.6375 24.425 57.275 25.425 56.75 26.425L56.45 26.9625L55.5875 27.0375C53.9875 27.175 52.425 28.1625 51.7 29.5125C51.05 30.6875 51 31.1 51 35.4625V39.4875L48.25 42.2875L45.5125 45.0875L44.425 45.375C42.7 45.825 41.725 46.3875 40.4875 47.6125C39.6125 48.4875 39.3125 48.8875 38.9 49.75C38.05 51.525 38 52 38 58.125C38 63.3375 38.0125 63.5125 38.25 63.75C38.4875 63.9875 38.6625 64 45 64C51.3375 64 51.5125 63.9875 51.75 63.75C51.975 63.525 52 63.3375 52 61.9375V60.3625L56.775 54.7125C62.375 48.0875 62.75 47.6 63.2625 46.4C63.9875 44.65 64 44.4125 64 35.175C64 29.325 63.9625 26.5625 63.8625 26.175C63.6625 25.4 62.8 24.4625 62.0375 24.2C61.4125 23.9875 60.5875 23.9625 59.8375 24.1375ZM61.7 26.3125L62.0125 26.625L61.975 35.4C61.9375 44.175 61.9375 44.1875 61.65 45.025C61.5 45.4875 61.125 46.225 60.8375 46.65C60.55 47.0875 57.9875 50.1875 55.15 53.5375L50 59.6375V60.8125V62H45H40V57.45C40 54.9 40.05 52.6125 40.125 52.2375C40.3375 51.1125 41.0375 49.8125 41.85 49.0125C42.7375 48.1375 43.75 47.6 45.125 47.25C45.7 47.1 46.2625 46.9375 46.35 46.8875C46.45 46.825 47.9125 45.4 49.6125 43.7125C52.15 41.1875 52.775 40.625 53.1875 40.5125C54.6375 40.125 56 41.4625 55.6125 42.9C55.5 43.3625 54.975 43.9375 51.8625 47.075C48.625 50.325 48.25 50.75 48.25 51.1125C48.25 51.65 48.725 52.125 49.275 52.125C49.65 52.1375 49.9875 51.825 53.225 48.5375C55.175 46.5625 56.9375 44.7 57.1375 44.4125C57.95 43.25 57.925 43.5375 58 35.5C58.075 27.45 58.025 27.85 58.8625 26.9625C59.7 26.0625 61.1125 25.7375 61.7 26.3125ZM56 34.05V39.1125L55.3 38.7875C54.7875 38.55 54.375 38.4625 53.7875 38.4625L52.9875 38.45L53.025 34.825C53.0625 31.5625 53.0875 31.1375 53.3 30.75C53.7375 29.925 54.3875 29.375 55.25 29.1125C56.0625 28.875 56 28.475 56 34.05Z" fill="black"/>
</svg>
