<svg width="30" height="30" viewBox="0 0 30 30" fill="none" xmlns="http://www.w3.org/2000/svg">
<path d="M25.804 30H4.19604C3.08318 30 2.0159 29.5579 1.22899 28.771C0.442081 27.9841 0 26.9168 0 25.804V4.19604C0 3.08318 0.442081 2.0159 1.22899 1.22899C2.0159 0.442081 3.08318 0 4.19604 0H25.804C26.9168 0 27.9841 0.442081 28.771 1.22899C29.5579 2.0159 30 3.08318 30 4.19604V25.804C30 26.9168 29.5579 27.9841 28.771 28.771C27.9841 29.5579 26.9168 30 25.804 30ZM4.19604 1.67842C3.52832 1.67842 2.88796 1.94366 2.41581 2.41581C1.94366 2.88796 1.67842 3.52832 1.67842 4.19604V25.804C1.67842 26.4717 1.94366 27.112 2.41581 27.5842C2.88796 28.0563 3.52832 28.3216 4.19604 28.3216H25.804C26.4717 28.3216 27.112 28.0563 27.5842 27.5842C28.0563 27.112 28.3216 26.4717 28.3216 25.804V4.19604C28.3216 3.52832 28.0563 2.88796 27.5842 2.41581C27.112 1.94366 26.4717 1.67842 25.804 1.67842H4.19604Z" fill="#0E0E0E"/>
<path d="M14.9998 22.7108C13.4748 22.7091 11.9844 22.2553 10.7172 21.4068C9.44999 20.5583 8.46279 19.3531 7.8804 17.9436C7.29801 16.5341 7.14658 14.9836 7.44524 13.4881C7.7439 11.9926 8.47926 10.6191 9.55835 9.54147C10.6374 8.46378 12.0118 7.73022 13.5077 7.43351C15.0037 7.1368 16.554 7.29026 17.9627 7.87449C19.3714 8.45872 20.5753 9.44749 21.4222 10.7158C22.269 11.9841 22.7209 13.4751 22.7205 15.0001C22.7179 17.046 21.9033 19.0073 20.4556 20.453C19.008 21.8987 17.0457 22.7108 14.9998 22.7108ZM14.9998 8.95783C13.8072 8.95949 12.6417 9.31457 11.6507 9.97823C10.6598 10.6419 9.88767 11.5843 9.43202 12.6865C8.97637 13.7887 8.85759 15.0013 9.09067 16.1709C9.32376 17.3406 9.89826 18.415 10.7416 19.2583C11.585 20.1017 12.6593 20.6762 13.829 20.9093C14.9987 21.1424 16.2112 21.0236 17.3134 20.5679C18.4156 20.1123 19.3581 19.3402 20.0217 18.3492C20.6854 17.3582 21.0405 16.1928 21.0421 15.0001C21.0421 13.3976 20.4055 11.8607 19.2724 10.7276C18.1392 9.59443 16.6023 8.95783 14.9998 8.95783Z" fill="#0E0E0E"/>
<path d="M23.7276 8.1266C24.7241 8.1266 25.5319 7.31879 25.5319 6.3223C25.5319 5.32582 24.7241 4.51801 23.7276 4.51801C22.7312 4.51801 21.9233 5.32582 21.9233 6.3223C21.9233 7.31879 22.7312 8.1266 23.7276 8.1266Z" fill="#0E0E0E"/>
</svg>
