<!-- Generated by IcoMoon.io -->
<svg version="1.1" xmlns="http://www.w3.org/2000/svg" width="32" height="32" viewBox="0 0 32 32">
<title>instagram</title>
<path d="M25.796 29.6h-19.591c-1.009 0-1.977-0.401-2.69-1.114s-1.114-1.681-1.114-2.69v-19.591c0-1.009 0.401-1.977 1.114-2.69s1.681-1.114 2.69-1.114h19.591c1.009 0 1.977 0.401 2.69 1.114s1.114 1.681 1.114 2.69v19.591c0 1.009-0.401 1.977-1.114 2.69s-1.681 1.114-2.69 1.114zM6.204 3.922c-0.605 0-1.186 0.241-1.614 0.669s-0.669 1.009-0.669 1.614v19.591c0 0.605 0.24 1.186 0.669 1.614s1.009 0.669 1.614 0.669h19.591c0.605 0 1.186-0.24 1.614-0.669s0.669-1.009 0.669-1.614v-19.591c0-0.605-0.24-1.186-0.669-1.614s-1.009-0.669-1.614-0.669h-19.591z"></path>
<path d="M16 22.991c-1.383-0.002-2.734-0.413-3.883-1.182s-2.044-1.862-2.572-3.14c-0.528-1.278-0.665-2.684-0.394-4.040s0.937-2.601 1.916-3.578c0.978-0.977 2.224-1.642 3.581-1.911s2.762-0.13 4.039 0.4c1.277 0.53 2.369 1.426 3.137 2.576s1.177 2.502 1.177 3.884c-0.002 1.855-0.741 3.633-2.054 4.944s-3.092 2.047-4.947 2.047zM16 10.522c-1.081 0.002-2.138 0.323-3.036 0.925s-1.599 1.456-2.012 2.456c-0.413 0.999-0.521 2.099-0.309 3.159s0.732 2.035 1.497 2.799 1.739 1.286 2.799 1.497c1.060 0.211 2.16 0.104 3.159-0.31s1.854-1.113 2.456-2.012c0.602-0.898 0.924-1.955 0.925-3.037 0-1.453-0.577-2.846-1.605-3.874s-2.421-1.605-3.874-1.605z"></path>
<path d="M23.913 9.768c0.903 0 1.636-0.732 1.636-1.636s-0.732-1.636-1.636-1.636c-0.904 0-1.636 0.732-1.636 1.636s0.732 1.636 1.636 1.636z"></path>
</svg>
