<svg width="52" height="64" viewBox="0 0 52 64" fill="none" xmlns="http://www.w3.org/2000/svg">
<path d="M12.025 0.25C10.7875 0.575001 9.84995 1.125 8.86245 2.1125C7.67495 3.3125 7.12495 4.4875 6.81245 6.525C6.74995 6.9375 6.69995 7 6.39995 7C6.21245 7 5.76245 7.0875 5.41245 7.175C2.83745 7.8625 0.862451 9.9625 0.312451 12.5875C0.0374512 13.8625 0.0374512 57.1375 0.312451 58.4125C0.599951 59.7625 1.18745 60.8125 2.24995 61.875C3.32495 62.9625 4.08745 63.4 5.44995 63.75C6.38745 63.9875 6.88745 64 22.6875 64C38.5125 64 38.9875 63.9875 39.925 63.75C41.2 63.425 42.125 62.8875 43.1375 61.8875C44.325 60.6875 44.875 59.5125 45.1875 57.4625C45.25 57.0625 45.3 57 45.6 57C45.7875 57 46.2375 56.9125 46.5875 56.825C48.575 56.3 50.35 54.8 51.2 52.9375C51.9125 51.4 51.8875 52.425 51.85 28.0875L51.8125 5.6875L51.5375 4.8625C50.8125 2.7625 49.1125 1.0625 47.0125 0.337498L46.1875 0.0625L29.5625 0.0374985C13.4875 0.0125008 12.9125 0.0249977 12.025 0.25ZM46.1375 2.575C46.9625 2.825 47.9875 3.4875 48.4375 4.075C48.6125 4.3125 48.9125 4.825 49.1 5.225L49.4375 5.9375V28.625V51.3125L49.1125 52C48.4625 53.3625 47.1125 54.4375 45.725 54.675L45.25 54.7625V37.1875V19.625L41.6625 15.5875C39.675 13.375 37.2125 10.6 36.1625 9.425C35.1125 8.25 34.1125 7.225 33.9375 7.15C33.7 7.0375 30.475 7 21.3625 7H9.12495L9.19995 6.4625C9.48745 4.5875 10.75 3.125 12.5625 2.55C12.95 2.425 16.5375 2.3875 29.2625 2.3875C43.8125 2.375 45.525 2.4 46.1375 2.575ZM32.25 14.95V20.525L32.6125 20.8875L32.975 21.25H37.925H42.875L42.85 39.725L42.8125 58.1875L42.4125 59C41.7 60.4375 40.45 61.3625 38.875 61.6125C37.85 61.7875 7.64995 61.8 6.52495 61.6375C4.92495 61.4 3.44995 60.25 2.84995 58.775L2.56245 58.0625L2.52495 35.825C2.48745 11.075 2.43745 12.7 3.34995 11.3875C3.92495 10.5375 4.49995 10.075 5.44995 9.6875L6.18745 9.375H19.225H32.25V14.95ZM38 15C39.675 16.8875 41.125 18.5375 41.225 18.65C41.4 18.8625 41.2375 18.875 38.025 18.875H34.625V15.0375C34.625 11.8 34.65 11.225 34.8 11.375C34.8875 11.475 36.325 13.1125 38 15Z" fill="black"/>
<path d="M8.30005 19.0125C7.57505 19.225 7.26255 19.875 7.56255 20.575C7.65005 20.8 7.83755 21.0375 7.97505 21.1125C8.15005 21.2 10.0501 21.25 13.8126 21.25H19.4001L19.7626 20.8875C20.2501 20.4 20.2501 19.8875 19.7626 19.35L19.4001 18.9375L14.0376 18.9125C11.0876 18.9 8.51255 18.95 8.30005 19.0125Z" fill="black"/>
<path d="M8.03748 26.9C7.67498 27.075 7.34998 27.7875 7.44998 28.175C7.48748 28.3375 7.66248 28.6125 7.83748 28.775L8.14998 29.0625H22.45H36.75L37.075 28.7375C37.525 28.2875 37.525 27.5875 37.075 27.1375L36.75 26.8125L22.525 26.7875C12.65 26.775 8.22498 26.8 8.03748 26.9Z" fill="black"/>
<path d="M8.24998 32.5875C7.62498 32.825 7.29998 33.4625 7.51248 34.0875C7.78748 34.925 6.88748 34.875 22.425 34.875C32.4625 34.875 36.575 34.8375 36.7875 34.7375C37.075 34.6125 37.2625 34.3375 37.4125 33.8625C37.45 33.7625 37.4 33.4875 37.3 33.275C36.9625 32.4625 37.7 32.5 22.35 32.5125C14.7 32.5125 8.34998 32.55 8.24998 32.5875Z" fill="black"/>
<path d="M7.97499 38.5625C7.57499 38.7875 7.32499 39.4625 7.48749 39.8875C7.54999 40.05 7.72499 40.3 7.87499 40.4375C8.14999 40.6875 8.32499 40.6875 22.45 40.6875H36.75L37.0625 40.3625C37.6125 39.825 37.4625 38.825 36.7875 38.5125C36.575 38.4125 32.475 38.375 22.4 38.375C10.3375 38.3875 8.26249 38.4125 7.97499 38.5625Z" fill="black"/>
<path d="M8.18738 44.2375C7.36238 44.575 7.19988 45.55 7.84988 46.1375L8.24988 46.5H22.4374H36.6249L37.0124 46.15C37.5249 45.6875 37.5499 45 37.0749 44.5125L36.7499 44.1875L22.5874 44.1625C14.8124 44.15 8.32488 44.1875 8.18738 44.2375Z" fill="black"/>
<path d="M8.31237 49.8375C7.66237 50 7.28737 50.725 7.52487 51.4C7.77487 52.1125 7.83737 52.125 13.8624 52.125H19.3624L19.7124 51.825C20.1999 51.4 20.1999 50.6375 19.7124 50.15L19.3749 49.8125L13.9624 49.7875C10.9999 49.7875 8.44987 49.8 8.31237 49.8375Z" fill="black"/>
</svg>
