<svg width="26" height="26" viewBox="0 0 26 26" fill="none" xmlns="http://www.w3.org/2000/svg">
<path d="M6.33333 10.3333H14.3333M10.3333 6.33333V14.3333M25 25L17 17M1 10.3333C1 11.559 1.24141 12.7727 1.71046 13.905C2.1795 15.0374 2.86699 16.0663 3.73367 16.933C4.60035 17.7997 5.62925 18.4872 6.76162 18.9562C7.89399 19.4253 9.10766 19.6667 10.3333 19.6667C11.559 19.6667 12.7727 19.4253 13.905 18.9562C15.0374 18.4872 16.0663 17.7997 16.933 16.933C17.7997 16.0663 18.4872 15.0374 18.9562 13.905C19.4253 12.7727 19.6667 11.559 19.6667 10.3333C19.6667 9.10766 19.4253 7.89399 18.9562 6.76162C18.4872 5.62925 17.7997 4.60035 16.933 3.73367C16.0663 2.86699 15.0374 2.1795 13.905 1.71046C12.7727 1.24141 11.559 1 10.3333 1C9.10766 1 7.89399 1.24141 6.76162 1.71046C5.62925 2.1795 4.60035 2.86699 3.73367 3.73367C2.86699 4.60035 2.1795 5.62925 1.71046 6.76162C1.24141 7.89399 1 9.10766 1 10.3333Z" stroke="#0E0E0E" stroke-width="2" stroke-linecap="round" stroke-linejoin="round"/>
</svg>
