<svg width="20" height="20" viewBox="0 0 20 20" fill="none" xmlns="http://www.w3.org/2000/svg">
<path d="M4.86887 2.75429C4.8729 3.23305 4.67303 3.69406 4.31246 4.0377C3.95188 4.38134 3.45955 4.58002 2.94185 4.59081C2.42522 4.57328 1.93562 4.37292 1.57422 4.03112C1.21282 3.68933 1.00725 3.23223 1 2.75429C1.02246 2.28863 1.23558 1.84829 1.59617 1.52253C1.95676 1.19677 2.43782 1.00997 2.94185 1C3.4444 1.01016 3.92378 1.19742 4.28196 1.5235C4.64015 1.84958 4.8501 2.28985 4.86887 2.75429ZM1.20753 7.85268C1.20753 6.79737 1.93387 6.96184 2.94185 6.96184C3.94983 6.96184 4.66135 6.79737 4.66135 7.85268V18.1317C4.66135 19.2007 3.93501 18.9814 2.94185 18.9814C1.94869 18.9814 1.20753 19.2007 1.20753 18.1317V7.85268ZM7.65565 7.85268C7.65565 7.26335 7.89282 7.04407 8.2634 6.97554C8.63399 6.90701 9.90879 6.97554 10.3535 6.97554C10.7982 6.97554 10.9761 7.6471 10.9612 8.1542C11.3416 7.68218 11.8467 7.3083 12.428 7.06834C13.0094 6.82838 13.6476 6.73036 14.2817 6.78367C14.9043 6.74847 15.5279 6.83478 16.1121 7.03698C16.6963 7.23918 17.2279 7.55275 17.6725 7.95732C18.1171 8.36189 18.4646 8.8484 18.6925 9.38526C18.9204 9.92212 19.0236 10.4973 18.9955 11.0734V18.0906C18.9955 19.1596 18.2839 18.9403 17.276 18.9403C16.268 18.9403 15.5565 19.1596 15.5565 18.0906V12.6084C15.5825 12.3263 15.5426 12.0423 15.4394 11.7756C15.3362 11.509 15.1722 11.2661 14.9585 11.0632C14.7447 10.8604 14.4863 10.7025 14.2007 10.6002C13.9151 10.4979 13.6091 10.4537 13.3033 10.4704C12.999 10.4633 12.6965 10.516 12.4159 10.625C12.1352 10.7341 11.8829 10.897 11.6755 11.103C11.468 11.3091 11.3103 11.5535 11.2128 11.8201C11.1152 12.0867 11.08 12.3694 11.1095 12.6496V18.1317C11.1095 19.2007 10.3831 18.9814 9.37515 18.9814C8.36717 18.9814 7.65565 19.2007 7.65565 18.1317V7.85268Z" stroke="#0E0E0E" stroke-width="1.5" stroke-linecap="round" stroke-linejoin="round"/>
</svg>
