<!-- Generated by IcoMoon.io -->
<svg version="1.1" xmlns="http://www.w3.org/2000/svg" width="79" height="32" viewBox="0 0 79 32">
<title>logo</title>
<path fill="none" stroke="#fc936d" stroke-linejoin="miter" stroke-linecap="round" stroke-miterlimit="4" stroke-width="3.3333" d="M12.038 5.046c-0.612-0.825-2.572-2.276-5.512-1.484-3.675 0.989-4.232 4.781-3.675 6.926s0.836 2.445 2.507 4.845c2.298 3.3 9.47 10.8 11.976 12.9"></path>
<path fill="none" stroke="#fc936d" stroke-linejoin="miter" stroke-linecap="round" stroke-miterlimit="4" stroke-width="3.3333" d="M12.038 12.715l7.349-7.421c1.29-1.237 3.24-2.56 5.971-1.237 4.51 2.185 3.953 5.876 3.953 5.876s-0.279 2.1-1.427 3.523"></path>
<path fill="none" stroke="#fc936d" stroke-linejoin="miter" stroke-linecap="round" stroke-miterlimit="4" stroke-width="3.3333" d="M15.664 18.333l5.316 5.484"></path>
<path fill="none" stroke="#fc936d" stroke-linejoin="miter" stroke-linecap="round" stroke-miterlimit="4" stroke-width="3.3333" d="M19.006 13.533l5.316 5.484"></path>
<path d="M38.699 11.408c-0.142 0-0.252-0.039-0.331-0.117-0.071-0.085-0.107-0.199-0.107-0.341v-6.752c0-0.149 0.036-0.263 0.107-0.341 0.078-0.078 0.188-0.117 0.331-0.117s0.249 0.039 0.32 0.117c0.078 0.078 0.117 0.192 0.117 0.341v6.752c0 0.142-0.036 0.256-0.107 0.341-0.071 0.078-0.181 0.117-0.331 0.117zM45.426 11.408c-0.121 0-0.228-0.032-0.32-0.096s-0.167-0.167-0.224-0.309l-1.589-4.32c-0.043-0.121-0.057-0.228-0.043-0.32 0.021-0.092 0.068-0.164 0.139-0.213s0.16-0.075 0.267-0.075 0.192 0.025 0.256 0.075c0.071 0.050 0.128 0.142 0.171 0.277l1.493 4.267h-0.256l1.536-4.267c0.050-0.128 0.11-0.217 0.181-0.267 0.078-0.057 0.178-0.085 0.299-0.085 0.114 0 0.21 0.028 0.288 0.085s0.139 0.146 0.181 0.267l1.504 4.267h-0.245l1.515-4.288c0.050-0.128 0.11-0.213 0.181-0.256 0.071-0.050 0.156-0.075 0.256-0.075 0.114 0 0.199 0.028 0.256 0.085 0.064 0.057 0.1 0.132 0.107 0.224s-0.011 0.192-0.053 0.299l-1.589 4.32c-0.050 0.135-0.124 0.238-0.224 0.309-0.092 0.064-0.199 0.096-0.32 0.096s-0.228-0.032-0.32-0.096c-0.092-0.071-0.164-0.174-0.213-0.309l-1.579-4.331h0.459l-1.568 4.331c-0.050 0.135-0.121 0.238-0.213 0.309-0.092 0.064-0.203 0.096-0.331 0.096zM53.029 11.387c-0.142 0-0.249-0.039-0.32-0.117-0.071-0.085-0.107-0.203-0.107-0.352v-4.363c0-0.149 0.036-0.263 0.107-0.341s0.178-0.117 0.32-0.117c0.135 0 0.242 0.039 0.32 0.117s0.117 0.192 0.117 0.341v4.363c0 0.149-0.039 0.267-0.117 0.352-0.071 0.078-0.178 0.117-0.32 0.117zM53.029 4.901c-0.178 0-0.316-0.046-0.416-0.139-0.1-0.1-0.149-0.231-0.149-0.395 0-0.171 0.050-0.299 0.149-0.384 0.1-0.092 0.238-0.139 0.416-0.139 0.185 0 0.324 0.046 0.416 0.139 0.1 0.085 0.149 0.213 0.149 0.384 0 0.164-0.050 0.295-0.149 0.395-0.092 0.092-0.231 0.139-0.416 0.139zM56.66 11.429c-0.512 0-0.903-0.156-1.173-0.469s-0.405-0.761-0.405-1.344v-5.44c0-0.142 0.036-0.249 0.107-0.32 0.071-0.078 0.178-0.117 0.32-0.117 0.135 0 0.242 0.039 0.32 0.117 0.078 0.071 0.117 0.178 0.117 0.32v5.376c0 0.384 0.075 0.672 0.224 0.864 0.156 0.185 0.384 0.277 0.683 0.277 0.064 0 0.121-0.004 0.171-0.011s0.1-0.011 0.149-0.011c0.078-0.007 0.132 0.011 0.16 0.053 0.036 0.043 0.053 0.128 0.053 0.256s-0.028 0.224-0.085 0.288c-0.057 0.064-0.149 0.107-0.277 0.128-0.057 0.007-0.117 0.014-0.181 0.021s-0.124 0.011-0.181 0.011zM59.816 11.429c-0.512 0-0.903-0.156-1.173-0.469s-0.405-0.761-0.405-1.344v-5.44c0-0.142 0.036-0.249 0.107-0.32 0.071-0.078 0.178-0.117 0.32-0.117 0.135 0 0.242 0.039 0.32 0.117 0.078 0.071 0.117 0.178 0.117 0.32v5.376c0 0.384 0.075 0.672 0.224 0.864 0.156 0.185 0.384 0.277 0.683 0.277 0.064 0 0.121-0.004 0.171-0.011s0.1-0.011 0.149-0.011c0.078-0.007 0.132 0.011 0.16 0.053 0.036 0.043 0.053 0.128 0.053 0.256s-0.028 0.224-0.085 0.288c-0.057 0.064-0.149 0.107-0.277 0.128-0.057 0.007-0.117 0.014-0.181 0.021s-0.124 0.011-0.181 0.011zM38.571 26.075c-0.142 0-0.249-0.039-0.32-0.117s-0.107-0.188-0.107-0.331v-6.784c0-0.142 0.036-0.249 0.107-0.32 0.071-0.078 0.178-0.117 0.32-0.117 0.135 0 0.242 0.039 0.32 0.117 0.078 0.071 0.117 0.178 0.117 0.32v3.125h-0.139c0.149-0.412 0.391-0.722 0.725-0.928 0.341-0.213 0.732-0.32 1.173-0.32 0.412 0 0.754 0.075 1.024 0.224 0.277 0.149 0.484 0.377 0.619 0.683 0.135 0.299 0.203 0.679 0.203 1.141v2.859c0 0.142-0.039 0.252-0.117 0.331-0.071 0.078-0.174 0.117-0.309 0.117-0.142 0-0.252-0.039-0.331-0.117-0.071-0.078-0.107-0.188-0.107-0.331v-2.805c0-0.484-0.096-0.836-0.288-1.056-0.185-0.228-0.484-0.341-0.896-0.341-0.476 0-0.857 0.149-1.141 0.448-0.277 0.292-0.416 0.683-0.416 1.173v2.581c0 0.299-0.146 0.448-0.437 0.448zM46.543 26.096c-0.548 0-1.020-0.107-1.419-0.32-0.391-0.22-0.697-0.53-0.917-0.928-0.213-0.398-0.32-0.875-0.32-1.429 0-0.54 0.107-1.010 0.32-1.408 0.213-0.405 0.505-0.722 0.875-0.949 0.377-0.228 0.811-0.341 1.301-0.341 0.348 0 0.661 0.060 0.939 0.181 0.277 0.114 0.512 0.281 0.704 0.501 0.199 0.22 0.348 0.487 0.448 0.8 0.107 0.313 0.16 0.665 0.16 1.056 0 0.114-0.032 0.199-0.096 0.256-0.064 0.050-0.156 0.075-0.277 0.075h-3.712v-0.565h3.509l-0.171 0.139c0-0.384-0.057-0.708-0.171-0.971-0.114-0.27-0.281-0.476-0.501-0.619-0.213-0.142-0.484-0.213-0.811-0.213-0.363 0-0.672 0.085-0.928 0.256-0.249 0.164-0.437 0.395-0.565 0.693-0.128 0.292-0.192 0.633-0.192 1.024v0.064c0 0.654 0.156 1.152 0.469 1.493 0.32 0.341 0.772 0.512 1.355 0.512 0.242 0 0.48-0.032 0.715-0.096 0.242-0.064 0.476-0.171 0.704-0.32 0.1-0.064 0.188-0.092 0.267-0.085 0.085 0 0.153 0.025 0.203 0.075 0.050 0.043 0.082 0.1 0.096 0.171 0.021 0.064 0.014 0.135-0.021 0.213-0.028 0.078-0.089 0.146-0.181 0.203-0.235 0.171-0.512 0.302-0.832 0.395s-0.636 0.139-0.949 0.139zM51.462 26.096c-0.512 0-0.903-0.156-1.173-0.469s-0.405-0.761-0.405-1.344v-5.44c0-0.142 0.036-0.249 0.107-0.32 0.071-0.078 0.178-0.117 0.32-0.117 0.135 0 0.242 0.039 0.32 0.117 0.078 0.071 0.117 0.178 0.117 0.32v5.376c0 0.384 0.075 0.672 0.224 0.864 0.156 0.185 0.384 0.277 0.683 0.277 0.064 0 0.121-0.004 0.171-0.011s0.1-0.011 0.149-0.011c0.078-0.007 0.132 0.011 0.16 0.053 0.036 0.043 0.053 0.128 0.053 0.256s-0.028 0.224-0.085 0.288c-0.057 0.064-0.149 0.107-0.277 0.128-0.057 0.007-0.117 0.014-0.181 0.021s-0.124 0.011-0.181 0.011zM53.467 27.995c-0.142 0-0.249-0.039-0.32-0.117-0.071-0.071-0.107-0.178-0.107-0.32v-6.379c0-0.142 0.036-0.249 0.107-0.32 0.071-0.078 0.174-0.117 0.309-0.117 0.142 0 0.249 0.039 0.32 0.117 0.078 0.071 0.117 0.178 0.117 0.32v1.013l-0.117-0.149c0.114-0.405 0.338-0.725 0.672-0.96 0.341-0.242 0.747-0.363 1.216-0.363 0.462 0 0.864 0.11 1.205 0.331 0.348 0.213 0.615 0.523 0.8 0.928 0.192 0.398 0.288 0.875 0.288 1.429 0 0.548-0.096 1.024-0.288 1.429-0.185 0.398-0.448 0.708-0.789 0.928s-0.747 0.331-1.216 0.331c-0.469 0-0.871-0.117-1.205-0.352-0.334-0.242-0.562-0.562-0.683-0.96h0.128v2.773c0 0.142-0.039 0.249-0.117 0.32-0.078 0.078-0.185 0.117-0.32 0.117zM55.483 25.403c0.327 0 0.608-0.078 0.843-0.235 0.242-0.156 0.427-0.384 0.555-0.683 0.135-0.299 0.203-0.658 0.203-1.077 0-0.647-0.146-1.141-0.437-1.483-0.284-0.341-0.672-0.512-1.163-0.512-0.32 0-0.601 0.078-0.843 0.235-0.242 0.149-0.43 0.373-0.565 0.672-0.128 0.292-0.192 0.654-0.192 1.088 0 0.64 0.146 1.134 0.437 1.483 0.292 0.341 0.679 0.512 1.163 0.512zM63.161 27.995c-0.107 0-0.192-0.028-0.256-0.085s-0.103-0.135-0.117-0.235c-0.007-0.092 0.011-0.188 0.053-0.288l0.736-1.653v0.373l-2.048-4.757c-0.043-0.107-0.057-0.206-0.043-0.299s0.057-0.167 0.128-0.224c0.071-0.057 0.171-0.085 0.299-0.085 0.114 0 0.203 0.025 0.267 0.075s0.121 0.139 0.171 0.267l1.749 4.288h-0.288l1.771-4.288c0.057-0.128 0.117-0.217 0.181-0.267s0.156-0.075 0.277-0.075c0.114 0 0.199 0.028 0.256 0.085 0.064 0.057 0.1 0.132 0.107 0.224 0.014 0.085 0 0.181-0.043 0.288l-2.731 6.315c-0.057 0.128-0.121 0.217-0.192 0.267-0.064 0.050-0.156 0.075-0.277 0.075zM69.569 26.096c-0.505 0-0.942-0.11-1.312-0.331s-0.657-0.53-0.864-0.928c-0.199-0.405-0.299-0.882-0.299-1.429 0-0.412 0.057-0.782 0.171-1.109 0.114-0.334 0.281-0.619 0.501-0.853s0.48-0.412 0.779-0.533c0.306-0.128 0.647-0.192 1.024-0.192 0.505 0 0.943 0.11 1.312 0.331s0.655 0.533 0.853 0.939c0.207 0.398 0.309 0.871 0.309 1.419 0 0.412-0.057 0.782-0.171 1.109s-0.281 0.612-0.501 0.853c-0.22 0.235-0.483 0.416-0.789 0.544-0.299 0.121-0.636 0.181-1.013 0.181zM69.569 25.403c0.32 0 0.601-0.078 0.843-0.235s0.427-0.384 0.555-0.683c0.135-0.299 0.203-0.658 0.203-1.077 0-0.647-0.145-1.141-0.437-1.483-0.284-0.341-0.672-0.512-1.163-0.512-0.327 0-0.611 0.078-0.853 0.235-0.235 0.149-0.419 0.373-0.555 0.672-0.128 0.292-0.192 0.654-0.192 1.088 0 0.64 0.146 1.134 0.437 1.483 0.292 0.341 0.679 0.512 1.163 0.512zM75.177 26.096c-0.419 0-0.768-0.075-1.045-0.224-0.27-0.156-0.477-0.388-0.619-0.693-0.135-0.306-0.203-0.686-0.203-1.141v-2.859c0-0.149 0.035-0.26 0.107-0.331 0.078-0.071 0.185-0.107 0.32-0.107 0.142 0 0.249 0.036 0.32 0.107 0.078 0.071 0.117 0.181 0.117 0.331v2.848c0 0.455 0.093 0.796 0.277 1.024 0.192 0.22 0.491 0.331 0.896 0.331 0.441 0 0.8-0.149 1.077-0.448s0.416-0.69 0.416-1.173v-2.581c0-0.149 0.035-0.26 0.107-0.331 0.078-0.071 0.189-0.107 0.331-0.107 0.135 0 0.238 0.036 0.309 0.107 0.078 0.071 0.117 0.181 0.117 0.331v4.448c0 0.299-0.139 0.448-0.416 0.448-0.135 0-0.242-0.039-0.32-0.117-0.071-0.078-0.107-0.188-0.107-0.331v-0.971l0.139 0.149c-0.142 0.42-0.377 0.74-0.704 0.96-0.32 0.22-0.693 0.331-1.12 0.331z"></path>
</svg>
