<svg width="100" height="36" viewBox="0 0 100 36" fill="none" xmlns="http://www.w3.org/2000/svg">
<path d="M13.6796 5.78119C12.9837 4.82788 10.7566 3.15006 7.41613 4.06523C3.24049 5.2092 2.60749 9.59329 3.24049 12.073C3.87348 14.5528 4.18998 14.8996 6.08901 17.6744C8.70018 21.4896 16.8502 30.1607 19.6987 32.5886" stroke="#FC936D" stroke-width="3.80072" stroke-linecap="round"/>
<path d="M13.6797 14.6471L22.031 6.06733C23.4969 4.63738 25.7124 3.10715 28.8164 4.63737C33.9415 7.16399 33.3085 11.4313 33.3085 11.4313C33.3085 11.4313 32.992 13.8591 31.6871 15.5051" stroke="#FC936D" stroke-width="3.80072" stroke-linecap="round"/>
<path d="M17.7998 21.143L23.8412 27.4835" stroke="#FC936D" stroke-width="3.80072" stroke-linecap="round"/>
<path d="M21.5977 15.5937L27.639 21.9342" stroke="#FC936D" stroke-width="3.80072" stroke-linecap="round"/>
<line x1="44.75" y1="5.29541" x2="44.75" y2="31.7954" stroke="#0E0E0E" stroke-width="1.5" stroke-linecap="round"/>
<path d="M53.5879 15.0848C53.4101 15.0848 53.2727 15.0364 53.1758 14.9394C53.0788 14.8343 53.0303 14.6889 53.0303 14.503V6.95151C53.0303 6.75757 53.0788 6.61212 53.1758 6.51515C53.2727 6.41818 53.4101 6.3697 53.5879 6.3697C53.7737 6.3697 53.9152 6.41818 54.0121 6.51515C54.1091 6.61212 54.1576 6.75757 54.1576 6.95151V14.503C54.1576 14.6889 54.1091 14.8343 54.0121 14.9394C53.9232 15.0364 53.7818 15.0848 53.5879 15.0848ZM61.3147 15.0848C61.1611 15.0848 61.0278 15.0485 60.9147 14.9758C60.8015 14.8949 60.7127 14.7657 60.648 14.5879L58.842 9.77576C58.7854 9.62222 58.7692 9.48889 58.7935 9.37576C58.8177 9.26263 58.8743 9.17374 58.9632 9.10909C59.0521 9.04444 59.1692 9.01212 59.3147 9.01212C59.4521 9.01212 59.5611 9.04444 59.642 9.10909C59.7228 9.17374 59.7914 9.29091 59.848 9.46061L61.4965 14.1152H61.2056L62.9026 9.43636C62.9591 9.29091 63.0319 9.18586 63.1207 9.12121C63.2177 9.04848 63.3349 9.01212 63.4723 9.01212C63.6177 9.01212 63.7389 9.04848 63.8359 9.12121C63.9329 9.18586 64.0015 9.29091 64.042 9.43636L65.7147 14.1152H65.4359L67.1086 9.43636C67.1652 9.27475 67.2379 9.16566 67.3268 9.10909C67.4157 9.04444 67.5248 9.01212 67.6541 9.01212C67.7995 9.01212 67.9086 9.04848 67.9813 9.12121C68.0541 9.19394 68.0945 9.29091 68.1026 9.41212C68.1187 9.52525 68.1026 9.64646 68.0541 9.77576L66.248 14.5879C66.1914 14.7576 66.1026 14.8828 65.9813 14.9636C65.8682 15.0444 65.7349 15.0848 65.5813 15.0848C65.4278 15.0848 65.2904 15.0444 65.1692 14.9636C65.0561 14.8828 64.9672 14.7576 64.9026 14.5879L63.1692 9.83636H63.7268L61.9935 14.5879C61.9288 14.7576 61.8399 14.8828 61.7268 14.9636C61.6137 15.0444 61.4763 15.0848 61.3147 15.0848ZM69.9904 15.0606C69.8207 15.0606 69.6874 15.0081 69.5904 14.903C69.4935 14.798 69.445 14.6525 69.445 14.4667V9.6303C69.445 9.43636 69.4935 9.29091 69.5904 9.19394C69.6874 9.08889 69.8207 9.03636 69.9904 9.03636C70.1682 9.03636 70.3056 9.08889 70.4026 9.19394C70.4995 9.29091 70.548 9.43636 70.548 9.6303V14.4667C70.548 14.6525 70.4995 14.798 70.4026 14.903C70.3137 15.0081 70.1763 15.0606 69.9904 15.0606ZM69.9904 7.72727C69.7723 7.72727 69.5985 7.67071 69.4692 7.55757C69.348 7.43636 69.2874 7.27879 69.2874 7.08485C69.2874 6.87475 69.348 6.71717 69.4692 6.61212C69.5985 6.49899 69.7723 6.44242 69.9904 6.44242C70.2248 6.44242 70.3985 6.49899 70.5116 6.61212C70.6329 6.71717 70.6935 6.87475 70.6935 7.08485C70.6935 7.27879 70.6329 7.43636 70.5116 7.55757C70.3985 7.67071 70.2248 7.72727 69.9904 7.72727ZM74.1759 15.1091C73.5699 15.1091 73.1093 14.9313 72.7941 14.5758C72.479 14.2121 72.3214 13.6909 72.3214 13.0121V6.92727C72.3214 6.74141 72.3699 6.60404 72.4669 6.51515C72.5638 6.41818 72.6972 6.3697 72.8669 6.3697C73.0446 6.3697 73.182 6.41818 73.279 6.51515C73.3759 6.60404 73.4244 6.74141 73.4244 6.92727V12.9273C73.4244 13.3475 73.5093 13.6626 73.679 13.8727C73.8568 14.0747 74.1073 14.1758 74.4305 14.1758C74.5032 14.1758 74.5679 14.1758 74.6244 14.1758C74.681 14.1677 74.7376 14.1596 74.7941 14.1515C74.883 14.1434 74.9477 14.1677 74.9881 14.2242C75.0285 14.2808 75.0487 14.3939 75.0487 14.5636C75.0487 14.7172 75.0123 14.8384 74.9396 14.9273C74.8749 15.0081 74.7658 15.0606 74.6123 15.0848C74.5396 15.0929 74.4669 15.097 74.3941 15.097C74.3214 15.1051 74.2487 15.1091 74.1759 15.1091ZM77.8218 15.1091C77.2157 15.1091 76.7551 14.9313 76.44 14.5758C76.1248 14.2121 75.9672 13.6909 75.9672 13.0121V6.92727C75.9672 6.74141 76.0157 6.60404 76.1127 6.51515C76.2097 6.41818 76.343 6.3697 76.5127 6.3697C76.6905 6.3697 76.8278 6.41818 76.9248 6.51515C77.0218 6.60404 77.0703 6.74141 77.0703 6.92727V12.9273C77.0703 13.3475 77.1551 13.6626 77.3248 13.8727C77.5026 14.0747 77.7531 14.1758 78.0763 14.1758C78.1491 14.1758 78.2137 14.1758 78.2703 14.1758C78.3268 14.1677 78.3834 14.1596 78.44 14.1515C78.5289 14.1434 78.5935 14.1677 78.6339 14.2242C78.6743 14.2808 78.6945 14.3939 78.6945 14.5636C78.6945 14.7172 78.6581 14.8384 78.5854 14.9273C78.5208 15.0081 78.4117 15.0606 78.2581 15.0848C78.1854 15.0929 78.1127 15.097 78.04 15.097C77.9672 15.1051 77.8945 15.1091 77.8218 15.1091ZM53.4303 28.0848C53.2606 28.0848 53.1273 28.0364 53.0303 27.9394C52.9333 27.8424 52.8848 27.701 52.8848 27.5152V19.9273C52.8848 19.7414 52.9333 19.604 53.0303 19.5152C53.1273 19.4182 53.2606 19.3697 53.4303 19.3697C53.6081 19.3697 53.7455 19.4182 53.8424 19.5152C53.9394 19.604 53.9879 19.7414 53.9879 19.9273V23.3818H53.8303C54 22.9212 54.2747 22.5737 54.6545 22.3394C55.0424 22.105 55.4828 21.9879 55.9758 21.9879C56.4525 21.9879 56.8444 22.0768 57.1515 22.2545C57.4586 22.4242 57.6889 22.6828 57.8424 23.0303C57.996 23.3778 58.0727 23.8141 58.0727 24.3394V27.5152C58.0727 27.701 58.0242 27.8424 57.9273 27.9394C57.8384 28.0364 57.7051 28.0848 57.5273 28.0848C57.3495 28.0848 57.2121 28.0364 57.1152 27.9394C57.0182 27.8424 56.9697 27.701 56.9697 27.5152V24.4C56.9697 23.8747 56.8687 23.4909 56.6667 23.2485C56.4646 23.0061 56.1414 22.8848 55.697 22.8848C55.1798 22.8848 54.7636 23.0465 54.4485 23.3697C54.1414 23.6848 53.9879 24.1131 53.9879 24.6545V27.5152C53.9879 27.8949 53.802 28.0848 53.4303 28.0848ZM62.5487 28.1091C61.9103 28.1091 61.3608 27.9879 60.9002 27.7455C60.4477 27.4949 60.0961 27.1434 59.8456 26.6909C59.5951 26.2303 59.4699 25.6889 59.4699 25.0667C59.4699 24.4525 59.5911 23.9152 59.8335 23.4545C60.084 22.9939 60.4234 22.6343 60.8517 22.3758C61.2881 22.1172 61.785 21.9879 62.3426 21.9879C62.7386 21.9879 63.0941 22.0566 63.4093 22.1939C63.7325 22.3232 64.0073 22.5131 64.2335 22.7636C64.4598 23.0141 64.6295 23.3212 64.7426 23.6848C64.8638 24.0404 64.9244 24.4444 64.9244 24.897C64.9244 25.0263 64.884 25.1273 64.8032 25.2C64.7305 25.2646 64.6214 25.297 64.4759 25.297H60.3305V24.5939H64.1972L63.9911 24.7636C63.9911 24.3434 63.9265 23.9879 63.7972 23.697C63.6759 23.398 63.4941 23.1717 63.2517 23.0182C63.0174 22.8646 62.7224 22.7879 62.3669 22.7879C61.979 22.7879 61.6477 22.8808 61.3729 23.0667C61.0982 23.2444 60.8881 23.499 60.7426 23.8303C60.5972 24.1535 60.5244 24.5293 60.5244 24.9576V25.0303C60.5244 25.7576 60.6982 26.3071 61.0456 26.6788C61.3931 27.0505 61.8941 27.2364 62.5487 27.2364C62.8073 27.2364 63.0699 27.204 63.3366 27.1394C63.6113 27.0747 63.8739 26.9576 64.1244 26.7879C64.2456 26.7152 64.3547 26.6828 64.4517 26.6909C64.5568 26.6909 64.6416 26.7232 64.7063 26.7879C64.7709 26.8444 64.8113 26.9172 64.8275 27.0061C64.8436 27.0869 64.8315 27.1758 64.7911 27.2727C64.7507 27.3697 64.6739 27.4545 64.5608 27.5273C64.2941 27.7131 63.9749 27.8586 63.6032 27.9636C63.2396 28.0606 62.8881 28.1091 62.5487 28.1091ZM68.1509 28.1091C67.5448 28.1091 67.0842 27.9313 66.769 27.5758C66.4539 27.2121 66.2963 26.6909 66.2963 26.0121V19.9273C66.2963 19.7414 66.3448 19.604 66.4418 19.5152C66.5387 19.4182 66.6721 19.3697 66.8418 19.3697C67.0195 19.3697 67.1569 19.4182 67.2539 19.5152C67.3509 19.604 67.3993 19.7414 67.3993 19.9273V25.9273C67.3993 26.3475 67.4842 26.6626 67.6539 26.8727C67.8317 27.0747 68.0822 27.1758 68.4054 27.1758C68.4781 27.1758 68.5428 27.1758 68.5993 27.1758C68.6559 27.1677 68.7125 27.1596 68.769 27.1515C68.8579 27.1434 68.9226 27.1677 68.963 27.2242C69.0034 27.2808 69.0236 27.3939 69.0236 27.5636C69.0236 27.7172 68.9872 27.8384 68.9145 27.9273C68.8498 28.0081 68.7408 28.0606 68.5872 28.0848C68.5145 28.0929 68.4418 28.097 68.369 28.097C68.2963 28.1051 68.2236 28.1091 68.1509 28.1091ZM70.4876 30.2667C70.3179 30.2667 70.1846 30.2182 70.0876 30.1212C69.9906 30.0242 69.9421 29.8869 69.9421 29.7091V22.5697C69.9421 22.3838 69.9906 22.2465 70.0876 22.1576C70.1846 22.0606 70.3179 22.0121 70.4876 22.0121C70.6654 22.0121 70.7987 22.0606 70.8876 22.1576C70.9846 22.2465 71.0331 22.3838 71.0331 22.5697V23.6727L70.8997 23.4545C71.029 23.0101 71.2836 22.6545 71.6634 22.3879C72.0432 22.1212 72.4997 21.9879 73.0331 21.9879C73.5583 21.9879 74.0149 22.1131 74.4027 22.3636C74.7906 22.6061 75.0937 22.9576 75.3118 23.4182C75.53 23.8707 75.6391 24.4121 75.6391 25.0424C75.6391 25.6646 75.53 26.2101 75.3118 26.6788C75.1017 27.1394 74.7987 27.4949 74.4027 27.7455C74.0149 27.9879 73.5583 28.1091 73.0331 28.1091C72.5078 28.1091 72.0553 27.9758 71.6755 27.7091C71.2957 27.4424 71.0411 27.0909 70.9118 26.6545H71.0452V29.7091C71.0452 29.8869 70.9967 30.0242 70.8997 30.1212C70.8027 30.2182 70.6654 30.2667 70.4876 30.2667ZM72.7785 27.2364C73.126 27.2364 73.429 27.1515 73.6876 26.9818C73.9543 26.8121 74.1603 26.5657 74.3058 26.2424C74.4512 25.9192 74.524 25.5192 74.524 25.0424C74.524 24.3313 74.3664 23.7899 74.0512 23.4182C73.7361 23.0465 73.3118 22.8606 72.7785 22.8606C72.4229 22.8606 72.1118 22.9455 71.8452 23.1152C71.5866 23.2768 71.3846 23.5192 71.2391 23.8424C71.1017 24.1657 71.0331 24.5657 71.0331 25.0424C71.0331 25.7535 71.1906 26.299 71.5058 26.6788C71.8209 27.0505 72.2452 27.2364 72.7785 27.2364ZM81.5743 30.2667C81.445 30.2667 81.336 30.2303 81.2471 30.1576C81.1663 30.0929 81.1178 30 81.1016 29.8788C81.0935 29.7657 81.1178 29.6444 81.1743 29.5152L81.9986 27.6485V28.1091L79.7077 22.7758C79.6511 22.6384 79.6309 22.5131 79.6471 22.4C79.6632 22.2869 79.7158 22.1939 79.8046 22.1212C79.9016 22.0485 80.0309 22.0121 80.1925 22.0121C80.3299 22.0121 80.439 22.0444 80.5198 22.1091C80.6006 22.1737 80.6774 22.2869 80.7501 22.4485L82.6531 27.1394H82.3137L84.2531 22.4485C84.3178 22.2869 84.3945 22.1737 84.4834 22.1091C84.5723 22.0444 84.6935 22.0121 84.8471 22.0121C84.9844 22.0121 85.0895 22.0485 85.1622 22.1212C85.243 22.1939 85.2915 22.2869 85.3077 22.4C85.3238 22.5131 85.2996 22.6343 85.2349 22.7636L82.1804 29.8303C82.0996 30 82.0147 30.1131 81.9259 30.1697C81.845 30.2343 81.7279 30.2667 81.5743 30.2667ZM88.893 28.1091C88.3112 28.1091 87.8061 27.9838 87.3778 27.7333C86.9496 27.4828 86.6182 27.1273 86.3839 26.6667C86.1496 26.2061 86.0324 25.6646 86.0324 25.0424C86.0324 24.5737 86.097 24.1535 86.2263 23.7818C86.3637 23.402 86.5576 23.0788 86.8081 22.8121C87.0587 22.5455 87.3576 22.3434 87.7051 22.2061C88.0607 22.0606 88.4566 21.9879 88.893 21.9879C89.4748 21.9879 89.9799 22.1131 90.4081 22.3636C90.8364 22.6141 91.1677 22.9697 91.4021 23.4303C91.6364 23.8828 91.7536 24.4202 91.7536 25.0424C91.7536 25.5111 91.6849 25.9354 91.5475 26.3152C91.4182 26.6949 91.2283 27.0182 90.9778 27.2848C90.7273 27.5515 90.4243 27.7576 90.0688 27.903C89.7213 28.0404 89.3294 28.1091 88.893 28.1091ZM88.893 27.2364C89.2485 27.2364 89.5556 27.1515 89.8142 26.9818C90.0809 26.8121 90.2829 26.5657 90.4203 26.2424C90.5657 25.9192 90.6384 25.5192 90.6384 25.0424C90.6384 24.3313 90.4809 23.7899 90.1657 23.4182C89.8506 23.0465 89.4263 22.8606 88.893 22.8606C88.5455 22.8606 88.2384 22.9455 87.9718 23.1152C87.7132 23.2768 87.5112 23.5192 87.3657 23.8424C87.2203 24.1657 87.1475 24.5657 87.1475 25.0424C87.1475 25.7535 87.3051 26.299 87.6203 26.6788C87.9435 27.0505 88.3677 27.2364 88.893 27.2364ZM95.2757 28.1091C94.7989 28.1091 94.3989 28.0202 94.0757 27.8424C93.7605 27.6646 93.5262 27.402 93.3726 27.0545C93.2191 26.7071 93.1423 26.2707 93.1423 25.7455V22.5697C93.1423 22.3838 93.1868 22.2465 93.2757 22.1576C93.3726 22.0606 93.51 22.0121 93.6878 22.0121C93.8656 22.0121 94.0029 22.0606 94.0999 22.1576C94.1969 22.2465 94.2454 22.3838 94.2454 22.5697V25.7455C94.2454 26.2465 94.3464 26.6182 94.5484 26.8606C94.7504 27.0949 95.0696 27.2121 95.506 27.2121C95.9908 27.2121 96.3827 27.0505 96.6817 26.7273C96.9888 26.404 97.1423 25.9758 97.1423 25.4424V22.5697C97.1423 22.3838 97.1868 22.2465 97.2757 22.1576C97.3726 22.0606 97.51 22.0121 97.6878 22.0121C97.8656 22.0121 98.0029 22.0606 98.0999 22.1576C98.1969 22.2465 98.2454 22.3838 98.2454 22.5697V27.5152C98.2454 27.8949 98.0676 28.0848 97.712 28.0848C97.5343 28.0848 97.3969 28.0364 97.2999 27.9394C97.211 27.8424 97.1666 27.701 97.1666 27.5152V26.4606L97.3242 26.6667C97.1625 27.1354 96.8999 27.4949 96.5363 27.7455C96.1807 27.9879 95.7605 28.1091 95.2757 28.1091Z" fill="#0E0E0E"/>
</svg>
