<svg xmlns="http://www.w3.org/2000/svg" width="54" height="54" viewBox="0 0 54 54" fill="none">
  <g clip-path="url(#clip0_404_2049)">
    <path d="M34.9102 0C34.0348 0.221485 33.2438 0.875393 32.8324 1.75078L32.5371 2.38359V8.98594C32.5371 16.0418 32.5371 16.0418 33.0645 16.7801C33.2543 17.0543 33.2754 17.2336 33.2754 19.0266V20.9777L30.723 21.0199C27.8965 21.0727 27.4957 21.1465 26.1352 21.7898C25.1543 22.2539 24.5426 22.6758 23.8359 23.3719C23.0766 24.1313 22.718 24.6797 21.9164 26.2934C21.3363 27.443 21.1043 27.8016 20.5242 28.3816C19.7227 29.1727 18.7945 29.7316 17.7293 30.0586C16.8539 30.3328 16.6219 30.3328 16.548 30.0902C16.3582 29.4785 15.9891 28.8457 15.6516 28.5398C14.8816 27.8438 14.734 27.8016 12.7828 27.7699C11.0426 27.7277 11.0004 27.7383 10.4414 28.0125C9.71367 28.3605 9.07031 29.0883 8.83828 29.816L8.66953 30.375L5.75859 30.4066L2.84766 30.4383L2.24648 30.7441C1.43438 31.1555 0.727734 31.8832 0.326953 32.7059L0 33.3914V40.616V47.8406L0.284766 48.4523C0.685546 49.2961 1.49766 50.1188 2.29922 50.4879L2.95313 50.7938L5.87461 50.8254L8.79609 50.857L8.91211 51.2156C9.08086 51.743 9.7875 52.4813 10.4098 52.7871C10.9266 53.0508 11.0426 53.0613 12.6457 53.0613C14.0801 53.0613 14.407 53.0297 14.7762 52.8609C15.4195 52.5656 16.0102 51.9961 16.2949 51.3738L16.548 50.8359L21.0938 50.8781C24.9961 50.9098 25.7133 50.9414 26.2512 51.0996C27.1371 51.3633 27.8965 51.7219 28.6348 52.2176C29.5102 52.8082 30.6281 53.325 31.6406 53.6098C32.4105 53.8207 32.7902 53.8418 35.891 53.884C39.1078 53.9156 39.3293 53.9156 40.0043 53.7047C42.5039 52.9242 43.5375 50.0766 42.1348 47.8512C41.9555 47.577 41.8184 47.3344 41.8395 47.3238C41.8606 47.3027 42.0398 47.1973 42.2402 47.0707C44.0965 45.9527 44.6871 43.5059 43.5586 41.6285L43.2106 41.0484L43.6641 40.7848C44.3074 40.4051 45.0457 39.5402 45.2883 38.8652C45.784 37.5574 45.6469 36.3234 44.8664 35.1949L44.4445 34.5727L44.6871 34.4145C45.2039 34.0664 45.7629 33.3809 46.0688 32.7164C46.4906 31.8199 46.5223 30.6703 46.1531 29.7211C45.8156 28.8668 44.9613 27.9703 44.1176 27.5801L43.4531 27.2742L40.7426 27.2426L38.0215 27.2109V22.1906C38.0215 17.3285 38.032 17.1703 38.2324 16.8856C38.3484 16.7168 38.5172 16.4109 38.6016 16.2106L38.7598 15.8414L41.5125 15.8098L44.2652 15.7781L44.5184 15.4828C44.8242 15.1242 44.8348 14.8922 44.55 14.5231L44.3391 14.2488H41.5969H38.8652V8.65899V3.06914H45.3094H51.7535L52.0594 3.375C52.4074 3.73359 52.4602 4.15547 52.1859 4.5457C52.091 4.69336 51.3316 5.5793 50.509 6.51797C49.6863 7.45664 48.9797 8.31094 48.9481 8.42696C48.9059 8.53242 48.9164 8.73281 48.9691 8.85938C49.0113 8.97539 49.7707 9.91407 50.6566 10.9266C52.3547 12.8672 52.5129 13.1414 52.2176 13.7004C51.975 14.175 51.6164 14.2488 49.3488 14.2488C47.4398 14.2488 40.2109 14.2344 40.0105 14.4348C39.7469 14.6984 39.7363 15.1836 40 15.5C40.2004 15.7531 47.2922 15.7781 49.5914 15.7781C52.2176 15.7781 52.4707 15.7254 53.1563 15.0398C53.9684 14.2277 54.1582 12.9516 53.6098 12.034C53.4727 11.8125 52.7766 10.9582 52.0699 10.1355C50.8887 8.78555 50.7832 8.62735 50.9203 8.46914C52.9981 6.11719 53.6414 5.30508 53.7996 4.83047C54.1899 3.64922 53.6625 2.38359 52.5234 1.77188C52.1016 1.53984 52.0383 1.53984 45.2355 1.50821L38.3695 1.47656L38.2219 1.20235C37.7367 0.305862 36.1125 -0.284767 34.9102 0ZM36.4395 1.71914C36.6293 1.85625 36.893 2.09883 37.009 2.25703C37.2305 2.55235 37.2305 2.64727 37.2621 8.91211L37.2832 15.2613L37.0406 15.7148C36.4816 16.7906 35.0367 16.8539 34.3617 15.8414L34.1191 15.4828V9.02813V2.57344L34.3617 2.22539C34.8469 1.50821 35.7961 1.28672 36.4395 1.71914ZM36.4395 22.6547V27.2215H35.6484H34.8574V22.6547V18.0984H35.6484H36.4395V22.6547ZM33.2754 24.9012V27.2215H31.5563C29.9742 27.2215 29.816 27.2426 29.6051 27.4324C29.2676 27.7488 29.2887 28.2973 29.6473 28.582C29.9215 28.8035 30.0164 28.8035 36.4816 28.8035C43.8855 28.8035 43.5164 28.7719 44.2652 29.6473C45.2145 30.7441 44.9297 32.4211 43.6852 33.1383C43.2633 33.3809 43.1367 33.3914 40.9008 33.4441C38.6649 33.4969 38.5488 33.5074 38.3273 33.7289C38.0426 34.0137 38.0215 34.5199 38.2852 34.8152C38.4645 35.0051 38.6121 35.0262 40.0676 35.0262C40.943 35.0262 41.8711 35.0789 42.1348 35.1422C44.0543 35.5746 44.6449 37.9688 43.1367 39.2238C42.5356 39.709 42.1559 39.7723 39.6668 39.7723C38.4012 39.7723 37.2938 39.8145 37.1883 39.8777C36.8824 40.0359 36.7137 40.5527 36.8719 40.848C37.125 41.3227 37.2516 41.3438 39.034 41.3543C40.6898 41.3543 40.7531 41.3648 41.3016 41.6496C42.082 42.0504 42.4723 42.6305 42.5356 43.4531C42.5883 44.202 42.4301 44.7293 41.9977 45.2145C41.3859 45.9211 41.3016 45.9316 38.4645 45.9949L35.891 46.0477L35.6379 46.343C35.332 46.7016 35.3215 46.9336 35.5957 47.2922C35.7961 47.5453 35.8277 47.5559 37.6207 47.5981C39.6668 47.6508 40.0043 47.7457 40.6266 48.4629C41.5969 49.5598 41.2488 51.3422 39.9305 52.0277L39.3715 52.323H36.3129C32.2735 52.323 31.4824 52.1648 29.6262 50.973C28.5398 50.277 27.6223 49.8551 26.5781 49.5598C25.7766 49.3383 25.4812 49.3277 21.1781 49.2856L16.6113 49.2539V45.573C16.6113 42.1453 16.6219 33.4001 16.432 33.168C16.1578 32.8305 15.525 32.8305 15.2508 33.168C15.0609 33.4001 15.0293 42.1559 15.0293 46.1109C15.0293 50.7727 15.0188 50.8781 14.3754 51.2684C14.0695 51.4477 13.848 51.4793 12.6563 51.4793C11.4855 51.4793 11.2324 51.4477 10.9477 51.2684C10.241 50.8465 10.2832 51.4793 10.2832 40.4051C10.2832 29.3309 10.241 29.9637 10.9477 29.5418C11.2324 29.3625 11.4855 29.3309 12.6563 29.3309C13.848 29.3309 14.0695 29.3625 14.3754 29.5418C15.0188 29.932 15.0293 30.048 15.0293 34.5832C15.0293 38.5805 15.0398 38.6965 15.2508 38.9707C15.525 39.3188 16.0207 39.3398 16.3688 39.0129L16.6113 38.7914V35.3531V31.9148L17.4867 31.7461C18.9422 31.4613 20.25 30.7969 21.3891 29.7527C22.2223 28.9934 22.8023 28.1391 23.5195 26.6414C24.068 25.5023 24.2156 25.2914 24.9961 24.5215C25.65 23.8676 26.0613 23.5617 26.6625 23.277C27.8648 22.6969 28.4766 22.602 31.0395 22.5914L33.2754 22.5809V24.9012ZM8.70117 40.616V49.2645H6.04336C3.68086 49.2645 3.32227 49.2328 2.94258 49.0641C2.42578 48.8215 1.81406 48.1359 1.65586 47.5875C1.47656 47.018 1.47656 34.2141 1.65586 33.6445C1.81406 33.0961 2.42578 32.4105 2.94258 32.168C3.32227 31.9992 3.68086 31.9676 6.04336 31.9676H8.70117V40.616Z" fill="#0E0E0E"/>
  </g>
  <defs>
    <clipPath id="clip0_404_2049">
      <rect width="54" height="54" fill="white"/>
    </clipPath>
  </defs>
</svg>