<svg width="64" height="64" viewBox="0 0 64 64" fill="none" xmlns="http://www.w3.org/2000/svg">
<path d="M52.2499 0.199993C51.7374 0.424992 41.0124 11.05 40.1749 12.175C39.1874 13.4875 39.1124 13.9625 39.1499 18.45C39.1749 20.575 39.2249 22.4 39.2749 22.5C39.3374 22.6375 38.6874 23.3875 37.0124 25.1125L34.6624 27.55L34.0499 27.15C32.5249 26.1875 31.0124 25.75 29.0999 25.75C27.4874 25.75 26.2499 26.0375 24.8874 26.75C22.1624 28.1625 20.3749 30.775 19.9999 33.8625C19.4874 38.075 22.0749 42.1875 26.1249 43.5625C29.5749 44.7375 33.2249 43.825 35.7624 41.1625C37.4374 39.4 38.2499 37.3625 38.2499 34.9C38.2499 32.9625 37.7624 31.2875 36.7499 29.7875C36.5374 29.475 36.3749 29.175 36.3999 29.1125C36.4249 29.0625 37.4999 27.9125 38.7874 26.575L41.1374 24.1375L45.1624 24.1L49.1874 24.0625L50.0749 23.65C50.9124 23.25 51.3124 22.875 57.0374 17.15C62.3249 11.85 63.1124 11 63.1874 10.6C63.3124 9.96249 63.0624 9.31249 62.5499 8.91249C62.1624 8.62499 61.8874 8.56249 60.1499 8.36249C59.0749 8.23749 57.6499 8.09999 57.0124 8.04999C55.2749 7.92499 55.3624 8.07499 55.0124 4.49999C54.6999 1.23749 54.5374 0.674992 53.8499 0.249992C53.3624 -0.0500069 52.8499 -0.0625076 52.2499 0.199993ZM52.8374 5.52499C52.9874 6.92499 53.1249 8.14999 53.1499 8.26249C53.1749 8.37499 50.8874 10.8125 47.3124 14.5L41.4374 20.5375L41.3999 17.75C41.3749 15.425 41.3999 14.85 41.5749 14.325C41.7624 13.75 42.2624 13.2125 47.0999 8.33749C50.0374 5.39999 52.4624 2.99999 52.4999 2.99999C52.5374 2.99999 52.6874 4.13749 52.8374 5.52499ZM57.9249 10.45L60.2624 10.675L54.9749 15.9625C52.0624 18.8875 49.4624 21.3875 49.1874 21.5375C48.7249 21.7875 48.4749 21.8125 46.0749 21.85C44.4124 21.875 43.4874 21.85 43.5124 21.775C43.5374 21.7 46.1124 19.0375 49.2249 15.8375C54.6374 10.275 54.8874 10.025 55.2249 10.1125C55.4124 10.175 56.6249 10.325 57.9249 10.45ZM30.5249 28.1375C31.2124 28.2875 32.3124 28.7375 32.7624 29.05C33.0124 29.225 32.9374 29.325 30.5124 31.8C28.1124 34.25 27.9999 34.3875 27.9999 34.85C27.9999 35.5125 28.4749 36 29.1249 36C29.5499 36 29.7249 35.85 32.1249 33.425C34.9749 30.5375 34.7249 30.6625 35.3249 31.9375C36.5874 34.6375 36.0624 37.5875 33.9499 39.7C32.5624 41.0875 31.0124 41.75 29.1499 41.75C25.4874 41.75 22.4749 38.925 22.2749 35.3125C22.1999 33.8875 22.3874 33.0125 23.0124 31.7625C24.3624 29.05 27.5624 27.5125 30.5249 28.1375Z" fill="black"/>
<path d="M27.25 7.3875C15.1625 8.125 4.71245 16.7625 1.68745 28.5375C1.01245 31.2 0.824951 32.7125 0.824951 35.625C0.824951 39.025 1.16245 41.3 2.13745 44.325C5.24995 54.0375 13.55 61.45 23.525 63.425C35.95 65.8875 48.3625 59.95 54.2375 48.75C58.15 41.2875 58.5 32.425 55.2125 24.6L54.7 23.375L53.825 24.225L52.9375 25.0625L53.4125 26.3125C55.5875 31.975 55.7 38.35 53.725 44.125C49.9375 55.1875 39.075 62.4125 27.4 61.625C18.225 61 10.0625 55.6 5.89995 47.4C3.98745 43.6375 3.11245 39.9875 3.11245 35.7C3.11245 32.1875 3.69995 29.075 4.93745 26C8.01245 18.3375 14.7 12.45 22.5625 10.45C25.0875 9.8125 26.1125 9.7 29.1875 9.7C32.375 9.7125 33.6875 9.875 36.3 10.625L37.65 11.025L37.85 10.725C37.9625 10.5625 38.325 10.15 38.65 9.8L39.25 9.1625L38.0625 8.7625C34.65 7.625 30.9875 7.1625 27.25 7.3875Z" fill="black"/>
<path d="M26.3125 15.95C19.0375 17.075 13.1 22.1125 10.9 29C10.175 31.3 10.0625 32.0625 10.0625 34.9375C10.075 37.35 10.1 37.675 10.4125 39.0125C11.325 42.9 13.075 45.975 15.9 48.7C18.55 51.25 21.6625 52.875 25.5 53.7C27.025 54.0375 31.225 54.0375 32.75 53.7C36.75 52.8375 39.875 51.15 42.625 48.3875C46.1375 44.85 48.0125 40.5875 48.2125 35.675C48.325 32.9625 47.85 30.1 46.9 27.8125L46.5375 26.9375L45.275 26.9C44.575 26.8875 44 26.9 44 26.9375C44 26.975 44.1375 27.275 44.3 27.6C44.7875 28.5625 45.45 30.5875 45.6875 31.875C46 33.4625 46 36.275 45.7 37.8125C45.0125 41.3875 43.5125 44.25 41 46.75C38.5375 49.2125 35.8625 50.6625 32.4625 51.4C30.525 51.8125 27.4625 51.7875 25.55 51.35C22.0875 50.5375 19.325 48.975 16.9 46.45C15.1875 44.6625 13.8125 42.3625 13.075 40.0375C12.4625 38.0625 12.3125 37.0875 12.325 34.8125C12.325 32.975 12.375 32.5 12.6625 31.2875C13.45 27.925 14.8875 25.325 17.3 22.9375C20.15 20.1125 23.5 18.55 27.5625 18.1125C30.25 17.8375 33.1875 18.325 36.1625 19.5625C36.35 19.65 36.375 19.5375 36.375 18.4V17.15L35.475 16.825C32.675 15.8375 29.2 15.5 26.3125 15.95Z" fill="black"/>
</svg>
