<!-- Generated by IcoMoon.io -->
<svg version="1.1" xmlns="http://www.w3.org/2000/svg" width="32" height="32" viewBox="0 0 32 32">
<title>objectives</title>
<path d="M26.125 0.1c-0.256 0.112-5.619 5.425-6.038 5.987-0.494 0.656-0.531 0.894-0.512 3.137 0.012 1.063 0.038 1.975 0.063 2.025 0.031 0.069-0.294 0.444-1.131 1.306l-1.175 1.219-0.306-0.2c-0.763-0.481-1.519-0.7-2.475-0.7-0.806 0-1.425 0.144-2.106 0.5-1.363 0.706-2.256 2.013-2.444 3.556-0.256 2.106 1.037 4.163 3.062 4.85 1.725 0.587 3.55 0.131 4.819-1.2 0.837-0.881 1.244-1.9 1.244-3.131 0-0.969-0.244-1.806-0.75-2.556-0.106-0.156-0.188-0.306-0.175-0.337 0.012-0.025 0.55-0.6 1.194-1.269l1.175-1.219 4.025-0.037 0.444-0.206c0.419-0.2 0.619-0.387 3.481-3.25 2.644-2.65 3.038-3.075 3.075-3.275 0.063-0.319-0.062-0.644-0.319-0.844-0.194-0.144-0.331-0.175-1.2-0.275-0.537-0.063-1.25-0.131-1.569-0.156-0.869-0.063-0.825 0.013-1-1.775-0.156-1.631-0.238-1.913-0.581-2.125-0.244-0.15-0.5-0.156-0.8-0.025zM26.419 2.762c0.075 0.7 0.144 1.313 0.156 1.369s-1.131 1.275-2.919 3.119l-2.937 3.019-0.019-1.394c-0.012-1.162 0-1.45 0.088-1.712 0.094-0.288 0.344-0.556 2.762-2.994 1.469-1.469 2.681-2.669 2.7-2.669s0.094 0.569 0.169 1.263zM28.962 5.225l1.169 0.112-2.644 2.644c-1.456 1.463-2.756 2.712-2.894 2.787-0.231 0.125-0.356 0.137-1.556 0.156-0.831 0.012-1.294 0-1.281-0.037s1.3-1.369 2.856-2.969c2.706-2.781 2.831-2.906 3-2.862 0.094 0.031 0.7 0.106 1.35 0.169zM15.262 14.069c0.344 0.075 0.894 0.3 1.119 0.456 0.125 0.087 0.088 0.137-1.125 1.375-1.2 1.225-1.256 1.294-1.256 1.525 0 0.331 0.238 0.575 0.563 0.575 0.213 0 0.3-0.075 1.5-1.287 1.425-1.444 1.3-1.381 1.6-0.744 0.631 1.35 0.369 2.825-0.687 3.881-0.694 0.694-1.469 1.025-2.4 1.025-1.831 0-3.337-1.413-3.438-3.219-0.037-0.713 0.056-1.15 0.369-1.775 0.675-1.356 2.275-2.125 3.756-1.813z"></path>
<path d="M13.625 3.694c-6.044 0.369-11.269 4.687-12.781 10.575-0.338 1.331-0.431 2.088-0.431 3.544 0 1.7 0.169 2.837 0.656 4.35 1.556 4.856 5.706 8.563 10.694 9.55 6.213 1.231 12.419-1.737 15.356-7.337 1.956-3.731 2.131-8.162 0.488-12.075l-0.256-0.613-0.438 0.425-0.444 0.419 0.237 0.625c1.088 2.831 1.144 6.019 0.156 8.906-1.894 5.531-7.325 9.144-13.162 8.75-4.588-0.313-8.669-3.012-10.75-7.113-0.956-1.881-1.394-3.706-1.394-5.85 0-1.756 0.294-3.313 0.912-4.85 1.538-3.831 4.881-6.775 8.813-7.775 1.262-0.319 1.775-0.375 3.312-0.375 1.594 0.006 2.25 0.088 3.556 0.463l0.675 0.2 0.1-0.15c0.056-0.081 0.238-0.287 0.4-0.463l0.3-0.319-0.594-0.2c-1.706-0.569-3.537-0.8-5.406-0.688z"></path>
<path d="M13.156 7.975c-3.637 0.563-6.606 3.081-7.706 6.525-0.362 1.15-0.419 1.531-0.419 2.969 0.006 1.206 0.019 1.369 0.175 2.038 0.456 1.944 1.331 3.481 2.744 4.844 1.325 1.275 2.881 2.088 4.8 2.5 0.762 0.169 2.863 0.169 3.625 0 2-0.431 3.563-1.275 4.937-2.656 1.756-1.769 2.694-3.9 2.794-6.356 0.056-1.356-0.181-2.787-0.656-3.931l-0.181-0.438-0.631-0.019c-0.35-0.006-0.637 0-0.637 0.019s0.069 0.169 0.15 0.331c0.244 0.481 0.575 1.494 0.694 2.137 0.156 0.794 0.156 2.2 0.006 2.969-0.344 1.788-1.094 3.219-2.35 4.469-1.231 1.231-2.569 1.956-4.269 2.325-0.969 0.206-2.5 0.194-3.456-0.025-1.731-0.406-3.112-1.188-4.325-2.45-0.856-0.894-1.544-2.044-1.913-3.206-0.306-0.988-0.381-1.475-0.375-2.613 0-0.919 0.025-1.156 0.169-1.762 0.394-1.681 1.112-2.981 2.319-4.175 1.425-1.412 3.1-2.194 5.131-2.412 1.344-0.137 2.813 0.106 4.3 0.725 0.094 0.044 0.106-0.012 0.106-0.581v-0.625l-0.45-0.162c-1.4-0.494-3.137-0.663-4.581-0.438z"></path>
</svg>
