<svg width="28" height="28" viewBox="0 0 28 28" fill="none" xmlns="http://www.w3.org/2000/svg">
<path fill-rule="evenodd" clip-rule="evenodd" d="M8.89592 19.1053C14.0226 24.232 18.7733 24.7933 20.1679 24.8453C21.8533 24.9066 23.5733 23.5306 24.3173 22.1213C23.1306 20.7293 21.5853 19.6493 19.8919 18.4786C18.8946 19.476 17.6653 21.3293 16.0253 20.6653C15.0933 20.2906 12.7919 19.2306 10.7813 17.2186C8.76925 15.208 7.71059 12.9066 7.33325 11.976C6.66925 10.3346 8.52792 9.10132 9.52659 8.10265C8.35592 6.38265 7.29459 4.79731 5.90525 3.67065C4.47592 4.41732 3.09192 6.12398 3.15458 7.83198C3.20658 9.22665 3.76792 13.9773 8.89592 19.1053ZM20.0693 27.5093C18.1493 27.4386 12.7079 26.688 7.00925 20.9893C1.31192 15.292 0.561252 9.85198 0.489252 7.93065C0.382585 5.00265 2.62525 2.15865 5.21592 1.04798C5.52789 0.913271 5.86952 0.861983 6.20729 0.89915C6.54506 0.936316 6.86737 1.06066 7.14259 1.25998C9.28658 2.82398 10.7653 5.19332 12.0359 7.04932C12.3003 7.43525 12.4213 7.90145 12.3782 8.36724C12.3352 8.83303 12.1306 9.2691 11.7999 9.59998L9.99192 11.4093C10.4119 12.336 11.2666 13.9333 12.6666 15.3333C14.0666 16.7333 15.6639 17.588 16.5919 18.008L18.3986 16.2C18.7307 15.8686 19.1686 15.6643 19.6359 15.6227C20.1033 15.581 20.5704 15.7046 20.9559 15.972C22.8493 17.284 25.0732 18.7413 26.6946 20.8173C26.9101 21.0945 27.0472 21.4245 27.0915 21.7728C27.1358 22.1211 27.0858 22.475 26.9466 22.7973C25.8306 25.4013 23.0066 27.6173 20.0693 27.5093Z" fill="#0E0E0E"/>
<!-- Generated by IcoMoon.io -->
<svg version="1.1" xmlns="http://www.w3.org/2000/svg" width="32" height="32" viewBox="0 0 32 32">
<title>phone</title>
<path d="M10.896 21.105c5.127 5.127 9.877 5.688 11.272 5.74 1.685 0.061 3.405-1.315 4.149-2.724-1.187-1.392-2.732-2.472-4.425-3.643-0.997 0.997-2.227 2.851-3.867 2.187-0.932-0.375-3.233-1.435-5.244-3.447-2.012-2.011-3.071-4.312-3.448-5.243-0.664-1.641 1.195-2.875 2.193-3.873-1.171-1.72-2.232-3.305-3.621-4.432-1.429 0.747-2.813 2.453-2.751 4.161 0.052 1.395 0.613 6.145 5.741 11.273zM22.069 29.509c-1.92-0.071-7.361-0.821-13.060-6.52-5.697-5.697-6.448-11.137-6.52-13.059-0.107-2.928 2.136-5.772 4.727-6.883 0.312-0.135 0.654-0.186 0.991-0.149s0.66 0.162 0.935 0.361c2.144 1.564 3.623 3.933 4.893 5.789 0.264 0.386 0.385 0.852 0.342 1.318s-0.248 0.902-0.578 1.233l-1.808 1.809c0.42 0.927 1.275 2.524 2.675 3.924s2.997 2.255 3.925 2.675l1.807-1.808c0.332-0.331 0.77-0.536 1.237-0.577s0.934 0.082 1.32 0.349c1.893 1.312 4.117 2.769 5.739 4.845 0.215 0.277 0.353 0.607 0.397 0.956s-0.006 0.702-0.145 1.024c-1.116 2.604-3.94 4.82-6.877 4.712z"></path>
</svg>
