<!-- Generated by IcoMoon.io -->
<svg version="1.1" xmlns="http://www.w3.org/2000/svg" width="32" height="32" viewBox="0 0 32 32">
<title>phone</title>
<path d="M10.896 21.105c5.127 5.127 9.877 5.688 11.272 5.74 1.685 0.061 3.405-1.315 4.149-2.724-1.187-1.392-2.732-2.472-4.425-3.643-0.997 0.997-2.227 2.851-3.867 2.187-0.932-0.375-3.233-1.435-5.244-3.447-2.012-2.011-3.071-4.312-3.448-5.243-0.664-1.641 1.195-2.875 2.193-3.873-1.171-1.72-2.232-3.305-3.621-4.432-1.429 0.747-2.813 2.453-2.751 4.161 0.052 1.395 0.613 6.145 5.741 11.273zM22.069 29.509c-1.92-0.071-7.361-0.821-13.060-6.52-5.697-5.697-6.448-11.137-6.52-13.059-0.107-2.928 2.136-5.772 4.727-6.883 0.312-0.135 0.654-0.186 0.991-0.149s0.66 0.162 0.935 0.361c2.144 1.564 3.623 3.933 4.893 5.789 0.264 0.386 0.385 0.852 0.342 1.318s-0.248 0.902-0.578 1.233l-1.808 1.809c0.42 0.927 1.275 2.524 2.675 3.924s2.997 2.255 3.925 2.675l1.807-1.808c0.332-0.331 0.77-0.536 1.237-0.577s0.934 0.082 1.32 0.349c1.893 1.312 4.117 2.769 5.739 4.845 0.215 0.277 0.353 0.607 0.397 0.956s-0.006 0.702-0.145 1.024c-1.116 2.604-3.94 4.82-6.877 4.712z"></path>
</svg>
