<svg width="52" height="54" viewBox="0 0 52 54" fill="none" xmlns="http://www.w3.org/2000/svg">
<path d="M23.9999 0.4125C23.8374 0.5 23.6249 0.7125 23.5374 0.875C23.3499 1.2375 23.3249 2.6 23.4874 3.025L23.5999 3.3125L22.3624 3.275C21.1874 3.225 21.1249 3.2375 20.8124 3.55C20.3124 4.05 20.3999 4.75 21.0124 5.0625C21.4249 5.275 23.0124 5.3125 23.3874 5.125C23.5999 5 23.6124 5.025 23.4999 5.3125C23.3374 5.75 23.3374 6.9875 23.5124 7.4875C23.7624 8.1875 24.6124 8.3625 25.1124 7.825C25.3749 7.5375 25.3999 7.425 25.3499 6.275C25.3124 5.1375 25.3249 5.0375 25.5249 5.1375C25.6374 5.2 26.1624 5.25 26.6874 5.25C27.5874 5.25 27.6624 5.225 28.0249 4.875C28.3374 4.55 28.3874 4.425 28.3249 4.0875C28.1874 3.375 27.8624 3.225 26.4999 3.275L25.3124 3.3125L25.3499 2.1125C25.3874 1.1125 25.3499 0.875 25.1624 0.65C24.8749 0.3125 24.3874 0.2 23.9999 0.4125ZM24.9874 3.7625C24.9124 3.9125 24.8749 4.2 24.8999 4.4C24.9499 4.725 24.9249 4.7625 24.6749 4.7C24.5249 4.6625 24.2499 4.675 24.0624 4.75C23.7624 4.8625 23.7499 4.85 23.8874 4.6125C23.9624 4.4625 23.9999 4.2 23.9624 4.0125C23.8999 3.7 23.9124 3.6875 24.3749 3.725C24.6374 3.75 24.8874 3.7125 24.9249 3.6375C25.0874 3.3875 25.1374 3.5 24.9874 3.7625Z" fill="black"/>
<path d="M11.5374 2.53751C11.3874 2.62501 10.9874 3.11251 10.6499 3.62501C9.94991 4.71251 8.61241 6.01251 7.52491 6.67501C6.67491 7.21251 6.37491 7.68751 6.59991 8.18751C6.67491 8.35001 7.17491 8.77501 7.71241 9.13751C8.94991 9.97501 9.91241 10.9375 10.6999 12.125C11.7374 13.6875 12.2374 13.7 13.2624 12.1875C14.0499 11.0375 15.2374 9.85001 16.3124 9.13751C17.8874 8.08751 17.8999 7.60001 16.3374 6.57501C15.1374 5.78751 13.8749 4.51251 13.2124 3.41251C12.6374 2.46251 12.1374 2.20001 11.5374 2.53751ZM14.0249 7.36251L14.5749 7.80001L13.2874 9.06251L11.9999 10.3375L10.7624 9.10001L9.52491 7.86251L10.7999 6.58751L12.0624 5.31251L12.7624 6.12501C13.1624 6.57501 13.7249 7.12501 14.0249 7.36251Z" fill="black"/>
<path d="M37.9248 2.81251C37.6248 3.11251 37.6123 3.18751 37.6498 4.28751L37.6873 5.43751H36.4873C35.4748 5.43751 35.2373 5.47501 35.0123 5.67501C34.6623 6.00001 34.6498 6.77501 35.0123 7.13751C35.2373 7.36251 35.3873 7.38751 36.4748 7.35001L37.6873 7.31251L37.6373 8.42501C37.5873 9.67501 37.7123 10.025 38.2623 10.2625C38.5498 10.375 38.7123 10.375 38.9873 10.25C39.4998 10.0375 39.6623 9.56251 39.6123 8.35001L39.5623 7.31251L40.7498 7.35001C41.8123 7.38751 41.9623 7.36251 42.2248 7.12501C42.5748 6.80001 42.5873 6.13751 42.2623 5.73751C42.0623 5.48751 41.8873 5.43751 41.0748 5.40001C40.5623 5.37501 39.9623 5.41251 39.7498 5.47501C39.3998 5.60001 39.3873 5.60001 39.4998 5.37501C39.5623 5.25001 39.6248 4.68751 39.6248 4.12501C39.6248 3.21251 39.5873 3.08751 39.3123 2.81251C38.9123 2.40001 38.3373 2.40001 37.9248 2.81251ZM38.9248 5.90001C39.2123 5.77501 39.2248 5.78751 39.1373 6.10001C39.0748 6.28751 39.0748 6.55001 39.1248 6.68751C39.2123 6.91251 39.1623 6.93751 38.6373 6.93751H38.0623V6.36251C38.0623 5.81251 38.0748 5.78751 38.3373 5.91251C38.5373 6.00001 38.7123 6.00001 38.9248 5.90001Z" fill="black"/>
<path d="M21.1625 9.8C18.8125 10.3375 16.8625 12.2 16.1875 14.5375C15.9125 15.4875 15.9125 17.1375 16.1875 18.0875C16.6625 19.7375 16.9125 20.0375 21.5625 24.725C23.9625 27.1625 26.0875 29.225 26.275 29.325C26.4625 29.425 26.7499 29.475 26.9124 29.4375C27.0749 29.3875 29.2749 27.275 31.8374 24.7125C35.6749 20.85 36.5124 19.9375 36.7874 19.35C37.7374 17.35 37.7374 15.2625 36.7874 13.275C36.2624 12.2 34.8749 10.85 33.7249 10.3125C32.6124 9.8125 31.3749 9.5625 30.4249 9.6875C29.5624 9.7875 28.2624 10.45 27.4124 11.1875L26.7624 11.7625L25.9749 11.125C24.3375 9.8 22.9 9.4125 21.1625 9.8ZM23.7 12C24.0999 12.2 24.8624 12.7625 25.4 13.25C26.6624 14.4125 26.7999 14.4125 28.0874 13.25C28.6124 12.7625 29.3999 12.1875 29.8374 11.975C30.5374 11.625 30.6999 11.6 31.3499 11.675C32.9124 11.8625 34.3749 12.8875 35.0749 14.325C35.3999 14.9875 35.4374 15.1875 35.4374 16.3125C35.4374 18.3375 35.4374 18.325 30.7374 23.0625L26.7499 27.0625L22.8125 23.125C18.575 18.8875 18.2375 18.475 18.0125 17.05C17.65 14.7 19.1 12.4375 21.375 11.825C22.4125 11.55 22.875 11.5875 23.7 12Z" fill="black"/>
<path d="M21.25 12.8375C20.4125 13.1375 19.325 14.275 19.075 15.125C18.675 16.475 18.9625 17.25 19.875 17.25C20.425 17.25 20.875 16.8125 20.875 16.2875C20.875 15.8375 21.2375 15.1375 21.5875 14.9125C21.75 14.8 22.15 14.6625 22.475 14.6125C23.55 14.4125 23.9625 13.45 23.2375 12.8375C22.9 12.575 22.025 12.575 21.25 12.8375Z" fill="black"/>
<path d="M45.35 9.9C45.25 9.9875 44.9375 10.4 44.675 10.8125C43.9375 11.9375 42.825 13.0625 41.675 13.825C40.6125 14.5375 40.5 14.6625 40.5 15.2375C40.5 15.625 40.75 15.875 41.7875 16.5625C42.7125 17.1625 43.875 18.325 44.525 19.3C45.2375 20.3625 45.5 20.625 45.8375 20.625C46.3375 20.625 46.6 20.4125 47.2125 19.4625C47.9375 18.3625 49.0625 17.225 50.0625 16.575C51.1625 15.8625 51.375 15.6375 51.375 15.1875C51.375 14.675 51.2375 14.525 50.175 13.825C49.1 13.1125 47.8375 11.8375 47.1875 10.8125C46.6125 9.9 46.4375 9.75 45.9375 9.75C45.725 9.75 45.4625 9.825 45.35 9.9ZM47.1875 16.4375L45.9375 17.6875L44.6875 16.4375L43.4375 15.1875L44.6875 13.9375L45.9375 12.6875L47.1875 13.9375L48.4375 15.175L47.1875 16.4375Z" fill="black"/>
<path d="M4.02495 15.7125C3.69995 15.8375 3.49995 16.4875 3.49995 17.375C3.49995 17.8625 3.54995 18.375 3.62495 18.5C3.73745 18.7125 3.71245 18.725 3.34995 18.6125C2.38745 18.3375 0.98745 18.55 0.74995 19C0.52495 19.4125 0.61245 19.9375 0.92495 20.2375C1.21245 20.5 1.32495 20.525 2.47495 20.475C3.61245 20.4375 3.71245 20.45 3.61245 20.65C3.54995 20.7625 3.49995 21.2875 3.49995 21.8125C3.49995 22.7 3.52495 22.8 3.86245 23.1375C4.32495 23.5875 4.77495 23.6125 5.19995 23.1875C5.51245 22.875 5.52495 22.8125 5.47495 21.65L5.43745 20.4375L6.63745 20.475C8.07495 20.525 8.42495 20.35 8.42495 19.575C8.42495 18.8625 8.07495 18.6 7.02495 18.525C6.53745 18.5 5.98745 18.525 5.78745 18.5875L5.43745 18.7125L5.47495 17.4875C5.52495 16.3125 5.51245 16.25 5.19995 15.9375C4.89995 15.6375 4.42495 15.55 4.02495 15.7125ZM4.73745 19.0875C5.04995 19.025 5.06245 19.0375 5.06245 19.5375V20.0625H4.52495C4.03745 20.0625 3.99995 20.0375 4.06245 19.7875C4.09995 19.6375 4.07495 19.375 3.99995 19.1875C3.88745 18.8875 3.89995 18.875 4.13745 19.0125C4.28745 19.0875 4.54995 19.125 4.73745 19.0875Z" fill="black"/>
<path d="M40.1875 23.9125C39.9 24.15 39.8375 24.325 39.7875 25C39.75 25.45 39.775 26.0125 39.85 26.2625L39.975 26.725L39.5125 26.6C39.2625 26.525 38.7 26.5 38.25 26.5375C37.575 26.5875 37.4 26.65 37.1625 26.9375C36.8 27.35 36.8 27.7375 37.1375 28.175C37.4 28.5125 37.425 28.5125 38.6875 28.475L39.9625 28.4375L39.8375 28.875C39.775 29.1125 39.75 29.675 39.7875 30.125C39.8375 30.8 39.9 30.975 40.1875 31.2125C40.6 31.575 40.9875 31.575 41.425 31.2375C41.7375 30.9875 41.75 30.9375 41.75 29.75C41.75 28.5625 41.7375 28.5125 41.425 28.2625C41.0625 27.975 40.7375 27.9375 40.3625 28.125C40.15 28.25 40.1375 28.2375 40.275 27.9375C40.3875 27.7 40.3875 27.5125 40.2875 27.25C40.1625 26.9 40.1625 26.9 40.4625 27.0375C40.6875 27.1375 40.8625 27.1375 41.1375 27.0375C41.4625 26.9125 41.4875 26.9125 41.375 27.125C41.1875 27.4875 41.225 27.8125 41.5125 28.175C41.7625 28.4875 41.8125 28.5 43 28.5C44.1875 28.5 44.2375 28.4875 44.4875 28.175C44.825 27.7375 44.825 27.35 44.4625 26.9375C44.225 26.65 44.05 26.5875 43.375 26.5375C42.925 26.5 42.3625 26.525 42.125 26.5875L41.6875 26.7125L41.725 25.4375C41.7625 24.175 41.7625 24.15 41.425 23.8875C40.9875 23.55 40.6 23.55 40.1875 23.9125Z" fill="black"/>
<path d="M13.4625 24.7625C13.35 24.8375 12.975 25.3 12.65 25.7875C11.9125 26.9125 10.7875 28.0625 9.8125 28.6875C8.7 29.4125 8.5 29.6125 8.5 30.0625C8.5 30.5625 8.6375 30.725 9.5625 31.325C10.6875 32.05 11.95 33.3125 12.65 34.4C13.6375 35.9 14.225 35.9375 15.125 34.5375C15.9 33.35 17.025 32.2125 18.2 31.425C19.2625 30.7125 19.375 30.5875 19.375 30.0125C19.375 29.625 19.125 29.375 18.0875 28.6875C17.1 28.0375 16.025 26.9625 15.2625 25.825C14.4625 24.65 14.0625 24.4125 13.4625 24.7625ZM16.15 30.4125C15.7125 30.75 14.625 31.8375 14.2875 32.2875L14.0125 32.6375L12.725 31.35L11.4375 30.075L12.6875 28.8125L13.9375 27.5625L15.2125 28.8625L16.5 30.15L16.15 30.4125Z" fill="black"/>
<path d="M26.5 32.6625C26.125 32.75 25.575 32.95 25.3 33.1C25.0125 33.2375 22.6375 35.05 20.0125 37.125L15.25 40.875H14.1375H13.025L12.975 40.1875C12.9125 39.45 12.675 39.0125 12.075 38.575C11.75 38.325 11.5375 38.3125 8.65 38.275C5.65 38.2375 5.55 38.25 5 38.525C4.5875 38.7375 4.3625 38.9625 4.1625 39.375C3.875 39.925 3.875 39.95 3.875 45.875C3.875 49.5 3.925 51.9875 4 52.275C4.1875 52.9125 4.9625 53.5875 5.65 53.6875C5.95 53.7375 7.4 53.75 8.875 53.725C11.85 53.6875 12.0875 53.625 12.65 52.85C12.875 52.5375 12.95 52.225 12.9875 51.525C13.025 50.75 13.0625 50.625 13.2375 50.675C15.2375 51.2625 14.9 51.25 24.6125 51.25H33.7375L35.4625 50.9375C38.975 50.2875 41.6375 49.55 43.125 48.8125C43.85 48.45 44.275 48.05 46.8125 45.35C49.875 42.1 50.2 41.6125 50.3375 40.325C50.475 38.9375 49.6625 37.475 48.4125 36.875C47.5375 36.4625 46.25 36.475 45 36.925C44.4875 37.1125 43.9625 37.2875 43.85 37.325C43.7125 37.375 43.5875 37.2875 43.4625 37.0375C43.3625 36.85 43.0625 36.475 42.7875 36.2C41.425 34.8125 39.1625 34.7125 37.5375 35.95C37.3 36.125 36.4375 37.2875 35.6 38.5375C34.775 39.7875 34.05 40.8625 34 40.925C33.9 41.025 31.2 40.625 30.225 40.3625L29.75 40.2375L30.425 39.575C32.225 37.7625 32.4625 34.9375 30.9125 33.475C30.05 32.65 28.0875 32.2875 26.5 32.6625ZM29.0625 34.675C29.6625 34.925 29.925 35.4 29.925 36.175C29.9125 37.05 29.65 37.5 28.375 38.8125C26.7 40.5375 26.075 41.9875 26.0625 44.125C26.0625 45.325 26.2625 45.8125 26.8125 45.95C27.6375 46.15 28.2 45.5375 28.0625 44.5875C27.975 44.05 28.175 42.625 28.375 42.2375C28.475 42.0625 28.6875 42.0875 30.475 42.45C33.275 43.0125 35.9 43.2875 37.9125 43.225C40.1625 43.15 40.7125 42.925 41.775 41.725C42.2125 41.2375 42.8375 40.5625 43.175 40.225C44.1625 39.2375 46.175 38.425 47.2125 38.5875C48.125 38.7375 48.65 39.975 48.1625 40.8375C47.75 41.575 42.7375 46.7875 42.1625 47.1C41.4375 47.475 39.125 48.1375 36.475 48.7125L34.3125 49.175L25.0625 49.225L15.8125 49.2625L14.4125 48.9125L13 48.575V45.725V42.875H14.3875C15.2 42.875 15.875 42.8125 16.0375 42.725C16.1875 42.65 18.4 40.95 20.9375 38.9375C23.4875 36.9375 25.7375 35.175 25.95 35.025C26.675 34.525 28.2625 34.35 29.0625 34.675ZM41.0625 37.3625C41.2625 37.475 41.5625 37.8 41.7125 38.0625L41.975 38.5375L41.275 39.35C39.6125 41.2375 39.525 41.275 37.5125 41.225L36.2625 41.1875L37.325 39.5625C38.55 37.6875 38.7875 37.425 39.45 37.1875C40 36.9875 40.5 37.05 41.0625 37.3625ZM11 46V51.75L8.475 51.725L5.9375 51.6875L5.9 45.9625L5.875 40.25H8.4375H11V46Z" fill="black"/>
</svg>
