<!-- Generated by IcoMoon.io -->
<svg version="1.1" xmlns="http://www.w3.org/2000/svg" width="32" height="32" viewBox="0 0 32 32">
<title>values</title>
<path d="M15 2.706c-0.081 0.044-0.188 0.15-0.231 0.231-0.094 0.181-0.106 0.862-0.025 1.075l0.056 0.144-0.619-0.019c-0.588-0.025-0.619-0.019-0.775 0.138-0.25 0.25-0.206 0.6 0.1 0.756 0.206 0.106 1 0.125 1.188 0.031 0.106-0.063 0.113-0.050 0.056 0.094-0.081 0.219-0.081 0.838 0.006 1.088 0.125 0.35 0.55 0.438 0.8 0.169 0.131-0.144 0.144-0.2 0.119-0.775-0.019-0.569-0.012-0.619 0.088-0.569 0.056 0.031 0.319 0.056 0.581 0.056 0.45 0 0.488-0.013 0.669-0.188 0.156-0.162 0.181-0.225 0.15-0.394-0.069-0.356-0.231-0.431-0.913-0.406l-0.594 0.019 0.019-0.6c0.019-0.5 0-0.619-0.094-0.731-0.144-0.169-0.387-0.225-0.581-0.119zM15.494 4.381c-0.037 0.075-0.056 0.219-0.044 0.319 0.025 0.162 0.012 0.181-0.113 0.15-0.075-0.019-0.213-0.013-0.306 0.025-0.15 0.056-0.156 0.050-0.088-0.069 0.037-0.075 0.056-0.206 0.037-0.3-0.031-0.156-0.025-0.162 0.206-0.144 0.131 0.013 0.256-0.006 0.275-0.044 0.081-0.125 0.106-0.069 0.031 0.063z"></path>
<path d="M8.769 3.769c-0.075 0.044-0.275 0.287-0.444 0.544-0.35 0.544-1.019 1.194-1.563 1.525-0.425 0.269-0.575 0.506-0.463 0.756 0.037 0.081 0.287 0.294 0.556 0.475 0.619 0.419 1.1 0.9 1.494 1.494 0.519 0.781 0.769 0.787 1.281 0.031 0.394-0.575 0.988-1.169 1.525-1.525 0.787-0.525 0.794-0.769 0.012-1.281-0.6-0.394-1.231-1.031-1.563-1.581-0.287-0.475-0.537-0.606-0.838-0.438zM10.012 6.181l0.275 0.219-0.644 0.631-0.644 0.638-1.237-1.237 0.638-0.638 0.631-0.638 0.35 0.406c0.2 0.225 0.481 0.5 0.631 0.619z"></path>
<path d="M21.962 3.906c-0.15 0.15-0.156 0.188-0.137 0.737l0.019 0.575h-0.6c-0.506 0-0.625 0.019-0.738 0.119-0.175 0.162-0.181 0.55 0 0.731 0.113 0.112 0.188 0.125 0.731 0.106l0.606-0.019-0.025 0.556c-0.025 0.625 0.038 0.8 0.313 0.919 0.144 0.056 0.225 0.056 0.363-0.006 0.256-0.106 0.337-0.344 0.313-0.95l-0.025-0.519 0.594 0.019c0.531 0.019 0.606 0.006 0.738-0.112 0.175-0.162 0.181-0.494 0.019-0.694-0.1-0.125-0.188-0.15-0.594-0.169-0.256-0.013-0.556 0.006-0.663 0.037-0.175 0.063-0.181 0.063-0.125-0.050 0.031-0.063 0.063-0.344 0.063-0.625 0-0.456-0.019-0.519-0.156-0.656-0.2-0.206-0.488-0.206-0.694 0zM22.462 5.45c0.144-0.063 0.15-0.056 0.106 0.1-0.031 0.094-0.031 0.225-0.006 0.294 0.044 0.112 0.019 0.125-0.244 0.125h-0.288v-0.287c0-0.275 0.006-0.287 0.137-0.225 0.1 0.044 0.188 0.044 0.294-0.006z"></path>
<path d="M13.581 7.4c-1.175 0.269-2.15 1.2-2.488 2.369-0.137 0.475-0.137 1.3 0 1.775 0.238 0.825 0.363 0.975 2.688 3.319 1.2 1.219 2.262 2.25 2.356 2.3s0.238 0.075 0.319 0.056c0.081-0.025 1.181-1.081 2.462-2.363 1.919-1.931 2.337-2.387 2.475-2.681 0.475-1 0.475-2.044 0-3.037-0.263-0.537-0.956-1.213-1.531-1.481-0.556-0.25-1.175-0.375-1.65-0.313-0.431 0.050-1.081 0.381-1.506 0.75l-0.325 0.287-0.394-0.319c-0.819-0.662-1.537-0.856-2.406-0.662zM14.85 8.5c0.2 0.1 0.581 0.381 0.85 0.625 0.631 0.581 0.7 0.581 1.344 0 0.262-0.244 0.656-0.531 0.875-0.637 0.35-0.175 0.431-0.188 0.756-0.15 0.781 0.094 1.513 0.606 1.863 1.325 0.163 0.331 0.181 0.431 0.181 0.994 0 1.012 0 1.006-2.35 3.375l-1.994 2-1.969-1.969c-2.119-2.119-2.287-2.325-2.4-3.037-0.181-1.175 0.544-2.306 1.681-2.612 0.519-0.137 0.75-0.119 1.162 0.088z"></path>
<path d="M13.625 8.919c-0.419 0.15-0.963 0.719-1.088 1.144-0.2 0.675-0.056 1.063 0.4 1.063 0.275 0 0.5-0.219 0.5-0.481 0-0.225 0.181-0.575 0.356-0.688 0.081-0.056 0.281-0.125 0.444-0.15 0.537-0.1 0.744-0.581 0.381-0.887-0.169-0.131-0.606-0.131-0.994 0z"></path>
<path d="M25.675 7.45c-0.050 0.044-0.206 0.25-0.337 0.456-0.369 0.563-0.925 1.125-1.5 1.506-0.531 0.356-0.587 0.419-0.587 0.706 0 0.194 0.125 0.319 0.644 0.662 0.462 0.3 1.044 0.881 1.369 1.369 0.356 0.531 0.488 0.662 0.656 0.662 0.25 0 0.381-0.106 0.688-0.581 0.363-0.55 0.925-1.119 1.425-1.444 0.55-0.356 0.656-0.469 0.656-0.694 0-0.256-0.069-0.331-0.6-0.681-0.538-0.356-1.169-0.994-1.494-1.506-0.288-0.456-0.375-0.531-0.625-0.531-0.106 0-0.238 0.037-0.294 0.075zM26.594 10.719l-0.625 0.625-1.25-1.25 1.25-1.25 0.625 0.625 0.625 0.619-0.625 0.631z"></path>
<path d="M5.013 10.356c-0.163 0.063-0.263 0.387-0.263 0.831 0 0.244 0.025 0.5 0.063 0.563 0.056 0.106 0.044 0.113-0.138 0.056-0.481-0.137-1.181-0.031-1.3 0.194-0.112 0.206-0.069 0.469 0.087 0.619 0.144 0.131 0.2 0.144 0.775 0.119 0.569-0.019 0.619-0.012 0.569 0.088-0.031 0.056-0.056 0.319-0.056 0.581 0 0.444 0.013 0.494 0.181 0.662 0.231 0.225 0.456 0.238 0.669 0.025 0.156-0.156 0.162-0.188 0.138-0.769l-0.019-0.606 0.6 0.019c0.719 0.025 0.894-0.063 0.894-0.45 0-0.356-0.175-0.488-0.7-0.525-0.244-0.012-0.519 0-0.619 0.031l-0.175 0.063 0.019-0.613c0.025-0.588 0.019-0.619-0.138-0.775-0.15-0.15-0.388-0.194-0.588-0.113zM5.369 12.044c0.156-0.031 0.162-0.025 0.162 0.225v0.262h-0.269c-0.244 0-0.263-0.012-0.231-0.137 0.019-0.075 0.006-0.206-0.031-0.3-0.056-0.15-0.050-0.156 0.069-0.088 0.075 0.037 0.206 0.056 0.3 0.037z"></path>
<path d="M23.094 14.456c-0.144 0.119-0.175 0.206-0.2 0.544-0.019 0.225-0.006 0.506 0.031 0.631l0.063 0.231-0.231-0.063c-0.125-0.037-0.406-0.050-0.631-0.031-0.337 0.025-0.425 0.056-0.544 0.2-0.181 0.206-0.181 0.4-0.012 0.619 0.131 0.169 0.144 0.169 0.775 0.15l0.637-0.019-0.063 0.219c-0.031 0.119-0.044 0.4-0.025 0.625 0.025 0.337 0.056 0.425 0.2 0.544 0.206 0.181 0.4 0.181 0.619 0.012 0.156-0.125 0.163-0.15 0.163-0.744s-0.006-0.619-0.163-0.744c-0.181-0.144-0.344-0.163-0.531-0.069-0.106 0.063-0.113 0.056-0.044-0.094 0.056-0.119 0.056-0.212 0.006-0.344-0.063-0.175-0.063-0.175 0.087-0.106 0.113 0.050 0.2 0.050 0.337 0 0.163-0.063 0.175-0.063 0.119 0.044-0.094 0.181-0.075 0.344 0.069 0.525 0.125 0.156 0.15 0.163 0.744 0.163s0.619-0.006 0.744-0.163c0.169-0.219 0.169-0.413-0.012-0.619-0.119-0.144-0.206-0.175-0.544-0.2-0.225-0.019-0.506-0.006-0.625 0.025l-0.219 0.063 0.019-0.637c0.019-0.631 0.019-0.644-0.15-0.775-0.219-0.169-0.413-0.169-0.619 0.012z"></path>
<path d="M9.731 14.881c-0.056 0.037-0.244 0.269-0.406 0.512-0.369 0.563-0.931 1.138-1.419 1.45-0.556 0.363-0.656 0.462-0.656 0.688 0 0.25 0.069 0.331 0.531 0.631 0.563 0.363 1.194 0.994 1.544 1.538 0.494 0.75 0.787 0.769 1.238 0.069 0.387-0.594 0.95-1.163 1.537-1.556 0.531-0.356 0.588-0.419 0.588-0.706 0-0.194-0.125-0.319-0.644-0.663-0.494-0.325-1.031-0.863-1.412-1.431-0.4-0.588-0.6-0.706-0.9-0.531zM11.075 17.706c-0.219 0.169-0.762 0.712-0.931 0.938l-0.137 0.175-0.644-0.644-0.644-0.637 0.625-0.631 0.625-0.625 0.637 0.65 0.644 0.644-0.175 0.131z"></path>
<path d="M16.25 18.831c-0.188 0.044-0.463 0.144-0.6 0.219-0.144 0.069-1.331 0.975-2.644 2.012l-2.381 1.875h-1.113l-0.025-0.344c-0.031-0.369-0.15-0.587-0.45-0.806-0.162-0.125-0.269-0.131-1.713-0.15-1.5-0.019-1.55-0.012-1.825 0.125-0.206 0.106-0.319 0.219-0.419 0.425-0.144 0.275-0.144 0.288-0.144 3.25 0 1.813 0.025 3.056 0.063 3.2 0.094 0.319 0.481 0.656 0.825 0.706 0.15 0.025 0.875 0.031 1.612 0.019 1.487-0.019 1.606-0.050 1.888-0.438 0.113-0.156 0.15-0.313 0.169-0.663 0.019-0.387 0.037-0.45 0.125-0.425 1 0.294 0.831 0.288 5.688 0.288h4.562l0.863-0.156c1.756-0.325 3.087-0.694 3.831-1.063 0.363-0.181 0.575-0.381 1.844-1.731 1.531-1.625 1.694-1.869 1.762-2.512 0.069-0.694-0.337-1.425-0.962-1.725-0.438-0.206-1.081-0.2-1.706 0.025-0.256 0.094-0.519 0.181-0.575 0.2-0.069 0.025-0.131-0.019-0.194-0.144-0.050-0.094-0.2-0.281-0.337-0.419-0.681-0.694-1.813-0.744-2.625-0.125-0.119 0.087-0.55 0.669-0.969 1.294-0.413 0.625-0.775 1.163-0.8 1.194-0.050 0.050-1.4-0.15-1.887-0.281l-0.238-0.063 0.337-0.331c0.9-0.906 1.019-2.319 0.244-3.050-0.431-0.413-1.413-0.594-2.206-0.406zM17.531 19.837c0.3 0.125 0.431 0.363 0.431 0.75-0.006 0.438-0.137 0.663-0.775 1.319-0.837 0.863-1.15 1.587-1.156 2.656 0 0.6 0.1 0.844 0.375 0.913 0.413 0.1 0.694-0.206 0.625-0.681-0.044-0.269 0.056-0.981 0.156-1.175 0.050-0.087 0.156-0.075 1.050 0.106 1.4 0.281 2.712 0.419 3.719 0.387 1.125-0.038 1.4-0.15 1.931-0.75 0.219-0.244 0.531-0.581 0.7-0.75 0.494-0.494 1.5-0.9 2.019-0.819 0.456 0.075 0.719 0.694 0.475 1.125-0.206 0.369-2.712 2.975-3 3.131-0.363 0.188-1.519 0.519-2.844 0.806l-1.081 0.231-9.25 0.044-0.7-0.175-0.706-0.169v-2.85h0.694c0.406 0 0.744-0.031 0.825-0.075 0.075-0.038 1.181-0.887 2.45-1.894 1.275-1 2.4-1.881 2.506-1.956 0.362-0.25 1.156-0.337 1.556-0.175zM23.531 21.181c0.1 0.056 0.25 0.219 0.325 0.35l0.131 0.238-0.35 0.406c-0.831 0.944-0.875 0.962-1.881 0.938l-0.625-0.019 0.531-0.813c0.613-0.938 0.731-1.069 1.063-1.188 0.275-0.1 0.525-0.069 0.806 0.087zM8.5 25.5v2.875l-1.263-0.012-1.269-0.019-0.019-2.863-0.013-2.856h2.563v2.875z"></path>
</svg>
