<!-- Generated by IcoMoon.io -->
<svg version="1.1" xmlns="http://www.w3.org/2000/svg" width="32" height="32" viewBox="0 0 32 32">
<title>vision</title>
<path d="M15.688 0.75c-0.119 0.119-0.125 0.206-0.125 1.769 0 1.85 0 1.856 0.45 1.856 0.419 0 0.425-0.031 0.425-1.862 0-1.556-0.006-1.644-0.125-1.762-0.069-0.069-0.206-0.125-0.312-0.125s-0.244 0.056-0.312 0.125z"></path>
<path d="M8.875 2.606c-0.088 0.112-0.125 0.225-0.106 0.331 0.037 0.188 1.375 2.531 1.563 2.731 0.181 0.206 0.494 0.194 0.663-0.019 0.075-0.094 0.131-0.213 0.131-0.275 0-0.112-1.281-2.388-1.544-2.737-0.2-0.269-0.506-0.281-0.706-0.031z"></path>
<path d="M22.456 2.575c-0.2 0.231-1.581 2.656-1.581 2.788 0 0.069 0.056 0.194 0.131 0.287 0.169 0.213 0.481 0.225 0.663 0.019 0.2-0.225 1.581-2.65 1.581-2.781 0-0.069-0.056-0.194-0.131-0.288-0.169-0.212-0.481-0.225-0.663-0.025z"></path>
<path d="M15.437 5.231c-2.887 0.206-5.45 1.806-6.931 4.306-1.213 2.056-1.488 4.763-0.725 7.075 0.213 0.644 0.713 1.631 1.094 2.169 1.381 1.944 1.919 3.075 2.35 4.9 0.156 0.669 0.181 0.731 0.438 0.988l0.275 0.275v1.481l-0.387 0.025c-0.319 0.025-0.406 0.056-0.531 0.2-0.175 0.206-0.181 0.35-0.012 0.563 0.112 0.144 0.169 0.163 0.531 0.163h0.4v0.394c0 0.644 0.144 1.012 0.55 1.419 0.381 0.381 0.775 0.563 1.206 0.563 0.231 0 0.244 0.012 0.406 0.375 0.606 1.35 2.375 1.675 3.394 0.625 0.231-0.238 0.356-0.444 0.5-0.831 0.056-0.144 0.1-0.169 0.312-0.169 0.375 0 0.9-0.225 1.188-0.5 0.394-0.381 0.525-0.694 0.556-1.331l0.025-0.544h0.394c0.356 0 0.413-0.019 0.525-0.163 0.319-0.406 0.012-0.775-0.656-0.775h-0.275v-1.531l0.219-0.175c0.287-0.231 0.363-0.387 0.556-1.181 0.35-1.469 0.956-2.781 2.006-4.356 0.4-0.6 0.831-1.312 0.962-1.594 0.65-1.369 0.931-2.913 0.813-4.425-0.163-2.019-0.981-3.825-2.387-5.281-1.531-1.581-3.35-2.45-5.544-2.644-0.394-0.031-0.775-0.056-0.844-0.050s-0.25 0.019-0.406 0.031zM17.375 6.287c1.544 0.275 2.919 1 4.069 2.144 2.119 2.119 2.819 5.137 1.85 7.975-0.238 0.688-0.613 1.381-1.319 2.425-1.012 1.512-1.675 2.962-2.038 4.481-0.188 0.8-0.206 0.813-1.1 0.813h-0.712l0.012-3.688 0.019-3.694 0.519-0.212c1.019-0.413 2.050-1.075 3.006-1.919 1.069-0.937 1.069-0.975 0.212-1.8-1.375-1.325-3.012-2.225-4.656-2.569-0.856-0.175-1.988-0.144-2.862 0.087-1.456 0.381-2.987 1.275-4.288 2.5-0.531 0.506-0.588 0.575-0.588 0.781s0.050 0.281 0.481 0.688c1.025 0.969 2.362 1.85 3.431 2.269l0.525 0.206-0.012 3.656-0.019 3.663-0.719 0.019c-0.513 0.012-0.75-0.006-0.825-0.063-0.069-0.050-0.194-0.406-0.325-0.925-0.375-1.469-1.012-2.888-1.787-4-0.775-1.106-0.944-1.375-1.181-1.85-0.538-1.087-0.769-2.1-0.769-3.4 0-2.037 0.731-3.869 2.125-5.325 1.806-1.894 4.344-2.719 6.95-2.263zM17.019 11.269c0.506 0.231 0.837 0.506 1.106 0.931 1.019 1.569 0.119 3.606-1.731 3.931-1.419 0.25-2.813-0.856-2.937-2.312-0.088-1.019 0.462-2.019 1.356-2.475 0.431-0.225 0.713-0.281 1.281-0.262 0.456 0.012 0.631 0.050 0.925 0.188zM12.775 12.306c-0.181 0.45-0.275 0.906-0.275 1.35 0 0.363 0.188 1.169 0.344 1.469l0.106 0.2-0.325-0.175c-0.369-0.206-1.363-0.944-1.756-1.3l-0.269-0.244 0.306-0.281c0.569-0.513 1.812-1.387 1.975-1.387 0.025 0-0.025 0.169-0.106 0.369zM19.531 12.169c0.469 0.288 1.194 0.825 1.581 1.175l0.294 0.269-0.306 0.269c-0.606 0.537-1.119 0.912-1.75 1.275l-0.3 0.175 0.1-0.2c0.169-0.319 0.35-1.119 0.35-1.512 0-0.456-0.1-0.931-0.288-1.356-0.075-0.175-0.125-0.325-0.1-0.325s0.212 0.106 0.419 0.231zM15.969 17.094c0.206 0 0.563-0.019 0.8-0.044l0.419-0.044-0.012 3.544-0.019 3.544h-2.312l-0.019-3.544-0.012-3.55 0.388 0.050c0.219 0.025 0.563 0.044 0.769 0.044zM19.125 25.75v0.687h-6.25v-1.375h6.25v0.688zM19.112 27.844c-0.019 0.444-0.031 0.481-0.256 0.706l-0.231 0.231h-5.25l-0.231-0.231c-0.225-0.225-0.237-0.263-0.256-0.706l-0.025-0.469h6.275l-0.025 0.469zM17.006 29.856c-0.075 0.144-0.375 0.425-0.55 0.512-0.413 0.212-1.175-0.019-1.412-0.425l-0.113-0.194h1.069c1 0 1.062 0.006 1.006 0.106z"></path>
<path d="M15.562 12.056c-0.456 0.15-0.869 0.513-1.031 0.906-0.269 0.65-0.138 1.269 0.375 1.769 0.45 0.438 0.975 0.563 1.625 0.387 0.387-0.106 0.869-0.625 1-1.075 0.212-0.737-0.125-1.519-0.806-1.869-0.275-0.137-0.906-0.206-1.162-0.119zM16.35 13.056c0.556 0.338 0.306 1.194-0.356 1.194-0.275 0-0.581-0.225-0.644-0.475-0.1-0.381 0.256-0.838 0.65-0.838 0.087 0 0.244 0.056 0.35 0.119z"></path>
<path d="M3.975 7.506c-0.2 0.156-0.225 0.481-0.044 0.644 0.194 0.175 2.581 1.544 2.756 1.575 0.406 0.088 0.669-0.488 0.362-0.769-0.225-0.2-2.656-1.581-2.787-1.581-0.069 0-0.194 0.056-0.288 0.131z"></path>
<path d="M26.431 8.069c-1.544 0.888-1.619 0.944-1.619 1.213 0 0.231 0.231 0.469 0.45 0.469 0.137 0 2.569-1.381 2.788-1.581 0.2-0.181 0.188-0.494-0.025-0.663-0.094-0.075-0.212-0.131-0.275-0.131-0.056 0-0.65 0.313-1.319 0.694z"></path>
<path d="M2.125 14.312c-0.15 0.15-0.163 0.419-0.025 0.613 0.094 0.138 0.106 0.138 1.775 0.138s1.681 0 1.775-0.138c0.138-0.194 0.125-0.462-0.025-0.613-0.119-0.119-0.206-0.125-1.75-0.125s-1.631 0.006-1.75 0.125z"></path>
<path d="M26.187 14.312c-0.163 0.163-0.163 0.506-0.012 0.644 0.1 0.094 0.325 0.106 1.875 0.106 1.744 0 1.756 0 1.85-0.138 0.138-0.194 0.125-0.462-0.025-0.613-0.119-0.119-0.206-0.125-1.844-0.125s-1.725 0.006-1.844 0.125z"></path>
<path d="M5.325 20.244c-0.694 0.406-1.325 0.794-1.388 0.85-0.075 0.069-0.125 0.194-0.125 0.319 0 0.256 0.263 0.488 0.5 0.444 0.188-0.038 2.531-1.375 2.738-1.563 0.287-0.263 0.069-0.8-0.325-0.788-0.069 0-0.7 0.331-1.4 0.737z"></path>
<path d="M24.975 19.631c-0.212 0.169-0.225 0.481-0.019 0.663 0.206 0.188 2.544 1.525 2.731 1.556 0.406 0.081 0.669-0.488 0.363-0.769-0.225-0.2-2.656-1.581-2.788-1.581-0.069 0-0.194 0.056-0.287 0.131z"></path>
</svg>
