<svg width="56" height="62" viewBox="0 0 56 62" fill="none" xmlns="http://www.w3.org/2000/svg">
<path d="M27.375 0.5C27.1375 0.7375 27.125 0.9125 27.125 4.0375C27.125 7.7375 27.125 7.75 28.025 7.75C28.8625 7.75 28.875 7.6875 28.875 4.025C28.875 0.9125 28.8625 0.7375 28.625 0.5C28.4875 0.3625 28.2125 0.25 28 0.25C27.7875 0.25 27.5125 0.3625 27.375 0.5Z" fill="black"/>
<path d="M13.75 4.21251C13.575 4.43751 13.5 4.66251 13.5375 4.87501C13.6125 5.25001 16.2875 9.93751 16.6625 10.3375C17.025 10.75 17.65 10.725 17.9875 10.3C18.1375 10.1125 18.25 9.87501 18.25 9.75001C18.25 9.52501 15.6875 4.97501 15.1625 4.27501C14.7625 3.73751 14.15 3.71251 13.75 4.21251Z" fill="black"/>
<path d="M40.9125 4.15001C40.5125 4.61251 37.75 9.46251 37.75 9.72501C37.75 9.86251 37.8625 10.1125 38.0125 10.3C38.35 10.725 38.975 10.75 39.3375 10.3375C39.7375 9.88751 42.5 5.03751 42.5 4.77501C42.5 4.63751 42.3875 4.38751 42.2375 4.20001C41.9 3.77501 41.275 3.75001 40.9125 4.15001Z" fill="black"/>
<path d="M26.875 9.46249C21.1 9.875 15.975 13.075 13.0125 18.075C10.5875 22.1875 10.0375 27.6 11.5625 32.225C11.9875 33.5125 12.9875 35.4875 13.75 36.5625C16.5125 40.45 17.5875 42.7125 18.45 46.3625C18.7625 47.7 18.8125 47.825 19.325 48.3375L19.875 48.8875V50.3625V51.85L19.1 51.9C18.4625 51.95 18.2875 52.0125 18.0375 52.3C17.6875 52.7125 17.675 53 18.0125 53.425C18.2375 53.7125 18.35 53.75 19.075 53.75H19.875V54.5375C19.875 55.825 20.1625 56.5625 20.975 57.375C21.7375 58.1375 22.525 58.5 23.3875 58.5C23.85 58.5 23.875 58.525 24.2 59.25C25.4125 61.95 28.95 62.6 30.9875 60.5C31.45 60.025 31.7 59.6125 31.9875 58.8375C32.1 58.55 32.1875 58.5 32.6125 58.5C33.3625 58.5 34.4125 58.05 34.9875 57.5C35.775 56.7375 36.0375 56.1125 36.1 54.8375L36.15 53.75H36.9375C37.65 53.75 37.7625 53.7125 37.9874 53.425C38.625 52.6125 38.0125 51.875 36.675 51.875H36.125V50.3375V48.8125L36.5625 48.4625C37.1375 48 37.2875 47.6875 37.675 46.1C38.375 43.1625 39.5875 40.5375 41.6875 37.3875C42.4874 36.1875 43.3499 34.7625 43.6124 34.2C44.9124 31.4625 45.4749 28.375 45.2374 25.35C44.9124 21.3125 43.2749 17.7 40.4625 14.7875C37.4 11.625 33.7625 9.8875 29.375 9.5C28.5875 9.4375 27.825 9.3875 27.6875 9.39999C27.55 9.41249 27.1875 9.4375 26.875 9.46249ZM30.75 11.575C33.8375 12.125 36.5875 13.575 38.8875 15.8625C43.125 20.1 44.5249 26.1375 42.5875 31.8125C42.1124 33.1875 41.3624 34.575 39.95 36.6625C37.9249 39.6875 36.6 42.5875 35.875 45.625C35.5 47.225 35.4625 47.25 33.675 47.25H32.25L32.275 39.875L32.3125 32.4875L33.35 32.0625C35.3875 31.2375 37.45 29.9125 39.3624 28.225C41.5 26.35 41.5 26.275 39.7875 24.625C37.0375 21.975 33.7625 20.175 30.475 19.4875C28.7625 19.1375 26.5 19.2 24.75 19.6625C21.8375 20.425 18.775 22.2125 16.175 24.6625C15.1125 25.675 15 25.8125 15 26.225C15 26.6375 15.1 26.7875 15.9625 27.6C18.0125 29.5375 20.6875 31.3 22.825 32.1375L23.875 32.55L23.85 39.8625L23.8125 47.1875L22.375 47.225C21.35 47.25 20.875 47.2125 20.725 47.1C20.5875 47 20.3375 46.2875 20.075 45.25C19.325 42.3125 18.05 39.475 16.5 37.25C14.95 35.0375 14.6125 34.5 14.1375 33.55C13.0625 31.375 12.6 29.35 12.6 26.75C12.6 22.675 14.0625 19.0125 16.85 16.1C20.4625 12.3125 25.5375 10.6625 30.75 11.575ZM30.0375 21.5375C31.05 22 31.7125 22.55 32.25 23.4C34.2875 26.5375 32.4875 30.6125 28.7875 31.2625C25.95 31.7625 23.1625 29.55 22.9125 26.6375C22.7375 24.6 23.8375 22.6 25.625 21.6875C26.4875 21.2375 27.05 21.125 28.1875 21.1625C29.1 21.1875 29.45 21.2625 30.0375 21.5375ZM21.55 23.6125C21.1875 24.5125 21 25.425 21 26.3125C21 27.0375 21.375 28.65 21.6875 29.25L21.9 29.65L21.25 29.3C20.5125 28.8875 18.525 27.4125 17.7375 26.7L17.2 26.2125L17.8125 25.65C18.95 24.625 21.4375 22.875 21.7625 22.875C21.8125 22.875 21.7125 23.2125 21.55 23.6125ZM35.0625 23.3375C36 23.9125 37.45 24.9875 38.225 25.6875L38.8125 26.225L38.2 26.7625C36.9875 27.8375 35.9625 28.5875 34.7 29.3125L34.1 29.6625L34.3 29.2625C34.6375 28.625 35 27.025 35 26.2375C35 25.325 34.8 24.375 34.425 23.525C34.275 23.175 34.175 22.875 34.225 22.875C34.275 22.875 34.65 23.0875 35.0625 23.3375ZM27.9375 33.1875C28.35 33.1875 29.0625 33.15 29.5375 33.1L30.375 33.0125L30.35 40.1L30.3125 47.1875H28H25.6875L25.65 40.1L25.625 33L26.4 33.1C26.8375 33.15 27.525 33.1875 27.9375 33.1875ZM34.25 50.5V51.875H28H21.75V50.5V49.125H28H34.25V50.5ZM34.225 54.6875C34.1875 55.575 34.1625 55.65 33.7125 56.1L33.25 56.5625H28H22.75L22.2875 56.1C21.8375 55.65 21.8125 55.575 21.775 54.6875L21.725 53.75H28H34.275L34.225 54.6875ZM30.0125 58.7125C29.8625 59 29.2625 59.5625 28.9125 59.7375C28.0875 60.1625 26.5625 59.7 26.0875 58.8875L25.8625 58.5H28C30 58.5 30.125 58.5125 30.0125 58.7125Z" fill="black"/>
<path d="M27.1249 23.1125C26.2124 23.4125 25.3874 24.1375 25.0624 24.925C24.5249 26.225 24.7874 27.4625 25.8124 28.4625C26.7124 29.3375 27.7624 29.5875 29.0624 29.2375C29.8375 29.025 30.8 27.9875 31.0625 27.0875C31.4875 25.6125 30.8125 24.05 29.45 23.35C28.9 23.075 27.6374 22.9375 27.1249 23.1125ZM28.6999 25.1125C29.8124 25.7875 29.3124 27.5 27.9874 27.5C27.4374 27.5 26.8249 27.05 26.6999 26.55C26.4999 25.7875 27.2124 24.875 27.9999 24.875C28.1749 24.875 28.4874 24.9875 28.6999 25.1125Z" fill="black"/>
<path d="M3.94993 14.0125C3.54993 14.325 3.49993 14.975 3.86243 15.3C4.24993 15.65 9.02493 18.3875 9.37493 18.45C10.1874 18.625 10.7124 17.475 10.0999 16.9125C9.64993 16.5125 4.78743 13.75 4.52493 13.75C4.38743 13.75 4.13743 13.8625 3.94993 14.0125Z" fill="black"/>
<path d="M48.8625 15.1375C45.775 16.9125 45.625 17.025 45.625 17.5625C45.625 18.025 46.0875 18.5 46.525 18.5C46.8 18.5 51.6625 15.7375 52.1 15.3375C52.5 14.975 52.475 14.35 52.05 14.0125C51.8625 13.8625 51.625 13.75 51.5 13.75C51.3875 13.75 50.2 14.375 48.8625 15.1375Z" fill="black"/>
<path d="M0.249964 27.625C-0.0500359 27.925 -0.0750359 28.4625 0.199964 28.85C0.387464 29.125 0.412464 29.125 3.74996 29.125C7.08746 29.125 7.11246 29.125 7.29996 28.85C7.57496 28.4625 7.54996 27.925 7.24996 27.625C7.01246 27.3875 6.83746 27.375 3.74996 27.375C0.662464 27.375 0.487464 27.3875 0.249964 27.625Z" fill="black"/>
<path d="M48.3749 27.625C48.0499 27.95 48.0499 28.6375 48.3499 28.9125C48.5499 29.1 48.9999 29.125 52.0999 29.125C55.5874 29.125 55.6124 29.125 55.7999 28.85C56.0749 28.4625 56.0499 27.925 55.7499 27.625C55.5124 27.3875 55.3374 27.375 52.0624 27.375C48.7874 27.375 48.6124 27.3875 48.3749 27.625Z" fill="black"/>
<path d="M6.65 39.4875C5.2625 40.3 4 41.075 3.875 41.1875C3.725 41.325 3.625 41.575 3.625 41.825C3.625 42.3375 4.15 42.8 4.625 42.7125C5 42.6375 9.6875 39.9625 10.1 39.5875C10.675 39.0625 10.2375 37.9875 9.45 38.0125C9.3125 38.0125 8.05 38.675 6.65 39.4875Z" fill="black"/>
<path d="M45.9499 38.2625C45.5249 38.6 45.4999 39.225 45.9124 39.5875C46.3249 39.9625 50.9999 42.6375 51.3749 42.7C52.1874 42.8625 52.7124 41.725 52.0999 41.1625C51.6499 40.7625 46.7874 38 46.5249 38C46.3874 38 46.1374 38.1125 45.9499 38.2625Z" fill="black"/>
</svg>
