<svg width="24" height="24" viewBox="0 0 24 24" fill="none" xmlns="http://www.w3.org/2000/svg">
<g id="ph:paint-brush-light">
<path id="Vector" d="M22.4001 2C20.3204 2 17.9898 3.14083 15.4711 5.38948C13.6634 7.00524 12.1017 8.88895 11.0318 10.2987C10.1605 10.009 9.23289 9.93035 8.32525 10.0692C7.41761 10.208 6.5559 10.5604 5.81105 11.0973C5.0662 11.6342 4.45948 12.3404 4.04084 13.1576C3.62219 13.9748 3.40358 14.8797 3.40299 15.7979C3.40299 19.0044 1.3603 20.4362 1.26831 20.4972C1.16067 20.5686 1.07895 20.6728 1.0353 20.7944C0.991648 20.9159 0.988394 21.0483 1.02602 21.1719C1.06365 21.2954 1.14016 21.4036 1.24416 21.4802C1.34816 21.5567 1.4741 21.5977 1.60326 21.597H9.2021C10.1203 21.5964 11.0252 21.3778 11.8424 20.9592C12.6596 20.5405 13.3658 19.9338 13.9027 19.1889C14.4396 18.4441 14.792 17.5824 14.9308 16.6747C15.0696 15.7671 14.991 14.8395 14.7013 13.9682C16.109 12.9013 17.9928 11.3366 19.6085 9.52885C21.8592 7.01024 23 4.67959 23 2.59991C23 2.4408 22.9368 2.28821 22.8243 2.17571C22.7118 2.0632 22.5592 2 22.4001 2ZM9.2021 20.3972H3.06804C3.79493 19.4823 4.6028 17.9756 4.6028 15.7979C4.6028 14.8882 4.87255 13.999 5.37792 13.2427C5.8833 12.4863 6.60161 11.8968 7.44203 11.5487C8.28244 11.2006 9.2072 11.1095 10.0994 11.287C10.9916 11.4644 11.8111 11.9025 12.4543 12.5457C13.0975 13.1889 13.5356 14.0084 13.713 14.9006C13.8905 15.7928 13.7994 16.7176 13.4513 17.558C13.1032 18.3984 12.5137 19.1167 11.7573 19.6221C11.001 20.1275 10.1118 20.3972 9.2021 20.3972ZM12.1507 10.8077C12.5106 10.3407 12.9385 9.80781 13.4215 9.2389C14.3594 9.84287 15.1571 10.6406 15.7611 11.5785C15.1942 12.0615 14.6613 12.4894 14.1923 12.8493C13.6935 12.0085 12.9915 11.3065 12.1507 10.8077ZM16.67 10.7777C16.0197 9.81146 15.1885 8.98029 14.2223 8.33003C16.306 6.04538 19.1006 3.59976 21.7562 3.24381C21.4002 5.89941 18.9546 8.69898 16.67 10.7777Z" fill="#0E0E0E"/>
</g>
</svg>
