<svg width="24" height="24" viewBox="0 0 24 24" fill="none" xmlns="http://www.w3.org/2000/svg">
<g id="iconoir:stroller">
<path id="Vector" d="M5.04633 18.455C2.69333 16.666 1.04715 13.5465 1.00317 11.8358C0.959186 10.1251 1.37379 8.43377 2.20395 6.93736C3.03411 5.44096 4.24959 4.19396 5.72425 3.32577C7.19892 2.45757 8.87906 1.99982 10.5903 2V12.1534M5.04633 18.455C4.62319 18.8781 4.38547 19.452 4.38547 20.0505C4.38547 20.6489 4.62319 21.2228 5.04633 21.6459C5.46947 22.069 6.04337 22.3068 6.64178 22.3068C7.24019 22.3068 7.81409 22.069 8.23723 21.6459C8.66037 21.2228 8.89809 20.6489 8.89809 20.0505C8.89809 19.452 8.66037 18.8781 8.23723 18.455C7.81409 18.0319 7.24019 17.7941 6.64178 17.7941C6.04337 17.7941 5.46947 18.0319 5.04633 18.455ZM16.1343 18.455C18.4875 16.666 20.1824 13.3845 20.1796 11.5893V9.333H23M16.1343 18.455C15.7112 18.0319 15.1373 17.7941 14.5389 17.7941C13.9404 17.7941 13.3665 18.0319 12.9434 18.455C12.5203 18.8781 12.2825 19.452 12.2825 20.0505C12.2825 20.6489 12.5203 21.2228 12.9434 21.6459C13.3665 22.069 13.9404 22.3068 14.5389 22.3068C15.1373 22.3068 15.7112 22.069 16.1343 21.6459C16.5574 21.2228 16.7952 20.6489 16.7952 20.0505C16.7952 19.452 16.5574 18.8781 16.1343 18.455ZM1.56509 12.1534H19.6155" stroke="#0E0E0E" stroke-linecap="round" stroke-linejoin="round"/>
</g>
</svg>
