<svg width="24" height="24" viewBox="0 0 24 24" fill="none" xmlns="http://www.w3.org/2000/svg">
<g id="lucide:baby">
<g id="Group">
<path id="Vector" d="M8.67578 11.9727H8.68686M15.3235 11.9727H15.3346M9.78373 16.4045C10.3377 16.7369 11.1133 16.9584 11.9996 16.9584C12.886 16.9584 13.6616 16.7369 14.2155 16.4045" stroke="#0E0E0E" stroke-linecap="round" stroke-linejoin="round"/>
<path id="Vector_2" d="M19.7557 5.65624C20.7594 6.91451 21.4437 8.39707 21.75 9.97726C22.1246 10.1587 22.4406 10.442 22.6617 10.7947C22.8827 11.1474 23 11.5553 23 11.9716C23 12.3878 22.8827 12.7957 22.6617 13.1484C22.4406 13.5011 22.1246 13.7844 21.75 13.9659C21.2717 16.1967 20.0428 18.1961 18.2684 19.6303C16.4941 21.0646 14.2815 21.847 12 21.847C9.71846 21.847 7.50591 21.0646 5.73155 19.6303C3.95719 18.1961 2.72833 16.1967 2.25001 13.9659C1.87537 13.7844 1.55941 13.5011 1.33833 13.1484C1.11726 12.7957 1 12.3878 1 11.9716C1 11.5553 1.11726 11.1474 1.33833 10.7947C1.55941 10.442 1.87537 10.1587 2.25001 9.97726C2.709 7.72867 3.92955 5.70723 5.70575 4.25398C7.48194 2.80073 9.70505 2.00463 12 2C14.2159 2 15.8778 3.21875 15.8778 4.76988C15.8778 6.32102 14.8807 7.53976 13.6619 7.53976C12.7756 7.53976 12 7.09658 12 6.43181" stroke="#0E0E0E" stroke-linecap="round" stroke-linejoin="round"/>
</g>
</g>
</svg>
