<svg width="24" height="24" viewBox="0 0 24 24" fill="none" xmlns="http://www.w3.org/2000/svg">
<g id="icon-park-outline:towel" clip-path="url(#clip0_1709_11262)">
<g id="Group">
<path id="Vector" d="M18.6 8.7002H1V13.1002H18.6V8.7002Z" stroke="#0E0E0E" stroke-miterlimit="2" stroke-linecap="round" stroke-linejoin="round"/>
<path id="Vector_2" d="M18.6 5.4V16.4C18.6 16.9835 18.3682 17.5431 17.9556 17.9556C17.5431 18.3682 16.9835 18.6 16.4 18.6H5.4M5.4 18.6H3.2C2.61652 18.6 2.05695 18.3682 1.64436 17.9556C1.23178 17.5431 1 16.9835 1 16.4V3.2C1 2.61652 1.23178 2.05695 1.64436 1.64436C2.05695 1.23178 2.61652 1 3.2 1H20.8C21.3835 1 21.9431 1.23178 22.3556 1.64436C22.7682 2.05695 23 2.61652 23 3.2V20.8C23 22.0155 22.0155 23 20.8 23H7.6C6.3845 23 5.4 22.0155 5.4 20.8V18.6Z" stroke="#0E0E0E" stroke-miterlimit="2" stroke-linecap="round" stroke-linejoin="round"/>
</g>
</g>
<defs>
<clipPath id="clip0_1709_11262">
<rect width="24" height="24" fill="white"/>
</clipPath>
</defs>
</svg>
