<svg width="24" height="24" viewBox="0 0 24 24" fill="none" xmlns="http://www.w3.org/2000/svg">
<g id="solar:book-linear">
<g id="Group">
<path id="Vector" d="M3 7.6C3 4.4892 3 2.9327 3.9669 1.9669C4.9327 1 6.4892 1 9.6 1H14C17.1108 1 18.6673 1 19.6331 1.9669C20.6 2.9327 20.6 4.4892 20.6 7.6V16.4C20.6 19.5108 20.6 21.0673 19.6331 22.0331C18.6673 23 17.1108 23 14 23H9.6C6.4892 23 4.9327 23 3.9669 22.0331C3 21.0673 3 19.5108 3 16.4V7.6Z" stroke="#0E0E0E"/>
<path id="Vector_2" d="M20.4878 16.4004H7.2878C6.2648 16.4004 5.7533 16.4004 5.3331 16.5126C4.77354 16.6626 4.26334 16.9573 3.8538 17.3671C3.44425 17.7768 3.14978 18.2872 3 18.8468" stroke="#0E0E0E"/>
<path id="Vector_3" d="M7.40039 6.5H16.2004M7.40039 10.35H12.9004" stroke="#0E0E0E" stroke-linecap="round"/>
</g>
</g>
</svg>
