<svg width="24" height="24" viewBox="0 0 24 24" fill="none" xmlns="http://www.w3.org/2000/svg">
<g id="streamline:computer-connection-usb-cable-cables-cable-device-cord-computer-electronics-cords-usb">
<path id="Vector" d="M11.7692 23V18.7692M7.53846 6.92308V2.69231C7.53846 2.24348 7.71676 1.81303 8.03413 1.49567C8.3515 1.1783 8.78194 1 9.23077 1H14.3077C14.7565 1 15.187 1.1783 15.5043 1.49567C15.8217 1.81303 16 2.24348 16 2.69231V6.92308M10.9231 11.1538H12.6154M17.6923 6.92308H5.84615C5.62174 6.92308 5.40652 7.01223 5.24783 7.17091C5.08915 7.32959 5 7.54482 5 7.76923V12.1523C5.00187 12.5963 5.17813 13.0217 5.49077 13.3369L7.53846 15.3846V17.0769C7.53846 17.5258 7.71676 17.9562 8.03413 18.2736C8.3515 18.5909 8.78194 18.7692 9.23077 18.7692H14.3077C14.7565 18.7692 15.187 18.5909 15.5043 18.2736C15.8217 17.9562 16 17.5258 16 17.0769V15.3846L18.0477 13.3369C18.3603 13.0217 18.5366 12.5963 18.5385 12.1523V7.76923C18.5385 7.54482 18.4493 7.32959 18.2906 7.17091C18.1319 7.01223 17.9167 6.92308 17.6923 6.92308Z" stroke="#0E0E0E" stroke-linecap="round" stroke-linejoin="round"/>
</g>
</svg>
