<svg width="24" height="24" viewBox="0 0 24 24" fill="none" xmlns="http://www.w3.org/2000/svg">
<g id="icon-park-outline:socks">
<g id="Group">
<path id="Vector" d="M21.3648 8.72109C19.7101 8.72109 16.9523 8.72109 15.8492 11.4789C14.7461 14.2367 16.125 16.7187 17.5039 18.0976M9.23047 4.30859H21.3648" stroke="#0E0E0E" stroke-linecap="round" stroke-linejoin="round"/>
<path id="Vector_2" d="M10.3341 1H20.2622C20.5548 1 20.8354 1.11622 21.0422 1.3231C21.2491 1.52997 21.3653 1.81056 21.3653 2.10312V12.1901C21.3653 14.083 20.4828 15.8673 18.9738 17.0107C16.965 18.533 14.2436 20.5848 13.0919 21.4078C11.1614 22.7867 7.57629 24.1656 4.81849 21.4078C2.06123 18.65 2.75068 15.0334 4.81904 13.1344C6.88739 11.2353 9.23153 9.35726 9.23153 9.35726V2.10312C9.23153 1.81056 9.34775 1.52997 9.55463 1.3231C9.7615 1.11622 10.0415 1 10.3341 1Z" stroke="#0E0E0E" stroke-linecap="round" stroke-linejoin="round"/>
</g>
</g>
</svg>
