<svg width="24" height="24" viewBox="0 0 24 24" fill="none" xmlns="http://www.w3.org/2000/svg">
<g id="streamline:shopping-catergories-chair-design-lounge-furniture-chair-interior-decorate-armchair-decoration">
<path id="Vector" d="M4.38462 11.4615H2.69231C2.24348 11.4615 1.81303 11.6398 1.49567 11.9572C1.1783 12.2746 1 12.705 1 13.1538V21.6154H6.07692M4.38462 11.4615C4.83344 11.4615 5.26389 11.6398 5.58126 11.9572C5.89863 12.2746 6.07692 12.705 6.07692 13.1538V21.6154M4.38462 11.4615V8.07692C4.38462 6.73044 4.9195 5.4391 5.87161 4.487C6.82372 3.53489 8.11505 3 9.46154 3H14.5385C15.8849 3 17.1763 3.53489 18.1284 4.487C19.0805 5.4391 19.6154 6.73044 19.6154 8.07692V11.4615M6.07692 21.6154H17.9231M19.6154 11.4615H21.3077C21.7565 11.4615 22.187 11.6398 22.5043 11.9572C22.8217 12.2746 23 12.705 23 13.1538V21.6154H17.9231M19.6154 11.4615C19.1666 11.4615 18.7361 11.6398 18.4187 11.9572C18.1014 12.2746 17.9231 12.705 17.9231 13.1538V21.6154M6.07692 14.8462H17.9231" stroke="#0E0E0E" stroke-linecap="round" stroke-linejoin="round"/>
</g>
</svg>
