<svg width="24" height="24" viewBox="0 0 24 24" fill="none" xmlns="http://www.w3.org/2000/svg">
<g id="covid:personal-hygiene-hand-soap-2">
<g id="Group">
<path id="Vector" d="M10.2274 7.36914H5.29057C4.41785 7.36914 3.58089 7.71582 2.96378 8.33293C2.34668 8.95003 2 9.787 2 10.6597V19.7102C2 20.583 2.34668 21.4199 2.96378 22.037C3.58089 22.6541 4.41785 23.0008 5.29057 23.0008H10.2274C10.6596 23.0009 11.0876 22.9159 11.4869 22.7506C11.8863 22.5853 12.2492 22.3429 12.5548 22.0374C12.8605 21.7318 13.1029 21.369 13.2684 20.9697C13.4338 20.5704 13.5189 20.1424 13.5189 19.7102V10.6597C13.5189 10.2275 13.4338 9.79953 13.2684 9.40024C13.1029 9.00094 12.8605 8.63815 12.5548 8.33258C12.2492 8.02701 11.8863 7.78465 11.4869 7.61934C11.0876 7.45403 10.6596 7.36901 10.2274 7.36914Z" stroke="#0E0E0E" stroke-linecap="round" stroke-linejoin="round"/>
<path id="Vector_2" d="M16.655 14.5217C17.2847 14.7435 17.9712 14.7437 18.601 14.5223C19.2309 14.301 19.7663 13.8713 20.1188 13.3043C20.4713 12.7374 20.6197 12.0671 20.5396 11.4043C20.4594 10.7416 20.1555 10.126 19.678 9.65938C20.3569 8.69652 20.6635 7.52011 20.541 6.34837C20.4184 5.17664 19.875 4.08912 19.0116 3.28757C18.1482 2.48602 17.0233 2.02484 15.8457 1.98959C14.6681 1.95434 13.5177 2.34741 12.6079 3.09588C12.4086 2.42024 11.9719 1.83932 11.3783 1.45999C10.7848 1.08067 10.0742 0.928457 9.37727 1.03137C8.6804 1.13428 8.04412 1.48539 7.58551 2.02009C7.12691 2.5548 6.87682 3.23713 6.88127 3.94155M7.86119 13.2302V17.1381M5.90723 15.1842H9.81514M20.5619 22.023C20.8221 22.0288 21.0809 21.9826 21.323 21.8871C21.5651 21.7915 21.7857 21.6486 21.9718 21.4666C22.1579 21.2846 22.3057 21.0673 22.4067 20.8274C22.5076 20.5875 22.5596 20.3298 22.5596 20.0695C22.5596 19.8093 22.5076 19.5516 22.4067 19.3117C22.3057 19.0718 22.1579 18.8545 21.9718 18.6725C21.7857 18.4905 21.5651 18.3476 21.323 18.252C21.0809 18.1565 20.8221 18.1103 20.5619 18.1161C20.0514 18.1275 19.5656 18.3383 19.2086 18.7034C18.8516 19.0685 18.6517 19.5589 18.6517 20.0695C18.6517 20.5802 18.8516 21.0705 19.2086 21.4356C19.5656 21.8007 20.0514 22.0116 20.5619 22.023Z" stroke="#0E0E0E" stroke-linecap="round" stroke-linejoin="round"/>
</g>
</g>
</svg>
