<svg width="24" height="24" viewBox="0 0 24 24" fill="none" xmlns="http://www.w3.org/2000/svg">
<g id="iconoir:coffee-cup" clip-path="url(#clip0_1709_11398)">
<g id="Group">
<path id="Vector" d="M12 8.33333C12 7.11111 12.8727 5.88889 14.6192 5.88889C15.5453 5.88889 16.4335 5.52099 17.0884 4.86614C17.7432 4.21128 18.1111 3.32311 18.1111 2.397V1.61111M7.11111 8.33333V7.72222C7.11111 6.74976 7.49742 5.81713 8.18505 5.1295C8.87269 4.44186 9.80532 4.05556 10.7778 4.05556C11.4261 4.05556 12.0478 3.79802 12.5063 3.33959C12.9647 2.88117 13.2222 2.25942 13.2222 1.61111V1M18.1111 11.5111V15.6667C18.1111 17.6116 17.3385 19.4769 15.9632 20.8521C14.588 22.2274 12.7227 23 10.7778 23H8.33333C6.38841 23 4.52315 22.2274 3.14788 20.8521C1.77262 19.4769 1 17.6116 1 15.6667V11.5111C1 11.3166 1.07726 11.1301 1.21479 10.9926C1.35232 10.855 1.53884 10.7778 1.73333 10.7778H17.3778C17.5723 10.7778 17.7588 10.855 17.8963 10.9926C18.0338 11.1301 18.1111 11.3166 18.1111 11.5111Z" stroke="#0E0E0E" stroke-linecap="round" stroke-linejoin="round"/>
<path id="Vector_2" d="M16.8887 10.7773H19.9442C20.7546 10.7773 21.5318 11.0993 22.1048 11.6723C22.6779 12.2453 22.9998 13.0225 22.9998 13.8329C22.9998 14.6433 22.6779 15.4205 22.1048 15.9935C21.5318 16.5665 20.7546 16.8885 19.9442 16.8885H18.1109" stroke="#0E0E0E" stroke-linecap="round" stroke-linejoin="round"/>
</g>
</g>
<defs>
<clipPath id="clip0_1709_11398">
<rect width="24" height="24" fill="white"/>
</clipPath>
</defs>
</svg>
