<svg width="24" height="24" viewBox="0 0 24 24" fill="none" xmlns="http://www.w3.org/2000/svg">
<g id="tabler:medicine-syrup">
<path id="Vector" d="M14.5556 5.88889C15.528 5.88889 16.4606 6.2752 17.1483 6.96283C17.8359 7.65046 18.2222 8.5831 18.2222 9.55556V21.7778C18.2222 22.1019 18.0935 22.4128 17.8642 22.642C17.635 22.8712 17.3242 23 17 23H7.22222C6.89807 23 6.58719 22.8712 6.35798 22.642C6.12877 22.4128 6 22.1019 6 21.7778V9.55556C6 8.5831 6.38631 7.65046 7.07394 6.96283C7.76158 6.2752 8.69421 5.88889 9.66667 5.88889M14.5556 5.88889H9.66667M14.5556 5.88889V2.22222C14.5556 1.89807 14.4268 1.58719 14.1976 1.35798C13.9684 1.12877 13.6575 1 13.3333 1H10.8889C10.5647 1 10.2539 1.12877 10.0246 1.35798C9.79544 1.58719 9.66667 1.89807 9.66667 2.22222V5.88889M9.66667 14.4444H14.5556M12.1111 12V16.8889" stroke="#0E0E0E" stroke-linecap="round" stroke-linejoin="round"/>
</g>
</svg>
