<svg width="24" height="24" viewBox="0 0 24 24" fill="none" xmlns="http://www.w3.org/2000/svg">
<g id="ph:grains-thin">
<path id="Vector" d="M20.3459 5.23101C19.1116 5.23027 17.8909 5.48825 16.7625 5.98831C15.3875 2.73278 12.2145 1.11453 12.0738 1.04473C12.015 1.01531 11.9502 1 11.8845 1C11.8188 1 11.7539 1.01531 11.6952 1.04473C11.5556 1.11453 8.38464 2.73701 7.00648 5.98831C5.87805 5.48825 4.65734 5.23027 3.42307 5.23101C3.31087 5.23101 3.20326 5.27559 3.12391 5.35493C3.04457 5.43427 3 5.54188 3 5.65409V14.1155C3 16.4718 3.93604 18.7316 5.60221 20.3978C7.26837 22.064 9.52818 23 11.8845 23C14.2408 23 16.5006 22.064 18.1668 20.3978C19.8329 18.7316 20.769 16.4718 20.769 14.1155V5.65409C20.769 5.54188 20.7244 5.43427 20.6451 5.35493C20.5657 5.27559 20.4581 5.23101 20.3459 5.23101ZM11.4614 22.1433C9.4065 22.0322 7.47216 21.1382 6.05585 19.6452C4.63954 18.1522 3.84882 16.1734 3.84614 14.1155V12.0107C5.90107 12.1219 7.8354 13.0158 9.25171 14.5088C10.668 16.0018 11.4587 17.9806 11.4614 20.0385V22.1433ZM11.4614 16.2594C10.7736 14.7993 9.7015 13.5538 8.36003 12.6564C7.01856 11.7589 5.45823 11.2432 3.84614 11.1646V6.08773C5.90107 6.19886 7.8354 7.09277 9.25171 8.5858C10.668 10.0788 11.4587 12.0576 11.4614 14.1155V16.2594ZM7.76484 6.36802C8.82992 3.80632 11.1981 2.29913 11.8898 1.90568C12.5762 2.29913 14.9444 3.80949 16.0094 6.36802C14.0488 7.46905 12.5758 9.2692 11.8845 11.4089C11.1945 9.27009 9.72344 7.47007 7.76484 6.36802ZM19.9228 14.1155C19.9202 16.1734 19.1294 18.1522 17.7131 19.6452C16.2968 21.1382 14.3625 22.0322 12.3076 22.1433V20.0385C12.3102 17.9806 13.101 16.0018 14.5173 14.5088C15.9336 13.0158 17.8679 12.1219 19.9228 12.0107V14.1155ZM19.9228 11.1646C18.3108 11.2432 16.7504 11.7589 15.409 12.6564C14.0675 13.5538 12.9954 14.7993 12.3076 16.2594V14.1155C12.3102 12.0576 13.101 10.0788 14.5173 8.5858C15.9336 7.09277 17.8679 6.19886 19.9228 6.08773V11.1646Z" fill="#0E0E0E"/>
</g>
</svg>
