<svg width="24" height="24" viewBox="0 0 24 24" fill="none" xmlns="http://www.w3.org/2000/svg">
<g id="streamline:travel-hotel-pet-paw-paw-foot-animals-pets-footprint-track">
<g id="Group">
<path id="Vector" d="M2.69231 16.6922C3.62694 16.6922 4.38462 15.5556 4.38462 14.1537C4.38462 12.7517 3.62694 11.6152 2.69231 11.6152C1.75767 11.6152 1 12.7517 1 14.1537C1 15.5556 1.75767 16.6922 2.69231 16.6922Z" stroke="#0E0E0E" stroke-linecap="round" stroke-linejoin="round"/>
<path id="Vector_2" d="M7.76946 9.07692C8.70409 9.07692 9.46176 7.94041 9.46176 6.53846C9.46176 5.13651 8.70409 4 7.76946 4C6.83482 4 6.07715 5.13651 6.07715 6.53846C6.07715 7.94041 6.83482 9.07692 7.76946 9.07692Z" stroke="#0E0E0E" stroke-linecap="round" stroke-linejoin="round"/>
<path id="Vector_3" d="M16.2304 9.07692C17.165 9.07692 17.9227 7.94041 17.9227 6.53846C17.9227 5.13651 17.165 4 16.2304 4C15.2958 4 14.5381 5.13651 14.5381 6.53846C14.5381 7.94041 15.2958 9.07692 16.2304 9.07692Z" stroke="#0E0E0E" stroke-linecap="round" stroke-linejoin="round"/>
<path id="Vector_4" d="M21.3075 16.6922C22.2422 16.6922 22.9999 15.5556 22.9999 14.1537C22.9999 12.7517 22.2422 11.6152 21.3075 11.6152C20.3729 11.6152 19.6152 12.7517 19.6152 14.1537C19.6152 15.5556 20.3729 16.6922 21.3075 16.6922Z" stroke="#0E0E0E" stroke-linecap="round" stroke-linejoin="round"/>
<path id="Vector_5" d="M17.0767 17.5383C17.0767 19.8737 14.3352 20.9229 11.9998 20.9229C9.66439 20.9229 6.92285 19.8737 6.92285 17.5383C6.92285 15.2029 8.61516 11.6152 11.9998 11.6152C15.3844 11.6152 17.0767 15.2029 17.0767 17.5383Z" stroke="#0E0E0E" stroke-linecap="round" stroke-linejoin="round"/>
</g>
</g>
</svg>
