<svg width="24" height="24" viewBox="0 0 24 24" fill="none" xmlns="http://www.w3.org/2000/svg">
<g id="solar:pen-broken" clip-path="url(#clip0_1709_11272)">
<path id="Vector" d="M14.5981 3.2864C14.5981 3.2864 14.7246 5.45321 16.6363 7.36375C18.5479 9.27538 20.7136 9.40297 20.7136 9.40297L21.7332 8.38336C22.5443 7.57225 23 6.47215 23 5.32507C23 4.17799 22.5443 3.07789 21.7332 2.26678C20.9221 1.45568 19.822 1 18.6749 1C17.5278 1 16.4277 1.45568 15.6166 2.26678L14.597 3.2864L12.0013 5.88217M20.7136 9.40187L14.9281 15.1896L11.5173 18.5982L11.3413 18.7753C10.7056 19.4099 10.3877 19.7278 10.0379 20.0006C9.62516 20.3227 9.17853 20.599 8.70593 20.8244C8.30557 21.0147 7.8799 21.1566 7.02748 21.4403L3.41869 22.6436M3.41869 22.6436L2.53656 22.9384C2.33094 23.0074 2.11016 23.0176 1.89904 22.968C1.68793 22.9183 1.49484 22.8108 1.34148 22.6574C1.18813 22.5041 1.08059 22.311 1.03095 22.0999C0.981311 21.8887 0.991541 21.668 1.06049 21.4623L1.35526 20.5802M3.41869 22.6436L1.35526 20.5802M1.35526 20.5802L2.55856 16.9714C2.84234 16.119 2.98422 15.6933 3.17451 15.293C3.39999 14.82 3.67607 14.3734 3.99834 13.961C4.27111 13.6112 4.58899 13.2933 5.22363 12.6587L12.2435 5.63988" stroke="#0E0E0E" stroke-linecap="round"/>
</g>
<defs>
<clipPath id="clip0_1709_11272">
<rect width="24" height="24" fill="white"/>
</clipPath>
</defs>
</svg>
