<svg width="24" height="24" viewBox="0 0 24 24" fill="none" xmlns="http://www.w3.org/2000/svg">
<g id="streamline:shopping-catergories-ball-sports-ball-sport-basketball" clip-path="url(#clip0_1709_11351)">
<g id="Group">
<path id="Vector" d="M11.8574 22.8574C17.9326 22.8574 22.8574 17.9326 22.8574 11.8574C22.8574 5.78229 17.9326 0.857422 11.8574 0.857422C5.78229 0.857422 0.857422 5.78229 0.857422 11.8574C0.857422 17.9326 5.78229 22.8574 11.8574 22.8574Z" stroke="#0E0E0E" stroke-linecap="round" stroke-linejoin="round"/>
<path id="Vector_2" d="M11.8568 0.857422V22.8574M3.56445 19.0836C4.80447 18.3287 5.8294 17.2674 6.54071 16.0019C7.25201 14.7364 7.62575 13.3091 7.62599 11.8574C7.62575 10.4057 7.25201 8.97845 6.54071 7.71293C5.8294 6.4474 4.80447 5.38616 3.56445 4.63127M20.1491 4.63127C18.9095 5.38645 17.885 6.4478 17.1741 7.71331C16.4632 8.97882 16.0898 10.4059 16.0898 11.8574C16.0898 13.3089 16.4632 14.736 17.1741 16.0015C17.885 17.267 18.9095 18.3284 20.1491 19.0836" stroke="#0E0E0E" stroke-linecap="round" stroke-linejoin="round"/>
</g>
</g>
<defs>
<clipPath id="clip0_1709_11351">
<rect width="24" height="24" fill="white"/>
</clipPath>
</defs>
</svg>
