<svg width="24" height="24" viewBox="0 0 24 24" fill="none" xmlns="http://www.w3.org/2000/svg">
<g id="ph:laptop-thin">
<path id="Vector" d="M22.5926 16.2222H21.3704V6.03704C21.3704 5.49678 21.1558 4.97865 20.7737 4.59663C20.3917 4.21462 19.8736 4 19.3333 4H4.66667C4.12641 4 3.60828 4.21462 3.22626 4.59663C2.84425 4.97865 2.62963 5.49678 2.62963 6.03704V16.2222H1.40741C1.29936 16.2222 1.19573 16.2651 1.11933 16.3415C1.04292 16.418 1 16.5216 1 16.6296V18.2593C1 18.7995 1.21462 19.3176 1.59663 19.6997C1.97865 20.0817 2.49678 20.2963 3.03704 20.2963H20.963C21.5032 20.2963 22.0213 20.0817 22.4034 19.6997C22.7854 19.3176 23 18.7995 23 18.2593V16.6296C23 16.5216 22.9571 16.418 22.8807 16.3415C22.8043 16.2651 22.7006 16.2222 22.5926 16.2222ZM3.44444 6.03704C3.44444 5.71288 3.57321 5.40201 3.80242 5.1728C4.03164 4.94358 4.34251 4.81481 4.66667 4.81481H19.3333C19.6575 4.81481 19.9684 4.94358 20.1976 5.1728C20.4268 5.40201 20.5556 5.71288 20.5556 6.03704V16.2222H3.44444V6.03704ZM22.1852 18.2593C22.1852 18.5834 22.0564 18.8943 21.8272 19.1235C21.598 19.3527 21.2871 19.4815 20.963 19.4815H3.03704C2.71288 19.4815 2.40201 19.3527 2.1728 19.1235C1.94358 18.8943 1.81481 18.5834 1.81481 18.2593V17.037H22.1852V18.2593ZM14.037 7.66667C14.037 7.77472 13.9941 7.87834 13.9177 7.95475C13.8413 8.03115 13.7377 8.07407 13.6296 8.07407H10.3704C10.2623 8.07407 10.1587 8.03115 10.0823 7.95475C10.0059 7.87834 9.96296 7.77472 9.96296 7.66667C9.96296 7.55862 10.0059 7.45499 10.0823 7.37859C10.1587 7.30218 10.2623 7.25926 10.3704 7.25926H13.6296C13.7377 7.25926 13.8413 7.30218 13.9177 7.37859C13.9941 7.45499 14.037 7.55862 14.037 7.66667Z" fill="#0E0E0E"/>
</g>
</svg>
