<svg width="24" height="24" viewBox="0 0 24 24" fill="none" xmlns="http://www.w3.org/2000/svg">
<g id="covid:personal-hygiene-hand-liquid-soap">
<path id="Vector" d="M3.99028 9.233H9.99828C10.5292 9.233 11.0385 9.44392 11.4139 9.81937C11.7894 10.1948 12.0003 10.704 12.0003 11.235V21.248C12.0003 21.779 11.7894 22.2882 11.4139 22.6636C11.0385 23.0391 10.5292 23.25 9.99828 23.25H3.99028C2.88428 23.25 1.98828 22.354 1.98828 21.248V11.235C1.98828 10.704 2.19921 10.1948 2.57465 9.81937C2.9501 9.44392 3.45932 9.233 3.99028 9.233ZM3.99028 9.233H10.0003V7.005C10.0002 6.90301 9.97992 6.80205 9.94073 6.70788C9.90155 6.61372 9.84419 6.5282 9.77194 6.45622C9.69968 6.38424 9.61394 6.32722 9.51963 6.2884C9.42531 6.24958 9.32427 6.22974 9.22228 6.23H4.76628C4.56065 6.23 4.36342 6.31162 4.21792 6.45693C4.07242 6.60224 3.99055 6.79937 3.99028 7.005V9.233ZM14.0003 2.752L13.5533 1.857C13.3874 1.5245 13.1321 1.2448 12.8161 1.04927C12.5001 0.853735 12.1359 0.750105 11.7643 0.75H2.98928M6.99428 14.239V18.244M4.99228 16.242H8.99628M6.99428 0.75V6.23M22.0123 14.74C22.0123 15.6693 21.6431 16.5606 20.986 17.2177C20.3289 17.8748 19.4376 18.244 18.5083 18.244C17.579 18.244 16.6877 17.8748 16.0306 17.2177C15.3735 16.5606 15.0043 15.6693 15.0043 14.74C15.0043 12.112 18.5043 7.731 18.5043 7.731C18.5043 7.731 22.0123 12.112 22.0123 14.74Z" stroke="#0E0E0E" stroke-linecap="round" stroke-linejoin="round"/>
</g>
</svg>
