<svg width="24" height="24" viewBox="0 0 24 24" fill="none" xmlns="http://www.w3.org/2000/svg">
<g id="icon-park-outline:clothes-gloves-two">
<path id="Vector" d="M17.4 10.9V7.05M17.4 7.05C17.4 4.46995 17.4 3.17965 16.718 2.29085C16.5425 2.06218 16.3378 1.85749 16.1092 1.682C15.2204 1 13.9295 1 11.35 1H10.8C7.68865 1 6.13325 1 5.16635 1.96635C4.2 2.93325 4.2 4.48865 4.2 7.6V19.7H17.4V16.4C17.4 16.4 21.25 16.4 21.25 13.1V10.35C21.25 7.05 17.4 7.05 17.4 7.05ZM3.65 19.7H17.95C18.3876 19.7 18.8073 19.8738 19.1167 20.1833C19.4262 20.4927 19.6 20.9124 19.6 21.35C19.6 21.7876 19.4262 22.2073 19.1167 22.5167C18.8073 22.8262 18.3876 23 17.95 23H3.65C3.21239 23 2.79271 22.8262 2.48327 22.5167C2.17384 22.2073 2 21.7876 2 21.35C2 20.9124 2.17384 20.4927 2.48327 20.1833C2.79271 19.8738 3.21239 19.7 3.65 19.7Z" stroke="#0E0E0E" stroke-linecap="round" stroke-linejoin="round"/>
</g>
</svg>
