<svg aria-hidden="true" style="position: absolute; width: 0; height: 0; overflow: hidden;" version="1.1" xmlns="http://www.w3.org/2000/svg" xmlns:xlink="http://www.w3.org/1999/xlink"> 
<defs> 
<symbol id="ios-arrow" viewBox="0 0 32 32"> 
<path fill="#505050" style="fill: var(--color1, #505050)" d="M26.433 11.043c0.127-0.12 0.277-0.214 0.441-0.277s0.338-0.092 0.513-0.087c0.175 0.005 0.347 0.044 0.507 0.116s0.304 0.174 0.424 0.301 0.214 0.277 0.277 0.441c0.062 0.164 0.092 0.338 0.087 0.513s-0.045 0.347-0.116 0.507-0.174 0.304-0.301 0.424l-12 11.333c-0.248 0.234-0.575 0.364-0.916 0.364s-0.668-0.13-0.916-0.364l-12.001-11.333c-0.13-0.12-0.235-0.264-0.309-0.424s-0.115-0.334-0.121-0.51c-0.006-0.177 0.023-0.353 0.085-0.518s0.157-0.316 0.278-0.445c0.121-0.128 0.267-0.232 0.428-0.303s0.336-0.111 0.512-0.114c0.177-0.004 0.352 0.027 0.517 0.092s0.314 0.161 0.441 0.284l11.087 10.469 11.084-10.469z"></path> 
</symbol>
<symbol id="arrow" viewBox="0 0 24 24"> 
<path id="Vector" fill="#000" d="M5.99999 7C5.99999 7.55 6.44999 8 6.99999 8H14.59L5.70999 16.88C5.61741 16.9726 5.54397 17.0825 5.49386 17.2035C5.44376 17.3244 5.41797 17.4541 5.41797 17.585C5.41797 17.7159 5.44376 17.8456 5.49386 17.9665C5.54397 18.0875 5.61741 18.1974 5.70999 18.29C5.80257 18.3826 5.91248 18.456 6.03345 18.5061C6.15441 18.5562 6.28406 18.582 6.41499 18.582C6.54592 18.582 6.67557 18.5562 6.79653 18.5061C6.9175 18.456 7.02741 18.3826 7.11999 18.29L16 9.41V17C16 17.55 16.45 18 17 18C17.55 18 18 17.55 18 17V7C18 6.45 17.55 6 17 6H6.99999C6.44999 6 5.99999 6.45 5.99999 7Z"/>
</symbol> 
</defs> 
</svg>