<svg width="118" height="48" viewBox="0 0 118 48" fill="none" xmlns="http://www.w3.org/2000/svg">
<path d="M18.0571 7.56945C17.1385 6.33265 14.1988 4.15586 9.78932 5.3432C4.27748 6.82737 3.44193 12.5152 4.27748 15.7324C5.11303 18.9496 5.53082 19.3996 8.03753 22.9995C11.4843 27.9494 22.2423 39.1991 26.0023 42.349" stroke="#FC936D" stroke-width="5" stroke-linecap="round"/>
<path d="M18.0571 19.0719L29.0808 7.94061C31.0158 6.08541 33.9403 4.10011 38.0376 6.0854C44.8028 9.36339 43.9672 14.8998 43.9672 14.8998C43.9672 14.8998 43.5494 18.0496 41.827 20.185" stroke="#FC936D" stroke-width="5" stroke-linecap="round"/>
<path d="M23.4961 27.4995L31.4707 35.7256" stroke="#FC936D" stroke-width="5" stroke-linecap="round"/>
<path d="M28.5088 20.2998L36.4834 28.5258" stroke="#FC936D" stroke-width="5" stroke-linecap="round"/>
<path d="M58.048 17.112C57.8347 17.112 57.6693 17.0533 57.552 16.936C57.4453 16.808 57.392 16.6373 57.392 16.424V6.296C57.392 6.072 57.4453 5.90133 57.552 5.784C57.6693 5.66667 57.8347 5.608 58.048 5.608C58.2613 5.608 58.4213 5.66667 58.528 5.784C58.6453 5.90133 58.704 6.072 58.704 6.296V16.424C58.704 16.6373 58.6507 16.808 58.544 16.936C58.4373 17.0533 58.272 17.112 58.048 17.112ZM68.1384 17.112C67.957 17.112 67.797 17.064 67.6584 16.968C67.5197 16.872 67.4077 16.7173 67.3224 16.504L64.9384 10.024C64.8744 9.84267 64.853 9.68267 64.8744 9.544C64.9064 9.40533 64.9757 9.29867 65.0824 9.224C65.189 9.14933 65.3224 9.112 65.4824 9.112C65.6424 9.112 65.7704 9.14933 65.8664 9.224C65.973 9.29867 66.0584 9.43733 66.1224 9.64L68.3624 16.04H67.9784L70.2824 9.64C70.357 9.448 70.4477 9.31467 70.5544 9.24C70.6717 9.15467 70.821 9.112 71.0024 9.112C71.173 9.112 71.317 9.15467 71.4344 9.24C71.5517 9.32533 71.6424 9.45867 71.7064 9.64L73.9624 16.04H73.5944L75.8664 9.608C75.941 9.416 76.0317 9.288 76.1384 9.224C76.245 9.14933 76.373 9.112 76.5224 9.112C76.693 9.112 76.821 9.15467 76.9064 9.24C77.0024 9.32533 77.0557 9.43733 77.0664 9.576C77.077 9.71467 77.0504 9.864 76.9864 10.024L74.6024 16.504C74.5277 16.7067 74.4157 16.8613 74.2664 16.968C74.1277 17.064 73.9677 17.112 73.7864 17.112C73.605 17.112 73.445 17.064 73.3064 16.968C73.1677 16.8613 73.061 16.7067 72.9864 16.504L70.6184 10.008H71.3064L68.9544 16.504C68.8797 16.7067 68.773 16.8613 68.6344 16.968C68.4957 17.064 68.3304 17.112 68.1384 17.112ZM79.5435 17.08C79.3302 17.08 79.1702 17.0213 79.0635 16.904C78.9568 16.776 78.9035 16.6 78.9035 16.376V9.832C78.9035 9.608 78.9568 9.43733 79.0635 9.32C79.1702 9.20267 79.3302 9.144 79.5435 9.144C79.7462 9.144 79.9062 9.20267 80.0235 9.32C80.1408 9.43733 80.1995 9.608 80.1995 9.832V16.376C80.1995 16.6 80.1408 16.776 80.0235 16.904C79.9168 17.0213 79.7568 17.08 79.5435 17.08ZM79.5435 7.352C79.2768 7.352 79.0688 7.28267 78.9195 7.144C78.7702 6.99467 78.6955 6.79733 78.6955 6.552C78.6955 6.296 78.7702 6.104 78.9195 5.976C79.0688 5.83733 79.2768 5.768 79.5435 5.768C79.8208 5.768 80.0288 5.83733 80.1675 5.976C80.3168 6.104 80.3915 6.296 80.3915 6.552C80.3915 6.79733 80.3168 6.99467 80.1675 7.144C80.0288 7.28267 79.8208 7.352 79.5435 7.352ZM84.9903 17.144C84.2223 17.144 83.6356 16.9093 83.2303 16.44C82.8249 15.9707 82.6223 15.2987 82.6223 14.424V6.264C82.6223 6.05067 82.6756 5.89067 82.7823 5.784C82.8889 5.66667 83.0489 5.608 83.2623 5.608C83.4649 5.608 83.6249 5.66667 83.7423 5.784C83.8596 5.89067 83.9183 6.05067 83.9183 6.264V14.328C83.9183 14.904 84.0303 15.336 84.2543 15.624C84.4889 15.9013 84.8303 16.04 85.2783 16.04C85.3743 16.04 85.4596 16.0347 85.5343 16.024C85.6089 16.0133 85.6836 16.008 85.7583 16.008C85.8756 15.9973 85.9556 16.024 85.9983 16.088C86.0516 16.152 86.0783 16.28 86.0783 16.472C86.0783 16.664 86.0356 16.808 85.9503 16.904C85.8649 17 85.7263 17.064 85.5343 17.096C85.4489 17.1067 85.3583 17.1173 85.2623 17.128C85.1663 17.1387 85.0756 17.144 84.9903 17.144ZM89.7246 17.144C88.9566 17.144 88.37 16.9093 87.9646 16.44C87.5593 15.9707 87.3566 15.2987 87.3566 14.424V6.264C87.3566 6.05067 87.41 5.89067 87.5166 5.784C87.6233 5.66667 87.7833 5.608 87.9966 5.608C88.1993 5.608 88.3593 5.66667 88.4766 5.784C88.594 5.89067 88.6526 6.05067 88.6526 6.264V14.328C88.6526 14.904 88.7646 15.336 88.9886 15.624C89.2233 15.9013 89.5646 16.04 90.0126 16.04C90.1086 16.04 90.194 16.0347 90.2686 16.024C90.3433 16.0133 90.418 16.008 90.4926 16.008C90.61 15.9973 90.69 16.024 90.7326 16.088C90.786 16.152 90.8126 16.28 90.8126 16.472C90.8126 16.664 90.77 16.808 90.6846 16.904C90.5993 17 90.4606 17.064 90.2686 17.096C90.1833 17.1067 90.0926 17.1173 89.9966 17.128C89.9006 17.1387 89.81 17.144 89.7246 17.144ZM57.856 39.112C57.6427 39.112 57.4827 39.0533 57.376 38.936C57.2693 38.8187 57.216 38.6533 57.216 38.44V28.264C57.216 28.0507 57.2693 27.8907 57.376 27.784C57.4827 27.6667 57.6427 27.608 57.856 27.608C58.0587 27.608 58.2187 27.6667 58.336 27.784C58.4533 27.8907 58.512 28.0507 58.512 28.264V32.952H58.304C58.528 32.3333 58.8907 31.8693 59.392 31.56C59.904 31.24 60.4907 31.08 61.152 31.08C61.7707 31.08 62.2827 31.192 62.688 31.416C63.104 31.64 63.4133 31.9813 63.616 32.44C63.8187 32.888 63.92 33.4587 63.92 34.152V38.44C63.92 38.6533 63.8613 38.8187 63.744 38.936C63.6373 39.0533 63.4827 39.112 63.28 39.112C63.0667 39.112 62.9013 39.0533 62.784 38.936C62.6773 38.8187 62.624 38.6533 62.624 38.44V34.232C62.624 33.5067 62.48 32.9787 62.192 32.648C61.9147 32.3067 61.4667 32.136 60.848 32.136C60.1333 32.136 59.5627 32.36 59.136 32.808C58.72 33.2453 58.512 33.832 58.512 34.568V38.44C58.512 38.888 58.2933 39.112 57.856 39.112ZM69.8138 39.144C68.9924 39.144 68.2831 38.984 67.6858 38.664C67.0991 38.3333 66.6404 37.8693 66.3098 37.272C65.9898 36.6747 65.8298 35.96 65.8298 35.128C65.8298 34.3173 65.9898 33.6133 66.3098 33.016C66.6298 32.408 67.0671 31.9333 67.6218 31.592C68.1871 31.2507 68.8378 31.08 69.5738 31.08C70.0964 31.08 70.5658 31.1707 70.9818 31.352C71.3978 31.5227 71.7498 31.7733 72.0378 32.104C72.3364 32.4347 72.5604 32.8347 72.7098 33.304C72.8698 33.7733 72.9498 34.3013 72.9498 34.888C72.9498 35.0587 72.9018 35.1867 72.8058 35.272C72.7098 35.3467 72.5711 35.384 72.3898 35.384H66.8218V34.536H72.0858L71.8298 34.744C71.8298 34.168 71.7444 33.6827 71.5738 33.288C71.4031 32.8827 71.1524 32.5733 70.8218 32.36C70.5018 32.1467 70.0964 32.04 69.6058 32.04C69.0618 32.04 68.5978 32.168 68.2138 32.424C67.8404 32.6693 67.5578 33.016 67.3658 33.464C67.1738 33.9013 67.0778 34.4133 67.0778 35V35.096C67.0778 36.0773 67.3124 36.824 67.7818 37.336C68.2618 37.848 68.9391 38.104 69.8138 38.104C70.1764 38.104 70.5338 38.056 70.8858 37.96C71.2484 37.864 71.6004 37.704 71.9418 37.48C72.0911 37.384 72.2244 37.3413 72.3418 37.352C72.4698 37.352 72.5711 37.3893 72.6458 37.464C72.7204 37.528 72.7684 37.6133 72.7898 37.72C72.8218 37.816 72.8111 37.9227 72.7578 38.04C72.7151 38.1573 72.6244 38.2587 72.4858 38.344C72.1338 38.6 71.7178 38.7973 71.2378 38.936C70.7578 39.0747 70.2831 39.144 69.8138 39.144ZM77.1934 39.144C76.4254 39.144 75.8387 38.9093 75.4334 38.44C75.028 37.9707 74.8254 37.2987 74.8254 36.424V28.264C74.8254 28.0507 74.8787 27.8907 74.9854 27.784C75.092 27.6667 75.252 27.608 75.4654 27.608C75.668 27.608 75.828 27.6667 75.9454 27.784C76.0627 27.8907 76.1214 28.0507 76.1214 28.264V36.328C76.1214 36.904 76.2334 37.336 76.4574 37.624C76.692 37.9013 77.0334 38.04 77.4814 38.04C77.5774 38.04 77.6627 38.0347 77.7374 38.024C77.812 38.0133 77.8867 38.008 77.9614 38.008C78.0787 37.9973 78.1587 38.024 78.2014 38.088C78.2547 38.152 78.2814 38.28 78.2814 38.472C78.2814 38.664 78.2387 38.808 78.1534 38.904C78.068 39 77.9294 39.064 77.7374 39.096C77.652 39.1067 77.5614 39.1173 77.4654 39.128C77.3694 39.1387 77.2787 39.144 77.1934 39.144ZM80.1998 41.992C79.9864 41.992 79.8264 41.9333 79.7198 41.816C79.6131 41.7093 79.5598 41.5493 79.5598 41.336V31.768C79.5598 31.5547 79.6131 31.3947 79.7198 31.288C79.8264 31.1707 79.9811 31.112 80.1838 31.112C80.3971 31.112 80.5571 31.1707 80.6638 31.288C80.7811 31.3947 80.8398 31.5547 80.8398 31.768V33.288L80.6638 33.064C80.8344 32.456 81.1704 31.976 81.6718 31.624C82.1838 31.2613 82.7918 31.08 83.4958 31.08C84.1891 31.08 84.7918 31.2453 85.3038 31.576C85.8264 31.896 86.2264 32.36 86.5038 32.968C86.7918 33.5653 86.9358 34.28 86.9358 35.112C86.9358 35.9333 86.7918 36.648 86.5038 37.256C86.2264 37.8533 85.8318 38.3173 85.3198 38.648C84.8078 38.9787 84.1998 39.144 83.4958 39.144C82.7918 39.144 82.1891 38.968 81.6878 38.616C81.1864 38.2533 80.8451 37.7733 80.6638 37.176H80.8558V41.336C80.8558 41.5493 80.7971 41.7093 80.6798 41.816C80.5624 41.9333 80.4024 41.992 80.1998 41.992ZM83.2238 38.104C83.7144 38.104 84.1358 37.9867 84.4878 37.752C84.8504 37.5173 85.1278 37.176 85.3198 36.728C85.5224 36.28 85.6238 35.7413 85.6238 35.112C85.6238 34.1413 85.4051 33.4 84.9678 32.888C84.5411 32.376 83.9598 32.12 83.2238 32.12C82.7438 32.12 82.3224 32.2373 81.9598 32.472C81.5971 32.696 81.3144 33.032 81.1118 33.48C80.9198 33.9173 80.8238 34.4613 80.8238 35.112C80.8238 36.072 81.0424 36.8133 81.4798 37.336C81.9171 37.848 82.4984 38.104 83.2238 38.104ZM94.7409 41.992C94.5809 41.992 94.4529 41.9493 94.3569 41.864C94.2609 41.7787 94.2022 41.6613 94.1809 41.512C94.1702 41.3733 94.1969 41.2293 94.2609 41.08L95.3649 38.6V39.16L92.2929 32.024C92.2289 31.864 92.2075 31.7147 92.2289 31.576C92.2502 31.4373 92.3142 31.3253 92.4209 31.24C92.5275 31.1547 92.6769 31.112 92.8689 31.112C93.0395 31.112 93.1729 31.1493 93.2689 31.224C93.3649 31.2987 93.4502 31.432 93.5249 31.624L96.1489 38.056H95.7169L98.3729 31.624C98.4582 31.432 98.5489 31.2987 98.6449 31.224C98.7409 31.1493 98.8795 31.112 99.0609 31.112C99.2315 31.112 99.3595 31.1547 99.4449 31.24C99.5409 31.3253 99.5942 31.4373 99.6049 31.576C99.6262 31.704 99.6049 31.848 99.5409 32.008L95.4449 41.48C95.3595 41.672 95.2635 41.8053 95.1569 41.88C95.0609 41.9547 94.9222 41.992 94.7409 41.992ZM104.354 39.144C103.597 39.144 102.941 38.9787 102.386 38.648C101.832 38.3173 101.4 37.8533 101.09 37.256C100.792 36.648 100.642 35.9333 100.642 35.112C100.642 34.4933 100.728 33.9387 100.898 33.448C101.069 32.9467 101.32 32.52 101.65 32.168C101.981 31.816 102.37 31.5493 102.818 31.368C103.277 31.176 103.789 31.08 104.354 31.08C105.112 31.08 105.768 31.2453 106.322 31.576C106.877 31.9067 107.304 32.376 107.602 32.984C107.912 33.5813 108.066 34.2907 108.066 35.112C108.066 35.7307 107.981 36.2853 107.81 36.776C107.64 37.2667 107.389 37.6933 107.058 38.056C106.728 38.408 106.333 38.68 105.874 38.872C105.426 39.0533 104.92 39.144 104.354 39.144ZM104.354 38.104C104.834 38.104 105.256 37.9867 105.618 37.752C105.981 37.5173 106.258 37.176 106.45 36.728C106.653 36.28 106.754 35.7413 106.754 35.112C106.754 34.1413 106.536 33.4 106.098 32.888C105.672 32.376 105.09 32.12 104.354 32.12C103.864 32.12 103.437 32.2373 103.074 32.472C102.722 32.696 102.445 33.032 102.242 33.48C102.05 33.9173 101.954 34.4613 101.954 35.112C101.954 36.072 102.173 36.8133 102.61 37.336C103.048 37.848 103.629 38.104 104.354 38.104ZM112.765 39.144C112.136 39.144 111.613 39.032 111.197 38.808C110.792 38.5733 110.482 38.2267 110.269 37.768C110.066 37.3093 109.965 36.7387 109.965 36.056V31.768C109.965 31.544 110.018 31.3787 110.125 31.272C110.242 31.1653 110.402 31.112 110.605 31.112C110.818 31.112 110.978 31.1653 111.085 31.272C111.202 31.3787 111.261 31.544 111.261 31.768V36.04C111.261 36.7227 111.4 37.2347 111.677 37.576C111.965 37.9067 112.413 38.072 113.021 38.072C113.682 38.072 114.221 37.848 114.637 37.4C115.053 36.952 115.261 36.3653 115.261 35.64V31.768C115.261 31.544 115.314 31.3787 115.421 31.272C115.538 31.1653 115.704 31.112 115.917 31.112C116.12 31.112 116.274 31.1653 116.381 31.272C116.498 31.3787 116.557 31.544 116.557 31.768V38.44C116.557 38.888 116.349 39.112 115.933 39.112C115.73 39.112 115.57 39.0533 115.453 38.936C115.346 38.8187 115.293 38.6533 115.293 38.44V36.984L115.501 37.208C115.288 37.8373 114.936 38.3173 114.445 38.648C113.965 38.9787 113.405 39.144 112.765 39.144Z" fill="#0E0E0E"/>
</svg>
