<svg aria-hidden="true" style="position: absolute; width: 0; height: 0; overflow: hidden;" version="1.1" xmlns="http://www.w3.org/2000/svg" xmlns:xlink="http://www.w3.org/1999/xlink">
<defs>
<symbol id="logo" viewBox="0 0 79 32">
<path fill="none" stroke="#fc936d" style="stroke: var(--color1, #fc936d)" stroke-linejoin="miter" stroke-linecap="round" stroke-miterlimit="4" stroke-width="3.3333" d="M12.038 5.046c-0.612-0.825-2.572-2.276-5.512-1.484-3.675 0.989-4.232 4.781-3.675 6.926s0.836 2.445 2.507 4.845c2.298 3.3 9.47 10.8 11.976 12.9"></path>
<path fill="none" stroke="#fc936d" style="stroke: var(--color1, #fc936d)" stroke-linejoin="miter" stroke-linecap="round" stroke-miterlimit="4" stroke-width="3.3333" d="M12.038 12.715l7.349-7.421c1.29-1.237 3.24-2.56 5.971-1.237 4.51 2.185 3.953 5.876 3.953 5.876s-0.279 2.1-1.427 3.523"></path>
<path fill="none" stroke="#fc936d" style="stroke: var(--color1, #fc936d)" stroke-linejoin="miter" stroke-linecap="round" stroke-miterlimit="4" stroke-width="3.3333" d="M15.664 18.333l5.316 5.484"></path>
<path fill="none" stroke="#fc936d" style="stroke: var(--color1, #fc936d)" stroke-linejoin="miter" stroke-linecap="round" stroke-miterlimit="4" stroke-width="3.3333" d="M19.006 13.533l5.316 5.484"></path>
<path d="M38.699 11.408c-0.142 0-0.252-0.039-0.331-0.117-0.071-0.085-0.107-0.199-0.107-0.341v-6.752c0-0.149 0.036-0.263 0.107-0.341 0.078-0.078 0.188-0.117 0.331-0.117s0.249 0.039 0.32 0.117c0.078 0.078 0.117 0.192 0.117 0.341v6.752c0 0.142-0.036 0.256-0.107 0.341-0.071 0.078-0.181 0.117-0.331 0.117zM45.426 11.408c-0.121 0-0.228-0.032-0.32-0.096s-0.167-0.167-0.224-0.309l-1.589-4.32c-0.043-0.121-0.057-0.228-0.043-0.32 0.021-0.092 0.068-0.164 0.139-0.213s0.16-0.075 0.267-0.075 0.192 0.025 0.256 0.075c0.071 0.050 0.128 0.142 0.171 0.277l1.493 4.267h-0.256l1.536-4.267c0.050-0.128 0.11-0.217 0.181-0.267 0.078-0.057 0.178-0.085 0.299-0.085 0.114 0 0.21 0.028 0.288 0.085s0.139 0.146 0.181 0.267l1.504 4.267h-0.245l1.515-4.288c0.050-0.128 0.11-0.213 0.181-0.256 0.071-0.050 0.156-0.075 0.256-0.075 0.114 0 0.199 0.028 0.256 0.085 0.064 0.057 0.1 0.132 0.107 0.224s-0.011 0.192-0.053 0.299l-1.589 4.32c-0.050 0.135-0.124 0.238-0.224 0.309-0.092 0.064-0.199 0.096-0.32 0.096s-0.228-0.032-0.32-0.096c-0.092-0.071-0.164-0.174-0.213-0.309l-1.579-4.331h0.459l-1.568 4.331c-0.050 0.135-0.121 0.238-0.213 0.309-0.092 0.064-0.203 0.096-0.331 0.096zM53.029 11.387c-0.142 0-0.249-0.039-0.32-0.117-0.071-0.085-0.107-0.203-0.107-0.352v-4.363c0-0.149 0.036-0.263 0.107-0.341s0.178-0.117 0.32-0.117c0.135 0 0.242 0.039 0.32 0.117s0.117 0.192 0.117 0.341v4.363c0 0.149-0.039 0.267-0.117 0.352-0.071 0.078-0.178 0.117-0.32 0.117zM53.029 4.901c-0.178 0-0.316-0.046-0.416-0.139-0.1-0.1-0.149-0.231-0.149-0.395 0-0.171 0.050-0.299 0.149-0.384 0.1-0.092 0.238-0.139 0.416-0.139 0.185 0 0.324 0.046 0.416 0.139 0.1 0.085 0.149 0.213 0.149 0.384 0 0.164-0.050 0.295-0.149 0.395-0.092 0.092-0.231 0.139-0.416 0.139zM56.66 11.429c-0.512 0-0.903-0.156-1.173-0.469s-0.405-0.761-0.405-1.344v-5.44c0-0.142 0.036-0.249 0.107-0.32 0.071-0.078 0.178-0.117 0.32-0.117 0.135 0 0.242 0.039 0.32 0.117 0.078 0.071 0.117 0.178 0.117 0.32v5.376c0 0.384 0.075 0.672 0.224 0.864 0.156 0.185 0.384 0.277 0.683 0.277 0.064 0 0.121-0.004 0.171-0.011s0.1-0.011 0.149-0.011c0.078-0.007 0.132 0.011 0.16 0.053 0.036 0.043 0.053 0.128 0.053 0.256s-0.028 0.224-0.085 0.288c-0.057 0.064-0.149 0.107-0.277 0.128-0.057 0.007-0.117 0.014-0.181 0.021s-0.124 0.011-0.181 0.011zM59.816 11.429c-0.512 0-0.903-0.156-1.173-0.469s-0.405-0.761-0.405-1.344v-5.44c0-0.142 0.036-0.249 0.107-0.32 0.071-0.078 0.178-0.117 0.32-0.117 0.135 0 0.242 0.039 0.32 0.117 0.078 0.071 0.117 0.178 0.117 0.32v5.376c0 0.384 0.075 0.672 0.224 0.864 0.156 0.185 0.384 0.277 0.683 0.277 0.064 0 0.121-0.004 0.171-0.011s0.1-0.011 0.149-0.011c0.078-0.007 0.132 0.011 0.16 0.053 0.036 0.043 0.053 0.128 0.053 0.256s-0.028 0.224-0.085 0.288c-0.057 0.064-0.149 0.107-0.277 0.128-0.057 0.007-0.117 0.014-0.181 0.021s-0.124 0.011-0.181 0.011zM38.571 26.075c-0.142 0-0.249-0.039-0.32-0.117s-0.107-0.188-0.107-0.331v-6.784c0-0.142 0.036-0.249 0.107-0.32 0.071-0.078 0.178-0.117 0.32-0.117 0.135 0 0.242 0.039 0.32 0.117 0.078 0.071 0.117 0.178 0.117 0.32v3.125h-0.139c0.149-0.412 0.391-0.722 0.725-0.928 0.341-0.213 0.732-0.32 1.173-0.32 0.412 0 0.754 0.075 1.024 0.224 0.277 0.149 0.484 0.377 0.619 0.683 0.135 0.299 0.203 0.679 0.203 1.141v2.859c0 0.142-0.039 0.252-0.117 0.331-0.071 0.078-0.174 0.117-0.309 0.117-0.142 0-0.252-0.039-0.331-0.117-0.071-0.078-0.107-0.188-0.107-0.331v-2.805c0-0.484-0.096-0.836-0.288-1.056-0.185-0.228-0.484-0.341-0.896-0.341-0.476 0-0.857 0.149-1.141 0.448-0.277 0.292-0.416 0.683-0.416 1.173v2.581c0 0.299-0.146 0.448-0.437 0.448zM46.543 26.096c-0.548 0-1.020-0.107-1.419-0.32-0.391-0.22-0.697-0.53-0.917-0.928-0.213-0.398-0.32-0.875-0.32-1.429 0-0.54 0.107-1.010 0.32-1.408 0.213-0.405 0.505-0.722 0.875-0.949 0.377-0.228 0.811-0.341 1.301-0.341 0.348 0 0.661 0.060 0.939 0.181 0.277 0.114 0.512 0.281 0.704 0.501 0.199 0.22 0.348 0.487 0.448 0.8 0.107 0.313 0.16 0.665 0.16 1.056 0 0.114-0.032 0.199-0.096 0.256-0.064 0.050-0.156 0.075-0.277 0.075h-3.712v-0.565h3.509l-0.171 0.139c0-0.384-0.057-0.708-0.171-0.971-0.114-0.27-0.281-0.476-0.501-0.619-0.213-0.142-0.484-0.213-0.811-0.213-0.363 0-0.672 0.085-0.928 0.256-0.249 0.164-0.437 0.395-0.565 0.693-0.128 0.292-0.192 0.633-0.192 1.024v0.064c0 0.654 0.156 1.152 0.469 1.493 0.32 0.341 0.772 0.512 1.355 0.512 0.242 0 0.48-0.032 0.715-0.096 0.242-0.064 0.476-0.171 0.704-0.32 0.1-0.064 0.188-0.092 0.267-0.085 0.085 0 0.153 0.025 0.203 0.075 0.050 0.043 0.082 0.1 0.096 0.171 0.021 0.064 0.014 0.135-0.021 0.213-0.028 0.078-0.089 0.146-0.181 0.203-0.235 0.171-0.512 0.302-0.832 0.395s-0.636 0.139-0.949 0.139zM51.462 26.096c-0.512 0-0.903-0.156-1.173-0.469s-0.405-0.761-0.405-1.344v-5.44c0-0.142 0.036-0.249 0.107-0.32 0.071-0.078 0.178-0.117 0.32-0.117 0.135 0 0.242 0.039 0.32 0.117 0.078 0.071 0.117 0.178 0.117 0.32v5.376c0 0.384 0.075 0.672 0.224 0.864 0.156 0.185 0.384 0.277 0.683 0.277 0.064 0 0.121-0.004 0.171-0.011s0.1-0.011 0.149-0.011c0.078-0.007 0.132 0.011 0.16 0.053 0.036 0.043 0.053 0.128 0.053 0.256s-0.028 0.224-0.085 0.288c-0.057 0.064-0.149 0.107-0.277 0.128-0.057 0.007-0.117 0.014-0.181 0.021s-0.124 0.011-0.181 0.011zM53.467 27.995c-0.142 0-0.249-0.039-0.32-0.117-0.071-0.071-0.107-0.178-0.107-0.32v-6.379c0-0.142 0.036-0.249 0.107-0.32 0.071-0.078 0.174-0.117 0.309-0.117 0.142 0 0.249 0.039 0.32 0.117 0.078 0.071 0.117 0.178 0.117 0.32v1.013l-0.117-0.149c0.114-0.405 0.338-0.725 0.672-0.96 0.341-0.242 0.747-0.363 1.216-0.363 0.462 0 0.864 0.11 1.205 0.331 0.348 0.213 0.615 0.523 0.8 0.928 0.192 0.398 0.288 0.875 0.288 1.429 0 0.548-0.096 1.024-0.288 1.429-0.185 0.398-0.448 0.708-0.789 0.928s-0.747 0.331-1.216 0.331c-0.469 0-0.871-0.117-1.205-0.352-0.334-0.242-0.562-0.562-0.683-0.96h0.128v2.773c0 0.142-0.039 0.249-0.117 0.32-0.078 0.078-0.185 0.117-0.32 0.117zM55.483 25.403c0.327 0 0.608-0.078 0.843-0.235 0.242-0.156 0.427-0.384 0.555-0.683 0.135-0.299 0.203-0.658 0.203-1.077 0-0.647-0.146-1.141-0.437-1.483-0.284-0.341-0.672-0.512-1.163-0.512-0.32 0-0.601 0.078-0.843 0.235-0.242 0.149-0.43 0.373-0.565 0.672-0.128 0.292-0.192 0.654-0.192 1.088 0 0.64 0.146 1.134 0.437 1.483 0.292 0.341 0.679 0.512 1.163 0.512zM63.161 27.995c-0.107 0-0.192-0.028-0.256-0.085s-0.103-0.135-0.117-0.235c-0.007-0.092 0.011-0.188 0.053-0.288l0.736-1.653v0.373l-2.048-4.757c-0.043-0.107-0.057-0.206-0.043-0.299s0.057-0.167 0.128-0.224c0.071-0.057 0.171-0.085 0.299-0.085 0.114 0 0.203 0.025 0.267 0.075s0.121 0.139 0.171 0.267l1.749 4.288h-0.288l1.771-4.288c0.057-0.128 0.117-0.217 0.181-0.267s0.156-0.075 0.277-0.075c0.114 0 0.199 0.028 0.256 0.085 0.064 0.057 0.1 0.132 0.107 0.224 0.014 0.085 0 0.181-0.043 0.288l-2.731 6.315c-0.057 0.128-0.121 0.217-0.192 0.267-0.064 0.050-0.156 0.075-0.277 0.075zM69.569 26.096c-0.505 0-0.942-0.11-1.312-0.331s-0.657-0.53-0.864-0.928c-0.199-0.405-0.299-0.882-0.299-1.429 0-0.412 0.057-0.782 0.171-1.109 0.114-0.334 0.281-0.619 0.501-0.853s0.48-0.412 0.779-0.533c0.306-0.128 0.647-0.192 1.024-0.192 0.505 0 0.943 0.11 1.312 0.331s0.655 0.533 0.853 0.939c0.207 0.398 0.309 0.871 0.309 1.419 0 0.412-0.057 0.782-0.171 1.109s-0.281 0.612-0.501 0.853c-0.22 0.235-0.483 0.416-0.789 0.544-0.299 0.121-0.636 0.181-1.013 0.181zM69.569 25.403c0.32 0 0.601-0.078 0.843-0.235s0.427-0.384 0.555-0.683c0.135-0.299 0.203-0.658 0.203-1.077 0-0.647-0.145-1.141-0.437-1.483-0.284-0.341-0.672-0.512-1.163-0.512-0.327 0-0.611 0.078-0.853 0.235-0.235 0.149-0.419 0.373-0.555 0.672-0.128 0.292-0.192 0.654-0.192 1.088 0 0.64 0.146 1.134 0.437 1.483 0.292 0.341 0.679 0.512 1.163 0.512zM75.177 26.096c-0.419 0-0.768-0.075-1.045-0.224-0.27-0.156-0.477-0.388-0.619-0.693-0.135-0.306-0.203-0.686-0.203-1.141v-2.859c0-0.149 0.035-0.26 0.107-0.331 0.078-0.071 0.185-0.107 0.32-0.107 0.142 0 0.249 0.036 0.32 0.107 0.078 0.071 0.117 0.181 0.117 0.331v2.848c0 0.455 0.093 0.796 0.277 1.024 0.192 0.22 0.491 0.331 0.896 0.331 0.441 0 0.8-0.149 1.077-0.448s0.416-0.69 0.416-1.173v-2.581c0-0.149 0.035-0.26 0.107-0.331 0.078-0.071 0.189-0.107 0.331-0.107 0.135 0 0.238 0.036 0.309 0.107 0.078 0.071 0.117 0.181 0.117 0.331v4.448c0 0.299-0.139 0.448-0.416 0.448-0.135 0-0.242-0.039-0.32-0.117-0.071-0.078-0.107-0.188-0.107-0.331v-0.971l0.139 0.149c-0.142 0.42-0.377 0.74-0.704 0.96-0.32 0.22-0.693 0.331-1.12 0.331z"></path>
</symbol>
<symbol id="arrow-right" viewBox="0 0 32 32">
<path d="M15.218 6.017c-0.518 0.519-0.518 1.367 0 1.886l7.156 7.156h-16.744c-0.175 0-0.347 0.034-0.509 0.101s-0.308 0.165-0.431 0.288c-0.123 0.123-0.221 0.27-0.288 0.431s-0.101 0.334-0.101 0.509c0 0.175 0.034 0.348 0.101 0.509s0.165 0.308 0.288 0.431c0.123 0.123 0.27 0.221 0.431 0.288s0.334 0.101 0.509 0.101h16.744l-7.156 7.156c-0.518 0.519-0.518 1.367 0 1.886s1.367 0.519 1.886 0l9.428-9.428c0.519-0.518 0.519-1.367 0-1.886l-9.428-9.428c-0.518-0.519-1.367-0.519-1.886 0z"></path>
</symbol>
<symbol id="arrow-left" viewBox="0 0 32 32">
<path d="M16.006 26.759c0.519-0.518 0.519-1.367 0-1.886l-7.156-7.156h16.744c0.175 0 0.347-0.034 0.509-0.101s0.308-0.165 0.431-0.288c0.123-0.123 0.221-0.27 0.288-0.431s0.101-0.334 0.101-0.509c0-0.174-0.034-0.347-0.101-0.509s-0.165-0.308-0.288-0.431c-0.123-0.123-0.27-0.221-0.431-0.288s-0.334-0.101-0.509-0.101h-16.744l7.156-7.156c0.519-0.519 0.519-1.367 0-1.886s-1.367-0.519-1.886 0l-9.428 9.428c-0.519 0.519-0.519 1.367 0 1.886l9.428 9.428c0.518 0.519 1.367 0.519 1.886 0z"></path>
</symbol>
<symbol id="journey" viewBox="0 0 32 32">
<path d="M9.012 0.125c-0.619 0.162-1.087 0.438-1.581 0.931-0.594 0.6-0.869 1.188-1.025 2.206-0.031 0.206-0.056 0.237-0.206 0.237-0.094 0-0.319 0.044-0.494 0.087-1.287 0.344-2.275 1.394-2.55 2.706-0.138 0.638-0.138 22.275 0 22.912 0.144 0.675 0.438 1.2 0.969 1.731 0.537 0.544 0.919 0.762 1.6 0.938 0.469 0.119 0.719 0.125 8.619 0.125 7.913 0 8.15-0.006 8.619-0.125 0.637-0.163 1.1-0.431 1.606-0.931 0.594-0.6 0.869-1.188 1.025-2.212 0.031-0.2 0.056-0.231 0.206-0.231 0.094 0 0.319-0.044 0.494-0.088 0.994-0.263 1.881-1.012 2.306-1.944 0.356-0.769 0.344-0.256 0.325-12.425l-0.019-11.2-0.137-0.413c-0.363-1.050-1.212-1.9-2.263-2.263l-0.412-0.138-8.313-0.013c-8.037-0.013-8.325-0.006-8.769 0.106zM26.069 1.288c0.413 0.125 0.925 0.456 1.15 0.75 0.088 0.119 0.238 0.375 0.331 0.575l0.169 0.356v22.688l-0.163 0.344c-0.325 0.681-1 1.219-1.694 1.337l-0.238 0.044v-17.569l-1.794-2.019c-0.994-1.106-2.225-2.494-2.75-3.081s-1.025-1.1-1.113-1.138c-0.119-0.056-1.731-0.075-6.287-0.075h-6.119l0.037-0.269c0.144-0.938 0.775-1.669 1.681-1.956 0.194-0.063 1.988-0.081 8.35-0.081 7.275-0.006 8.131 0.006 8.438 0.094zM19.125 7.475v2.788l0.363 0.363h4.95l-0.012 9.238-0.019 9.231-0.2 0.406c-0.356 0.719-0.981 1.181-1.769 1.306-0.512 0.088-15.613 0.094-16.175 0.012-0.8-0.119-1.537-0.694-1.838-1.431l-0.144-0.356-0.019-11.119c-0.019-12.375-0.044-11.563 0.412-12.219 0.287-0.425 0.575-0.656 1.050-0.85l0.369-0.156h13.031v2.788zM22 7.5c0.837 0.944 1.563 1.769 1.612 1.825 0.088 0.106 0.006 0.113-1.6 0.113h-1.7v-1.919c0-1.619 0.012-1.906 0.088-1.831 0.044 0.050 0.762 0.869 1.6 1.812z"></path>
<path d="M7.15 9.506c-0.362 0.106-0.519 0.431-0.369 0.781 0.044 0.112 0.137 0.231 0.206 0.269 0.088 0.044 1.038 0.069 2.919 0.069h2.794l0.181-0.181c0.244-0.244 0.244-0.5 0-0.769l-0.181-0.206-2.681-0.012c-1.475-0.006-2.763 0.019-2.869 0.050z"></path>
<path d="M7.019 13.45c-0.181 0.087-0.344 0.444-0.294 0.637 0.019 0.081 0.106 0.219 0.194 0.3l0.156 0.144h14.3l0.163-0.162c0.225-0.225 0.225-0.575 0-0.8l-0.163-0.163-7.112-0.012c-4.937-0.006-7.15 0.006-7.244 0.056z"></path>
<path d="M7.125 16.294c-0.312 0.119-0.475 0.438-0.369 0.75 0.138 0.419-0.312 0.394 7.456 0.394 5.019 0 7.075-0.019 7.181-0.069 0.144-0.063 0.238-0.2 0.313-0.438 0.019-0.050-0.006-0.188-0.056-0.294-0.169-0.406 0.2-0.387-7.475-0.381-3.825 0-7 0.019-7.050 0.038z"></path>
<path d="M6.987 19.281c-0.2 0.113-0.325 0.45-0.244 0.663 0.031 0.081 0.119 0.206 0.194 0.275 0.137 0.125 0.225 0.125 7.287 0.125h7.15l0.156-0.163c0.275-0.269 0.2-0.769-0.137-0.925-0.106-0.050-2.156-0.069-7.194-0.069-6.031 0.006-7.069 0.019-7.213 0.094z"></path>
<path d="M7.094 22.119c-0.412 0.169-0.494 0.656-0.169 0.95l0.2 0.181h14.188l0.194-0.175c0.256-0.231 0.269-0.575 0.031-0.819l-0.163-0.163-7.081-0.012c-3.888-0.006-7.131 0.012-7.2 0.038z"></path>
<path d="M7.156 24.919c-0.325 0.081-0.513 0.444-0.394 0.781 0.125 0.356 0.156 0.363 3.169 0.363h2.75l0.175-0.15c0.244-0.212 0.244-0.594 0-0.837l-0.169-0.169-2.706-0.012c-1.481 0-2.756 0.006-2.825 0.025z"></path>
</symbol>
<symbol id="impact" viewBox="0 0 32 32">
<path d="M15.031 0.037c-0.831 0.119-1.475 0.256-2.062 0.444-3.044 0.969-5.419 3.306-6.45 6.362-0.375 1.113-0.488 1.844-0.481 3.156 0 1.313 0.112 2.063 0.481 3.156 1.337 3.962 4.906 6.65 9.075 6.819 4.725 0.2 8.931-2.95 10.094-7.55 1.394-5.55-2.138-11.106-7.781-12.238-0.6-0.125-2.419-0.219-2.875-0.15zM17.825 1.188c1.762 0.375 3.225 1.169 4.525 2.469 0.644 0.644 1.5 1.769 1.45 1.919-0.012 0.031-0.25 0.156-0.525 0.275l-0.5 0.219-1.175-0.437c-1.131-0.425-1.188-0.45-1.587-0.825-0.537-0.5-0.962-0.7-1.506-0.7-0.55 0-0.863 0.144-1.631 0.75-1.019 0.813-1.063 0.925-0.831 2.325 0.088 0.537 0.188 1.012 0.225 1.062 0.088 0.1 1.794 1.25 2.088 1.4 0.244 0.125 0.625 0.131 1.056 0.019 0.194-0.050 0.356-0.063 0.419-0.031 0.050 0.031 0.387 0.513 0.744 1.075l0.644 1.012 0.031 1.688c0.038 1.937 0.025 1.875 0.625 2.594l0.387 0.469-0.238 0.212c-1.731 1.513-3.837 2.319-6.081 2.319-0.856 0-2.625-0.312-2.631-0.469-0.006-0.038 0.081-0.288 0.181-0.563l0.194-0.5 0.8-0.481c0.444-0.269 0.844-0.531 0.894-0.587 0.056-0.069 0.1-0.325 0.119-0.7l0.031-0.594 0.337-0.119c0.188-0.063 0.388-0.156 0.45-0.213 0.144-0.131 1.031-1.619 1.125-1.887 0.094-0.281 0.044-0.813-0.106-1.106-0.206-0.394-0.525-0.606-1.125-0.75l-0.537-0.131-0.238-0.581c-0.131-0.325-0.319-0.669-0.419-0.775-0.3-0.319-0.475-0.356-1.625-0.356h-1.050l-0.125-0.231c-0.188-0.337-0.531-0.588-0.875-0.631l-0.288-0.031 0.019-0.231c0.019-0.213 0.106-0.306 1.269-1.325 0.687-0.6 1.287-1.131 1.325-1.187 0.044-0.050 0.144-0.4 0.219-0.775 0.144-0.675 0.144-0.681 0.331-0.7 0.444-0.037 0.606-0.094 0.819-0.275 0.375-0.331 0.519-0.744 0.4-1.169-0.1-0.381-0.325-0.594-1.019-0.988l-0.631-0.356 0.206-0.056c1.012-0.256 2.731-0.281 3.831-0.044zM13.475 2.256c1.213 0.681 1.294 0.806 0.525 0.806-0.506 0-0.719 0.081-0.806 0.306-0.037 0.087-0.131 0.487-0.213 0.881l-0.144 0.719-1.306 1.15c-0.725 0.631-1.344 1.213-1.387 1.281-0.044 0.075-0.075 0.306-0.081 0.519 0 0.419-0.031 0.45-0.325 0.337-0.112-0.044-0.181-0.162-0.287-0.5-0.094-0.281-0.194-0.475-0.281-0.531-0.075-0.050-0.469-0.119-0.869-0.162-0.406-0.044-0.737-0.1-0.737-0.125s0.081-0.244 0.181-0.481c0.8-1.881 2.275-3.469 4.087-4.419 0.3-0.156 0.594-0.288 0.65-0.288s0.506 0.225 0.994 0.506zM18.688 5.1c0.131 0.031 0.369 0.2 0.681 0.487l0.475 0.45 2.95 1.1 0.744-0.312c0.538-0.225 0.756-0.294 0.788-0.237 0.025 0.044 0.119 0.294 0.206 0.563 0.794 2.369 0.556 4.987-0.663 7.194-0.325 0.594-0.831 1.312-0.925 1.312-0.031 0-0.194-0.169-0.356-0.369l-0.306-0.369-0.031-1.756-0.031-1.756-0.775-1.206c-0.425-0.663-0.862-1.275-0.969-1.356-0.338-0.25-0.625-0.294-1.194-0.175l-0.5 0.1-0.831-0.55c-0.45-0.3-0.825-0.569-0.825-0.588s-0.056-0.35-0.119-0.725c-0.069-0.388-0.094-0.731-0.069-0.781 0.075-0.138 1.156-0.963 1.325-1.013 0.2-0.056 0.2-0.056 0.425-0.013zM8.6 8.4c0.181 0.556 0.25 0.65 0.556 0.737l0.275 0.081-0.337 0.262c-0.387 0.3-0.438 0.444-0.394 1.131 0.019 0.35 0.106 0.625 0.544 1.7 0.494 1.2 0.688 1.563 0.844 1.563 0.031 0 0.281 0.062 0.55 0.131 0.775 0.213 0.856 0.469 0.331 1.056-0.444 0.5-0.494 0.631-0.444 1.212 0.019 0.281 0.056 0.6 0.075 0.719l0.044 0.212-0.213-0.144c-0.456-0.319-1.475-1.419-1.887-2.037-0.975-1.463-1.45-2.919-1.525-4.681-0.031-0.731 0.081-1.975 0.206-2.3 0.019-0.056 0.169-0.062 0.65-0.019l0.619 0.056 0.106 0.319zM11.387 9.594c0.144 0.544 0.188 0.556 1.656 0.594l1.281 0.031 0.275 0.687c0.15 0.375 0.331 0.737 0.394 0.8 0.069 0.075 0.344 0.162 0.7 0.238 0.956 0.2 1 0.331 0.394 1.35-0.394 0.675-0.419 0.7-0.713 0.8-0.369 0.125-0.787 0.55-0.838 0.856-0.019 0.113-0.044 0.356-0.056 0.544l-0.012 0.344-0.731 0.437c-0.406 0.244-0.775 0.487-0.819 0.537-0.050 0.050-0.2 0.375-0.325 0.719-0.131 0.344-0.25 0.637-0.256 0.65-0.012 0.012-0.131-0.025-0.269-0.088l-0.244-0.106-0.169-0.887c-0.087-0.481-0.175-0.913-0.188-0.956s0.113-0.238 0.275-0.438c0.537-0.644 0.65-1.019 0.481-1.6-0.144-0.5-0.563-0.863-1.175-1.025l-0.456-0.125-0.45-1.088c-0.294-0.719-0.45-1.175-0.45-1.344-0.006-0.25 0-0.256 0.663-0.731 0.375-0.263 0.737-0.481 0.813-0.481 0.119 0 0.156 0.056 0.219 0.281z"></path>
<path d="M1 12.075c-0.344 0.119-0.838 0.65-0.925 1-0.056 0.213-0.075 1.475-0.075 4.512 0 4.619 0.006 4.737 0.369 5.613 0.256 0.6 0.444 0.844 3.244 4.156l2.388 2.831v0.781c0 0.7 0.013 0.794 0.125 0.906 0.119 0.119 0.206 0.125 3.375 0.125s3.256-0.006 3.375-0.125 0.125-0.206 0.125-2.813c0-3.063-0.025-3.3-0.45-4.188-0.206-0.431-0.356-0.631-0.794-1.069-0.619-0.612-1.106-0.894-1.969-1.119l-0.544-0.144-1.369-1.4-1.375-1.4v-2.012c0-2.181-0.025-2.387-0.35-2.975-0.362-0.675-1.144-1.169-1.944-1.238l-0.431-0.037-0.15-0.269c-0.337-0.644-1.163-1.144-1.95-1.181-0.25-0.019-0.556 0.006-0.675 0.044zM2.169 13.181c0.275 0.137 0.519 0.387 0.681 0.694 0.112 0.206 0.119 0.462 0.15 3.875 0.038 3.969 0.025 3.844 0.4 4.413 0.081 0.138 0.962 1.069 1.956 2.075 1.644 1.675 1.819 1.831 2.006 1.825 0.275 0 0.513-0.238 0.513-0.506 0-0.181-0.188-0.394-1.806-2.019-1.556-1.569-1.819-1.856-1.875-2.087-0.194-0.713 0.481-1.381 1.213-1.194 0.213 0.056 0.5 0.313 1.788 1.6 0.844 0.844 1.575 1.556 1.625 1.581 0.050 0.031 0.331 0.112 0.619 0.188 0.687 0.175 1.194 0.444 1.637 0.881 0.406 0.4 0.756 1.050 0.862 1.613 0.037 0.188 0.063 1.331 0.063 2.606v2.275h-5v-1.181l-2.575-3.050c-1.419-1.675-2.694-3.225-2.837-3.431-0.144-0.212-0.325-0.563-0.406-0.781l-0.15-0.4-0.019-4.425-0.019-4.419 0.163-0.162c0.15-0.15 0.2-0.162 0.469-0.131 0.169 0.019 0.413 0.094 0.544 0.163zM4.656 14.669c0.269 0.137 0.525 0.387 0.675 0.675 0.131 0.238 0.138 0.344 0.156 2.069l0.019 1.825h-0.406c-0.306 0-0.5 0.044-0.756 0.163l-0.344 0.156v-5.069l0.231 0.044c0.131 0.025 0.319 0.087 0.425 0.137z"></path>
<path d="M29.919 12.069c-0.6 0.144-1.281 0.644-1.544 1.144l-0.15 0.269-0.431 0.037c-0.8 0.069-1.581 0.563-1.944 1.238-0.325 0.588-0.35 0.794-0.35 2.975v2.012l-1.375 1.4-1.369 1.4-0.544 0.144c-0.863 0.225-1.35 0.506-1.969 1.119-0.438 0.438-0.587 0.637-0.794 1.069-0.425 0.887-0.45 1.125-0.45 4.188 0 2.606 0.006 2.694 0.125 2.813s0.206 0.125 3.375 0.125c3.169 0 3.256-0.006 3.375-0.125 0.112-0.113 0.125-0.206 0.125-0.906v-0.788l2.387-2.825c2.8-3.313 2.988-3.556 3.244-4.156 0.363-0.875 0.369-0.994 0.369-5.613 0-2.925-0.019-4.306-0.069-4.5-0.1-0.388-0.531-0.856-0.913-0.988-0.312-0.106-0.725-0.119-1.1-0.031zM30.85 13.156l0.156 0.156-0.019 4.387c-0.019 4.388-0.019 4.394-0.163 4.813-0.075 0.231-0.263 0.6-0.406 0.813-0.144 0.219-1.425 1.769-2.844 3.444l-2.575 3.050v1.181h-5v-2.275c0-1.275 0.025-2.419 0.063-2.606 0.106-0.563 0.456-1.212 0.862-1.613 0.444-0.438 0.95-0.706 1.637-0.881 0.288-0.075 0.569-0.156 0.613-0.181 0.050-0.031 0.781-0.744 1.631-1.587 1.269-1.262 1.581-1.544 1.788-1.6 0.725-0.194 1.406 0.475 1.212 1.194-0.056 0.231-0.319 0.519-1.875 2.087-1.619 1.625-1.806 1.837-1.806 2.019 0 0.269 0.238 0.506 0.513 0.506 0.188 0.006 0.356-0.15 1.975-1.794 0.975-0.988 1.856-1.919 1.956-2.063 0.406-0.581 0.394-0.437 0.431-4.456 0.038-4.025 0.012-3.825 0.431-4.269 0.419-0.45 1.125-0.613 1.419-0.325zM28 17.025v2.531l-0.35-0.163c-0.256-0.119-0.463-0.163-0.756-0.163l-0.4-0.006 0.019-1.813c0.019-1.631 0.031-1.844 0.138-2.037 0.219-0.412 0.544-0.687 0.975-0.819 0.406-0.119 0.375-0.319 0.375 2.469z"></path>
</symbol>
<symbol id="values" viewBox="0 0 32 32">
<path d="M15 2.706c-0.081 0.044-0.188 0.15-0.231 0.231-0.094 0.181-0.106 0.862-0.025 1.075l0.056 0.144-0.619-0.019c-0.588-0.025-0.619-0.019-0.775 0.138-0.25 0.25-0.206 0.6 0.1 0.756 0.206 0.106 1 0.125 1.188 0.031 0.106-0.063 0.113-0.050 0.056 0.094-0.081 0.219-0.081 0.838 0.006 1.088 0.125 0.35 0.55 0.438 0.8 0.169 0.131-0.144 0.144-0.2 0.119-0.775-0.019-0.569-0.012-0.619 0.088-0.569 0.056 0.031 0.319 0.056 0.581 0.056 0.45 0 0.488-0.013 0.669-0.188 0.156-0.162 0.181-0.225 0.15-0.394-0.069-0.356-0.231-0.431-0.913-0.406l-0.594 0.019 0.019-0.6c0.019-0.5 0-0.619-0.094-0.731-0.144-0.169-0.387-0.225-0.581-0.119zM15.494 4.381c-0.037 0.075-0.056 0.219-0.044 0.319 0.025 0.162 0.012 0.181-0.113 0.15-0.075-0.019-0.213-0.013-0.306 0.025-0.15 0.056-0.156 0.050-0.088-0.069 0.037-0.075 0.056-0.206 0.037-0.3-0.031-0.156-0.025-0.162 0.206-0.144 0.131 0.013 0.256-0.006 0.275-0.044 0.081-0.125 0.106-0.069 0.031 0.063z"></path>
<path d="M8.769 3.769c-0.075 0.044-0.275 0.287-0.444 0.544-0.35 0.544-1.019 1.194-1.563 1.525-0.425 0.269-0.575 0.506-0.463 0.756 0.037 0.081 0.287 0.294 0.556 0.475 0.619 0.419 1.1 0.9 1.494 1.494 0.519 0.781 0.769 0.787 1.281 0.031 0.394-0.575 0.988-1.169 1.525-1.525 0.787-0.525 0.794-0.769 0.012-1.281-0.6-0.394-1.231-1.031-1.563-1.581-0.287-0.475-0.537-0.606-0.838-0.438zM10.012 6.181l0.275 0.219-0.644 0.631-0.644 0.638-1.237-1.237 0.638-0.638 0.631-0.638 0.35 0.406c0.2 0.225 0.481 0.5 0.631 0.619z"></path>
<path d="M21.962 3.906c-0.15 0.15-0.156 0.188-0.137 0.737l0.019 0.575h-0.6c-0.506 0-0.625 0.019-0.738 0.119-0.175 0.162-0.181 0.55 0 0.731 0.113 0.112 0.188 0.125 0.731 0.106l0.606-0.019-0.025 0.556c-0.025 0.625 0.038 0.8 0.313 0.919 0.144 0.056 0.225 0.056 0.363-0.006 0.256-0.106 0.337-0.344 0.313-0.95l-0.025-0.519 0.594 0.019c0.531 0.019 0.606 0.006 0.738-0.112 0.175-0.162 0.181-0.494 0.019-0.694-0.1-0.125-0.188-0.15-0.594-0.169-0.256-0.013-0.556 0.006-0.663 0.037-0.175 0.063-0.181 0.063-0.125-0.050 0.031-0.063 0.063-0.344 0.063-0.625 0-0.456-0.019-0.519-0.156-0.656-0.2-0.206-0.488-0.206-0.694 0zM22.462 5.45c0.144-0.063 0.15-0.056 0.106 0.1-0.031 0.094-0.031 0.225-0.006 0.294 0.044 0.112 0.019 0.125-0.244 0.125h-0.288v-0.287c0-0.275 0.006-0.287 0.137-0.225 0.1 0.044 0.188 0.044 0.294-0.006z"></path>
<path d="M13.581 7.4c-1.175 0.269-2.15 1.2-2.488 2.369-0.137 0.475-0.137 1.3 0 1.775 0.238 0.825 0.363 0.975 2.688 3.319 1.2 1.219 2.262 2.25 2.356 2.3s0.238 0.075 0.319 0.056c0.081-0.025 1.181-1.081 2.462-2.363 1.919-1.931 2.337-2.387 2.475-2.681 0.475-1 0.475-2.044 0-3.037-0.263-0.537-0.956-1.213-1.531-1.481-0.556-0.25-1.175-0.375-1.65-0.313-0.431 0.050-1.081 0.381-1.506 0.75l-0.325 0.287-0.394-0.319c-0.819-0.662-1.537-0.856-2.406-0.662zM14.85 8.5c0.2 0.1 0.581 0.381 0.85 0.625 0.631 0.581 0.7 0.581 1.344 0 0.262-0.244 0.656-0.531 0.875-0.637 0.35-0.175 0.431-0.188 0.756-0.15 0.781 0.094 1.513 0.606 1.863 1.325 0.163 0.331 0.181 0.431 0.181 0.994 0 1.012 0 1.006-2.35 3.375l-1.994 2-1.969-1.969c-2.119-2.119-2.287-2.325-2.4-3.037-0.181-1.175 0.544-2.306 1.681-2.612 0.519-0.137 0.75-0.119 1.162 0.088z"></path>
<path d="M13.625 8.919c-0.419 0.15-0.963 0.719-1.088 1.144-0.2 0.675-0.056 1.063 0.4 1.063 0.275 0 0.5-0.219 0.5-0.481 0-0.225 0.181-0.575 0.356-0.688 0.081-0.056 0.281-0.125 0.444-0.15 0.537-0.1 0.744-0.581 0.381-0.887-0.169-0.131-0.606-0.131-0.994 0z"></path>
<path d="M25.675 7.45c-0.050 0.044-0.206 0.25-0.337 0.456-0.369 0.563-0.925 1.125-1.5 1.506-0.531 0.356-0.587 0.419-0.587 0.706 0 0.194 0.125 0.319 0.644 0.662 0.462 0.3 1.044 0.881 1.369 1.369 0.356 0.531 0.488 0.662 0.656 0.662 0.25 0 0.381-0.106 0.688-0.581 0.363-0.55 0.925-1.119 1.425-1.444 0.55-0.356 0.656-0.469 0.656-0.694 0-0.256-0.069-0.331-0.6-0.681-0.538-0.356-1.169-0.994-1.494-1.506-0.288-0.456-0.375-0.531-0.625-0.531-0.106 0-0.238 0.037-0.294 0.075zM26.594 10.719l-0.625 0.625-1.25-1.25 1.25-1.25 0.625 0.625 0.625 0.619-0.625 0.631z"></path>
<path d="M5.013 10.356c-0.163 0.063-0.263 0.387-0.263 0.831 0 0.244 0.025 0.5 0.063 0.563 0.056 0.106 0.044 0.113-0.138 0.056-0.481-0.137-1.181-0.031-1.3 0.194-0.112 0.206-0.069 0.469 0.087 0.619 0.144 0.131 0.2 0.144 0.775 0.119 0.569-0.019 0.619-0.012 0.569 0.088-0.031 0.056-0.056 0.319-0.056 0.581 0 0.444 0.013 0.494 0.181 0.662 0.231 0.225 0.456 0.238 0.669 0.025 0.156-0.156 0.162-0.188 0.138-0.769l-0.019-0.606 0.6 0.019c0.719 0.025 0.894-0.063 0.894-0.45 0-0.356-0.175-0.488-0.7-0.525-0.244-0.012-0.519 0-0.619 0.031l-0.175 0.063 0.019-0.613c0.025-0.588 0.019-0.619-0.138-0.775-0.15-0.15-0.388-0.194-0.588-0.113zM5.369 12.044c0.156-0.031 0.162-0.025 0.162 0.225v0.262h-0.269c-0.244 0-0.263-0.012-0.231-0.137 0.019-0.075 0.006-0.206-0.031-0.3-0.056-0.15-0.050-0.156 0.069-0.088 0.075 0.037 0.206 0.056 0.3 0.037z"></path>
<path d="M23.094 14.456c-0.144 0.119-0.175 0.206-0.2 0.544-0.019 0.225-0.006 0.506 0.031 0.631l0.063 0.231-0.231-0.063c-0.125-0.037-0.406-0.050-0.631-0.031-0.337 0.025-0.425 0.056-0.544 0.2-0.181 0.206-0.181 0.4-0.012 0.619 0.131 0.169 0.144 0.169 0.775 0.15l0.637-0.019-0.063 0.219c-0.031 0.119-0.044 0.4-0.025 0.625 0.025 0.337 0.056 0.425 0.2 0.544 0.206 0.181 0.4 0.181 0.619 0.012 0.156-0.125 0.163-0.15 0.163-0.744s-0.006-0.619-0.163-0.744c-0.181-0.144-0.344-0.163-0.531-0.069-0.106 0.063-0.113 0.056-0.044-0.094 0.056-0.119 0.056-0.212 0.006-0.344-0.063-0.175-0.063-0.175 0.087-0.106 0.113 0.050 0.2 0.050 0.337 0 0.163-0.063 0.175-0.063 0.119 0.044-0.094 0.181-0.075 0.344 0.069 0.525 0.125 0.156 0.15 0.163 0.744 0.163s0.619-0.006 0.744-0.163c0.169-0.219 0.169-0.413-0.012-0.619-0.119-0.144-0.206-0.175-0.544-0.2-0.225-0.019-0.506-0.006-0.625 0.025l-0.219 0.063 0.019-0.637c0.019-0.631 0.019-0.644-0.15-0.775-0.219-0.169-0.413-0.169-0.619 0.012z"></path>
<path d="M9.731 14.881c-0.056 0.037-0.244 0.269-0.406 0.512-0.369 0.563-0.931 1.138-1.419 1.45-0.556 0.363-0.656 0.462-0.656 0.688 0 0.25 0.069 0.331 0.531 0.631 0.563 0.363 1.194 0.994 1.544 1.538 0.494 0.75 0.787 0.769 1.238 0.069 0.387-0.594 0.95-1.163 1.537-1.556 0.531-0.356 0.588-0.419 0.588-0.706 0-0.194-0.125-0.319-0.644-0.663-0.494-0.325-1.031-0.863-1.412-1.431-0.4-0.588-0.6-0.706-0.9-0.531zM11.075 17.706c-0.219 0.169-0.762 0.712-0.931 0.938l-0.137 0.175-0.644-0.644-0.644-0.637 0.625-0.631 0.625-0.625 0.637 0.65 0.644 0.644-0.175 0.131z"></path>
<path d="M16.25 18.831c-0.188 0.044-0.463 0.144-0.6 0.219-0.144 0.069-1.331 0.975-2.644 2.012l-2.381 1.875h-1.113l-0.025-0.344c-0.031-0.369-0.15-0.587-0.45-0.806-0.162-0.125-0.269-0.131-1.713-0.15-1.5-0.019-1.55-0.012-1.825 0.125-0.206 0.106-0.319 0.219-0.419 0.425-0.144 0.275-0.144 0.288-0.144 3.25 0 1.813 0.025 3.056 0.063 3.2 0.094 0.319 0.481 0.656 0.825 0.706 0.15 0.025 0.875 0.031 1.612 0.019 1.487-0.019 1.606-0.050 1.888-0.438 0.113-0.156 0.15-0.313 0.169-0.663 0.019-0.387 0.037-0.45 0.125-0.425 1 0.294 0.831 0.288 5.688 0.288h4.562l0.863-0.156c1.756-0.325 3.087-0.694 3.831-1.063 0.363-0.181 0.575-0.381 1.844-1.731 1.531-1.625 1.694-1.869 1.762-2.512 0.069-0.694-0.337-1.425-0.962-1.725-0.438-0.206-1.081-0.2-1.706 0.025-0.256 0.094-0.519 0.181-0.575 0.2-0.069 0.025-0.131-0.019-0.194-0.144-0.050-0.094-0.2-0.281-0.337-0.419-0.681-0.694-1.813-0.744-2.625-0.125-0.119 0.087-0.55 0.669-0.969 1.294-0.413 0.625-0.775 1.163-0.8 1.194-0.050 0.050-1.4-0.15-1.887-0.281l-0.238-0.063 0.337-0.331c0.9-0.906 1.019-2.319 0.244-3.050-0.431-0.413-1.413-0.594-2.206-0.406zM17.531 19.837c0.3 0.125 0.431 0.363 0.431 0.75-0.006 0.438-0.137 0.663-0.775 1.319-0.837 0.863-1.15 1.587-1.156 2.656 0 0.6 0.1 0.844 0.375 0.913 0.413 0.1 0.694-0.206 0.625-0.681-0.044-0.269 0.056-0.981 0.156-1.175 0.050-0.087 0.156-0.075 1.050 0.106 1.4 0.281 2.712 0.419 3.719 0.387 1.125-0.038 1.4-0.15 1.931-0.75 0.219-0.244 0.531-0.581 0.7-0.75 0.494-0.494 1.5-0.9 2.019-0.819 0.456 0.075 0.719 0.694 0.475 1.125-0.206 0.369-2.712 2.975-3 3.131-0.363 0.188-1.519 0.519-2.844 0.806l-1.081 0.231-9.25 0.044-0.7-0.175-0.706-0.169v-2.85h0.694c0.406 0 0.744-0.031 0.825-0.075 0.075-0.038 1.181-0.887 2.45-1.894 1.275-1 2.4-1.881 2.506-1.956 0.362-0.25 1.156-0.337 1.556-0.175zM23.531 21.181c0.1 0.056 0.25 0.219 0.325 0.35l0.131 0.238-0.35 0.406c-0.831 0.944-0.875 0.962-1.881 0.938l-0.625-0.019 0.531-0.813c0.613-0.938 0.731-1.069 1.063-1.188 0.275-0.1 0.525-0.069 0.806 0.087zM8.5 25.5v2.875l-1.263-0.012-1.269-0.019-0.019-2.863-0.013-2.856h2.563v2.875z"></path>
</symbol>
<symbol id="objectives" viewBox="0 0 32 32">
<path d="M26.125 0.1c-0.256 0.112-5.619 5.425-6.038 5.987-0.494 0.656-0.531 0.894-0.512 3.137 0.012 1.063 0.038 1.975 0.063 2.025 0.031 0.069-0.294 0.444-1.131 1.306l-1.175 1.219-0.306-0.2c-0.763-0.481-1.519-0.7-2.475-0.7-0.806 0-1.425 0.144-2.106 0.5-1.363 0.706-2.256 2.013-2.444 3.556-0.256 2.106 1.037 4.163 3.062 4.85 1.725 0.587 3.55 0.131 4.819-1.2 0.837-0.881 1.244-1.9 1.244-3.131 0-0.969-0.244-1.806-0.75-2.556-0.106-0.156-0.188-0.306-0.175-0.337 0.012-0.025 0.55-0.6 1.194-1.269l1.175-1.219 4.025-0.037 0.444-0.206c0.419-0.2 0.619-0.387 3.481-3.25 2.644-2.65 3.038-3.075 3.075-3.275 0.063-0.319-0.062-0.644-0.319-0.844-0.194-0.144-0.331-0.175-1.2-0.275-0.537-0.063-1.25-0.131-1.569-0.156-0.869-0.063-0.825 0.013-1-1.775-0.156-1.631-0.238-1.913-0.581-2.125-0.244-0.15-0.5-0.156-0.8-0.025zM26.419 2.762c0.075 0.7 0.144 1.313 0.156 1.369s-1.131 1.275-2.919 3.119l-2.937 3.019-0.019-1.394c-0.012-1.162 0-1.45 0.088-1.712 0.094-0.288 0.344-0.556 2.762-2.994 1.469-1.469 2.681-2.669 2.7-2.669s0.094 0.569 0.169 1.263zM28.962 5.225l1.169 0.112-2.644 2.644c-1.456 1.463-2.756 2.712-2.894 2.787-0.231 0.125-0.356 0.137-1.556 0.156-0.831 0.012-1.294 0-1.281-0.037s1.3-1.369 2.856-2.969c2.706-2.781 2.831-2.906 3-2.862 0.094 0.031 0.7 0.106 1.35 0.169zM15.262 14.069c0.344 0.075 0.894 0.3 1.119 0.456 0.125 0.087 0.088 0.137-1.125 1.375-1.2 1.225-1.256 1.294-1.256 1.525 0 0.331 0.238 0.575 0.563 0.575 0.213 0 0.3-0.075 1.5-1.287 1.425-1.444 1.3-1.381 1.6-0.744 0.631 1.35 0.369 2.825-0.687 3.881-0.694 0.694-1.469 1.025-2.4 1.025-1.831 0-3.337-1.413-3.438-3.219-0.037-0.713 0.056-1.15 0.369-1.775 0.675-1.356 2.275-2.125 3.756-1.813z"></path>
<path d="M13.625 3.694c-6.044 0.369-11.269 4.687-12.781 10.575-0.338 1.331-0.431 2.088-0.431 3.544 0 1.7 0.169 2.837 0.656 4.35 1.556 4.856 5.706 8.563 10.694 9.55 6.213 1.231 12.419-1.737 15.356-7.337 1.956-3.731 2.131-8.162 0.488-12.075l-0.256-0.613-0.438 0.425-0.444 0.419 0.237 0.625c1.088 2.831 1.144 6.019 0.156 8.906-1.894 5.531-7.325 9.144-13.162 8.75-4.588-0.313-8.669-3.012-10.75-7.113-0.956-1.881-1.394-3.706-1.394-5.85 0-1.756 0.294-3.313 0.912-4.85 1.538-3.831 4.881-6.775 8.813-7.775 1.262-0.319 1.775-0.375 3.312-0.375 1.594 0.006 2.25 0.088 3.556 0.463l0.675 0.2 0.1-0.15c0.056-0.081 0.238-0.287 0.4-0.463l0.3-0.319-0.594-0.2c-1.706-0.569-3.537-0.8-5.406-0.688z"></path>
<path d="M13.156 7.975c-3.637 0.563-6.606 3.081-7.706 6.525-0.362 1.15-0.419 1.531-0.419 2.969 0.006 1.206 0.019 1.369 0.175 2.038 0.456 1.944 1.331 3.481 2.744 4.844 1.325 1.275 2.881 2.088 4.8 2.5 0.762 0.169 2.863 0.169 3.625 0 2-0.431 3.563-1.275 4.937-2.656 1.756-1.769 2.694-3.9 2.794-6.356 0.056-1.356-0.181-2.787-0.656-3.931l-0.181-0.438-0.631-0.019c-0.35-0.006-0.637 0-0.637 0.019s0.069 0.169 0.15 0.331c0.244 0.481 0.575 1.494 0.694 2.137 0.156 0.794 0.156 2.2 0.006 2.969-0.344 1.788-1.094 3.219-2.35 4.469-1.231 1.231-2.569 1.956-4.269 2.325-0.969 0.206-2.5 0.194-3.456-0.025-1.731-0.406-3.112-1.188-4.325-2.45-0.856-0.894-1.544-2.044-1.913-3.206-0.306-0.988-0.381-1.475-0.375-2.613 0-0.919 0.025-1.156 0.169-1.762 0.394-1.681 1.112-2.981 2.319-4.175 1.425-1.412 3.1-2.194 5.131-2.412 1.344-0.137 2.813 0.106 4.3 0.725 0.094 0.044 0.106-0.012 0.106-0.581v-0.625l-0.45-0.162c-1.4-0.494-3.137-0.663-4.581-0.438z"></path>
</symbol>
<symbol id="vision" viewBox="0 0 32 32">
<path d="M15.688 0.75c-0.119 0.119-0.125 0.206-0.125 1.769 0 1.85 0 1.856 0.45 1.856 0.419 0 0.425-0.031 0.425-1.862 0-1.556-0.006-1.644-0.125-1.762-0.069-0.069-0.206-0.125-0.312-0.125s-0.244 0.056-0.312 0.125z"></path>
<path d="M8.875 2.606c-0.088 0.112-0.125 0.225-0.106 0.331 0.037 0.188 1.375 2.531 1.563 2.731 0.181 0.206 0.494 0.194 0.663-0.019 0.075-0.094 0.131-0.213 0.131-0.275 0-0.112-1.281-2.388-1.544-2.737-0.2-0.269-0.506-0.281-0.706-0.031z"></path>
<path d="M22.456 2.575c-0.2 0.231-1.581 2.656-1.581 2.788 0 0.069 0.056 0.194 0.131 0.287 0.169 0.213 0.481 0.225 0.663 0.019 0.2-0.225 1.581-2.65 1.581-2.781 0-0.069-0.056-0.194-0.131-0.288-0.169-0.212-0.481-0.225-0.663-0.025z"></path>
<path d="M15.437 5.231c-2.887 0.206-5.45 1.806-6.931 4.306-1.213 2.056-1.488 4.763-0.725 7.075 0.213 0.644 0.713 1.631 1.094 2.169 1.381 1.944 1.919 3.075 2.35 4.9 0.156 0.669 0.181 0.731 0.438 0.988l0.275 0.275v1.481l-0.387 0.025c-0.319 0.025-0.406 0.056-0.531 0.2-0.175 0.206-0.181 0.35-0.012 0.563 0.112 0.144 0.169 0.163 0.531 0.163h0.4v0.394c0 0.644 0.144 1.012 0.55 1.419 0.381 0.381 0.775 0.563 1.206 0.563 0.231 0 0.244 0.012 0.406 0.375 0.606 1.35 2.375 1.675 3.394 0.625 0.231-0.238 0.356-0.444 0.5-0.831 0.056-0.144 0.1-0.169 0.312-0.169 0.375 0 0.9-0.225 1.188-0.5 0.394-0.381 0.525-0.694 0.556-1.331l0.025-0.544h0.394c0.356 0 0.413-0.019 0.525-0.163 0.319-0.406 0.012-0.775-0.656-0.775h-0.275v-1.531l0.219-0.175c0.287-0.231 0.363-0.387 0.556-1.181 0.35-1.469 0.956-2.781 2.006-4.356 0.4-0.6 0.831-1.312 0.962-1.594 0.65-1.369 0.931-2.913 0.813-4.425-0.163-2.019-0.981-3.825-2.387-5.281-1.531-1.581-3.35-2.45-5.544-2.644-0.394-0.031-0.775-0.056-0.844-0.050s-0.25 0.019-0.406 0.031zM17.375 6.287c1.544 0.275 2.919 1 4.069 2.144 2.119 2.119 2.819 5.137 1.85 7.975-0.238 0.688-0.613 1.381-1.319 2.425-1.012 1.512-1.675 2.962-2.038 4.481-0.188 0.8-0.206 0.813-1.1 0.813h-0.712l0.012-3.688 0.019-3.694 0.519-0.212c1.019-0.413 2.050-1.075 3.006-1.919 1.069-0.937 1.069-0.975 0.212-1.8-1.375-1.325-3.012-2.225-4.656-2.569-0.856-0.175-1.988-0.144-2.862 0.087-1.456 0.381-2.987 1.275-4.288 2.5-0.531 0.506-0.588 0.575-0.588 0.781s0.050 0.281 0.481 0.688c1.025 0.969 2.362 1.85 3.431 2.269l0.525 0.206-0.012 3.656-0.019 3.663-0.719 0.019c-0.513 0.012-0.75-0.006-0.825-0.063-0.069-0.050-0.194-0.406-0.325-0.925-0.375-1.469-1.012-2.888-1.787-4-0.775-1.106-0.944-1.375-1.181-1.85-0.538-1.087-0.769-2.1-0.769-3.4 0-2.037 0.731-3.869 2.125-5.325 1.806-1.894 4.344-2.719 6.95-2.263zM17.019 11.269c0.506 0.231 0.837 0.506 1.106 0.931 1.019 1.569 0.119 3.606-1.731 3.931-1.419 0.25-2.813-0.856-2.937-2.312-0.088-1.019 0.462-2.019 1.356-2.475 0.431-0.225 0.713-0.281 1.281-0.262 0.456 0.012 0.631 0.050 0.925 0.188zM12.775 12.306c-0.181 0.45-0.275 0.906-0.275 1.35 0 0.363 0.188 1.169 0.344 1.469l0.106 0.2-0.325-0.175c-0.369-0.206-1.363-0.944-1.756-1.3l-0.269-0.244 0.306-0.281c0.569-0.513 1.812-1.387 1.975-1.387 0.025 0-0.025 0.169-0.106 0.369zM19.531 12.169c0.469 0.288 1.194 0.825 1.581 1.175l0.294 0.269-0.306 0.269c-0.606 0.537-1.119 0.912-1.75 1.275l-0.3 0.175 0.1-0.2c0.169-0.319 0.35-1.119 0.35-1.512 0-0.456-0.1-0.931-0.288-1.356-0.075-0.175-0.125-0.325-0.1-0.325s0.212 0.106 0.419 0.231zM15.969 17.094c0.206 0 0.563-0.019 0.8-0.044l0.419-0.044-0.012 3.544-0.019 3.544h-2.312l-0.019-3.544-0.012-3.55 0.388 0.050c0.219 0.025 0.563 0.044 0.769 0.044zM19.125 25.75v0.687h-6.25v-1.375h6.25v0.688zM19.112 27.844c-0.019 0.444-0.031 0.481-0.256 0.706l-0.231 0.231h-5.25l-0.231-0.231c-0.225-0.225-0.237-0.263-0.256-0.706l-0.025-0.469h6.275l-0.025 0.469zM17.006 29.856c-0.075 0.144-0.375 0.425-0.55 0.512-0.413 0.212-1.175-0.019-1.412-0.425l-0.113-0.194h1.069c1 0 1.062 0.006 1.006 0.106z"></path>
<path d="M15.562 12.056c-0.456 0.15-0.869 0.513-1.031 0.906-0.269 0.65-0.138 1.269 0.375 1.769 0.45 0.438 0.975 0.563 1.625 0.387 0.387-0.106 0.869-0.625 1-1.075 0.212-0.737-0.125-1.519-0.806-1.869-0.275-0.137-0.906-0.206-1.162-0.119zM16.35 13.056c0.556 0.338 0.306 1.194-0.356 1.194-0.275 0-0.581-0.225-0.644-0.475-0.1-0.381 0.256-0.838 0.65-0.838 0.087 0 0.244 0.056 0.35 0.119z"></path>
<path d="M3.975 7.506c-0.2 0.156-0.225 0.481-0.044 0.644 0.194 0.175 2.581 1.544 2.756 1.575 0.406 0.088 0.669-0.488 0.362-0.769-0.225-0.2-2.656-1.581-2.787-1.581-0.069 0-0.194 0.056-0.288 0.131z"></path>
<path d="M26.431 8.069c-1.544 0.888-1.619 0.944-1.619 1.213 0 0.231 0.231 0.469 0.45 0.469 0.137 0 2.569-1.381 2.788-1.581 0.2-0.181 0.188-0.494-0.025-0.663-0.094-0.075-0.212-0.131-0.275-0.131-0.056 0-0.65 0.313-1.319 0.694z"></path>
<path d="M2.125 14.312c-0.15 0.15-0.163 0.419-0.025 0.613 0.094 0.138 0.106 0.138 1.775 0.138s1.681 0 1.775-0.138c0.138-0.194 0.125-0.462-0.025-0.613-0.119-0.119-0.206-0.125-1.75-0.125s-1.631 0.006-1.75 0.125z"></path>
<path d="M26.187 14.312c-0.163 0.163-0.163 0.506-0.012 0.644 0.1 0.094 0.325 0.106 1.875 0.106 1.744 0 1.756 0 1.85-0.138 0.138-0.194 0.125-0.462-0.025-0.613-0.119-0.119-0.206-0.125-1.844-0.125s-1.725 0.006-1.844 0.125z"></path>
<path d="M5.325 20.244c-0.694 0.406-1.325 0.794-1.388 0.85-0.075 0.069-0.125 0.194-0.125 0.319 0 0.256 0.263 0.488 0.5 0.444 0.188-0.038 2.531-1.375 2.738-1.563 0.287-0.263 0.069-0.8-0.325-0.788-0.069 0-0.7 0.331-1.4 0.737z"></path>
<path d="M24.975 19.631c-0.212 0.169-0.225 0.481-0.019 0.663 0.206 0.188 2.544 1.525 2.731 1.556 0.406 0.081 0.669-0.488 0.363-0.769-0.225-0.2-2.656-1.581-2.788-1.581-0.069 0-0.194 0.056-0.287 0.131z"></path>
</symbol>
<symbol id="mission" viewBox="0 0 32 32">
<path d="M20.688-0c-0.519 0.131-0.988 0.519-1.231 1.038l-0.175 0.375v3.912c0 4.181 0 4.181 0.313 4.619 0.112 0.162 0.125 0.269 0.125 1.331v1.156l-1.513 0.025c-1.675 0.031-1.912 0.075-2.719 0.456-0.581 0.275-0.944 0.525-1.363 0.938-0.45 0.45-0.662 0.775-1.137 1.731-0.344 0.681-0.481 0.894-0.825 1.238-0.475 0.469-1.025 0.8-1.656 0.994-0.519 0.163-0.656 0.163-0.7 0.019-0.112-0.363-0.331-0.737-0.531-0.919-0.456-0.413-0.544-0.438-1.7-0.456-1.031-0.025-1.056-0.019-1.388 0.144-0.431 0.206-0.813 0.637-0.95 1.069l-0.1 0.331-3.45 0.038-0.356 0.181c-0.481 0.244-0.9 0.675-1.137 1.163l-0.194 0.406v8.563l0.169 0.363c0.238 0.5 0.719 0.988 1.194 1.206l0.387 0.181 3.463 0.038 0.069 0.212c0.1 0.312 0.519 0.75 0.888 0.931 0.306 0.156 0.375 0.163 1.325 0.163 0.85 0 1.044-0.019 1.263-0.119 0.381-0.175 0.731-0.512 0.9-0.881l0.15-0.319 2.694 0.025c2.312 0.019 2.737 0.038 3.056 0.131 0.525 0.156 0.975 0.369 1.412 0.663 0.519 0.35 1.181 0.656 1.781 0.825 0.456 0.125 0.681 0.138 2.519 0.163 1.906 0.019 2.038 0.019 2.438-0.106 1.481-0.463 2.094-2.15 1.263-3.469-0.106-0.163-0.188-0.306-0.175-0.313 0.012-0.012 0.119-0.075 0.237-0.15 1.1-0.663 1.45-2.113 0.781-3.225l-0.206-0.344 0.269-0.156c0.381-0.225 0.819-0.737 0.962-1.137 0.294-0.775 0.212-1.506-0.25-2.175l-0.25-0.369 0.144-0.094c0.306-0.206 0.637-0.613 0.819-1.006 0.25-0.531 0.269-1.212 0.050-1.775-0.2-0.506-0.706-1.038-1.206-1.269l-0.394-0.181-3.219-0.038v-2.975c0-2.881 0.006-2.975 0.125-3.144 0.069-0.1 0.169-0.281 0.219-0.4l0.094-0.219 3.262-0.037 0.15-0.175c0.181-0.213 0.188-0.35 0.019-0.569l-0.125-0.162h-3.244v-6.625h7.637l0.181 0.181c0.206 0.212 0.238 0.462 0.075 0.694-0.056 0.087-0.506 0.612-0.994 1.169s-0.906 1.063-0.925 1.131c-0.025 0.063-0.019 0.181 0.012 0.256 0.025 0.069 0.475 0.625 1 1.225 1.006 1.15 1.1 1.313 0.925 1.644-0.144 0.281-0.356 0.325-1.7 0.325-1.131 0-5.415-0.009-5.534 0.11-0.156 0.156-0.163 0.444-0.006 0.631 0.119 0.15 4.321 0.165 5.684 0.165 1.556 0 1.706-0.031 2.113-0.438 0.481-0.481 0.594-1.237 0.269-1.781-0.081-0.131-0.494-0.638-0.913-1.125-0.7-0.8-0.762-0.894-0.681-0.987 1.231-1.394 1.613-1.875 1.706-2.156 0.231-0.7-0.081-1.45-0.756-1.813-0.25-0.137-0.287-0.137-4.319-0.156l-4.069-0.019-0.087-0.162c-0.288-0.531-1.25-0.881-1.962-0.713zM21.594 1.019c0.112 0.081 0.269 0.225 0.337 0.319 0.131 0.175 0.131 0.231 0.15 3.944l0.012 3.763-0.144 0.269c-0.331 0.637-1.188 0.675-1.587 0.075l-0.144-0.213v-7.65l0.144-0.206c0.288-0.425 0.85-0.556 1.231-0.3zM21.594 13.425v2.706h-0.938v-5.406h0.938v2.7zM19.719 14.756v1.375h-1.019c-0.938 0-1.031 0.012-1.156 0.125-0.2 0.188-0.188 0.512 0.025 0.681 0.163 0.131 0.219 0.131 4.050 0.131 4.387 0 4.169-0.019 4.613 0.5 0.563 0.65 0.394 1.644-0.344 2.069-0.25 0.144-0.325 0.15-1.65 0.181s-1.394 0.038-1.525 0.169c-0.169 0.169-0.181 0.469-0.025 0.644 0.106 0.113 0.194 0.125 1.056 0.125 0.519 0 1.069 0.031 1.225 0.069 1.137 0.256 1.487 1.675 0.594 2.419-0.356 0.288-0.581 0.325-2.056 0.325-0.75 0-1.406 0.025-1.469 0.063-0.181 0.094-0.281 0.4-0.188 0.575 0.15 0.281 0.225 0.294 1.281 0.3 0.981 0 1.019 0.006 1.344 0.175 0.462 0.238 0.694 0.581 0.731 1.069 0.031 0.444-0.063 0.756-0.319 1.044-0.363 0.419-0.413 0.425-2.094 0.463l-1.525 0.031-0.15 0.175c-0.181 0.212-0.188 0.35-0.025 0.563 0.119 0.15 0.137 0.156 1.2 0.181 1.212 0.031 1.413 0.088 1.781 0.513 0.575 0.65 0.369 1.706-0.413 2.112l-0.331 0.175h-1.813c-2.394 0-2.863-0.094-3.962-0.8-0.644-0.413-1.188-0.662-1.806-0.837-0.475-0.131-0.65-0.137-3.2-0.163l-2.706-0.019v-2.181c0-2.031 0.006-7.214-0.106-7.351-0.162-0.2-0.537-0.2-0.7 0-0.113 0.137-0.131 5.326-0.131 7.67 0 2.762-0.006 2.825-0.387 3.056-0.181 0.106-0.313 0.125-1.019 0.125-0.694 0-0.844-0.019-1.013-0.125-0.419-0.25-0.394 0.125-0.394-6.437s-0.025-6.188 0.394-6.438c0.169-0.106 0.319-0.125 1.013-0.125 0.706 0 0.837 0.019 1.019 0.125 0.381 0.231 0.387 0.3 0.387 2.988 0 2.369 0.006 2.438 0.131 2.6 0.162 0.206 0.456 0.219 0.663 0.025l0.144-0.131v-4.075l0.519-0.1c0.863-0.169 1.637-0.563 2.313-1.181 0.494-0.45 0.837-0.956 1.262-1.844 0.325-0.675 0.412-0.8 0.875-1.256 0.387-0.387 0.631-0.569 0.988-0.738 0.712-0.344 1.075-0.4 2.594-0.406l1.325-0.006v1.375zM5.156 24.069v5.125h-1.575c-1.4 0-1.613-0.019-1.837-0.119-0.306-0.144-0.669-0.55-0.762-0.875-0.106-0.338-0.106-7.925 0-8.263 0.094-0.325 0.456-0.731 0.762-0.875 0.225-0.1 0.438-0.119 1.837-0.119h1.575v5.125z"></path>
</symbol>
<symbol id="instagram" viewBox="0 0 32 32">
<path d="M24.583 27.916h-17.165c-0.884 0-1.732-0.351-2.357-0.976s-0.976-1.473-0.976-2.357v-17.165c0-0.884 0.351-1.732 0.976-2.357s1.473-0.976 2.357-0.976h17.165c0.884 0 1.732 0.351 2.357 0.976s0.976 1.473 0.976 2.357v17.165c0 0.884-0.351 1.732-0.976 2.357s-1.473 0.976-2.357 0.976zM7.417 5.417c-0.53 0-1.039 0.211-1.414 0.586s-0.586 0.884-0.586 1.414v17.165c0 0.53 0.211 1.039 0.586 1.414s0.884 0.586 1.414 0.586h17.165c0.53 0 1.039-0.211 1.414-0.586s0.586-0.884 0.586-1.414v-17.165c0-0.53-0.211-1.039-0.586-1.414s-0.884-0.586-1.414-0.586h-17.165z"></path>
<path d="M16 22.125c-1.212-0.001-2.395-0.362-3.402-1.036s-1.791-1.631-2.254-2.751c-0.463-1.12-0.583-2.351-0.346-3.54s0.821-2.279 1.679-3.135c0.857-0.856 1.949-1.439 3.137-1.675s2.42-0.114 3.539 0.35c1.119 0.464 2.075 1.25 2.748 2.257s1.032 2.192 1.031 3.403c-0.002 1.625-0.649 3.183-1.799 4.332s-2.709 1.794-4.334 1.794zM16 11.2c-0.947 0.001-1.873 0.283-2.66 0.811s-1.401 1.276-1.763 2.152c-0.362 0.876-0.456 1.839-0.271 2.768s0.642 1.783 1.312 2.453c0.67 0.67 1.524 1.126 2.453 1.311s1.892 0.091 2.768-0.271c0.876-0.362 1.624-0.975 2.151-1.763s0.809-1.713 0.811-2.66c0-1.273-0.506-2.494-1.406-3.394s-2.121-1.406-3.394-1.406z"></path>
<path d="M22.933 10.54c0.792 0 1.433-0.642 1.433-1.433s-0.642-1.433-1.433-1.433c-0.792 0-1.433 0.642-1.433 1.433s0.642 1.433 1.433 1.433z"></path>
</symbol>
<symbol id="facebook" viewBox="0 0 32 32">
<path stroke-linejoin="round" stroke-linecap="round" stroke-miterlimit="4" stroke-width="1.1636" d="M4.364 25.79v-20.308c0-0.49 0.194-0.959 0.541-1.305s0.816-0.541 1.305-0.541h20.308c0.49 0 0.959 0.195 1.305 0.541s0.541 0.816 0.541 1.305v20.308c0 0.49-0.194 0.959-0.541 1.305s-0.816 0.541-1.305 0.541h-5.538v-8.751h1.311c0.299 0 0.585-0.119 0.796-0.33s0.33-0.498 0.33-0.796v-1.422c0-0.299-0.119-0.585-0.33-0.796s-0.498-0.33-0.796-0.33h-1.237v-1.735c0-1.551 0.702-1.551 1.403-1.551h0.905c0.149 0.006 0.297-0.021 0.434-0.078s0.26-0.144 0.36-0.254c0.107-0.102 0.192-0.225 0.249-0.362s0.085-0.284 0.083-0.432v-1.366c0.005-0.15-0.020-0.3-0.073-0.441s-0.133-0.27-0.236-0.379c-0.103-0.11-0.226-0.198-0.363-0.26s-0.285-0.096-0.435-0.101h-2.123c-0.619-0.023-1.237 0.088-1.809 0.327s-1.086 0.598-1.505 1.055c-0.419 0.456-0.735 0.998-0.925 1.589s-0.249 1.215-0.174 1.83v2.16h-1.182c-0.149-0.002-0.298 0.025-0.437 0.080s-0.265 0.138-0.372 0.243-0.191 0.23-0.249 0.368c-0.058 0.138-0.088 0.286-0.088 0.435v1.422c0 0.149 0.030 0.297 0.088 0.435s0.142 0.263 0.249 0.368c0.107 0.105 0.233 0.187 0.372 0.243s0.287 0.083 0.437 0.080h1.182v8.751h-10.634c-0.49 0-0.959-0.194-1.305-0.541s-0.541-0.816-0.541-1.305z"></path>
</symbol>
<symbol id="arrow-ctrl-down" viewBox="0 0 32 32">
<path d="M26.433 11.043c0.127-0.12 0.277-0.214 0.441-0.277s0.338-0.092 0.513-0.087c0.175 0.005 0.347 0.044 0.507 0.116s0.304 0.174 0.424 0.301 0.214 0.277 0.277 0.441c0.062 0.164 0.092 0.338 0.087 0.513s-0.045 0.347-0.116 0.507-0.174 0.304-0.301 0.424l-12 11.333c-0.248 0.234-0.575 0.364-0.916 0.364s-0.668-0.13-0.916-0.364l-12.001-11.333c-0.13-0.12-0.235-0.264-0.309-0.424s-0.115-0.334-0.121-0.51c-0.006-0.177 0.023-0.353 0.085-0.518s0.157-0.316 0.278-0.445c0.121-0.128 0.267-0.232 0.428-0.303s0.336-0.111 0.512-0.114c0.177-0.004 0.352 0.027 0.517 0.092s0.314 0.161 0.441 0.284l11.087 10.469 11.084-10.469z"></path>
</symbol>
<symbol id="heart" viewBox="0 0 32 32">
<path stroke-linejoin="miter" stroke-linecap="round" stroke-miterlimit="4" stroke-width="3.3333" d="M12.038 5.046c-0.612-0.825-2.572-2.276-5.512-1.484-3.675 0.989-4.232 4.781-3.675 6.926s0.836 2.445 2.507 4.845c2.298 3.3 9.47 10.8 11.976 12.9"></path>
<path stroke-linejoin="miter" stroke-linecap="round" stroke-miterlimit="4" stroke-width="3.3333" d="M12.038 12.715l7.349-7.421c1.29-1.237 3.24-2.56 5.971-1.237 4.51 2.185 3.953 5.876 3.953 5.876s-0.279 2.1-1.427 3.523"></path>
<path stroke-linejoin="miter" stroke-linecap="round" stroke-miterlimit="4" stroke-width="3.3333" d="M15.664 18.333l5.316 5.484"></path>
<path stroke-linejoin="miter" stroke-linecap="round" stroke-miterlimit="4" stroke-width="3.3333" d="M19.006 13.533l5.316 5.484"></path>
</symbol>
<symbol id="arrow-up-right" viewBox="0 0 32 32">
<path d="M8 9.333c0 0.733 0.6 1.333 1.333 1.333h10.12l-11.84 11.84c-0.123 0.123-0.221 0.27-0.288 0.431s-0.101 0.334-0.101 0.509 0.034 0.347 0.101 0.509c0.067 0.161 0.165 0.308 0.288 0.431s0.27 0.221 0.431 0.288c0.161 0.067 0.334 0.101 0.509 0.101s0.347-0.034 0.509-0.101c0.161-0.067 0.308-0.165 0.431-0.288l11.84-11.84v10.12c0 0.733 0.6 1.333 1.333 1.333s1.333-0.6 1.333-1.333v-13.333c0-0.733-0.6-1.333-1.333-1.333h-13.333c-0.733 0-1.333 0.6-1.333 1.333z"></path>
</symbol>
</defs>
</svg>
