<svg aria-hidden="true" style="position: absolute; width: 0; height: 0; overflow: hidden;" version="1.1" xmlns="http://www.w3.org/2000/svg" xmlns:xlink="http://www.w3.org/1999/xlink">
<defs>

<symbol id="heart" viewBox="0 0 32 32">
<path d="M8.731 1.708c-0.799-0.050-1.67 0.025-2.585 0.276-2.365 0.648-3.9 2.363-4.587 4.132s-0.69 3.569-0.316 5.033c0.587 2.298 1.1 3.067 2.776 5.516 2.573 3.759 9.563 11.174 12.396 13.589 0.293 0.251 0.676 0.403 1.095 0.403 0.513 0 0.973-0.229 1.283-0.59l0.002-0.002c0.251-0.293 0.404-0.677 0.404-1.096 0-0.514-0.229-0.974-0.591-1.284l-0.002-0.002c-2.231-1.902-9.729-9.902-11.799-12.925-1.7-2.485-1.751-2.333-2.29-4.443-0.189-0.74-0.191-1.991 0.191-2.976s0.983-1.727 2.33-2.095c1.139-0.312 1.959-0.175 2.592 0.078s1.083 0.702 1.165 0.814c0.311 0.422 0.806 0.693 1.364 0.693 0.375 0 0.721-0.122 1.001-0.329l-0.005 0.003c0.422-0.311 0.693-0.806 0.693-1.364 0-0.375-0.122-0.721-0.329-1.001l0.003 0.005c-0.537-0.736-1.387-1.457-2.641-1.958-0.627-0.251-1.354-0.426-2.153-0.476z"></path>
<path d="M23.813 1.899c-0.822-0.061-1.601 0.041-2.288 0.267-1.375 0.452-2.379 1.295-3.12 2.017l-0.017 0.016-7.438 7.642c-0.296 0.304-0.479 0.72-0.479 1.179 0 0.474 0.195 0.903 0.51 1.21v0c0.304 0.296 0.72 0.479 1.178 0.479 0.475 0 0.904-0.196 1.211-0.511v0l7.394-7.597c0.562-0.548 1.192-1.020 1.816-1.226s1.252-0.249 2.288 0.262c1.915 0.944 2.554 2.037 2.856 2.903s0.214 1.373 0.214 1.373l-0.003 0.016-0.002 0.014c0 0-0.35 1.856-1.090 2.79-0.228 0.285-0.366 0.651-0.366 1.050 0 0.535 0.249 1.012 0.637 1.321l0.003 0.003c0.285 0.228 0.651 0.366 1.049 0.366 0.535 0 1.012-0.249 1.321-0.636l0.003-0.003c1.571-1.982 1.788-4.41 1.79-4.436 0.003-0.021 0.187-1.388-0.365-2.969-0.556-1.593-1.913-3.518-4.554-4.819-0.861-0.425-1.727-0.648-2.549-0.708z"></path>
<path d="M15.863 17.106c-0.012 0-0.027-0.001-0.042-0.001-0.452 0-0.862 0.177-1.165 0.466l0.001-0.001c-0.323 0.308-0.523 0.742-0.523 1.222 0 0.452 0.178 0.862 0.467 1.166l-0.001-0.001 5.37 5.637c0.308 0.323 0.742 0.524 1.223 0.524 0.452 0 0.863-0.178 1.166-0.467l-0.001 0.001c0.323-0.308 0.524-0.742 0.524-1.223 0-0.452-0.178-0.863-0.467-1.166l-5.369-5.635c-0.299-0.313-0.717-0.511-1.18-0.523h-0.002z"></path>
<path d="M19.238 12.172c-0.011 0-0.025 0-0.038 0-0.453 0-0.864 0.178-1.167 0.468l0.001-0.001c-0.323 0.308-0.523 0.742-0.523 1.222 0 0.452 0.177 0.862 0.467 1.166l-0.001-0.001 5.37 5.635c0.308 0.323 0.742 0.524 1.223 0.524 0.452 0 0.862-0.177 1.165-0.466l-0.001 0.001c0.324-0.308 0.525-0.743 0.525-1.224 0-0.452-0.177-0.862-0.467-1.166l0.001 0.001-5.372-5.635c-0.299-0.314-0.716-0.512-1.18-0.524h-0.002z"></path>
</symbol>

<symbol id="burger-menu" viewBox="0 0 32 32">
<path d="M5.333 7.111c-0.491 0-0.889 0.398-0.889 0.889v0c0 0.491 0.398 0.889 0.889 0.889v0h21.333c0.491 0 0.889-0.398 0.889-0.889v0c0-0.491-0.398-0.889-0.889-0.889v0zM5.333 15.111c-0.491 0-0.889 0.398-0.889 0.889v0c0 0.491 0.398 0.889 0.889 0.889v0h21.333c0.491 0 0.889-0.398 0.889-0.889v0c0-0.491-0.398-0.889-0.889-0.889v0zM5.333 23.111c-0.491 0-0.889 0.398-0.889 0.889v0c0 0.491 0.398 0.889 0.889 0.889v0h21.333c0.491 0 0.889-0.398 0.889-0.889v0c0-0.491-0.398-0.889-0.889-0.889v0z"></path>
</symbol>

<symbol id="logo-header" width="130" height="48" viewBox="0 0 130 48" fill="none" xmlns="http://www.w3.org/2000/svg">
<path d="M18.4674 7.80454C17.5279 6.51758 14.5214 4.25252 10.0117 5.48801C4.37461 7.03236 3.52007 12.9509 4.37461 16.2986C5.22915 19.6462 5.65643 20.1145 8.22012 23.8604C11.7452 29.011 22.7477 40.7169 26.5932 43.9945" stroke="#FC936D" stroke-width="5.13097" stroke-linecap="round"/>
<path d="M18.4678 19.7736L29.742 8.19091C31.721 6.26047 34.7119 4.19467 38.9023 6.26046C45.8213 9.67139 44.9667 15.4323 44.9667 15.4323C44.9667 15.4323 44.5394 18.7099 42.7778 20.9319" stroke="#FC936D" stroke-width="5.13097" stroke-linecap="round"/>
<path d="M24.0298 28.543L32.1856 37.1026" stroke="#FC936D" stroke-width="5.13097" stroke-linecap="round"/>
<path d="M29.1567 21.0514L37.3126 29.6111" stroke="#FC936D" stroke-width="5.13097" stroke-linecap="round"/>
<line x1="59" y1="7" x2="59" y2="43" stroke="#0E0E0E" stroke-width="2" stroke-linecap="round"/>
<path d="M70.096 21.112C69.8613 21.112 69.68 21.048 69.552 20.92C69.424 20.7813 69.36 20.5893 69.36 20.344V10.376C69.36 10.12 69.424 9.928 69.552 9.8C69.68 9.672 69.8613 9.608 70.096 9.608C70.3413 9.608 70.528 9.672 70.656 9.8C70.784 9.928 70.848 10.12 70.848 10.376V20.344C70.848 20.5893 70.784 20.7813 70.656 20.92C70.5387 21.048 70.352 21.112 70.096 21.112ZM80.2954 21.112C80.0927 21.112 79.9167 21.064 79.7674 20.968C79.618 20.8613 79.5007 20.6907 79.4154 20.456L77.0314 14.104C76.9567 13.9013 76.9354 13.7253 76.9674 13.576C76.9994 13.4267 77.074 13.3093 77.1914 13.224C77.3087 13.1387 77.4634 13.096 77.6554 13.096C77.8367 13.096 77.9807 13.1387 78.0874 13.224C78.194 13.3093 78.2847 13.464 78.3594 13.688L80.5354 19.832H80.1514L82.3914 13.656C82.466 13.464 82.562 13.3253 82.6794 13.24C82.8074 13.144 82.962 13.096 83.1434 13.096C83.3354 13.096 83.4954 13.144 83.6234 13.24C83.7514 13.3253 83.842 13.464 83.8954 13.656L86.1034 19.832H85.7354L87.9434 13.656C88.018 13.4427 88.114 13.2987 88.2314 13.224C88.3487 13.1387 88.4927 13.096 88.6634 13.096C88.8554 13.096 88.9994 13.144 89.0954 13.24C89.1914 13.336 89.2447 13.464 89.2554 13.624C89.2767 13.7733 89.2554 13.9333 89.1914 14.104L86.8074 20.456C86.7327 20.68 86.6154 20.8453 86.4554 20.952C86.306 21.0587 86.13 21.112 85.9274 21.112C85.7247 21.112 85.5434 21.0587 85.3834 20.952C85.234 20.8453 85.1167 20.68 85.0314 20.456L82.7434 14.184H83.4794L81.1914 20.456C81.106 20.68 80.9887 20.8453 80.8394 20.952C80.69 21.0587 80.5087 21.112 80.2954 21.112ZM91.7474 21.08C91.5234 21.08 91.3474 21.0107 91.2194 20.872C91.0914 20.7333 91.0274 20.5413 91.0274 20.296V13.912C91.0274 13.656 91.0914 13.464 91.2194 13.336C91.3474 13.1973 91.5234 13.128 91.7474 13.128C91.982 13.128 92.1634 13.1973 92.2914 13.336C92.4194 13.464 92.4834 13.656 92.4834 13.912V20.296C92.4834 20.5413 92.4194 20.7333 92.2914 20.872C92.174 21.0107 91.9927 21.08 91.7474 21.08ZM91.7474 11.4C91.4594 11.4 91.23 11.3253 91.0594 11.176C90.8994 11.016 90.8194 10.808 90.8194 10.552C90.8194 10.2747 90.8994 10.0667 91.0594 9.928C91.23 9.77867 91.4594 9.704 91.7474 9.704C92.0567 9.704 92.286 9.77867 92.4354 9.928C92.5954 10.0667 92.6754 10.2747 92.6754 10.552C92.6754 10.808 92.5954 11.016 92.4354 11.176C92.286 11.3253 92.0567 11.4 91.7474 11.4ZM97.2723 21.144C96.4723 21.144 95.8643 20.9093 95.4483 20.44C95.0323 19.96 94.8243 19.272 94.8243 18.376V10.344C94.8243 10.0987 94.8883 9.91733 95.0163 9.8C95.1443 9.672 95.3203 9.608 95.5443 9.608C95.7789 9.608 95.9603 9.672 96.0883 9.8C96.2163 9.91733 96.2803 10.0987 96.2803 10.344V18.264C96.2803 18.8187 96.3923 19.2347 96.6163 19.512C96.8509 19.7787 97.1816 19.912 97.6083 19.912C97.7043 19.912 97.7896 19.912 97.8643 19.912C97.9389 19.9013 98.0136 19.8907 98.0883 19.88C98.2056 19.8693 98.2909 19.9013 98.3443 19.976C98.3976 20.0507 98.4243 20.2 98.4243 20.424C98.4243 20.6267 98.3763 20.7867 98.2803 20.904C98.1949 21.0107 98.0509 21.08 97.8483 21.112C97.7523 21.1227 97.6563 21.128 97.5603 21.128C97.4643 21.1387 97.3683 21.144 97.2723 21.144ZM102.085 21.144C101.285 21.144 100.677 20.9093 100.261 20.44C99.8448 19.96 99.6368 19.272 99.6368 18.376V10.344C99.6368 10.0987 99.7008 9.91733 99.8288 9.8C99.9568 9.672 100.133 9.608 100.357 9.608C100.591 9.608 100.773 9.672 100.901 9.8C101.029 9.91733 101.093 10.0987 101.093 10.344V18.264C101.093 18.8187 101.205 19.2347 101.429 19.512C101.663 19.7787 101.994 19.912 102.421 19.912C102.517 19.912 102.602 19.912 102.677 19.912C102.751 19.9013 102.826 19.8907 102.901 19.88C103.018 19.8693 103.103 19.9013 103.157 19.976C103.21 20.0507 103.237 20.2 103.237 20.424C103.237 20.6267 103.189 20.7867 103.093 20.904C103.007 21.0107 102.863 21.08 102.661 21.112C102.565 21.1227 102.469 21.128 102.373 21.128C102.277 21.1387 102.181 21.144 102.085 21.144ZM69.888 39.112C69.664 39.112 69.488 39.048 69.36 38.92C69.232 38.792 69.168 38.6053 69.168 38.36V28.344C69.168 28.0987 69.232 27.9173 69.36 27.8C69.488 27.672 69.664 27.608 69.888 27.608C70.1227 27.608 70.304 27.672 70.432 27.8C70.56 27.9173 70.624 28.0987 70.624 28.344V32.904H70.416C70.64 32.296 71.0027 31.8373 71.504 31.528C72.016 31.2187 72.5973 31.064 73.248 31.064C73.8773 31.064 74.3947 31.1813 74.8 31.416C75.2053 31.64 75.5093 31.9813 75.712 32.44C75.9147 32.8987 76.016 33.4747 76.016 34.168V38.36C76.016 38.6053 75.952 38.792 75.824 38.92C75.7067 39.048 75.5307 39.112 75.296 39.112C75.0613 39.112 74.88 39.048 74.752 38.92C74.624 38.792 74.56 38.6053 74.56 38.36V34.248C74.56 33.5547 74.4267 33.048 74.16 32.728C73.8933 32.408 73.4667 32.248 72.88 32.248C72.1973 32.248 71.648 32.4613 71.232 32.888C70.8267 33.304 70.624 33.8693 70.624 34.584V38.36C70.624 38.8613 70.3787 39.112 69.888 39.112ZM81.9243 39.144C81.0816 39.144 80.3563 38.984 79.7483 38.664C79.1509 38.3333 78.6869 37.8693 78.3563 37.272C78.0256 36.664 77.8603 35.9493 77.8603 35.128C77.8603 34.3173 78.0203 33.608 78.3403 33C78.6709 32.392 79.1189 31.9173 79.6843 31.576C80.2603 31.2347 80.9163 31.064 81.6523 31.064C82.1749 31.064 82.6443 31.1547 83.0603 31.336C83.4869 31.5067 83.8496 31.7573 84.1483 32.088C84.4469 32.4187 84.6709 32.824 84.8203 33.304C84.9803 33.7733 85.0603 34.3067 85.0603 34.904C85.0603 35.0747 85.0069 35.208 84.9003 35.304C84.8043 35.3893 84.6603 35.432 84.4683 35.432H78.9963V34.504H84.1003L83.8283 34.728C83.8283 34.1733 83.7429 33.704 83.5723 33.32C83.4123 32.9253 83.1723 32.6267 82.8523 32.424C82.5429 32.2213 82.1536 32.12 81.6843 32.12C81.1723 32.12 80.7349 32.2427 80.3723 32.488C80.0096 32.7227 79.7323 33.0587 79.5403 33.496C79.3483 33.9227 79.2523 34.4187 79.2523 34.984V35.08C79.2523 36.04 79.4816 36.7653 79.9403 37.256C80.3989 37.7467 81.0603 37.992 81.9243 37.992C82.2656 37.992 82.6123 37.9493 82.9643 37.864C83.3269 37.7787 83.6736 37.624 84.0043 37.4C84.1643 37.304 84.3083 37.2613 84.4363 37.272C84.5749 37.272 84.6869 37.3147 84.7723 37.4C84.8576 37.4747 84.9109 37.5707 84.9323 37.688C84.9536 37.7947 84.9376 37.912 84.8843 38.04C84.8309 38.168 84.7296 38.28 84.5803 38.376C84.2283 38.6213 83.8069 38.8133 83.3163 38.952C82.8363 39.08 82.3723 39.144 81.9243 39.144ZM89.3191 39.144C88.5191 39.144 87.9111 38.9093 87.4951 38.44C87.0791 37.96 86.8711 37.272 86.8711 36.376V28.344C86.8711 28.0987 86.9351 27.9173 87.0631 27.8C87.1911 27.672 87.3671 27.608 87.5911 27.608C87.8258 27.608 88.0071 27.672 88.1351 27.8C88.2631 27.9173 88.3271 28.0987 88.3271 28.344V36.264C88.3271 36.8187 88.4391 37.2347 88.6631 37.512C88.8978 37.7787 89.2285 37.912 89.6551 37.912C89.7511 37.912 89.8365 37.912 89.9111 37.912C89.9858 37.9013 90.0605 37.8907 90.1351 37.88C90.2525 37.8693 90.3378 37.9013 90.3911 37.976C90.4445 38.0507 90.4711 38.2 90.4711 38.424C90.4711 38.6267 90.4231 38.7867 90.3271 38.904C90.2418 39.0107 90.0978 39.08 89.8951 39.112C89.7991 39.1227 89.7031 39.128 89.6071 39.128C89.5111 39.1387 89.4151 39.144 89.3191 39.144ZM92.4036 41.992C92.1796 41.992 92.0036 41.928 91.8756 41.8C91.7476 41.672 91.6836 41.4907 91.6836 41.256V31.832C91.6836 31.5867 91.7476 31.4053 91.8756 31.288C92.0036 31.16 92.1796 31.096 92.4036 31.096C92.6383 31.096 92.8143 31.16 92.9316 31.288C93.0596 31.4053 93.1236 31.5867 93.1236 31.832V33.288L92.9476 33C93.1183 32.4133 93.4543 31.944 93.9556 31.592C94.457 31.24 95.0596 31.064 95.7636 31.064C96.457 31.064 97.0596 31.2293 97.5716 31.56C98.0836 31.88 98.4836 32.344 98.7716 32.952C99.0596 33.5493 99.2036 34.264 99.2036 35.096C99.2036 35.9173 99.0596 36.6373 98.7716 37.256C98.4943 37.864 98.0943 38.3333 97.5716 38.664C97.0596 38.984 96.457 39.144 95.7636 39.144C95.0703 39.144 94.473 38.968 93.9716 38.616C93.4703 38.264 93.1343 37.8 92.9636 37.224H93.1396V41.256C93.1396 41.4907 93.0756 41.672 92.9476 41.8C92.8196 41.928 92.6383 41.992 92.4036 41.992ZM95.4276 37.992C95.8863 37.992 96.2863 37.88 96.6276 37.656C96.9796 37.432 97.2516 37.1067 97.4436 36.68C97.6356 36.2533 97.7316 35.7253 97.7316 35.096C97.7316 34.1573 97.5236 33.4427 97.1076 32.952C96.6916 32.4613 96.1316 32.216 95.4276 32.216C94.9583 32.216 94.5476 32.328 94.1956 32.552C93.8543 32.7653 93.5876 33.0853 93.3956 33.512C93.2143 33.9387 93.1236 34.4667 93.1236 35.096C93.1236 36.0347 93.3316 36.7547 93.7476 37.256C94.1636 37.7467 94.7236 37.992 95.4276 37.992ZM107.038 41.992C106.867 41.992 106.723 41.944 106.606 41.848C106.499 41.7627 106.435 41.64 106.414 41.48C106.403 41.3307 106.435 41.1707 106.51 41L107.598 38.536V39.144L104.574 32.104C104.499 31.9227 104.473 31.7573 104.494 31.608C104.515 31.4587 104.585 31.336 104.702 31.24C104.83 31.144 105.001 31.096 105.214 31.096C105.395 31.096 105.539 31.1387 105.646 31.224C105.753 31.3093 105.854 31.4587 105.95 31.672L108.462 37.864H108.014L110.574 31.672C110.659 31.4587 110.761 31.3093 110.878 31.224C110.995 31.1387 111.155 31.096 111.358 31.096C111.539 31.096 111.678 31.144 111.774 31.24C111.881 31.336 111.945 31.4587 111.966 31.608C111.987 31.7573 111.955 31.9173 111.87 32.088L107.838 41.416C107.731 41.64 107.619 41.7893 107.502 41.864C107.395 41.9493 107.241 41.992 107.038 41.992ZM116.699 39.144C115.931 39.144 115.264 38.9787 114.699 38.648C114.133 38.3173 113.696 37.848 113.387 37.24C113.077 36.632 112.923 35.9173 112.923 35.096C112.923 34.4773 113.008 33.9227 113.179 33.432C113.36 32.9307 113.616 32.504 113.947 32.152C114.277 31.8 114.672 31.5333 115.131 31.352C115.6 31.16 116.123 31.064 116.699 31.064C117.467 31.064 118.133 31.2293 118.699 31.56C119.264 31.8907 119.701 32.36 120.011 32.968C120.32 33.5653 120.475 34.2747 120.475 35.096C120.475 35.7147 120.384 36.2747 120.203 36.776C120.032 37.2773 119.781 37.704 119.451 38.056C119.12 38.408 118.72 38.68 118.251 38.872C117.792 39.0533 117.275 39.144 116.699 39.144ZM116.699 37.992C117.168 37.992 117.573 37.88 117.915 37.656C118.267 37.432 118.533 37.1067 118.715 36.68C118.907 36.2533 119.003 35.7253 119.003 35.096C119.003 34.1573 118.795 33.4427 118.379 32.952C117.963 32.4613 117.403 32.216 116.699 32.216C116.24 32.216 115.835 32.328 115.483 32.552C115.141 32.7653 114.875 33.0853 114.683 33.512C114.491 33.9387 114.395 34.4667 114.395 35.096C114.395 36.0347 114.603 36.7547 115.019 37.256C115.445 37.7467 116.005 37.992 116.699 37.992ZM125.124 39.144C124.495 39.144 123.967 39.0267 123.54 38.792C123.124 38.5573 122.815 38.2107 122.612 37.752C122.409 37.2933 122.308 36.7173 122.308 36.024V31.832C122.308 31.5867 122.367 31.4053 122.484 31.288C122.612 31.16 122.793 31.096 123.028 31.096C123.263 31.096 123.444 31.16 123.572 31.288C123.7 31.4053 123.764 31.5867 123.764 31.832V36.024C123.764 36.6853 123.897 37.176 124.164 37.496C124.431 37.8053 124.852 37.96 125.428 37.96C126.068 37.96 126.585 37.7467 126.98 37.32C127.385 36.8933 127.588 36.328 127.588 35.624V31.832C127.588 31.5867 127.647 31.4053 127.764 31.288C127.892 31.16 128.073 31.096 128.308 31.096C128.543 31.096 128.724 31.16 128.852 31.288C128.98 31.4053 129.044 31.5867 129.044 31.832V38.36C129.044 38.8613 128.809 39.112 128.34 39.112C128.105 39.112 127.924 39.048 127.796 38.92C127.679 38.792 127.62 38.6053 127.62 38.36V36.968L127.828 37.24C127.615 37.8587 127.268 38.3333 126.788 38.664C126.319 38.984 125.764 39.144 125.124 39.144Z" fill="#0E0E0E"/>
</symbol>

<symbol id="logo" viewBox="0 0 79 32">
<path fill="none" stroke="#fc936d" style="stroke: var(--color1, #fc936d)" stroke-linejoin="miter" stroke-linecap="round" stroke-miterlimit="4" stroke-width="3.3333" d="M12.038 5.046c-0.612-0.825-2.572-2.276-5.512-1.484-3.675 0.989-4.232 4.781-3.675 6.926s0.836 2.445 2.507 4.845c2.298 3.3 9.47 10.8 11.976 12.9"></path>
<path fill="none" stroke="#fc936d" style="stroke: var(--color1, #fc936d)" stroke-linejoin="miter" stroke-linecap="round" stroke-miterlimit="4" stroke-width="3.3333" d="M12.038 12.715l7.349-7.421c1.29-1.237 3.24-2.56 5.971-1.237 4.51 2.185 3.953 5.876 3.953 5.876s-0.279 2.1-1.427 3.523"></path>
<path fill="none" stroke="#fc936d" style="stroke: var(--color1, #fc936d)" stroke-linejoin="miter" stroke-linecap="round" stroke-miterlimit="4" stroke-width="3.3333" d="M15.664 18.333l5.316 5.484"></path>
<path fill="none" stroke="#fc936d" style="stroke: var(--color1, #fc936d)" stroke-linejoin="miter" stroke-linecap="round" stroke-miterlimit="4" stroke-width="3.3333" d="M19.006 13.533l5.316 5.484"></path>
<path d="M38.699 11.408c-0.142 0-0.252-0.039-0.331-0.117-0.071-0.085-0.107-0.199-0.107-0.341v-6.752c0-0.149 0.036-0.263 0.107-0.341 0.078-0.078 0.188-0.117 0.331-0.117s0.249 0.039 0.32 0.117c0.078 0.078 0.117 0.192 0.117 0.341v6.752c0 0.142-0.036 0.256-0.107 0.341-0.071 0.078-0.181 0.117-0.331 0.117zM45.426 11.408c-0.121 0-0.228-0.032-0.32-0.096s-0.167-0.167-0.224-0.309l-1.589-4.32c-0.043-0.121-0.057-0.228-0.043-0.32 0.021-0.092 0.068-0.164 0.139-0.213s0.16-0.075 0.267-0.075 0.192 0.025 0.256 0.075c0.071 0.050 0.128 0.142 0.171 0.277l1.493 4.267h-0.256l1.536-4.267c0.050-0.128 0.11-0.217 0.181-0.267 0.078-0.057 0.178-0.085 0.299-0.085 0.114 0 0.21 0.028 0.288 0.085s0.139 0.146 0.181 0.267l1.504 4.267h-0.245l1.515-4.288c0.050-0.128 0.11-0.213 0.181-0.256 0.071-0.050 0.156-0.075 0.256-0.075 0.114 0 0.199 0.028 0.256 0.085 0.064 0.057 0.1 0.132 0.107 0.224s-0.011 0.192-0.053 0.299l-1.589 4.32c-0.050 0.135-0.124 0.238-0.224 0.309-0.092 0.064-0.199 0.096-0.32 0.096s-0.228-0.032-0.32-0.096c-0.092-0.071-0.164-0.174-0.213-0.309l-1.579-4.331h0.459l-1.568 4.331c-0.050 0.135-0.121 0.238-0.213 0.309-0.092 0.064-0.203 0.096-0.331 0.096zM53.029 11.387c-0.142 0-0.249-0.039-0.32-0.117-0.071-0.085-0.107-0.203-0.107-0.352v-4.363c0-0.149 0.036-0.263 0.107-0.341s0.178-0.117 0.32-0.117c0.135 0 0.242 0.039 0.32 0.117s0.117 0.192 0.117 0.341v4.363c0 0.149-0.039 0.267-0.117 0.352-0.071 0.078-0.178 0.117-0.32 0.117zM53.029 4.901c-0.178 0-0.316-0.046-0.416-0.139-0.1-0.1-0.149-0.231-0.149-0.395 0-0.171 0.050-0.299 0.149-0.384 0.1-0.092 0.238-0.139 0.416-0.139 0.185 0 0.324 0.046 0.416 0.139 0.1 0.085 0.149 0.213 0.149 0.384 0 0.164-0.050 0.295-0.149 0.395-0.092 0.092-0.231 0.139-0.416 0.139zM56.66 11.429c-0.512 0-0.903-0.156-1.173-0.469s-0.405-0.761-0.405-1.344v-5.44c0-0.142 0.036-0.249 0.107-0.32 0.071-0.078 0.178-0.117 0.32-0.117 0.135 0 0.242 0.039 0.32 0.117 0.078 0.071 0.117 0.178 0.117 0.32v5.376c0 0.384 0.075 0.672 0.224 0.864 0.156 0.185 0.384 0.277 0.683 0.277 0.064 0 0.121-0.004 0.171-0.011s0.1-0.011 0.149-0.011c0.078-0.007 0.132 0.011 0.16 0.053 0.036 0.043 0.053 0.128 0.053 0.256s-0.028 0.224-0.085 0.288c-0.057 0.064-0.149 0.107-0.277 0.128-0.057 0.007-0.117 0.014-0.181 0.021s-0.124 0.011-0.181 0.011zM59.816 11.429c-0.512 0-0.903-0.156-1.173-0.469s-0.405-0.761-0.405-1.344v-5.44c0-0.142 0.036-0.249 0.107-0.32 0.071-0.078 0.178-0.117 0.32-0.117 0.135 0 0.242 0.039 0.32 0.117 0.078 0.071 0.117 0.178 0.117 0.32v5.376c0 0.384 0.075 0.672 0.224 0.864 0.156 0.185 0.384 0.277 0.683 0.277 0.064 0 0.121-0.004 0.171-0.011s0.1-0.011 0.149-0.011c0.078-0.007 0.132 0.011 0.16 0.053 0.036 0.043 0.053 0.128 0.053 0.256s-0.028 0.224-0.085 0.288c-0.057 0.064-0.149 0.107-0.277 0.128-0.057 0.007-0.117 0.014-0.181 0.021s-0.124 0.011-0.181 0.011zM38.571 26.075c-0.142 0-0.249-0.039-0.32-0.117s-0.107-0.188-0.107-0.331v-6.784c0-0.142 0.036-0.249 0.107-0.32 0.071-0.078 0.178-0.117 0.32-0.117 0.135 0 0.242 0.039 0.32 0.117 0.078 0.071 0.117 0.178 0.117 0.32v3.125h-0.139c0.149-0.412 0.391-0.722 0.725-0.928 0.341-0.213 0.732-0.32 1.173-0.32 0.412 0 0.754 0.075 1.024 0.224 0.277 0.149 0.484 0.377 0.619 0.683 0.135 0.299 0.203 0.679 0.203 1.141v2.859c0 0.142-0.039 0.252-0.117 0.331-0.071 0.078-0.174 0.117-0.309 0.117-0.142 0-0.252-0.039-0.331-0.117-0.071-0.078-0.107-0.188-0.107-0.331v-2.805c0-0.484-0.096-0.836-0.288-1.056-0.185-0.228-0.484-0.341-0.896-0.341-0.476 0-0.857 0.149-1.141 0.448-0.277 0.292-0.416 0.683-0.416 1.173v2.581c0 0.299-0.146 0.448-0.437 0.448zM46.543 26.096c-0.548 0-1.020-0.107-1.419-0.32-0.391-0.22-0.697-0.53-0.917-0.928-0.213-0.398-0.32-0.875-0.32-1.429 0-0.54 0.107-1.010 0.32-1.408 0.213-0.405 0.505-0.722 0.875-0.949 0.377-0.228 0.811-0.341 1.301-0.341 0.348 0 0.661 0.060 0.939 0.181 0.277 0.114 0.512 0.281 0.704 0.501 0.199 0.22 0.348 0.487 0.448 0.8 0.107 0.313 0.16 0.665 0.16 1.056 0 0.114-0.032 0.199-0.096 0.256-0.064 0.050-0.156 0.075-0.277 0.075h-3.712v-0.565h3.509l-0.171 0.139c0-0.384-0.057-0.708-0.171-0.971-0.114-0.27-0.281-0.476-0.501-0.619-0.213-0.142-0.484-0.213-0.811-0.213-0.363 0-0.672 0.085-0.928 0.256-0.249 0.164-0.437 0.395-0.565 0.693-0.128 0.292-0.192 0.633-0.192 1.024v0.064c0 0.654 0.156 1.152 0.469 1.493 0.32 0.341 0.772 0.512 1.355 0.512 0.242 0 0.48-0.032 0.715-0.096 0.242-0.064 0.476-0.171 0.704-0.32 0.1-0.064 0.188-0.092 0.267-0.085 0.085 0 0.153 0.025 0.203 0.075 0.050 0.043 0.082 0.1 0.096 0.171 0.021 0.064 0.014 0.135-0.021 0.213-0.028 0.078-0.089 0.146-0.181 0.203-0.235 0.171-0.512 0.302-0.832 0.395s-0.636 0.139-0.949 0.139zM51.462 26.096c-0.512 0-0.903-0.156-1.173-0.469s-0.405-0.761-0.405-1.344v-5.44c0-0.142 0.036-0.249 0.107-0.32 0.071-0.078 0.178-0.117 0.32-0.117 0.135 0 0.242 0.039 0.32 0.117 0.078 0.071 0.117 0.178 0.117 0.32v5.376c0 0.384 0.075 0.672 0.224 0.864 0.156 0.185 0.384 0.277 0.683 0.277 0.064 0 0.121-0.004 0.171-0.011s0.1-0.011 0.149-0.011c0.078-0.007 0.132 0.011 0.16 0.053 0.036 0.043 0.053 0.128 0.053 0.256s-0.028 0.224-0.085 0.288c-0.057 0.064-0.149 0.107-0.277 0.128-0.057 0.007-0.117 0.014-0.181 0.021s-0.124 0.011-0.181 0.011zM53.467 27.995c-0.142 0-0.249-0.039-0.32-0.117-0.071-0.071-0.107-0.178-0.107-0.32v-6.379c0-0.142 0.036-0.249 0.107-0.32 0.071-0.078 0.174-0.117 0.309-0.117 0.142 0 0.249 0.039 0.32 0.117 0.078 0.071 0.117 0.178 0.117 0.32v1.013l-0.117-0.149c0.114-0.405 0.338-0.725 0.672-0.96 0.341-0.242 0.747-0.363 1.216-0.363 0.462 0 0.864 0.11 1.205 0.331 0.348 0.213 0.615 0.523 0.8 0.928 0.192 0.398 0.288 0.875 0.288 1.429 0 0.548-0.096 1.024-0.288 1.429-0.185 0.398-0.448 0.708-0.789 0.928s-0.747 0.331-1.216 0.331c-0.469 0-0.871-0.117-1.205-0.352-0.334-0.242-0.562-0.562-0.683-0.96h0.128v2.773c0 0.142-0.039 0.249-0.117 0.32-0.078 0.078-0.185 0.117-0.32 0.117zM55.483 25.403c0.327 0 0.608-0.078 0.843-0.235 0.242-0.156 0.427-0.384 0.555-0.683 0.135-0.299 0.203-0.658 0.203-1.077 0-0.647-0.146-1.141-0.437-1.483-0.284-0.341-0.672-0.512-1.163-0.512-0.32 0-0.601 0.078-0.843 0.235-0.242 0.149-0.43 0.373-0.565 0.672-0.128 0.292-0.192 0.654-0.192 1.088 0 0.64 0.146 1.134 0.437 1.483 0.292 0.341 0.679 0.512 1.163 0.512zM63.161 27.995c-0.107 0-0.192-0.028-0.256-0.085s-0.103-0.135-0.117-0.235c-0.007-0.092 0.011-0.188 0.053-0.288l0.736-1.653v0.373l-2.048-4.757c-0.043-0.107-0.057-0.206-0.043-0.299s0.057-0.167 0.128-0.224c0.071-0.057 0.171-0.085 0.299-0.085 0.114 0 0.203 0.025 0.267 0.075s0.121 0.139 0.171 0.267l1.749 4.288h-0.288l1.771-4.288c0.057-0.128 0.117-0.217 0.181-0.267s0.156-0.075 0.277-0.075c0.114 0 0.199 0.028 0.256 0.085 0.064 0.057 0.1 0.132 0.107 0.224 0.014 0.085 0 0.181-0.043 0.288l-2.731 6.315c-0.057 0.128-0.121 0.217-0.192 0.267-0.064 0.050-0.156 0.075-0.277 0.075zM69.569 26.096c-0.505 0-0.942-0.11-1.312-0.331s-0.657-0.53-0.864-0.928c-0.199-0.405-0.299-0.882-0.299-1.429 0-0.412 0.057-0.782 0.171-1.109 0.114-0.334 0.281-0.619 0.501-0.853s0.48-0.412 0.779-0.533c0.306-0.128 0.647-0.192 1.024-0.192 0.505 0 0.943 0.11 1.312 0.331s0.655 0.533 0.853 0.939c0.207 0.398 0.309 0.871 0.309 1.419 0 0.412-0.057 0.782-0.171 1.109s-0.281 0.612-0.501 0.853c-0.22 0.235-0.483 0.416-0.789 0.544-0.299 0.121-0.636 0.181-1.013 0.181zM69.569 25.403c0.32 0 0.601-0.078 0.843-0.235s0.427-0.384 0.555-0.683c0.135-0.299 0.203-0.658 0.203-1.077 0-0.647-0.145-1.141-0.437-1.483-0.284-0.341-0.672-0.512-1.163-0.512-0.327 0-0.611 0.078-0.853 0.235-0.235 0.149-0.419 0.373-0.555 0.672-0.128 0.292-0.192 0.654-0.192 1.088 0 0.64 0.146 1.134 0.437 1.483 0.292 0.341 0.679 0.512 1.163 0.512zM75.177 26.096c-0.419 0-0.768-0.075-1.045-0.224-0.27-0.156-0.477-0.388-0.619-0.693-0.135-0.306-0.203-0.686-0.203-1.141v-2.859c0-0.149 0.035-0.26 0.107-0.331 0.078-0.071 0.185-0.107 0.32-0.107 0.142 0 0.249 0.036 0.32 0.107 0.078 0.071 0.117 0.181 0.117 0.331v2.848c0 0.455 0.093 0.796 0.277 1.024 0.192 0.22 0.491 0.331 0.896 0.331 0.441 0 0.8-0.149 1.077-0.448s0.416-0.69 0.416-1.173v-2.581c0-0.149 0.035-0.26 0.107-0.331 0.078-0.071 0.189-0.107 0.331-0.107 0.135 0 0.238 0.036 0.309 0.107 0.078 0.071 0.117 0.181 0.117 0.331v4.448c0 0.299-0.139 0.448-0.416 0.448-0.135 0-0.242-0.039-0.32-0.117-0.071-0.078-0.107-0.188-0.107-0.331v-0.971l0.139 0.149c-0.142 0.42-0.377 0.74-0.704 0.96-0.32 0.22-0.693 0.331-1.12 0.331z"></path>
</symbol>

<symbol id="arrow-right" viewBox="0 0 32 32">
<path d="M15.218 6.017c-0.518 0.519-0.518 1.367 0 1.886l7.156 7.156h-16.744c-0.175 0-0.347 0.034-0.509 0.101s-0.308 0.165-0.431 0.288c-0.123 0.123-0.221 0.27-0.288 0.431s-0.101 0.334-0.101 0.509c0 0.175 0.034 0.348 0.101 0.509s0.165 0.308 0.288 0.431c0.123 0.123 0.27 0.221 0.431 0.288s0.334 0.101 0.509 0.101h16.744l-7.156 7.156c-0.518 0.519-0.518 1.367 0 1.886s1.367 0.519 1.886 0l9.428-9.428c0.519-0.518 0.519-1.367 0-1.886l-9.428-9.428c-0.518-0.519-1.367-0.519-1.886 0z"></path>
</symbol>

<symbol id="arrow-left" viewBox="0 0 32 32">
<path d="M16.006 26.759c0.519-0.518 0.519-1.367 0-1.886l-7.156-7.156h16.744c0.175 0 0.347-0.034 0.509-0.101s0.308-0.165 0.431-0.288c0.123-0.123 0.221-0.27 0.288-0.431s0.101-0.334 0.101-0.509c0-0.174-0.034-0.347-0.101-0.509s-0.165-0.308-0.288-0.431c-0.123-0.123-0.27-0.221-0.431-0.288s-0.334-0.101-0.509-0.101h-16.744l7.156-7.156c0.519-0.519 0.519-1.367 0-1.886s-1.367-0.519-1.886 0l-9.428 9.428c-0.519 0.519-0.519 1.367 0 1.886l9.428 9.428c0.518 0.519 1.367 0.519 1.886 0z"></path>
</symbol>

<symbol id="journey" viewBox="0 0 32 32">
<path d="M9.012 0.125c-0.619 0.162-1.087 0.438-1.581 0.931-0.594 0.6-0.869 1.188-1.025 2.206-0.031 0.206-0.056 0.237-0.206 0.237-0.094 0-0.319 0.044-0.494 0.087-1.287 0.344-2.275 1.394-2.55 2.706-0.138 0.638-0.138 22.275 0 22.912 0.144 0.675 0.438 1.2 0.969 1.731 0.537 0.544 0.919 0.762 1.6 0.938 0.469 0.119 0.719 0.125 8.619 0.125 7.913 0 8.15-0.006 8.619-0.125 0.637-0.163 1.1-0.431 1.606-0.931 0.594-0.6 0.869-1.188 1.025-2.212 0.031-0.2 0.056-0.231 0.206-0.231 0.094 0 0.319-0.044 0.494-0.088 0.994-0.263 1.881-1.012 2.306-1.944 0.356-0.769 0.344-0.256 0.325-12.425l-0.019-11.2-0.137-0.413c-0.363-1.050-1.212-1.9-2.263-2.263l-0.412-0.138-8.313-0.013c-8.037-0.013-8.325-0.006-8.769 0.106zM26.069 1.288c0.413 0.125 0.925 0.456 1.15 0.75 0.088 0.119 0.238 0.375 0.331 0.575l0.169 0.356v22.688l-0.163 0.344c-0.325 0.681-1 1.219-1.694 1.337l-0.238 0.044v-17.569l-1.794-2.019c-0.994-1.106-2.225-2.494-2.75-3.081s-1.025-1.1-1.113-1.138c-0.119-0.056-1.731-0.075-6.287-0.075h-6.119l0.037-0.269c0.144-0.938 0.775-1.669 1.681-1.956 0.194-0.063 1.988-0.081 8.35-0.081 7.275-0.006 8.131 0.006 8.438 0.094zM19.125 7.475v2.788l0.363 0.363h4.95l-0.012 9.238-0.019 9.231-0.2 0.406c-0.356 0.719-0.981 1.181-1.769 1.306-0.512 0.088-15.613 0.094-16.175 0.012-0.8-0.119-1.537-0.694-1.838-1.431l-0.144-0.356-0.019-11.119c-0.019-12.375-0.044-11.563 0.412-12.219 0.287-0.425 0.575-0.656 1.050-0.85l0.369-0.156h13.031v2.788zM22 7.5c0.837 0.944 1.563 1.769 1.612 1.825 0.088 0.106 0.006 0.113-1.6 0.113h-1.7v-1.919c0-1.619 0.012-1.906 0.088-1.831 0.044 0.050 0.762 0.869 1.6 1.812z"></path>
<path d="M7.15 9.506c-0.362 0.106-0.519 0.431-0.369 0.781 0.044 0.112 0.137 0.231 0.206 0.269 0.088 0.044 1.038 0.069 2.919 0.069h2.794l0.181-0.181c0.244-0.244 0.244-0.5 0-0.769l-0.181-0.206-2.681-0.012c-1.475-0.006-2.763 0.019-2.869 0.050z"></path>
<path d="M7.019 13.45c-0.181 0.087-0.344 0.444-0.294 0.637 0.019 0.081 0.106 0.219 0.194 0.3l0.156 0.144h14.3l0.163-0.162c0.225-0.225 0.225-0.575 0-0.8l-0.163-0.163-7.112-0.012c-4.937-0.006-7.15 0.006-7.244 0.056z"></path>
<path d="M7.125 16.294c-0.312 0.119-0.475 0.438-0.369 0.75 0.138 0.419-0.312 0.394 7.456 0.394 5.019 0 7.075-0.019 7.181-0.069 0.144-0.063 0.238-0.2 0.313-0.438 0.019-0.050-0.006-0.188-0.056-0.294-0.169-0.406 0.2-0.387-7.475-0.381-3.825 0-7 0.019-7.050 0.038z"></path>
<path d="M6.987 19.281c-0.2 0.113-0.325 0.45-0.244 0.663 0.031 0.081 0.119 0.206 0.194 0.275 0.137 0.125 0.225 0.125 7.287 0.125h7.15l0.156-0.163c0.275-0.269 0.2-0.769-0.137-0.925-0.106-0.050-2.156-0.069-7.194-0.069-6.031 0.006-7.069 0.019-7.213 0.094z"></path>
<path d="M7.094 22.119c-0.412 0.169-0.494 0.656-0.169 0.95l0.2 0.181h14.188l0.194-0.175c0.256-0.231 0.269-0.575 0.031-0.819l-0.163-0.163-7.081-0.012c-3.888-0.006-7.131 0.012-7.2 0.038z"></path>
<path d="M7.156 24.919c-0.325 0.081-0.513 0.444-0.394 0.781 0.125 0.356 0.156 0.363 3.169 0.363h2.75l0.175-0.15c0.244-0.212 0.244-0.594 0-0.837l-0.169-0.169-2.706-0.012c-1.481 0-2.756 0.006-2.825 0.025z"></path>
</symbol>

<symbol id="impact" viewBox="0 0 32 32">
<path d="M15.031 0.037c-0.831 0.119-1.475 0.256-2.062 0.444-3.044 0.969-5.419 3.306-6.45 6.362-0.375 1.113-0.488 1.844-0.481 3.156 0 1.313 0.112 2.063 0.481 3.156 1.337 3.962 4.906 6.65 9.075 6.819 4.725 0.2 8.931-2.95 10.094-7.55 1.394-5.55-2.138-11.106-7.781-12.238-0.6-0.125-2.419-0.219-2.875-0.15zM17.825 1.188c1.762 0.375 3.225 1.169 4.525 2.469 0.644 0.644 1.5 1.769 1.45 1.919-0.012 0.031-0.25 0.156-0.525 0.275l-0.5 0.219-1.175-0.437c-1.131-0.425-1.188-0.45-1.587-0.825-0.537-0.5-0.962-0.7-1.506-0.7-0.55 0-0.863 0.144-1.631 0.75-1.019 0.813-1.063 0.925-0.831 2.325 0.088 0.537 0.188 1.012 0.225 1.062 0.088 0.1 1.794 1.25 2.088 1.4 0.244 0.125 0.625 0.131 1.056 0.019 0.194-0.050 0.356-0.063 0.419-0.031 0.050 0.031 0.387 0.513 0.744 1.075l0.644 1.012 0.031 1.688c0.038 1.937 0.025 1.875 0.625 2.594l0.387 0.469-0.238 0.212c-1.731 1.513-3.837 2.319-6.081 2.319-0.856 0-2.625-0.312-2.631-0.469-0.006-0.038 0.081-0.288 0.181-0.563l0.194-0.5 0.8-0.481c0.444-0.269 0.844-0.531 0.894-0.587 0.056-0.069 0.1-0.325 0.119-0.7l0.031-0.594 0.337-0.119c0.188-0.063 0.388-0.156 0.45-0.213 0.144-0.131 1.031-1.619 1.125-1.887 0.094-0.281 0.044-0.813-0.106-1.106-0.206-0.394-0.525-0.606-1.125-0.75l-0.537-0.131-0.238-0.581c-0.131-0.325-0.319-0.669-0.419-0.775-0.3-0.319-0.475-0.356-1.625-0.356h-1.050l-0.125-0.231c-0.188-0.337-0.531-0.588-0.875-0.631l-0.288-0.031 0.019-0.231c0.019-0.213 0.106-0.306 1.269-1.325 0.687-0.6 1.287-1.131 1.325-1.187 0.044-0.050 0.144-0.4 0.219-0.775 0.144-0.675 0.144-0.681 0.331-0.7 0.444-0.037 0.606-0.094 0.819-0.275 0.375-0.331 0.519-0.744 0.4-1.169-0.1-0.381-0.325-0.594-1.019-0.988l-0.631-0.356 0.206-0.056c1.012-0.256 2.731-0.281 3.831-0.044zM13.475 2.256c1.213 0.681 1.294 0.806 0.525 0.806-0.506 0-0.719 0.081-0.806 0.306-0.037 0.087-0.131 0.487-0.213 0.881l-0.144 0.719-1.306 1.15c-0.725 0.631-1.344 1.213-1.387 1.281-0.044 0.075-0.075 0.306-0.081 0.519 0 0.419-0.031 0.45-0.325 0.337-0.112-0.044-0.181-0.162-0.287-0.5-0.094-0.281-0.194-0.475-0.281-0.531-0.075-0.050-0.469-0.119-0.869-0.162-0.406-0.044-0.737-0.1-0.737-0.125s0.081-0.244 0.181-0.481c0.8-1.881 2.275-3.469 4.087-4.419 0.3-0.156 0.594-0.288 0.65-0.288s0.506 0.225 0.994 0.506zM18.688 5.1c0.131 0.031 0.369 0.2 0.681 0.487l0.475 0.45 2.95 1.1 0.744-0.312c0.538-0.225 0.756-0.294 0.788-0.237 0.025 0.044 0.119 0.294 0.206 0.563 0.794 2.369 0.556 4.987-0.663 7.194-0.325 0.594-0.831 1.312-0.925 1.312-0.031 0-0.194-0.169-0.356-0.369l-0.306-0.369-0.031-1.756-0.031-1.756-0.775-1.206c-0.425-0.663-0.862-1.275-0.969-1.356-0.338-0.25-0.625-0.294-1.194-0.175l-0.5 0.1-0.831-0.55c-0.45-0.3-0.825-0.569-0.825-0.588s-0.056-0.35-0.119-0.725c-0.069-0.388-0.094-0.731-0.069-0.781 0.075-0.138 1.156-0.963 1.325-1.013 0.2-0.056 0.2-0.056 0.425-0.013zM8.6 8.4c0.181 0.556 0.25 0.65 0.556 0.737l0.275 0.081-0.337 0.262c-0.387 0.3-0.438 0.444-0.394 1.131 0.019 0.35 0.106 0.625 0.544 1.7 0.494 1.2 0.688 1.563 0.844 1.563 0.031 0 0.281 0.062 0.55 0.131 0.775 0.213 0.856 0.469 0.331 1.056-0.444 0.5-0.494 0.631-0.444 1.212 0.019 0.281 0.056 0.6 0.075 0.719l0.044 0.212-0.213-0.144c-0.456-0.319-1.475-1.419-1.887-2.037-0.975-1.463-1.45-2.919-1.525-4.681-0.031-0.731 0.081-1.975 0.206-2.3 0.019-0.056 0.169-0.062 0.65-0.019l0.619 0.056 0.106 0.319zM11.387 9.594c0.144 0.544 0.188 0.556 1.656 0.594l1.281 0.031 0.275 0.687c0.15 0.375 0.331 0.737 0.394 0.8 0.069 0.075 0.344 0.162 0.7 0.238 0.956 0.2 1 0.331 0.394 1.35-0.394 0.675-0.419 0.7-0.713 0.8-0.369 0.125-0.787 0.55-0.838 0.856-0.019 0.113-0.044 0.356-0.056 0.544l-0.012 0.344-0.731 0.437c-0.406 0.244-0.775 0.487-0.819 0.537-0.050 0.050-0.2 0.375-0.325 0.719-0.131 0.344-0.25 0.637-0.256 0.65-0.012 0.012-0.131-0.025-0.269-0.088l-0.244-0.106-0.169-0.887c-0.087-0.481-0.175-0.913-0.188-0.956s0.113-0.238 0.275-0.438c0.537-0.644 0.65-1.019 0.481-1.6-0.144-0.5-0.563-0.863-1.175-1.025l-0.456-0.125-0.45-1.088c-0.294-0.719-0.45-1.175-0.45-1.344-0.006-0.25 0-0.256 0.663-0.731 0.375-0.263 0.737-0.481 0.813-0.481 0.119 0 0.156 0.056 0.219 0.281z"></path>
<path d="M1 12.075c-0.344 0.119-0.838 0.65-0.925 1-0.056 0.213-0.075 1.475-0.075 4.512 0 4.619 0.006 4.737 0.369 5.613 0.256 0.6 0.444 0.844 3.244 4.156l2.388 2.831v0.781c0 0.7 0.013 0.794 0.125 0.906 0.119 0.119 0.206 0.125 3.375 0.125s3.256-0.006 3.375-0.125 0.125-0.206 0.125-2.813c0-3.063-0.025-3.3-0.45-4.188-0.206-0.431-0.356-0.631-0.794-1.069-0.619-0.612-1.106-0.894-1.969-1.119l-0.544-0.144-1.369-1.4-1.375-1.4v-2.012c0-2.181-0.025-2.387-0.35-2.975-0.362-0.675-1.144-1.169-1.944-1.238l-0.431-0.037-0.15-0.269c-0.337-0.644-1.163-1.144-1.95-1.181-0.25-0.019-0.556 0.006-0.675 0.044zM2.169 13.181c0.275 0.137 0.519 0.387 0.681 0.694 0.112 0.206 0.119 0.462 0.15 3.875 0.038 3.969 0.025 3.844 0.4 4.413 0.081 0.138 0.962 1.069 1.956 2.075 1.644 1.675 1.819 1.831 2.006 1.825 0.275 0 0.513-0.238 0.513-0.506 0-0.181-0.188-0.394-1.806-2.019-1.556-1.569-1.819-1.856-1.875-2.087-0.194-0.713 0.481-1.381 1.213-1.194 0.213 0.056 0.5 0.313 1.788 1.6 0.844 0.844 1.575 1.556 1.625 1.581 0.050 0.031 0.331 0.112 0.619 0.188 0.687 0.175 1.194 0.444 1.637 0.881 0.406 0.4 0.756 1.050 0.862 1.613 0.037 0.188 0.063 1.331 0.063 2.606v2.275h-5v-1.181l-2.575-3.050c-1.419-1.675-2.694-3.225-2.837-3.431-0.144-0.212-0.325-0.563-0.406-0.781l-0.15-0.4-0.019-4.425-0.019-4.419 0.163-0.162c0.15-0.15 0.2-0.162 0.469-0.131 0.169 0.019 0.413 0.094 0.544 0.163zM4.656 14.669c0.269 0.137 0.525 0.387 0.675 0.675 0.131 0.238 0.138 0.344 0.156 2.069l0.019 1.825h-0.406c-0.306 0-0.5 0.044-0.756 0.163l-0.344 0.156v-5.069l0.231 0.044c0.131 0.025 0.319 0.087 0.425 0.137z"></path>
<path d="M29.919 12.069c-0.6 0.144-1.281 0.644-1.544 1.144l-0.15 0.269-0.431 0.037c-0.8 0.069-1.581 0.563-1.944 1.238-0.325 0.588-0.35 0.794-0.35 2.975v2.012l-1.375 1.4-1.369 1.4-0.544 0.144c-0.863 0.225-1.35 0.506-1.969 1.119-0.438 0.438-0.587 0.637-0.794 1.069-0.425 0.887-0.45 1.125-0.45 4.188 0 2.606 0.006 2.694 0.125 2.813s0.206 0.125 3.375 0.125c3.169 0 3.256-0.006 3.375-0.125 0.112-0.113 0.125-0.206 0.125-0.906v-0.788l2.387-2.825c2.8-3.313 2.988-3.556 3.244-4.156 0.363-0.875 0.369-0.994 0.369-5.613 0-2.925-0.019-4.306-0.069-4.5-0.1-0.388-0.531-0.856-0.913-0.988-0.312-0.106-0.725-0.119-1.1-0.031zM30.85 13.156l0.156 0.156-0.019 4.387c-0.019 4.388-0.019 4.394-0.163 4.813-0.075 0.231-0.263 0.6-0.406 0.813-0.144 0.219-1.425 1.769-2.844 3.444l-2.575 3.050v1.181h-5v-2.275c0-1.275 0.025-2.419 0.063-2.606 0.106-0.563 0.456-1.212 0.862-1.613 0.444-0.438 0.95-0.706 1.637-0.881 0.288-0.075 0.569-0.156 0.613-0.181 0.050-0.031 0.781-0.744 1.631-1.587 1.269-1.262 1.581-1.544 1.788-1.6 0.725-0.194 1.406 0.475 1.212 1.194-0.056 0.231-0.319 0.519-1.875 2.087-1.619 1.625-1.806 1.837-1.806 2.019 0 0.269 0.238 0.506 0.513 0.506 0.188 0.006 0.356-0.15 1.975-1.794 0.975-0.988 1.856-1.919 1.956-2.063 0.406-0.581 0.394-0.437 0.431-4.456 0.038-4.025 0.012-3.825 0.431-4.269 0.419-0.45 1.125-0.613 1.419-0.325zM28 17.025v2.531l-0.35-0.163c-0.256-0.119-0.463-0.163-0.756-0.163l-0.4-0.006 0.019-1.813c0.019-1.631 0.031-1.844 0.138-2.037 0.219-0.412 0.544-0.687 0.975-0.819 0.406-0.119 0.375-0.319 0.375 2.469z"></path>
</symbol>

<symbol id="values" viewBox="0 0 32 32">
<path d="M15 2.706c-0.081 0.044-0.188 0.15-0.231 0.231-0.094 0.181-0.106 0.862-0.025 1.075l0.056 0.144-0.619-0.019c-0.588-0.025-0.619-0.019-0.775 0.138-0.25 0.25-0.206 0.6 0.1 0.756 0.206 0.106 1 0.125 1.188 0.031 0.106-0.063 0.113-0.050 0.056 0.094-0.081 0.219-0.081 0.838 0.006 1.088 0.125 0.35 0.55 0.438 0.8 0.169 0.131-0.144 0.144-0.2 0.119-0.775-0.019-0.569-0.012-0.619 0.088-0.569 0.056 0.031 0.319 0.056 0.581 0.056 0.45 0 0.488-0.013 0.669-0.188 0.156-0.162 0.181-0.225 0.15-0.394-0.069-0.356-0.231-0.431-0.913-0.406l-0.594 0.019 0.019-0.6c0.019-0.5 0-0.619-0.094-0.731-0.144-0.169-0.387-0.225-0.581-0.119zM15.494 4.381c-0.037 0.075-0.056 0.219-0.044 0.319 0.025 0.162 0.012 0.181-0.113 0.15-0.075-0.019-0.213-0.013-0.306 0.025-0.15 0.056-0.156 0.050-0.088-0.069 0.037-0.075 0.056-0.206 0.037-0.3-0.031-0.156-0.025-0.162 0.206-0.144 0.131 0.013 0.256-0.006 0.275-0.044 0.081-0.125 0.106-0.069 0.031 0.063z"></path>
<path d="M8.769 3.769c-0.075 0.044-0.275 0.287-0.444 0.544-0.35 0.544-1.019 1.194-1.563 1.525-0.425 0.269-0.575 0.506-0.463 0.756 0.037 0.081 0.287 0.294 0.556 0.475 0.619 0.419 1.1 0.9 1.494 1.494 0.519 0.781 0.769 0.787 1.281 0.031 0.394-0.575 0.988-1.169 1.525-1.525 0.787-0.525 0.794-0.769 0.012-1.281-0.6-0.394-1.231-1.031-1.563-1.581-0.287-0.475-0.537-0.606-0.838-0.438zM10.012 6.181l0.275 0.219-0.644 0.631-0.644 0.638-1.237-1.237 0.638-0.638 0.631-0.638 0.35 0.406c0.2 0.225 0.481 0.5 0.631 0.619z"></path>
<path d="M21.962 3.906c-0.15 0.15-0.156 0.188-0.137 0.737l0.019 0.575h-0.6c-0.506 0-0.625 0.019-0.738 0.119-0.175 0.162-0.181 0.55 0 0.731 0.113 0.112 0.188 0.125 0.731 0.106l0.606-0.019-0.025 0.556c-0.025 0.625 0.038 0.8 0.313 0.919 0.144 0.056 0.225 0.056 0.363-0.006 0.256-0.106 0.337-0.344 0.313-0.95l-0.025-0.519 0.594 0.019c0.531 0.019 0.606 0.006 0.738-0.112 0.175-0.162 0.181-0.494 0.019-0.694-0.1-0.125-0.188-0.15-0.594-0.169-0.256-0.013-0.556 0.006-0.663 0.037-0.175 0.063-0.181 0.063-0.125-0.050 0.031-0.063 0.063-0.344 0.063-0.625 0-0.456-0.019-0.519-0.156-0.656-0.2-0.206-0.488-0.206-0.694 0zM22.462 5.45c0.144-0.063 0.15-0.056 0.106 0.1-0.031 0.094-0.031 0.225-0.006 0.294 0.044 0.112 0.019 0.125-0.244 0.125h-0.288v-0.287c0-0.275 0.006-0.287 0.137-0.225 0.1 0.044 0.188 0.044 0.294-0.006z"></path>
<path d="M13.581 7.4c-1.175 0.269-2.15 1.2-2.488 2.369-0.137 0.475-0.137 1.3 0 1.775 0.238 0.825 0.363 0.975 2.688 3.319 1.2 1.219 2.262 2.25 2.356 2.3s0.238 0.075 0.319 0.056c0.081-0.025 1.181-1.081 2.462-2.363 1.919-1.931 2.337-2.387 2.475-2.681 0.475-1 0.475-2.044 0-3.037-0.263-0.537-0.956-1.213-1.531-1.481-0.556-0.25-1.175-0.375-1.65-0.313-0.431 0.050-1.081 0.381-1.506 0.75l-0.325 0.287-0.394-0.319c-0.819-0.662-1.537-0.856-2.406-0.662zM14.85 8.5c0.2 0.1 0.581 0.381 0.85 0.625 0.631 0.581 0.7 0.581 1.344 0 0.262-0.244 0.656-0.531 0.875-0.637 0.35-0.175 0.431-0.188 0.756-0.15 0.781 0.094 1.513 0.606 1.863 1.325 0.163 0.331 0.181 0.431 0.181 0.994 0 1.012 0 1.006-2.35 3.375l-1.994 2-1.969-1.969c-2.119-2.119-2.287-2.325-2.4-3.037-0.181-1.175 0.544-2.306 1.681-2.612 0.519-0.137 0.75-0.119 1.162 0.088z"></path>
<path d="M13.625 8.919c-0.419 0.15-0.963 0.719-1.088 1.144-0.2 0.675-0.056 1.063 0.4 1.063 0.275 0 0.5-0.219 0.5-0.481 0-0.225 0.181-0.575 0.356-0.688 0.081-0.056 0.281-0.125 0.444-0.15 0.537-0.1 0.744-0.581 0.381-0.887-0.169-0.131-0.606-0.131-0.994 0z"></path>
<path d="M25.675 7.45c-0.050 0.044-0.206 0.25-0.337 0.456-0.369 0.563-0.925 1.125-1.5 1.506-0.531 0.356-0.587 0.419-0.587 0.706 0 0.194 0.125 0.319 0.644 0.662 0.462 0.3 1.044 0.881 1.369 1.369 0.356 0.531 0.488 0.662 0.656 0.662 0.25 0 0.381-0.106 0.688-0.581 0.363-0.55 0.925-1.119 1.425-1.444 0.55-0.356 0.656-0.469 0.656-0.694 0-0.256-0.069-0.331-0.6-0.681-0.538-0.356-1.169-0.994-1.494-1.506-0.288-0.456-0.375-0.531-0.625-0.531-0.106 0-0.238 0.037-0.294 0.075zM26.594 10.719l-0.625 0.625-1.25-1.25 1.25-1.25 0.625 0.625 0.625 0.619-0.625 0.631z"></path>
<path d="M5.013 10.356c-0.163 0.063-0.263 0.387-0.263 0.831 0 0.244 0.025 0.5 0.063 0.563 0.056 0.106 0.044 0.113-0.138 0.056-0.481-0.137-1.181-0.031-1.3 0.194-0.112 0.206-0.069 0.469 0.087 0.619 0.144 0.131 0.2 0.144 0.775 0.119 0.569-0.019 0.619-0.012 0.569 0.088-0.031 0.056-0.056 0.319-0.056 0.581 0 0.444 0.013 0.494 0.181 0.662 0.231 0.225 0.456 0.238 0.669 0.025 0.156-0.156 0.162-0.188 0.138-0.769l-0.019-0.606 0.6 0.019c0.719 0.025 0.894-0.063 0.894-0.45 0-0.356-0.175-0.488-0.7-0.525-0.244-0.012-0.519 0-0.619 0.031l-0.175 0.063 0.019-0.613c0.025-0.588 0.019-0.619-0.138-0.775-0.15-0.15-0.388-0.194-0.588-0.113zM5.369 12.044c0.156-0.031 0.162-0.025 0.162 0.225v0.262h-0.269c-0.244 0-0.263-0.012-0.231-0.137 0.019-0.075 0.006-0.206-0.031-0.3-0.056-0.15-0.050-0.156 0.069-0.088 0.075 0.037 0.206 0.056 0.3 0.037z"></path>
<path d="M23.094 14.456c-0.144 0.119-0.175 0.206-0.2 0.544-0.019 0.225-0.006 0.506 0.031 0.631l0.063 0.231-0.231-0.063c-0.125-0.037-0.406-0.050-0.631-0.031-0.337 0.025-0.425 0.056-0.544 0.2-0.181 0.206-0.181 0.4-0.012 0.619 0.131 0.169 0.144 0.169 0.775 0.15l0.637-0.019-0.063 0.219c-0.031 0.119-0.044 0.4-0.025 0.625 0.025 0.337 0.056 0.425 0.2 0.544 0.206 0.181 0.4 0.181 0.619 0.012 0.156-0.125 0.163-0.15 0.163-0.744s-0.006-0.619-0.163-0.744c-0.181-0.144-0.344-0.163-0.531-0.069-0.106 0.063-0.113 0.056-0.044-0.094 0.056-0.119 0.056-0.212 0.006-0.344-0.063-0.175-0.063-0.175 0.087-0.106 0.113 0.050 0.2 0.050 0.337 0 0.163-0.063 0.175-0.063 0.119 0.044-0.094 0.181-0.075 0.344 0.069 0.525 0.125 0.156 0.15 0.163 0.744 0.163s0.619-0.006 0.744-0.163c0.169-0.219 0.169-0.413-0.012-0.619-0.119-0.144-0.206-0.175-0.544-0.2-0.225-0.019-0.506-0.006-0.625 0.025l-0.219 0.063 0.019-0.637c0.019-0.631 0.019-0.644-0.15-0.775-0.219-0.169-0.413-0.169-0.619 0.012z"></path>
<path d="M9.731 14.881c-0.056 0.037-0.244 0.269-0.406 0.512-0.369 0.563-0.931 1.138-1.419 1.45-0.556 0.363-0.656 0.462-0.656 0.688 0 0.25 0.069 0.331 0.531 0.631 0.563 0.363 1.194 0.994 1.544 1.538 0.494 0.75 0.787 0.769 1.238 0.069 0.387-0.594 0.95-1.163 1.537-1.556 0.531-0.356 0.588-0.419 0.588-0.706 0-0.194-0.125-0.319-0.644-0.663-0.494-0.325-1.031-0.863-1.412-1.431-0.4-0.588-0.6-0.706-0.9-0.531zM11.075 17.706c-0.219 0.169-0.762 0.712-0.931 0.938l-0.137 0.175-0.644-0.644-0.644-0.637 0.625-0.631 0.625-0.625 0.637 0.65 0.644 0.644-0.175 0.131z"></path>
<path d="M16.25 18.831c-0.188 0.044-0.463 0.144-0.6 0.219-0.144 0.069-1.331 0.975-2.644 2.012l-2.381 1.875h-1.113l-0.025-0.344c-0.031-0.369-0.15-0.587-0.45-0.806-0.162-0.125-0.269-0.131-1.713-0.15-1.5-0.019-1.55-0.012-1.825 0.125-0.206 0.106-0.319 0.219-0.419 0.425-0.144 0.275-0.144 0.288-0.144 3.25 0 1.813 0.025 3.056 0.063 3.2 0.094 0.319 0.481 0.656 0.825 0.706 0.15 0.025 0.875 0.031 1.612 0.019 1.487-0.019 1.606-0.050 1.888-0.438 0.113-0.156 0.15-0.313 0.169-0.663 0.019-0.387 0.037-0.45 0.125-0.425 1 0.294 0.831 0.288 5.688 0.288h4.562l0.863-0.156c1.756-0.325 3.087-0.694 3.831-1.063 0.363-0.181 0.575-0.381 1.844-1.731 1.531-1.625 1.694-1.869 1.762-2.512 0.069-0.694-0.337-1.425-0.962-1.725-0.438-0.206-1.081-0.2-1.706 0.025-0.256 0.094-0.519 0.181-0.575 0.2-0.069 0.025-0.131-0.019-0.194-0.144-0.050-0.094-0.2-0.281-0.337-0.419-0.681-0.694-1.813-0.744-2.625-0.125-0.119 0.087-0.55 0.669-0.969 1.294-0.413 0.625-0.775 1.163-0.8 1.194-0.050 0.050-1.4-0.15-1.887-0.281l-0.238-0.063 0.337-0.331c0.9-0.906 1.019-2.319 0.244-3.050-0.431-0.413-1.413-0.594-2.206-0.406zM17.531 19.837c0.3 0.125 0.431 0.363 0.431 0.75-0.006 0.438-0.137 0.663-0.775 1.319-0.837 0.863-1.15 1.587-1.156 2.656 0 0.6 0.1 0.844 0.375 0.913 0.413 0.1 0.694-0.206 0.625-0.681-0.044-0.269 0.056-0.981 0.156-1.175 0.050-0.087 0.156-0.075 1.050 0.106 1.4 0.281 2.712 0.419 3.719 0.387 1.125-0.038 1.4-0.15 1.931-0.75 0.219-0.244 0.531-0.581 0.7-0.75 0.494-0.494 1.5-0.9 2.019-0.819 0.456 0.075 0.719 0.694 0.475 1.125-0.206 0.369-2.712 2.975-3 3.131-0.363 0.188-1.519 0.519-2.844 0.806l-1.081 0.231-9.25 0.044-0.7-0.175-0.706-0.169v-2.85h0.694c0.406 0 0.744-0.031 0.825-0.075 0.075-0.038 1.181-0.887 2.45-1.894 1.275-1 2.4-1.881 2.506-1.956 0.362-0.25 1.156-0.337 1.556-0.175zM23.531 21.181c0.1 0.056 0.25 0.219 0.325 0.35l0.131 0.238-0.35 0.406c-0.831 0.944-0.875 0.962-1.881 0.938l-0.625-0.019 0.531-0.813c0.613-0.938 0.731-1.069 1.063-1.188 0.275-0.1 0.525-0.069 0.806 0.087zM8.5 25.5v2.875l-1.263-0.012-1.269-0.019-0.019-2.863-0.013-2.856h2.563v2.875z"></path>
</symbol>

<symbol id="objectives" viewBox="0 0 32 32">
<path d="M26.125 0.1c-0.256 0.112-5.619 5.425-6.038 5.987-0.494 0.656-0.531 0.894-0.512 3.137 0.012 1.063 0.038 1.975 0.063 2.025 0.031 0.069-0.294 0.444-1.131 1.306l-1.175 1.219-0.306-0.2c-0.763-0.481-1.519-0.7-2.475-0.7-0.806 0-1.425 0.144-2.106 0.5-1.363 0.706-2.256 2.013-2.444 3.556-0.256 2.106 1.037 4.163 3.062 4.85 1.725 0.587 3.55 0.131 4.819-1.2 0.837-0.881 1.244-1.9 1.244-3.131 0-0.969-0.244-1.806-0.75-2.556-0.106-0.156-0.188-0.306-0.175-0.337 0.012-0.025 0.55-0.6 1.194-1.269l1.175-1.219 4.025-0.037 0.444-0.206c0.419-0.2 0.619-0.387 3.481-3.25 2.644-2.65 3.038-3.075 3.075-3.275 0.063-0.319-0.062-0.644-0.319-0.844-0.194-0.144-0.331-0.175-1.2-0.275-0.537-0.063-1.25-0.131-1.569-0.156-0.869-0.063-0.825 0.013-1-1.775-0.156-1.631-0.238-1.913-0.581-2.125-0.244-0.15-0.5-0.156-0.8-0.025zM26.419 2.762c0.075 0.7 0.144 1.313 0.156 1.369s-1.131 1.275-2.919 3.119l-2.937 3.019-0.019-1.394c-0.012-1.162 0-1.45 0.088-1.712 0.094-0.288 0.344-0.556 2.762-2.994 1.469-1.469 2.681-2.669 2.7-2.669s0.094 0.569 0.169 1.263zM28.962 5.225l1.169 0.112-2.644 2.644c-1.456 1.463-2.756 2.712-2.894 2.787-0.231 0.125-0.356 0.137-1.556 0.156-0.831 0.012-1.294 0-1.281-0.037s1.3-1.369 2.856-2.969c2.706-2.781 2.831-2.906 3-2.862 0.094 0.031 0.7 0.106 1.35 0.169zM15.262 14.069c0.344 0.075 0.894 0.3 1.119 0.456 0.125 0.087 0.088 0.137-1.125 1.375-1.2 1.225-1.256 1.294-1.256 1.525 0 0.331 0.238 0.575 0.563 0.575 0.213 0 0.3-0.075 1.5-1.287 1.425-1.444 1.3-1.381 1.6-0.744 0.631 1.35 0.369 2.825-0.687 3.881-0.694 0.694-1.469 1.025-2.4 1.025-1.831 0-3.337-1.413-3.438-3.219-0.037-0.713 0.056-1.15 0.369-1.775 0.675-1.356 2.275-2.125 3.756-1.813z"></path>
<path d="M13.625 3.694c-6.044 0.369-11.269 4.687-12.781 10.575-0.338 1.331-0.431 2.088-0.431 3.544 0 1.7 0.169 2.837 0.656 4.35 1.556 4.856 5.706 8.563 10.694 9.55 6.213 1.231 12.419-1.737 15.356-7.337 1.956-3.731 2.131-8.162 0.488-12.075l-0.256-0.613-0.438 0.425-0.444 0.419 0.237 0.625c1.088 2.831 1.144 6.019 0.156 8.906-1.894 5.531-7.325 9.144-13.162 8.75-4.588-0.313-8.669-3.012-10.75-7.113-0.956-1.881-1.394-3.706-1.394-5.85 0-1.756 0.294-3.313 0.912-4.85 1.538-3.831 4.881-6.775 8.813-7.775 1.262-0.319 1.775-0.375 3.312-0.375 1.594 0.006 2.25 0.088 3.556 0.463l0.675 0.2 0.1-0.15c0.056-0.081 0.238-0.287 0.4-0.463l0.3-0.319-0.594-0.2c-1.706-0.569-3.537-0.8-5.406-0.688z"></path>
<path d="M13.156 7.975c-3.637 0.563-6.606 3.081-7.706 6.525-0.362 1.15-0.419 1.531-0.419 2.969 0.006 1.206 0.019 1.369 0.175 2.038 0.456 1.944 1.331 3.481 2.744 4.844 1.325 1.275 2.881 2.088 4.8 2.5 0.762 0.169 2.863 0.169 3.625 0 2-0.431 3.563-1.275 4.937-2.656 1.756-1.769 2.694-3.9 2.794-6.356 0.056-1.356-0.181-2.787-0.656-3.931l-0.181-0.438-0.631-0.019c-0.35-0.006-0.637 0-0.637 0.019s0.069 0.169 0.15 0.331c0.244 0.481 0.575 1.494 0.694 2.137 0.156 0.794 0.156 2.2 0.006 2.969-0.344 1.788-1.094 3.219-2.35 4.469-1.231 1.231-2.569 1.956-4.269 2.325-0.969 0.206-2.5 0.194-3.456-0.025-1.731-0.406-3.112-1.188-4.325-2.45-0.856-0.894-1.544-2.044-1.913-3.206-0.306-0.988-0.381-1.475-0.375-2.613 0-0.919 0.025-1.156 0.169-1.762 0.394-1.681 1.112-2.981 2.319-4.175 1.425-1.412 3.1-2.194 5.131-2.412 1.344-0.137 2.813 0.106 4.3 0.725 0.094 0.044 0.106-0.012 0.106-0.581v-0.625l-0.45-0.162c-1.4-0.494-3.137-0.663-4.581-0.438z"></path>
</symbol>

<symbol id="vision" viewBox="0 0 32 32">
<path d="M15.688 0.75c-0.119 0.119-0.125 0.206-0.125 1.769 0 1.85 0 1.856 0.45 1.856 0.419 0 0.425-0.031 0.425-1.862 0-1.556-0.006-1.644-0.125-1.762-0.069-0.069-0.206-0.125-0.312-0.125s-0.244 0.056-0.312 0.125z"></path>
<path d="M8.875 2.606c-0.088 0.112-0.125 0.225-0.106 0.331 0.037 0.188 1.375 2.531 1.563 2.731 0.181 0.206 0.494 0.194 0.663-0.019 0.075-0.094 0.131-0.213 0.131-0.275 0-0.112-1.281-2.388-1.544-2.737-0.2-0.269-0.506-0.281-0.706-0.031z"></path>
<path d="M22.456 2.575c-0.2 0.231-1.581 2.656-1.581 2.788 0 0.069 0.056 0.194 0.131 0.287 0.169 0.213 0.481 0.225 0.663 0.019 0.2-0.225 1.581-2.65 1.581-2.781 0-0.069-0.056-0.194-0.131-0.288-0.169-0.212-0.481-0.225-0.663-0.025z"></path>
<path d="M15.437 5.231c-2.887 0.206-5.45 1.806-6.931 4.306-1.213 2.056-1.488 4.763-0.725 7.075 0.213 0.644 0.713 1.631 1.094 2.169 1.381 1.944 1.919 3.075 2.35 4.9 0.156 0.669 0.181 0.731 0.438 0.988l0.275 0.275v1.481l-0.387 0.025c-0.319 0.025-0.406 0.056-0.531 0.2-0.175 0.206-0.181 0.35-0.012 0.563 0.112 0.144 0.169 0.163 0.531 0.163h0.4v0.394c0 0.644 0.144 1.012 0.55 1.419 0.381 0.381 0.775 0.563 1.206 0.563 0.231 0 0.244 0.012 0.406 0.375 0.606 1.35 2.375 1.675 3.394 0.625 0.231-0.238 0.356-0.444 0.5-0.831 0.056-0.144 0.1-0.169 0.312-0.169 0.375 0 0.9-0.225 1.188-0.5 0.394-0.381 0.525-0.694 0.556-1.331l0.025-0.544h0.394c0.356 0 0.413-0.019 0.525-0.163 0.319-0.406 0.012-0.775-0.656-0.775h-0.275v-1.531l0.219-0.175c0.287-0.231 0.363-0.387 0.556-1.181 0.35-1.469 0.956-2.781 2.006-4.356 0.4-0.6 0.831-1.312 0.962-1.594 0.65-1.369 0.931-2.913 0.813-4.425-0.163-2.019-0.981-3.825-2.387-5.281-1.531-1.581-3.35-2.45-5.544-2.644-0.394-0.031-0.775-0.056-0.844-0.050s-0.25 0.019-0.406 0.031zM17.375 6.287c1.544 0.275 2.919 1 4.069 2.144 2.119 2.119 2.819 5.137 1.85 7.975-0.238 0.688-0.613 1.381-1.319 2.425-1.012 1.512-1.675 2.962-2.038 4.481-0.188 0.8-0.206 0.813-1.1 0.813h-0.712l0.012-3.688 0.019-3.694 0.519-0.212c1.019-0.413 2.050-1.075 3.006-1.919 1.069-0.937 1.069-0.975 0.212-1.8-1.375-1.325-3.012-2.225-4.656-2.569-0.856-0.175-1.988-0.144-2.862 0.087-1.456 0.381-2.987 1.275-4.288 2.5-0.531 0.506-0.588 0.575-0.588 0.781s0.050 0.281 0.481 0.688c1.025 0.969 2.362 1.85 3.431 2.269l0.525 0.206-0.012 3.656-0.019 3.663-0.719 0.019c-0.513 0.012-0.75-0.006-0.825-0.063-0.069-0.050-0.194-0.406-0.325-0.925-0.375-1.469-1.012-2.888-1.787-4-0.775-1.106-0.944-1.375-1.181-1.85-0.538-1.087-0.769-2.1-0.769-3.4 0-2.037 0.731-3.869 2.125-5.325 1.806-1.894 4.344-2.719 6.95-2.263zM17.019 11.269c0.506 0.231 0.837 0.506 1.106 0.931 1.019 1.569 0.119 3.606-1.731 3.931-1.419 0.25-2.813-0.856-2.937-2.312-0.088-1.019 0.462-2.019 1.356-2.475 0.431-0.225 0.713-0.281 1.281-0.262 0.456 0.012 0.631 0.050 0.925 0.188zM12.775 12.306c-0.181 0.45-0.275 0.906-0.275 1.35 0 0.363 0.188 1.169 0.344 1.469l0.106 0.2-0.325-0.175c-0.369-0.206-1.363-0.944-1.756-1.3l-0.269-0.244 0.306-0.281c0.569-0.513 1.812-1.387 1.975-1.387 0.025 0-0.025 0.169-0.106 0.369zM19.531 12.169c0.469 0.288 1.194 0.825 1.581 1.175l0.294 0.269-0.306 0.269c-0.606 0.537-1.119 0.912-1.75 1.275l-0.3 0.175 0.1-0.2c0.169-0.319 0.35-1.119 0.35-1.512 0-0.456-0.1-0.931-0.288-1.356-0.075-0.175-0.125-0.325-0.1-0.325s0.212 0.106 0.419 0.231zM15.969 17.094c0.206 0 0.563-0.019 0.8-0.044l0.419-0.044-0.012 3.544-0.019 3.544h-2.312l-0.019-3.544-0.012-3.55 0.388 0.050c0.219 0.025 0.563 0.044 0.769 0.044zM19.125 25.75v0.687h-6.25v-1.375h6.25v0.688zM19.112 27.844c-0.019 0.444-0.031 0.481-0.256 0.706l-0.231 0.231h-5.25l-0.231-0.231c-0.225-0.225-0.237-0.263-0.256-0.706l-0.025-0.469h6.275l-0.025 0.469zM17.006 29.856c-0.075 0.144-0.375 0.425-0.55 0.512-0.413 0.212-1.175-0.019-1.412-0.425l-0.113-0.194h1.069c1 0 1.062 0.006 1.006 0.106z"></path>
<path d="M15.562 12.056c-0.456 0.15-0.869 0.513-1.031 0.906-0.269 0.65-0.138 1.269 0.375 1.769 0.45 0.438 0.975 0.563 1.625 0.387 0.387-0.106 0.869-0.625 1-1.075 0.212-0.737-0.125-1.519-0.806-1.869-0.275-0.137-0.906-0.206-1.162-0.119zM16.35 13.056c0.556 0.338 0.306 1.194-0.356 1.194-0.275 0-0.581-0.225-0.644-0.475-0.1-0.381 0.256-0.838 0.65-0.838 0.087 0 0.244 0.056 0.35 0.119z"></path>
<path d="M3.975 7.506c-0.2 0.156-0.225 0.481-0.044 0.644 0.194 0.175 2.581 1.544 2.756 1.575 0.406 0.088 0.669-0.488 0.362-0.769-0.225-0.2-2.656-1.581-2.787-1.581-0.069 0-0.194 0.056-0.288 0.131z"></path>
<path d="M26.431 8.069c-1.544 0.888-1.619 0.944-1.619 1.213 0 0.231 0.231 0.469 0.45 0.469 0.137 0 2.569-1.381 2.788-1.581 0.2-0.181 0.188-0.494-0.025-0.663-0.094-0.075-0.212-0.131-0.275-0.131-0.056 0-0.65 0.313-1.319 0.694z"></path>
<path d="M2.125 14.312c-0.15 0.15-0.163 0.419-0.025 0.613 0.094 0.138 0.106 0.138 1.775 0.138s1.681 0 1.775-0.138c0.138-0.194 0.125-0.462-0.025-0.613-0.119-0.119-0.206-0.125-1.75-0.125s-1.631 0.006-1.75 0.125z"></path>
<path d="M26.187 14.312c-0.163 0.163-0.163 0.506-0.012 0.644 0.1 0.094 0.325 0.106 1.875 0.106 1.744 0 1.756 0 1.85-0.138 0.138-0.194 0.125-0.462-0.025-0.613-0.119-0.119-0.206-0.125-1.844-0.125s-1.725 0.006-1.844 0.125z"></path>
<path d="M5.325 20.244c-0.694 0.406-1.325 0.794-1.388 0.85-0.075 0.069-0.125 0.194-0.125 0.319 0 0.256 0.263 0.488 0.5 0.444 0.188-0.038 2.531-1.375 2.738-1.563 0.287-0.263 0.069-0.8-0.325-0.788-0.069 0-0.7 0.331-1.4 0.737z"></path>
<path d="M24.975 19.631c-0.212 0.169-0.225 0.481-0.019 0.663 0.206 0.188 2.544 1.525 2.731 1.556 0.406 0.081 0.669-0.488 0.363-0.769-0.225-0.2-2.656-1.581-2.788-1.581-0.069 0-0.194 0.056-0.287 0.131z"></path>
</symbol>

<symbol id="mission" viewBox="0 0 32 32">
<path d="M20.688-0c-0.519 0.131-0.988 0.519-1.231 1.038l-0.175 0.375v3.912c0 4.181 0 4.181 0.313 4.619 0.112 0.162 0.125 0.269 0.125 1.331v1.156l-1.513 0.025c-1.675 0.031-1.912 0.075-2.719 0.456-0.581 0.275-0.944 0.525-1.363 0.938-0.45 0.45-0.662 0.775-1.137 1.731-0.344 0.681-0.481 0.894-0.825 1.238-0.475 0.469-1.025 0.8-1.656 0.994-0.519 0.163-0.656 0.163-0.7 0.019-0.112-0.363-0.331-0.737-0.531-0.919-0.456-0.413-0.544-0.438-1.7-0.456-1.031-0.025-1.056-0.019-1.388 0.144-0.431 0.206-0.813 0.637-0.95 1.069l-0.1 0.331-3.45 0.038-0.356 0.181c-0.481 0.244-0.9 0.675-1.137 1.163l-0.194 0.406v8.563l0.169 0.363c0.238 0.5 0.719 0.988 1.194 1.206l0.387 0.181 3.463 0.038 0.069 0.212c0.1 0.312 0.519 0.75 0.888 0.931 0.306 0.156 0.375 0.163 1.325 0.163 0.85 0 1.044-0.019 1.263-0.119 0.381-0.175 0.731-0.512 0.9-0.881l0.15-0.319 2.694 0.025c2.312 0.019 2.737 0.038 3.056 0.131 0.525 0.156 0.975 0.369 1.412 0.663 0.519 0.35 1.181 0.656 1.781 0.825 0.456 0.125 0.681 0.138 2.519 0.163 1.906 0.019 2.038 0.019 2.438-0.106 1.481-0.463 2.094-2.15 1.263-3.469-0.106-0.163-0.188-0.306-0.175-0.313 0.012-0.012 0.119-0.075 0.237-0.15 1.1-0.663 1.45-2.113 0.781-3.225l-0.206-0.344 0.269-0.156c0.381-0.225 0.819-0.737 0.962-1.137 0.294-0.775 0.212-1.506-0.25-2.175l-0.25-0.369 0.144-0.094c0.306-0.206 0.637-0.613 0.819-1.006 0.25-0.531 0.269-1.212 0.050-1.775-0.2-0.506-0.706-1.038-1.206-1.269l-0.394-0.181-3.219-0.038v-2.975c0-2.881 0.006-2.975 0.125-3.144 0.069-0.1 0.169-0.281 0.219-0.4l0.094-0.219 3.262-0.037 0.15-0.175c0.181-0.213 0.188-0.35 0.019-0.569l-0.125-0.162h-3.244v-6.625h7.637l0.181 0.181c0.206 0.212 0.238 0.462 0.075 0.694-0.056 0.087-0.506 0.612-0.994 1.169s-0.906 1.063-0.925 1.131c-0.025 0.063-0.019 0.181 0.012 0.256 0.025 0.069 0.475 0.625 1 1.225 1.006 1.15 1.1 1.313 0.925 1.644-0.144 0.281-0.356 0.325-1.7 0.325-1.131 0-5.415-0.009-5.534 0.11-0.156 0.156-0.163 0.444-0.006 0.631 0.119 0.15 4.321 0.165 5.684 0.165 1.556 0 1.706-0.031 2.113-0.438 0.481-0.481 0.594-1.237 0.269-1.781-0.081-0.131-0.494-0.638-0.913-1.125-0.7-0.8-0.762-0.894-0.681-0.987 1.231-1.394 1.613-1.875 1.706-2.156 0.231-0.7-0.081-1.45-0.756-1.813-0.25-0.137-0.287-0.137-4.319-0.156l-4.069-0.019-0.087-0.162c-0.288-0.531-1.25-0.881-1.962-0.713zM21.594 1.019c0.112 0.081 0.269 0.225 0.337 0.319 0.131 0.175 0.131 0.231 0.15 3.944l0.012 3.763-0.144 0.269c-0.331 0.637-1.188 0.675-1.587 0.075l-0.144-0.213v-7.65l0.144-0.206c0.288-0.425 0.85-0.556 1.231-0.3zM21.594 13.425v2.706h-0.938v-5.406h0.938v2.7zM19.719 14.756v1.375h-1.019c-0.938 0-1.031 0.012-1.156 0.125-0.2 0.188-0.188 0.512 0.025 0.681 0.163 0.131 0.219 0.131 4.050 0.131 4.387 0 4.169-0.019 4.613 0.5 0.563 0.65 0.394 1.644-0.344 2.069-0.25 0.144-0.325 0.15-1.65 0.181s-1.394 0.038-1.525 0.169c-0.169 0.169-0.181 0.469-0.025 0.644 0.106 0.113 0.194 0.125 1.056 0.125 0.519 0 1.069 0.031 1.225 0.069 1.137 0.256 1.487 1.675 0.594 2.419-0.356 0.288-0.581 0.325-2.056 0.325-0.75 0-1.406 0.025-1.469 0.063-0.181 0.094-0.281 0.4-0.188 0.575 0.15 0.281 0.225 0.294 1.281 0.3 0.981 0 1.019 0.006 1.344 0.175 0.462 0.238 0.694 0.581 0.731 1.069 0.031 0.444-0.063 0.756-0.319 1.044-0.363 0.419-0.413 0.425-2.094 0.463l-1.525 0.031-0.15 0.175c-0.181 0.212-0.188 0.35-0.025 0.563 0.119 0.15 0.137 0.156 1.2 0.181 1.212 0.031 1.413 0.088 1.781 0.513 0.575 0.65 0.369 1.706-0.413 2.112l-0.331 0.175h-1.813c-2.394 0-2.863-0.094-3.962-0.8-0.644-0.413-1.188-0.662-1.806-0.837-0.475-0.131-0.65-0.137-3.2-0.163l-2.706-0.019v-2.181c0-2.031 0.006-7.214-0.106-7.351-0.162-0.2-0.537-0.2-0.7 0-0.113 0.137-0.131 5.326-0.131 7.67 0 2.762-0.006 2.825-0.387 3.056-0.181 0.106-0.313 0.125-1.019 0.125-0.694 0-0.844-0.019-1.013-0.125-0.419-0.25-0.394 0.125-0.394-6.437s-0.025-6.188 0.394-6.438c0.169-0.106 0.319-0.125 1.013-0.125 0.706 0 0.837 0.019 1.019 0.125 0.381 0.231 0.387 0.3 0.387 2.988 0 2.369 0.006 2.438 0.131 2.6 0.162 0.206 0.456 0.219 0.663 0.025l0.144-0.131v-4.075l0.519-0.1c0.863-0.169 1.637-0.563 2.313-1.181 0.494-0.45 0.837-0.956 1.262-1.844 0.325-0.675 0.412-0.8 0.875-1.256 0.387-0.387 0.631-0.569 0.988-0.738 0.712-0.344 1.075-0.4 2.594-0.406l1.325-0.006v1.375zM5.156 24.069v5.125h-1.575c-1.4 0-1.613-0.019-1.837-0.119-0.306-0.144-0.669-0.55-0.762-0.875-0.106-0.338-0.106-7.925 0-8.263 0.094-0.325 0.456-0.731 0.762-0.875 0.225-0.1 0.438-0.119 1.837-0.119h1.575v5.125z"></path>
</symbol>

<symbol id="arrow-ctrl-down" viewBox="0 0 32 32">
<path d="M26.433 11.043c0.127-0.12 0.277-0.214 0.441-0.277s0.338-0.092 0.513-0.087c0.175 0.005 0.347 0.044 0.507 0.116s0.304 0.174 0.424 0.301 0.214 0.277 0.277 0.441c0.062 0.164 0.092 0.338 0.087 0.513s-0.045 0.347-0.116 0.507-0.174 0.304-0.301 0.424l-12 11.333c-0.248 0.234-0.575 0.364-0.916 0.364s-0.668-0.13-0.916-0.364l-12.001-11.333c-0.13-0.12-0.235-0.264-0.309-0.424s-0.115-0.334-0.121-0.51c-0.006-0.177 0.023-0.353 0.085-0.518s0.157-0.316 0.278-0.445c0.121-0.128 0.267-0.232 0.428-0.303s0.336-0.111 0.512-0.114c0.177-0.004 0.352 0.027 0.517 0.092s0.314 0.161 0.441 0.284l11.087 10.469 11.084-10.469z"></path>
</symbol>

<symbol id="arrow-up-right" viewBox="0 0 32 32">
<path d="M8 9.333c0 0.733 0.6 1.333 1.333 1.333h10.12l-11.84 11.84c-0.123 0.123-0.221 0.27-0.288 0.431s-0.101 0.334-0.101 0.509 0.034 0.347 0.101 0.509c0.067 0.161 0.165 0.308 0.288 0.431s0.27 0.221 0.431 0.288c0.161 0.067 0.334 0.101 0.509 0.101s0.347-0.034 0.509-0.101c0.161-0.067 0.308-0.165 0.431-0.288l11.84-11.84v10.12c0 0.733 0.6 1.333 1.333 1.333s1.333-0.6 1.333-1.333v-13.333c0-0.733-0.6-1.333-1.333-1.333h-13.333c-0.733 0-1.333 0.6-1.333 1.333z"></path>
</symbol>

<symbol id="arrow-menu" viewBox="0 0 21 16"  xmlns="http://www.w3.org/2000/svg">
<path d="M12.2055 2.795C12.095 2.69201 12.0063 2.56781 11.9448 2.42981C11.8833 2.29181 11.8503 2.14284 11.8476 1.99179C11.8449 1.84073 11.8727 1.69069 11.9293 1.5506C11.9859 1.41052 12.0701 1.28327 12.1769 1.17644C12.2838 1.06962 12.411 0.985399 12.5511 0.928817C12.6912 0.872236 12.8412 0.844449 12.9923 0.847114C13.1433 0.849779 13.2923 0.882842 13.4303 0.94433C13.5683 1.00582 13.6925 1.09447 13.7955 1.205L19.7955 7.205C20.0062 7.41594 20.1245 7.70188 20.1245 8C20.1245 8.29813 20.0062 8.58406 19.7955 8.795L13.7955 14.795C13.6925 14.9055 13.5683 14.9942 13.4303 15.0557C13.2923 15.1172 13.1433 15.1502 12.9923 15.1529C12.8412 15.1556 12.6912 15.1278 12.5511 15.0712C12.411 15.0146 12.2838 14.9304 12.1769 14.8236C12.0701 14.7167 11.9859 14.5895 11.9293 14.4494C11.8727 14.3093 11.8449 14.1593 11.8476 14.0082C11.8503 13.8572 11.8833 13.7082 11.9448 13.5702C12.0063 13.4322 12.095 13.308 12.2055 13.205L16.2855 9.125L1.7505 9.125C1.45214 9.125 1.16599 9.00647 0.955008 8.7955C0.744028 8.58452 0.625504 8.29837 0.625504 8C0.625504 7.70163 0.744028 7.41549 0.955008 7.20451C1.16599 6.99353 1.45214 6.875 1.7505 6.875L16.2855 6.875L12.2055 2.795Z"/>
</symbol>

<symbol id="globe" viewBox="0 0 18 18" fill="none">
<path d="M17 9C17 11.1217 16.1571 13.1566 14.6569 14.6569C13.1566 16.1571 11.1217 17 9 17M17 9C17 6.87827 16.1571 4.84344 14.6569 3.34315C13.1566 1.84285 11.1217 1 9 1M17 9H1M9 17C6.87827 17 4.84344 16.1571 3.34315 14.6569C1.84285 13.1566 1 11.1217 1 9M9 17C10.7182 17 12.1111 13.4178 12.1111 9C12.1111 4.58222 10.7182 1 9 1M9 17C7.28178 17 5.88889 13.4178 5.88889 9C5.88889 4.58222 7.28178 1 9 1M9 1C6.87827 1 4.84344 1.84285 3.34315 3.34315C1.84285 4.84344 1 6.87827 1 9" stroke="#0E0E0E" stroke-width="1.5" stroke-linejoin="round"></path>
</symbol>

<symbol id="mail" viewBox="0 0 28 22"  xmlns="http://www.w3.org/2000/svg">
<path d="M27.3334 2.99998C27.3334 1.53331 26.1334 0.333313 24.6667 0.333313H3.33341C1.86675 0.333313 0.666748 1.53331 0.666748 2.99998V19C0.666748 20.4666 1.86675 21.6666 3.33341 21.6666H24.6667C26.1334 21.6666 27.3334 20.4666 27.3334 19V2.99998ZM24.6667 2.99998L14.0001 9.66665L3.33341 2.99998H24.6667ZM24.6667 19H3.33341V5.66665L14.0001 12.3333L24.6667 5.66665V19Z"/>
</symbol>

<symbol id="phone" viewBox="0 0 28 28"  xmlns="http://www.w3.org/2000/svg">
<path fill-rule="evenodd" clip-rule="evenodd" d="M8.89592 19.1053C14.0226 24.232 18.7733 24.7933 20.1679 24.8453C21.8533 24.9066 23.5733 23.5306 24.3173 22.1213C23.1306 20.7293 21.5853 19.6493 19.8919 18.4786C18.8946 19.476 17.6653 21.3293 16.0253 20.6653C15.0933 20.2906 12.7919 19.2306 10.7813 17.2186C8.76925 15.208 7.71059 12.9066 7.33325 11.976C6.66925 10.3346 8.52792 9.10132 9.52659 8.10265C8.35592 6.38265 7.29459 4.79731 5.90525 3.67065C4.47592 4.41732 3.09192 6.12398 3.15458 7.83198C3.20658 9.22665 3.76792 13.9773 8.89592 19.1053ZM20.0693 27.5093C18.1493 27.4386 12.7079 26.688 7.00925 20.9893C1.31192 15.292 0.561252 9.85198 0.489252 7.93065C0.382585 5.00265 2.62525 2.15865 5.21592 1.04798C5.52789 0.913271 5.86952 0.861983 6.20729 0.89915C6.54506 0.936316 6.86737 1.06066 7.14259 1.25998C9.28658 2.82398 10.7653 5.19332 12.0359 7.04932C12.3003 7.43525 12.4213 7.90145 12.3782 8.36724C12.3352 8.83303 12.1306 9.2691 11.7999 9.59998L9.99192 11.4093C10.4119 12.336 11.2666 13.9333 12.6666 15.3333C14.0666 16.7333 15.6639 17.588 16.5919 18.008L18.3986 16.2C18.7307 15.8686 19.1686 15.6643 19.6359 15.6227C20.1033 15.581 20.5704 15.7046 20.9559 15.972C22.8493 17.284 25.0732 18.7413 26.6946 20.8173C26.9101 21.0945 27.0472 21.4245 27.0915 21.7728C27.1358 22.1211 27.0858 22.475 26.9466 22.7973C25.8306 25.4013 23.0066 27.6173 20.0693 27.5093Z"/>
</symbol>

<symbol id="chevron-down" viewBox="0 0 32 32">
<path fill="#f5f5f5" d="M0 0h32v32h-32v-32z"></path>
<path fill="#f1f1f1" d="M-1476.571-2955.429h1645.714v4520h-1645.714v-4520z"></path>
<path fill="#0e0e0e" d="M11.057 7.057c-0.521 0.521-0.521 1.365 0 1.886l7.057 7.057-7.057 7.057c-0.521 0.521-0.521 1.365 0 1.886s1.365 0.521 1.886 0l8-8c0.521-0.521 0.521-1.365 0-1.886l-8-8c-0.521-0.521-1.365-0.521-1.886 0z"></path>
</symbol>


<!-- <symbol id="facebook" viewBox="0 0 32 32">
<path d="M4.719 2c-0.721 0-1.412 0.287-1.922 0.797s-0.797 1.201-0.797 1.922v22.563c0 0.721 0.287 1.412 0.797 1.922s1.201 0.797 1.922 0.797h11.814c0.368 0 0.667-0.299 0.667-0.667v0-9.724c0-0.368-0.299-0.667-0.667-0.667h-1.313c-0.007 0.001-0.011 0.002-0.014 0.002l0.004-0.001c-0.078 0.001-0.156-0.013-0.227-0.042s-0.137-0.072-0.193-0.127c-0.055-0.054-0.098-0.119-0.128-0.191s-0.047-0.148-0.047-0.226v-1.58c0-0.078 0.017-0.154 0.047-0.226s0.073-0.136 0.128-0.191c0.055-0.055 0.121-0.098 0.193-0.127s0.15-0.043 0.227-0.042c0.002 0 0.003 0 0.005 0s0.004 0 0.005 0h1.312c0.368 0 0.667-0.299 0.667-0.667v0-2.399c0-0.029-0.002-0.057-0.006-0.085v0.003c-0.072-0.588-0.014-1.184 0.167-1.748s0.483-1.081 0.884-1.517c0.401-0.436 0.891-0.781 1.438-1.009s1.137-0.333 1.729-0.311c0.004 0 0.008 0 0.012 0s0.009 0 0.013 0h2.338c0.080 0.003 0.157 0.019 0.229 0.052s0.139 0.081 0.193 0.139c0.054 0.058 0.097 0.125 0.125 0.2s0.041 0.153 0.038 0.233c0 0.003 0 0.007 0 0.011s0 0.008 0 0.012v-0.001 1.517c0 0.002 0 0.004 0 0.006s0 0.004 0 0.006v0c0.001 0.072-0.014 0.143-0.042 0.21s-0.069 0.127-0.122 0.177c-0.011 0.011-0.022 0.022-0.032 0.034l-0.001 0.001c-0.046 0.050-0.103 0.090-0.165 0.116s-0.129 0.038-0.196 0.035c-0.004 0-0.009 0-0.014 0s-0.010 0-0.015 0h-1.005c-0.39 0-0.947-0.038-1.467 0.345s-0.759 1.083-0.759 2.045v1.927c0 0.368 0.299 0.667 0.667 0.667h1.375c0.155 0 0.303 0.062 0.413 0.172s0.17 0.258 0.17 0.413v1.58c0 0.155-0.060 0.303-0.17 0.413s-0.258 0.17-0.413 0.17h-1.457c-0.368 0-0.667 0.299-0.667 0.667v0 9.724c0 0.368 0.299 0.667 0.667 0.667h6.153c0.721 0 1.412-0.287 1.922-0.797s0.797-1.201 0.797-1.922v-22.563c0-0.721-0.287-1.412-0.797-1.922s-1.201-0.797-1.922-0.797zM4.719 3.333h22.563c0.367 0 0.719 0.146 0.979 0.406s0.406 0.612 0.406 0.979v22.563c0 0.367-0.146 0.719-0.406 0.979s-0.612 0.406-0.979 0.406h-5.486v-8.391h0.79c0.508 0 0.996-0.201 1.356-0.561s0.561-0.847 0.561-1.356v-1.58c0-0.508-0.201-0.996-0.561-1.356s-0.848-0.563-1.356-0.563h-0.708v-1.26c0-0.761 0.153-0.925 0.217-0.972s0.286-0.085 0.675-0.085h0.977c0.263 0.011 0.525-0.037 0.767-0.139 0.236-0.099 0.444-0.249 0.618-0.436 0.177-0.173 0.321-0.378 0.417-0.606 0.099-0.237 0.149-0.491 0.144-0.748v-1.484c0.008-0.255-0.035-0.51-0.125-0.748s-0.225-0.457-0.399-0.642c-0.174-0.186-0.383-0.334-0.615-0.439s-0.483-0.164-0.738-0.172c-0.003 0-0.007 0-0.010 0s-0.007 0-0.011 0h-2.333c-0.785-0.029-1.567 0.111-2.292 0.413s-1.377 0.759-1.908 1.337c-0.531 0.578-0.93 1.264-1.17 2.012s-0.316 1.538-0.22 2.318l-0.005-0.080v1.733h-0.635c-0.254-0.004-0.506 0.042-0.743 0.137s-0.452 0.235-0.634 0.413c-0.181 0.178-0.325 0.392-0.424 0.627s-0.149 0.487-0.149 0.741v1.58c0 0.254 0.051 0.506 0.149 0.741s0.242 0.447 0.424 0.625c0.181 0.178 0.397 0.32 0.634 0.415s0.489 0.14 0.743 0.135h0.635v8.391h-11.148c-0.367 0-0.719-0.146-0.979-0.406s-0.406-0.612-0.406-0.979v-22.563c0-0.367 0.146-0.719 0.406-0.979s0.612-0.406 0.979-0.406z"></path>
</symbol> -->

<!-- <symbol id="instagram" viewBox="0 0 32 32">
<path d="M25.796 29.6h-19.591c-1.009 0-1.977-0.401-2.69-1.114s-1.114-1.681-1.114-2.69v-19.591c0-1.009 0.401-1.977 1.114-2.69s1.681-1.114 2.69-1.114h19.591c1.009 0 1.977 0.401 2.69 1.114s1.114 1.681 1.114 2.69v19.591c0 1.009-0.401 1.977-1.114 2.69s-1.681 1.114-2.69 1.114zM6.204 3.922c-0.605 0-1.186 0.241-1.614 0.669s-0.669 1.009-0.669 1.614v19.591c0 0.605 0.24 1.186 0.669 1.614s1.009 0.669 1.614 0.669h19.591c0.605 0 1.186-0.24 1.614-0.669s0.669-1.009 0.669-1.614v-19.591c0-0.605-0.24-1.186-0.669-1.614s-1.009-0.669-1.614-0.669h-19.591z"></path>
<path d="M16 22.991c-1.383-0.002-2.734-0.413-3.883-1.182s-2.044-1.862-2.572-3.14c-0.528-1.278-0.665-2.684-0.394-4.040s0.937-2.601 1.916-3.578c0.978-0.977 2.224-1.642 3.581-1.911s2.762-0.13 4.039 0.4c1.277 0.53 2.369 1.426 3.137 2.576s1.177 2.502 1.177 3.884c-0.002 1.855-0.741 3.633-2.054 4.944s-3.092 2.047-4.947 2.047zM16 10.522c-1.081 0.002-2.138 0.323-3.036 0.925s-1.599 1.456-2.012 2.456c-0.413 0.999-0.521 2.099-0.309 3.159s0.732 2.035 1.497 2.799 1.739 1.286 2.799 1.497c1.060 0.211 2.16 0.104 3.159-0.31s1.854-1.113 2.456-2.012c0.602-0.898 0.924-1.955 0.925-3.037 0-1.453-0.577-2.846-1.605-3.874s-2.421-1.605-3.874-1.605z"></path>
<path d="M23.913 9.768c0.903 0 1.636-0.732 1.636-1.636s-0.732-1.636-1.636-1.636c-0.904 0-1.636 0.732-1.636 1.636s0.732 1.636 1.636 1.636z"></path>
</symbol> -->


<symbol id="instagram" enable-background="new 0 0 512 512" viewBox="0 0 512 512"><path fill="none" d="M401.7 101.9c-7.8 0-14.1 6.3-14.1 14.1s6.3 14.1 14.1 14.1 14.1-6.3 14.1-14.1S409.5 101.9 401.7 101.9zM256 153c-56.8 0-103 46.2-103 103s46.2 103 103 103 103-46.2 103-103S312.8 153 256 153z"></path><path fill="none" d="M399.5,29.5h-287C64.8,29.5,26,68.3,26,116v280c0,47.7,38.8,86.5,86.5,86.5h287c47.7,0,86.5-38.8,86.5-86.5
		V116C486,68.3,447.2,29.5,399.5,29.5z M256,379c-67.8,0-123-55.2-123-123s55.2-123,123-123s123,55.2,123,123S323.8,379,256,379z M401.7,150.1c-18.8,0-34.1-15.3-34.1-34.1s15.3-34.1,34.1-34.1s34.1,15.3,34.1,34.1S420.5,150.1,401.7,150.1z"></path><path fill="#231f20" d="M399.5,9.5h-287C53.8,9.5,6,57.3,6,116v280c0,58.7,47.8,106.5,106.5,106.5h287c58.7,0,106.5-47.8,106.5-106.5 V116C506,57.3,458.2,9.5,399.5,9.5z M486,396c0,47.7-38.8,86.5-86.5,86.5h-287C64.8,482.5,26,443.7,26,396V116c0-47.7,38.8-86.5,86.5-86.5h287c47.7,0,86.5,38.8,86.5,86.5V396z"></path><path fill="#231f20" d="M256 133c-67.8 0-123 55.2-123 123s55.2 123 123 123 123-55.2 123-123S323.8 133 256 133zM256 359c-56.8 0-103-46.2-103-103s46.2-103 103-103 103 46.2 103 103S312.8 359 256 359zM401.7 81.9c-18.8 0-34.1 15.3-34.1 34.1s15.3 34.1 34.1 34.1 34.1-15.3 34.1-34.1S420.5 81.9 401.7 81.9zM401.7 130.1c-7.8 0-14.1-6.3-14.1-14.1s6.3-14.1 14.1-14.1 14.1 6.3 14.1 14.1S409.5 130.1 401.7 130.1z"></path>
</symbol>
<symbol id="facebook" viewBox="0 0 35 35" fill="none">
<path d="M1 31.4615V3.53846C1 2.86522 1.26744 2.21955 1.7435 1.7435C2.21955 1.26744 2.86522 1 3.53846 1H31.4615C32.1348 1 32.7804 1.26744 33.2565 1.7435C33.7326 2.21955 34 2.86522 34 3.53846V31.4615C34 32.1348 33.7326 32.7804 33.2565 33.2565C32.7804 33.7326 32.1348 34 31.4615 34H23.8462V21.9677H25.6485C26.0591 21.9677 26.453 21.8046 26.7434 21.5142C27.0338 21.2238 27.1969 20.8299 27.1969 20.4192V18.4646C27.1969 18.0539 27.0338 17.6601 26.7434 17.3697C26.453 17.0793 26.0591 16.9162 25.6485 16.9162H23.9477V14.53C23.9477 12.3977 24.9123 12.3977 25.8769 12.3977H27.1208C27.3251 12.4061 27.5287 12.3695 27.7173 12.2906C27.906 12.2116 28.0749 12.0922 28.2123 11.9408C28.3598 11.8003 28.4766 11.6308 28.5553 11.4429C28.6339 11.255 28.6727 11.0529 28.6692 10.8492V8.97077C28.676 8.76406 28.642 8.55805 28.5691 8.3645C28.4962 8.17095 28.3859 7.99367 28.2444 7.84279C28.103 7.69191 27.9332 7.57039 27.7447 7.48517C27.5563 7.39995 27.3529 7.35271 27.1462 7.34615H24.2269C23.3751 7.31413 22.5265 7.46739 21.7398 7.79535C20.953 8.12331 20.2468 8.61815 19.6699 9.24569C19.0931 9.87323 18.6593 10.6185 18.3986 11.4301C18.1379 12.2416 18.0565 13.1001 18.16 13.9462V16.9162H16.5354C16.3299 16.9128 16.1258 16.9503 15.935 17.0267C15.7442 17.103 15.5705 17.2165 15.424 17.3606C15.2775 17.5047 15.1612 17.6766 15.0818 17.8661C15.0024 18.0557 14.9615 18.2591 14.9615 18.4646V20.4192C14.9615 20.6247 15.0024 20.8282 15.0818 21.0177C15.1612 21.2073 15.2775 21.3791 15.424 21.5232C15.5705 21.6674 15.7442 21.7809 15.935 21.8572C16.1258 21.9335 16.3299 21.9711 16.5354 21.9677H18.16V34H3.53846C2.86522 34 2.21955 33.7326 1.7435 33.2565C1.26744 32.7804 1 32.1348 1 31.4615Z" stroke="#0E0E0E" stroke-width="1.4" stroke-linecap="round" stroke-linejoin="round"/>
</symbol>

<symbol id="telegram" viewBox="0 0 256 256"><rect fill="none"/><path d="M88,134.9,177.9,214a8,8,0,0,0,13.1-4.2L228.6,45.6a8,8,0,0,0-10.7-9.2L33.3,108.9c-7.4,2.9-6.4,13.7,1.4,15.3Z" fill="none" stroke="#000" stroke-linecap="round" stroke-linejoin="round" stroke-width="8"/><line fill="none" stroke="#000" stroke-linecap="round" stroke-linejoin="round" stroke-width="8" x1="88" x2="224.1" y1="134.9" y2="36.6"/><path d="M132.9,174.4l-31.2,31.2A8,8,0,0,1,88,200V134.9" fill="none" stroke="#000" stroke-linecap="round" stroke-linejoin="round" stroke-width="8"/></symbol>
<symbol id="linkedin" viewBox="0 0 60 60" ><title/><desc/><defs/><g fill="none" fill-rule="evenodd" stroke="none" stroke-linejoin="round" stroke-width="2"><g id="Linkedin" stroke="#000000" stroke-width="2" transform="translate(1.000000, 1.000000)"><path d="M51,33.6902 L51,49.0002 L41.146,49.0002 L41.146,34.7492 C41.146,31.0202 39.606,28.4772 36.217,28.4772 C33.623,28.4772 32.179,30.1942 31.511,31.8462 C31.257,32.4442 31.298,33.2702 31.298,34.1002 L31.298,49.0002 L21.535,49.0002 C21.535,49.0002 21.662,23.7602 21.535,21.4652 L31.298,21.4652 L31.298,25.7872 C31.875,23.8972 34.996,21.2022 39.971,21.2022 C46.147,21.2022 51,25.1592 51,33.6902 L51,33.6902 Z" id="Stroke-18"/><polygon id="Stroke-19" points="7.543 49 16.231 49 16.231 21.466 7.543 21.466"/><path d="M16.7815,13.3799 C16.7815,15.7979 14.9335,17.7149 11.9735,17.7149 L11.9135,17.7149 C9.0595,17.7149 7.2115,15.8069 7.2115,13.3849 C7.2115,10.9159 9.1145,9.0499 12.0285,9.0499 C14.9335,9.0499 16.7215,10.9119 16.7815,13.3799 L16.7815,13.3799 Z" id="Stroke-20"/><path d="M54,58 L4,58 C1.791,58 0,56.209 0,54 L0,4 C0,1.791 1.791,0 4,0 L54,0 C56.209,0 58,1.791 58,4 L58,54 C58,56.209 56.209,58 54,58 L54,58 Z" id="Stroke-103"/></g></g></symbol>

</defs>
</svg>